<?xml version="1.0" encoding="utf-8" ?>
<svg baseProfile="full" height="200mm" version="1.1" viewBox="0,0,200,200" width="200mm" xmlns="http://www.w3.org/2000/svg" xmlns:ev="http://www.w3.org/2001/xml-events" xmlns:xlink="http://www.w3.org/1999/xlink"><defs /><rect fill="#1a1a1a" height="200" width="200" x="0" y="0" /><text alignment-baseline="middle" fill="#e1ed5e" style="dominant-baseline: central; font-size:9.0px; font-family:Arial;" text-anchor="middle" x="100.0" y="100.0">2023</text><line stroke="#e1ed5e" stroke-width="0.3" x1="100.0" x2="100.0" y1="15.0" y2="10.0" /><path d="M 100.0 14.0 a86.0,86.0 0 0,1 42.46469731375804,11.215312516191453" fill="none" id="id85" stroke="none" /><text fill="#e1ed5e" style="font-size:6.75px; font-family:Arial;" text-anchor="middle"><textPath startOffset="22.20632615414155" xlink:href="#id85">January</textPath></text><path d="M 103.95276090670814 79.375362276772 l 2.0708210818266872 -10.805089306013073 a32.00173872003221,32.00173872003221 0 0,0 0.540118626563616,0.10834271531643394 l -2.2565061178574286 10.76784263461943" fill="#ff860c" stroke="none" /><path d="M 104.66035177308747 79.52364482259891 l 5.3853797962307395 -23.661936875585873 a45.267047044373996,45.267047044373996 0 0,0 0.7582797576839944,0.17946031960741643 l -5.791883240877257 23.565730643837586" fill="#d1ff1c" stroke="none" /><path d="M 110.05341064243156 81.56283822128135 l 5.660836103085426 -10.381526702479745 a32.82459986892983,32.82459986892983 0 0,0 0.4937381135449604,0.2747647256288572 l -5.8386983057024215 10.282546579290708" fill="#ff910d" stroke="none" /><line stroke="#e1ed5e" stroke-width="0.3" x1="143.23703022742887" x2="145.7803849466894" y1="26.81831364943548" y2="22.513508569990506" /><path d="M 143.74570117128098 25.957352633546492 a86.0,86.0 0 0,1 28.547481713284135,27.462654790039103" fill="none" id="id86" stroke="none" /><text fill="#e1ed5e" style="font-size:6.75px; font-family:Arial;" text-anchor="middle"><textPath startOffset="19.985693538727396" xlink:href="#id86">February</textPath></text><path d="M 111.2981086023043 82.29822771554956 l 3.8984794213757623 -6.10810157717328 a28.246174623617417,28.246174623617417 0 0,0 0.40759630030530364,0.2651119717472777 l -4.003042747465346 6.0400906812664745" fill="#ff5207" stroke="none" /><path d="M 113.06298171725822 83.55741782278167 l 8.822618599153992 -11.105169897251624 a35.183208289839136,35.183208289839136 0 0,0 0.4709466798986382,0.3808061296650745 l -9.012468677617122 10.95165767032242" fill="#ffb010" stroke="none" /><path d="M 113.34407831869373 83.78471172551755 l 9.042178587191689 -10.987760182377189 a35.22996371843939,35.22996371843939 0 0,0 0.4649389960842488,0.38937303829083425 l -9.229975120235055 10.830485986692535" fill="#ffb110" stroke="none" /><path d="M 113.89432698308785 84.25364557470407 l 2.95386844704877 -3.347600754577288 a25.46450104877541,25.46450104877541 0 0,0 0.3261748089748083,0.2928429640225965 l -3.011054243619568 3.296258781785394" fill="#ff2b04" stroke="none" /><path d="M 114.42810811169701 84.74124197986012 l 9.598299475176658 -10.150889358655496 a34.970250806153835,34.970250806153835 0 0,0 0.43382553857521017,0.4173398243898284 l -9.771608257364287 9.984166447503366" fill="#ffad10" stroke="none" /><path d="M 115.68641384162765 86.03803664274999 l 1.5375477422685626 -1.3685209031402603 a23.058373756655236,23.058373756655236 0 0,0 0.26133716984509353,0.2987535618306707 l -1.5608767756915043 1.3418517851066416" fill="#ff0801" stroke="none" /><path d="M 116.15771136456269 86.58626213691792 l 13.118970586634672 -10.89104938887267 a38.050581985488044,38.050581985488044 0 0,0 0.41402930290734524,0.5075509699885724 l -13.304498381618426 10.663614249275996" fill="#ffd513" stroke="none" /><path d="M 116.60985879189232 87.15038557335679 l 5.421964059983416 -4.194505713673593 a27.855039930576062,27.855039930576062 0 0,0 0.29012225803976305,0.3817668838315004 l -5.493362258247292 4.1005540539610585" fill="#ff4d07" stroke="none" /><path d="M 117.65298651832404 88.62581576622439 l 17.774385818440866 -11.452404313077595 a42.14441665719322,42.14441665719322 0 0,0 0.3876732509753333,0.61320598311038 l -17.968886665662154 11.14475068225301" fill="#f6ff19" stroke="none" /><line stroke="#e1ed5e" stroke-width="0.3" x1="172.23445277983987" x2="176.4835382374775" y1="55.19839476539836" y2="52.563006222186495" /><path d="M 173.08426987136738 54.67131705675599 a86.0,86.0 0 0,1 12.851231095245387,41.99856678651699" fill="none" id="id87" stroke="none" /><text fill="#e1ed5e" style="font-size:6.75px; font-family:Arial;" text-anchor="middle"><textPath startOffset="22.20632615414155" xlink:href="#id87">March</textPath></text><path d="M 118.21658344932153 89.55222093294921 l 12.664233021245321 -7.263332832290691 a35.599274017876105,35.599274017876105 0 0,0 0.3002923508477895,0.5341865846372669 l -12.787383013385544 7.04426273771863" fill="#ffb510" stroke="none" /><path d="M 118.89224826269711 90.83032412892265 l 19.47888244028519 -9.4544088043196 a42.65208320142999,42.65208320142999 0 0,0 0.3148979055219712,0.6632552980075078 l -19.63873853964892 9.117711090671552" fill="#f0ff19" stroke="none" /><path d="M 119.61058180528143 92.48833698450437 l 13.542187590395708 -5.187217323877839 a35.501657432811115,35.501657432811115 0 0,0 0.2136784095283093,0.5725519033144629 l -13.629470588425642 4.953342283534043" fill="#ffb410" stroke="none" /><path d="M 119.7369772167798 92.82701384747503 l 13.29857103414368 -4.833083852130308 a35.14958271723545,35.14958271723545 0 0,0 0.20177018606588076,0.5704314866737089 l -13.37979430101937 4.603454739029985" fill="#ffb010" stroke="none" /><path d="M 119.85752413597 93.16781622104841 l 14.928166354220819 -5.136187941479049 a36.78703826781595,36.78703826781595 0 0,0 0.20086196961472538,0.6005517229539731 l -15.014365617607314 4.878463115602762" fill="#ffc512" stroke="none" /><path d="M 119.97218684219823 93.5106431181261 l 17.828409771702916 -5.792801487337491 a39.74589939318601,39.74589939318601 0 0,0 0.20581660008140762,0.652494866715865 l -17.92548185555253 5.485056454195207" fill="#ffea16" stroke="none" /><path d="M 120.08093135843002 93.85539295169968 l 22.646427121705873 -6.929628572851849 a44.68291395788154,44.68291395788154 0 0,0 0.21872095498740138,0.7374183282064307 l -22.762353973804977 6.538780857898888" fill="#d8ff1c" stroke="none" /><path d="M 120.18372546131832 94.20196356495316 l 27.742925446002022 -7.969514491216313 a49.864910765982515,49.864910765982515 0 0,0 0.22988490698451886,0.8270183226578249 l -27.875997123552903 7.490784865139536" fill="#9cff22" stroke="none" /><path d="M 120.37134235888165 94.90015583598534 l 36.10873230274213 -9.03960595526588 a58.223044264777315,58.223044264777315 0 0,0 0.23501925821978714,0.9743065529709934 l -36.25898436122274 8.416714170635482" fill="#44ff2d" stroke="none" /><path d="M 120.53481517161879 95.60439243477599 l 14.159774501184138 -3.0309896339020517 a35.48054253421488,35.48054253421488 0 0,0 0.12269628476917069,0.5983106592330953 l -14.209850081868305 2.7868033185055445" fill="#ffb410" stroke="none" /><path d="M 120.67395015179393 96.31383870115 l 13.823218913178515 -2.4646772488647226 a35.04122555415757,35.04122555415757 0 0,0 0.10076544672693176,0.5947233705872375 l -13.86359622142567 2.2263680899616474" fill="#ffae10" stroke="none" /><path d="M 120.78858239683441 97.02765380044208 l 45.565245703289 -6.514907188607389 a67.0286392551123,67.0286392551123 0 0,0 0.15347643586165607,1.1435777143557693 l -45.67063813820849 5.729611132186956" fill="#38ff7e" stroke="none" /><path d="M 120.91429891909075 98.10471618934814 l 13.396613839891495 -1.2140203899029332 a34.451509501995396,34.451509501995396 0 0,0 0.04843802863066645,0.5910666383215836 l -13.415526352341656 0.983239834373581" fill="#ffa60f" stroke="none" /><path d="M 120.98425023603335 99.18683210126433 l 14.806834648339045 -0.5737847424846736 a35.81794794274706,35.81794794274706 0 0,0 0.018571274341544253,0.6162901833186597 l -14.814517617136234 0.3188244117410149" fill="#ffb811" stroke="none" /><line stroke="#e1ed5e" stroke-width="0.3" x1="184.98032266829074" x2="189.97916517819016" y1="98.17113171792111" y2="98.06355123074" /><path d="M 185.9800911702706 98.14961562048488 a86.0,86.0 0 0,1 -9.607161424134198,41.387399972396054" fill="none" id="id88" stroke="none" /><text fill="#e1ed5e" style="font-size:6.75px; font-family:Arial;" text-anchor="middle"><textPath startOffset="21.466115282336823" xlink:href="#id88">April</textPath></text><path d="M 120.99980553446 99.90962569577887 l 61.086942905363536 -0.26289243264700024 a82.08750859180859,82.08750859180859 0 0,0 -0.006081131410201015,1.4130407768482096 l -61.082417476663835 -0.788657822404894" fill="#4be4ff" stroke="none" /><path d="M 120.95626037817324 101.35467743843564 l 7.555617656787391 0.4884184767887518 a28.57138763926574,28.57138763926574 0 0,0 -0.03595020881736219,0.4905120367390202 l -7.546090889305692 -0.6184036500245422" fill="#ff5708" stroke="none" /><path d="M 120.8583938346157 102.4346265915055 l 48.09932825349467 5.614233987909927 a69.42587120236902,69.42587120236902 0 0,0 -0.14876473444425312,1.1858013044485618 l -47.99556200980357 -6.441353046645884" fill="#3bff99" stroke="none" /><path d="M 120.76222939487914 103.15116336523771 l 14.841359453242347 2.252530174380813 a36.01132381260367,36.01132381260367 0 0,0 -0.09829075733647621,0.6120566397600921 l -14.800386941544582 -2.50766604383411" fill="#ffbb11" stroke="none" /><path d="M 120.49622156327973 104.57218783832717 l 9.805350789811927 2.1873253805974144 a31.04635737129986,31.04635737129986 0 0,0 -0.12084341340227904,0.5205902621710523 l -9.766246810479096 -2.3557843001170315" fill="#ff790b" stroke="none" /><line stroke="#e1ed5e" stroke-width="0.3" x1="174.80103733775053" x2="179.2010983576182" y1="140.37084112569926" y2="142.7455964860345" /><path d="M 175.68104954172406 140.8457921977663 a86.0,86.0 0 0,1 -30.038265399797805,32.042727171017184" fill="none" id="id89" stroke="none" /><text fill="#e1ed5e" style="font-size:6.75px; font-family:Arial;" text-anchor="middle"><textPath startOffset="22.206326154141568" xlink:href="#id89">May</textPath></text><path d="M 118.48025628344425 109.97397251340804 l 7.131289926494066 3.8488259373175318 a29.103626170516748,29.103626170516748 0 0,0 -0.24173137974488304,0.43881266986260914 l -7.063982137297674 -3.971009125577946" fill="#ff5e08" stroke="none" /><path d="M 118.30583269289576 110.29060199501025 l 14.685227020556985 8.255282838544108 a37.84653042586686,37.84653042586686 0 0,0 -0.3241249023643042,0.5651390878414904 l -14.540950122040302 -8.506841772243915" fill="#ffd213" stroke="none" /><path d="M 117.55443506779139 111.5257021239791 l 14.143527298535835 9.286204995818219 a37.919603058842355,37.919603058842355 0 0,0 -0.3629391647088303,0.5425448070071761 l -13.981585028416283 -9.528286717031202" fill="#ffd313" stroke="none" /><path d="M 117.14729908036423 112.12312394758627 l 17.805012927235133 12.588127004352822 a42.805490749275215,42.805490749275215 0 0,0 -0.43054212588219637,0.5979853565718966 l -17.58569100897733 -12.89274596637585" fill="#eeff19" stroke="none" /><path d="M 116.93607887273984 112.41649034213515 l 17.639190768063077 12.931968695969056 a42.87182811988164,42.87182811988164 0 0,0 -0.4414547527194733,0.5914007827723853 l -17.41397474864851 -13.233682358250757" fill="#edff19" stroke="none" /><path d="M 116.498646956653 112.99209946851258 l 17.82861886556164 14.039405188567445 a43.69283033696403,43.69283033696403 0 0,0 -0.47038887194351653,0.5868824433450186 l -17.584312081563272 -14.344215465490715" fill="#e4ff1b" stroke="none" /><path d="M 116.0416608686014 113.55231037782055 l 15.24236304597812 12.877047868206654 a40.95364610855582,40.95364610855582 0 0,0 -0.4595730221842242,0.5345872510090249 l -15.018447514223116 -13.137512218377207" fill="#fff917" stroke="none" /><path d="M 115.80600337817218 113.82643327865902 l 25.99835565347477 22.742278436687606 a55.541652033109095,55.541652033109095 0 0,0 -0.6356640258128167,0.7141752716287703 l -25.603032778013617 -23.18642787805724" fill="#5fff29" stroke="none" /><path d="M 115.56566222782051 114.09645910891815 l 11.72896054871824 10.621893906294227 a36.82381577591067,36.82381577591067 0 0,0 -0.429529806933958,0.4661697722596506 l -11.54438433378856 -10.822214933355212" fill="#ffc512" stroke="none" /><path d="M 115.32070863581623 114.36230785411682 l 11.475939599930594 10.758051821711465 a36.72999900508212,36.72999900508212 0 0,0 -0.43637591045834007,0.4575383975076703 l -11.28905713809329 -10.953997335801642" fill="#ffc412" stroke="none" /><path d="M 114.81725581225074 114.88116024355365 l 5.7600666279205575 5.784908865024936 a29.16354935887131,29.16354935887131 0 0,0 -0.3587811602740609,0.3511428787525287 l -5.659635515270702 -5.883201846700037" fill="#ff5f08" stroke="none" /><path d="M 114.29624159901734 115.38237550388516 l 23.45535779719441 25.237340787471357 a55.453986408213694,55.453986408213694 0 0,0 -0.7047949502957447,0.6438134765681816 l -23.017463297431803 -25.63734703062612" fill="#60ff29" stroke="none" /><path d="M 113.48314897796784 116.09983520530334 l 10.773290153679719 12.864071766661027 a37.77939579225598,37.77939579225598 0 0,0 -0.5021598995786499,0.4132434104813226 l -10.550260125556377 -13.04761029599953" fill="#ffd213" stroke="none" /><path d="M 113.20401910651253 116.32954008644616 l 8.758476349829149 10.831693706061362 a34.92969836401513,34.92969836401513 0 0,0 -0.4707899715989277,0.3740240264808398 l -8.57072888551287 -10.980851646547327" fill="#ffad10" stroke="none" /><path d="M 112.63410532772338 116.77436683061366 l 13.774099848891659 18.287943438290437 a43.89486190937494,43.89486190937494 0 0,0 -0.6074526948698111,0.44937898152177513 l -13.457262183603284 -18.522332368551982" fill="#e1ff1b" stroke="none" /><path d="M 112.34349029814194 116.9893568818739 l 9.614763419642365 13.233586540403342 a37.3576125500648,37.3576125500648 0 0,0 -0.523491641442553,0.3734973866041197 l -9.385544450350928 -13.397128188851681" fill="#ffcc13" stroke="none" /><path d="M 112.04921762599082 117.19931262002967 l 5.511470759782435 7.867192006655751 a30.605676447055924,30.605676447055924 0 0,0 -0.4340804772007229,0.29856451037577175 l -5.375233397958829 -7.960897306396617" fill="#ff730a" stroke="none" /><path d="M 111.7513745106137 117.40417183066458 l 8.249744233511343 12.218142317682576 a35.7424991644395,35.7424991644395 0 0,0 -0.5128628251672054,0.3398975149657365 l -8.038206709604173 -12.35833785373963" fill="#ffb711" stroke="none" /><path d="M 111.45004920935366 117.60387380957326 l 9.07508907765264 13.952492256812892 a37.64419664458919,37.64419664458919 0 0,0 -0.5462319888062002,0.34863109932818026 l -8.833575286799508 -14.106637784964882" fill="#ffd013" stroke="none" /><line stroke="#e1ed5e" stroke-width="0.3" x1="143.8653032363475" x2="146.44561519142675" y1="172.8068346515853" y2="177.08958963109032" /><path d="M 144.38136562736335 173.6633856474863 a86.0,86.0 0 0,1 -40.68145358897372,12.25698825130547" fill="none" id="id90" stroke="none" /><text fill="#e1ed5e" style="font-size:6.75px; font-family:Arial;" text-anchor="middle"><textPath startOffset="21.466115282336833" xlink:href="#id90">June</textPath></text><path d="M 110.5260780823613 118.17145234162733 l 9.712672367540025 16.767248129419333 a40.377218953004885,40.377218953004885 0 0,0 -0.6044108841033246,0.34320027414897614 l -9.422612716515502 -16.931951569362937" fill="#fff216" stroke="none" /><path d="M 110.21172684928248 118.3499491758327 l 10.549150342566477 18.956281879779645 a42.69389765938183,42.69389765938183 0 0,0 -0.6452413899762993,0.35183705251274666 l -10.22128614072153 -19.13505958405216" fill="#f0ff19" stroke="none" /><path d="M 109.57404056367764 118.69057910512821 l 4.2590096359716405 8.314499607682208 a30.34184493584896,30.34184493584896 0 0,0 -0.46689755355786733,0.2341121259881317 l -4.115258174731013 -8.386579574579642" fill="#ff6f0a" stroke="none" /><path d="M 109.2508944713604 118.85261126421891 l 5.2061829994750255 10.609800442902936 a32.81829966036765,32.81829966036765 0 0,0 -0.5092889579564801,0.24448964925811711 l -5.022781373518312 -10.697844368660613" fill="#ff910d" stroke="none" /><path d="M 108.92500713936063 119.00905698771935 l 3.9865935835503574 8.490904649518733 a30.380212693090904,30.380212693090904 0 0,0 -0.47527962690824943,0.21817756571995142 l -3.839845960874688 -8.558269285572758" fill="#ff700a" stroke="none" /><path d="M 108.59647513512805 119.15986991738527 l 11.332146271580559 25.257148428317056 a48.68286628675824,48.68286628675824 0 0,0 -0.7675185964736524,0.3364575974016665 l -10.895707000449152 -25.44847057901318" fill="#aaff21" stroke="none" /><path d="M 107.93186726928326 119.44442032107085 l 5.718170851564589 14.017697690945411 a36.13913228829246,36.13913228829246 0 0,0 -0.5780177555129675,0.23000519384556242 l -5.476032020009756 -14.114049729197044" fill="#ffbd11" stroke="none" /><path d="M 107.2578585660854 119.70592522655815 l 5.775364624377787 15.680782755385337 a37.71052914680156,37.71052914680156 0 0,0 -0.6110550203313727,0.21910258999454824 l -5.5045900434166795 -15.777872886419845" fill="#ffd113" stroke="none" /><path d="M 105.53697534728816 120.25689768951611 l 3.9419536883321697 14.421547424888645 a35.95058624299622,35.95058624299622 0 0,0 -0.598336832307461,0.1580261956112437 l -3.693126413213211 -14.487264969803473" fill="#ffba11" stroke="none" /><path d="M 105.18746579009965 120.34920634021253 l 4.440761000889936 17.420059345189827 a38.97717513562574,38.97717513562574 0 0,0 -0.6515623476833334,0.16013817262740324 l -4.1402453684633915 -17.49391877613126" fill="#ffe115" stroke="none" /><path d="M 104.83641907484287 120.43548508189849 l 2.6420318867180366 11.163466682977786 a32.47184906073951,32.47184906073951 0 0,0 -0.5450320240889045,0.12404751421071065 l -2.4494797132362702 -11.207290930766181" fill="#ff8c0c" stroke="none" /><path d="M 104.13013068566511 120.58985236759428 l 2.8364787078070193 14.14063676974572 a35.42231672491376,35.42231672491376 0 0,0 -0.5988604573448927,0.11477303195004987 l -2.5926506358904224 -14.187367000044238" fill="#ffb310" stroke="none" /><path d="M 103.7750983002368 120.6578951692458 l 1.9920929991134249 10.901026958819093 a32.08155328796543,32.08155328796543 0 0,0 -0.5440894381087202,0.09459692299261463 l -1.8041545895326545 -10.933702460332714" fill="#ff870c" stroke="none" /><path d="M 103.06178313531738 120.77559828337769 l 4.284535892937706 29.072534731680058 a50.38655344783758,50.38655344783758 0 0,0 -0.8591421037289174,0.1190692670561497 l -3.783465198021958 -29.141978564228808" fill="#97ff23" stroke="none" /><path d="M 102.70371172650421 120.8252237178851 l 1.8627224784242042 14.34754007139417 a35.46795220934491,35.46795220934491 0 0,0 -0.6061178765932427,0.07339243383102878 l -1.6154771787795812 -14.377478033950549" fill="#ffb410" stroke="none" /><path d="M 101.98527174616119 120.90594882070398 l 1.5944359166296755 16.790243318279614 a37.86577886073667,37.86577886073667 0 0,0 -0.6494083533255487,0.05603368529277013 l -1.3051832455625851 -16.815201255851047" fill="#ffd313" stroke="none" /><path d="M 101.62511606390274 120.93702456842531 l 1.3161221402949985 16.956131440993605 a38.007132942751596,38.007132942751596 0 0,0 -0.652704166437243,0.04501430078456508 l -1.0240552130788252 -16.976274086294456" fill="#ffd413" stroke="none" /><path d="M 100.90346689309514 120.98055641714683 l 1.3365318600316756 31.037310063065913 a52.066073671511376,52.066073671511376 0 0,0 -0.8957339421773941,0.030850888088403205 l -0.8020775661796292 -31.05571774958041" fill="#84ff25" stroke="none" /><line stroke="#e1ed5e" stroke-width="0.3" x1="102.19456741930631" x2="102.32365962044197" y1="184.97166512339345" y2="189.96999836594603" /><path d="M 102.22038585953345 185.97133177190398 a86.0,86.0 0 0,1 -42.740103519485714,-10.115201625700543" fill="none" id="id91" stroke="none" /><text fill="#e1ed5e" style="font-size:6.75px; font-family:Arial;" text-anchor="middle"><textPath startOffset="22.20632615414155" xlink:href="#id91">July</textPath></text><path d="M 100.54218724476979 120.99299961872073 l 0.4875299386828713 18.876718173681827 a39.88301285414279,39.88301285414279 0 0,0 -0.6864442159055276,0.01181775969811766 l -0.16252603288467568 -18.882313410659105" fill="#ffec16" stroke="none" /><path d="M 100.18074693466247 120.99922214144158 l 0.08006783698737045 9.302300470115293 a30.30264504830895,30.30264504830895 0 0,0 -0.5216295432996454,0.0 l 0.08006783698736404 -9.302300470115293" fill="#ff6f0a" stroke="none" /><path d="M 99.45781275523022 120.99299961872073 l -0.3594961905555668 13.919367274066149 a34.92400886316034,34.92400886316034 0 0,0 -0.6008254114378199,-0.02069364200253292 l 0.5990419536680297 -13.911116833637523" fill="#ffad10" stroke="none" /><path d="M 98.73552117531835 120.96189622390904 l -0.9350805665518335 15.501296988495211 a36.52947468498125,36.52947468498125 0 0,0 -0.6273280428851239,-0.043264214731711256 l 1.2017713702158874 -15.482904429247213" fill="#ffc212" stroke="none" /><path d="M 98.37488393609728 120.93702456842531 l -0.892784665604052 11.502104307046197 a32.536700912709335,32.536700912709335 0 0,0 -0.5580132245550588,-0.048147729011806535 l 1.0906422079006524 -11.485032325755727" fill="#ff8d0d" stroke="none" /><path d="M 97.65516085044442 120.86867818915974 l -2.367113331376827 21.066914700368827 a42.19948396815823,42.19948396815823 0 0,0 -0.7211541694073584,-0.0873217268523545 l 2.729394923835575 -21.02304744479112" fill="#f6ff19" stroke="none" /><path d="M 96.93821686468263 120.77559828337769 l -0.5008617496386929 3.39857594287931 a24.435284694427686,24.435284694427686 0 0,0 -0.4155908264459659,-0.06490674003383504 l 0.5592884396931759 -3.389450895498369" fill="#ff1c02" stroke="none" /><path d="M 96.22490169976321 120.6578951692458 l -1.65515342817084 9.057243888464127 a30.207236269690622,30.207236269690622 0 0,0 -0.5106927214297463,-0.09787547552092946 l 1.8108137641722815 -9.02741121459473" fill="#ff6d0a" stroke="none" /><path d="M 95.86986931433489 120.58985236759428 l -4.171777031348033 20.797471005967527 a42.21175437919605,42.21175437919605 0 0,0 -0.7111847203526208,-0.14903567286941055 l 4.529153213130041 -20.722579352371575" fill="#f5ff19" stroke="none" /><path d="M 95.51606077576429 120.51570834832081 l -3.6514776825864375 16.70688370873594 a38.10126464690998,38.10126464690998 0 0,0 -0.6395203843183731,-0.14555275737124404 l 3.9385182162976733 -16.64155421778701" fill="#ffd614" stroke="none" /><path d="M 94.46302465271185 120.25689768951611 l -4.755540834592106 17.398037394518873 a39.03626551730014,39.03626551730014 0 0,0 -0.6466428612886351,-0.182747731741126 l 5.054314863985356 -17.313600869439224" fill="#ffe115" stroke="none" /><path d="M 94.11515582081647 120.15858648285463 l -4.075164332742691 13.959511948341097 a35.54217790342066,35.54217790342066 0 0,0 -0.5858112969176573,-0.1765001382779457 l 4.314850604100594 -13.887296440957426" fill="#ffb510" stroke="none" /><path d="M 93.76903079525671 120.05430185196036 l -4.150241863695024 13.357505126140568 a34.98740328731671,34.98740328731671 0 0,0 -0.5735912448818195,-0.18364580319665455 l 4.379554453667784 -13.284086476284207" fill="#ffae10" stroke="none" /><path d="M 93.08242187328487 119.8279376855182 l -4.992742402926654 14.310757816057091 a36.156690468958615,36.156690468958615 0 0,0 -0.5858768818548673,-0.21007460533213154 l 5.238338845411248 -14.222695669685" fill="#ffbd11" stroke="none" /><path d="M 92.40401165467489 119.57807347666478 l -5.146790472450529 13.265455060979544 a35.22890544427699,35.22890544427699 0 0,0 -0.5634593739450896,-0.2242121133689486 l 5.3743709224374765 -13.17489610320453" fill="#ffb110" stroke="none" /><path d="M 91.7346041902142 119.30500536409082 l -5.50215046393749 12.851053556877488 a34.97938615424658,34.97938615424658 0 0,0 -0.5514738842302016,-0.2417499445229729 l 5.722545022825434 -12.754439059060063" fill="#ffad10" stroke="none" /><path d="M 91.40352486487194 119.15986991738527 l -5.78486018734113 12.893327432170375 a35.13161348396713,35.13161348396713 0 0,0 -0.549612351895813,-0.2523000739718104 l 6.005940535004362 -12.791840287864492" fill="#ffaf10" stroke="none" /><path d="M 90.7491055286396 118.85261126421891 l -10.013381298181153 20.406500759406907 a43.73088379862162,43.73088379862162 0 0,0 -0.6729268672906598,-0.33741950099214674 l 10.363162073154573 -20.23111341750546" fill="#e3ff1b" stroke="none" /><path d="M 90.42595943632237 118.69057910512821 l -10.91576851489819 21.309919627351412 a44.9429880506803,44.9429880506803 0 0,0 -0.6855070447750428,-0.35862488676253085 l 11.280966462199727 -21.118865321644165" fill="#d5ff1c" stroke="none" /><path d="M 90.10565033884886 118.52300852407294 l -10.96712640239275 20.531331799777114 a44.276886540055116,44.276886540055116 0 0,0 -0.6691654166330443,-0.364882339368035 l 11.318914630894435 -20.33950880864931" fill="#ddff1b" stroke="none" /><line stroke="#e1ed5e" stroke-width="0.3" x1="58.666819895761336" x2="56.23545636021788" y1="174.27360380694188" y2="178.64263932499728" /><path d="M 58.180547188652646 175.14741091055294 a86.0,86.0 0 0,1 -31.652253787137756,-30.449443065178592" fill="none" id="id92" stroke="none" /><text fill="#e1ed5e" style="font-size:6.75px; font-family:Arial;" text-anchor="middle"><textPath startOffset="22.20632615414155" xlink:href="#id92">August</textPath></text><path d="M 88.8546689885994 117.79835938074946 l -4.899506134463059 7.8241885216472875 a30.231635087237706,30.231635087237706 0 0,0 -0.4386728269027654,-0.2799817532157975 l 5.033460763412748 -7.738692339607686" fill="#ff6e0a" stroke="none" /><path d="M 86.79598089348748 116.32954008644616 l -8.747492632505395 10.818110034992007 a34.912229587126966,34.912229587126966 0 0,0 -0.46404981699395537,-0.3818814070353247 l 8.93241257804404 -10.665933509099501" fill="#ffad10" stroke="none" /><path d="M 85.44109423537348 115.13401014063109 l -7.274256069756456 7.561602973811513 a31.49250403392554,31.49250403392554 0 0,0 -0.38743285318905507,-0.3791845906518396 l 7.403338875321306 -7.4352682802371035" fill="#ff7f0b" stroke="none" /><path d="M 84.9287848128048 114.62390073753433 l -6.881052750826259 6.676822747731461 a30.58795332509905,30.58795332509905 0 0,0 -0.36340447434944984,-0.3810281384834554 l 6.994963776554667 -6.557387492665506" fill="#ff730a" stroke="none" /><path d="M 84.43433777217949 114.09645910891817 l -12.974109512521713 11.74951643824129 a38.5036754476141,38.5036754476141 0 0,0 -0.44066750713555264,-0.49509461575096675 l 13.174435869305604 -11.52444765274946" fill="#ffdb14" stroke="none" /><path d="M 83.28015986056508 112.70617746262583 l -10.955545311770193 8.32562403529626 a34.76008679679575,34.76008679679575 0 0,0 -0.35792748278609576,-0.4795023548652515 l 11.097234061251374 -8.135808800921701" fill="#ffab0f" stroke="none" /><path d="M 82.85270091963577 112.12312394758628 l -18.39383213448049 13.004421617207013 a43.52660742742964,43.52660742742964 0 0,0 -0.4272635890190606,-0.6155050668062337 l 18.614956630661684 -12.685875288213767" fill="#e6ff1a" stroke="none" /><line stroke="#e1ed5e" stroke-width="0.3" x1="26.63291911575756" x2="22.317208475507996" y1="142.92168965132927" y2="145.44649492493687" /><path d="M 25.769776987707644 143.4266507060508 a86.0,86.0 0 0,1 -11.730757126820373,-40.83630448921669" fill="none" id="id93" stroke="none" /><text fill="#e1ed5e" style="font-size:6.75px; font-family:Arial;" text-anchor="middle"><textPath startOffset="21.46611528233685" xlink:href="#id93">September</textPath></text><path d="M 81.69416730710424 110.29060199501025 l -12.344875235717506 6.93965687658274 a35.16173655136027,35.16173655136027 0 0,0 -0.2920493494861004,-0.530154400785216 l 12.462500994655123 -6.726131957399701" fill="#ffb010" stroke="none" /><path d="M 81.51974371655577 109.97397251340807 l -16.807254981695987 9.071037578816185 a40.09888852200672,40.09888852200672 0 0,0 -0.3226003161315686,-0.6102382230175536 l 16.96090780605244 -8.780384340712505" fill="#ffef16" stroke="none" /><path d="M 81.02952815118164 109.00673069616217 l -16.693150392388077 7.92551240965249 a39.479042642367645,39.479042642367645 0 0,0 -0.28617678062053503,-0.616399325975039 l 16.827101789848438 -7.636993016398624" fill="#ffe715" stroke="none" /><path d="M 80.58989483394504 108.01547362559985 l -13.745451770689403 5.6762343736599465 a35.871351016133914,35.871351016133914 0 0,0 -0.2307678926350137,-0.572746984382968 l 13.841122277581805 -5.438788021434173" fill="#ffb911" stroke="none" /><path d="M 80.45479744820244 107.68017299344265 l -17.855202593132784 7.016097397036887 a40.18420919210702,40.18420919210702 0 0,0 -0.24743086278812057,-0.6459639051762723 l 17.973327735514413 -6.707709925027457" fill="#fff016" stroke="none" /><path d="M 80.32549172779594 107.34259656027581 l -4.311514663966612 1.6090726285619883 a25.60198581284064,25.60198581284064 0 0,0 -0.150534481808298,-0.41420624194908295 l 4.338573406780134 -1.534618589606788" fill="#ff2d04" stroke="none" /><path d="M 79.97269907076064 106.31721596034903 l -17.501637593358407 5.520545415862359 a39.3516685927426,39.3516685927426 0 0,0 -0.1982072854439775,-0.6477528770277062 l 17.594071651308514 -5.218465566282605" fill="#ffe515" stroke="none" /><path d="M 79.86692584326677 105.97154293290107 l -9.289459952735063 2.7552875680771614 a30.689462100460947,30.689462100460947 0 0,0 -0.1458587756014692,-0.5077535327423893 l 9.335511365222636 -2.594976559830176" fill="#ff740a" stroke="none" /><path d="M 79.67330655649465 105.27499134158121 l -19.008527260311645 4.932913313866694 a40.638170545346995,40.638170545346995 0 0,0 -0.1698843610299656,-0.6786035746701953 l 19.09062293563667 -4.604981899799107" fill="#fff517" stroke="none" /><path d="M 79.58551787078972 104.9243191809786 l -18.531353701097192 4.470076679008159 a40.06286063295279,40.06286063295279 0 0,0 -0.1559388359686001,-0.6717804240542198 l 18.60555310299635 -4.150427597605365" fill="#ffee16" stroke="none" /><path d="M 79.35854240842038 103.8639653848113 l -17.948239069535568 3.3598099443953022 a39.260000234382815,39.260000234382815 0 0,0 -0.11862793755408926,-0.6653284728393563 l 18.003413449428844 -3.0503627208227324" fill="#ffe415" stroke="none" /><path d="M 79.18660465613746 102.79330883721812 l -21.29680755164926 2.858186266859988 a42.48774629010804,42.48774629010804 0 0,0 -0.0910421170741757,-0.7256952502191798 l 21.34285117797028 -2.4911732623533993" fill="#f2ff19" stroke="none" /><path d="M 79.07016306316243 101.71520430193888 l -18.374550081785518 1.5057980356741332 a39.43614706038885,39.43614706038885 0 0,0 -0.04962089135022994,-0.6770376384921183 l 18.397747531800086 -1.1892872606852543" fill="#ffe615" stroke="none" /><path d="M 79.0095281055655 100.63252640178507 l -41.25042563171822 1.2430393860679096 a62.26915024219946,62.26915024219946 0 0,0 -0.023063121297222867,-1.0716526218869262 l 41.26571081570045 -0.5327969483908546" fill="#32ff47" stroke="none" /><line stroke="#e1ed5e" stroke-width="0.3" x1="15.007084014347285" x2="10.007500721073583" y1="101.09737516637583" y2="101.16192664675087" /><path d="M 14.007167355692545 101.11028546245083 a86.0,86.0 0 0,1 10.666146001902534,-42.60595125391555" fill="none" id="id94" stroke="none" /><text fill="#e1ed5e" style="font-size:6.75px; font-family:Arial;" text-anchor="middle"><textPath startOffset="22.20632615414155" xlink:href="#id94">October</textPath></text><path d="M 79.05617556472873 98.46500227214037 l -6.986033009300444 -0.5120146432267247 a28.004770959989628,28.004770959989628 0 0,0 0.03937406276716438,-0.4804632966032394 l 6.976184462713783 0.6321918570377425" fill="#ff4f07" stroke="none" /><path d="M 79.12142395522702 97.74499172005258 l -10.774404134773285 -1.1636986393761362 a31.8370650539113,31.8370650539113 0 0,0 0.06353715037196181,-0.5443475029031226 l 10.752776631397733 1.3489898806041205" fill="#ff840c" stroke="none" /><path d="M 79.21141760316559 97.0276538004421 l -14.576483067373706 -2.084141824640524 a35.72472430161761,35.72472430161761 0 0,0 0.0922788453270712,-0.6080022940450445 l 14.538448328607332 2.334743231077661" fill="#ffb711" stroke="none" /><path d="M 79.26566170972629 96.67025291283419 l -13.56668677933297 -2.178687120541744 a34.740511916873494,34.740511916873494 0 0,0 0.09990070688069042,-0.5896196270646215 l 13.527174210932058 2.4118925359221937" fill="#ffaa0f" stroke="none" /><path d="M 79.32604984820605 96.31383870115002 l -19.537647548016555 -3.4835587651748594 a40.845776713974786,40.845776713974786 0 0,0 0.12937272711759354,-0.6911142814068572 l 19.4747890969891 3.8193511240442892" fill="#fff817" stroke="none" /><path d="M 79.46518482838121 95.60439243477599 l -29.235154999404532 -6.2579705447501555 a50.8974327188501,50.8974327188501 0 0,0 0.19075779248379265,-0.8551297798605947 l 29.1231028199187 6.760278494160709" fill="#91ff24" stroke="none" /><path d="M 79.71946130924805 94.55025226153421 l -19.131099466943635 -5.140872619023829 a40.809783898344776,40.809783898344776 0 0,0 0.18813937960417568,-0.6768374496051965 l 19.039773316773097 5.469421372047969" fill="#fff717" stroke="none" /><path d="M 79.91906864156998 93.8553929516997 l -16.102591388764463 -4.927266309376878 a37.83957846019406,37.83957846019406 0 0,0 0.19594507876518558,-0.6211994465069778 l 16.015390826231073 5.203715922310271" fill="#ffd213" stroke="none" /><path d="M 80.14247586403 93.16781622104843 l -28.440701951119035 -9.78531367767314 a51.076999372325076,51.076999372325076 0 0,0 0.2931988055149085,-0.828912505766423 l 28.268050064794316 10.273423809866173" fill="#8fff24" stroke="none" /><path d="M 80.2630227832202 92.82701384747504 l -29.441940005549498 -10.70004923467877 a52.32600971900069,52.32600971900069 0 0,0 0.31494131097623457,-0.8438861344477783 l 29.253394106071635 11.205258506155891" fill="#81ff25" stroke="none" /><path d="M 80.52162464483688 92.15188598940014 l -18.893535706981346 -7.612473812012496 a41.36947346029237,41.36947346029237 0 0,0 0.27181381725987,-0.6582187185733585 l 18.759700202835276 7.936567101039166" fill="#fffe18" stroke="none" /><path d="M 81.10775173730289 90.83032412892265 l -18.239548340316567 -8.852876798458523 a41.274480295865295,41.274480295865295 0 0,0 0.31573009428963905,-0.6364926039764058 l 18.084458233073516 9.16552899093389" fill="#fffd17" stroke="none" /><line stroke="#e1ed5e" stroke-width="0.3" x1="26.266209847984243" x2="21.928928074336255" y1="57.711370442889674" y2="55.22380399835377" /><path d="M 25.398753493254645 57.213857153982495 a86.0,86.0 0 0,1 29.58750427330803,-30.492523968695096" fill="none" id="id95" stroke="none" /><text fill="#e1ed5e" style="font-size:6.75px; font-family:Arial;" text-anchor="middle"><textPath startOffset="21.46611528233685" xlink:href="#id95">November</textPath></text><path d="M 82.15384107792192 88.93136811851018 l -1.2922459794511487 -0.8014831151808702 a22.5206166036604,22.5206166036604 0 0,0 0.20716007825486493,-0.32767749419879666 l 1.2782583049503211 0.8236082570938824" fill="#ff0000" stroke="none" /><path d="M 82.34701348167596 88.62581576622439 l -52.95895955497213 -34.12255270132681 a84.0,84.0 0 0,0 0.793613458568319,-1.208727744089332 l 52.36374946104589 35.02909850939381" fill="#4dd2ff" stroke="none" /><path d="M 83.84228863543731 86.58626213691792 l -14.8142902304712 -12.298462405695826 a40.25397030684705,40.25397030684705 0 0,0 0.4471820970281841,-0.5293225543871964 l 14.60039751995589 12.551643909712139" fill="#fff116" stroke="none" /><path d="M 84.5562425177563 85.77008943001954 l -13.351543266340489 -12.302139998616946 a39.155064200892625,39.155064200892625 0 0,0 0.4609719705145435,-0.49173275780375214 l 13.137803973855489 12.530142173298747" fill="#ffe315" stroke="none" /><path d="M 85.57189188830299 84.74124197986013 l -10.91011516640681 -11.538228436276869 a36.87958842010611,36.87958842010611 0 0,0 0.4650202029778388,-0.4321855989353643 l 10.709887079634115 11.72431862128688" fill="#ffc612" stroke="none" /><path d="M 86.37877921826538 84.01681056812374 l -11.775665158830224 -13.817607829418094 a39.15468468634155,39.15468468634155 0 0,0 0.5167345596934333,-0.4327503332528615 l 11.53607306217768 14.018259320064768" fill="#ffe315" stroke="none" /><path d="M 87.51073957382395 83.11751280151077 l -8.10330658300344 -10.953728642431367 a34.625261419516626,34.625261419516626 0 0,0 0.4822057083148734,-0.35034295433770485 l 7.913555558334784 11.09159083158574" fill="#ffa90f" stroke="none" /><line stroke="#e1ed5e" stroke-width="0.3" x1="56.762969772571076" x2="54.21961505331055" y1="26.818313649435495" y2="22.513508569990535" /><path d="M 56.25429882871897 25.957352633546506 a86.0,86.0 0 0,1 42.265352541879196,-11.944610805530505" fill="none" id="id96" stroke="none" /><text fill="#e1ed5e" style="font-size:6.75px; font-family:Arial;" text-anchor="middle"><textPath startOffset="22.20632615414155" xlink:href="#id96">December</textPath></text><path d="M 89.94658935756843 81.56283822128135 l -26.83993918373334 -49.2223304569775 a77.06442857108595,77.06442857108595 0 0,0 1.170113085064588,-0.6250338864591584 l 25.988681052140446 49.67704306993841" fill="#44ffea" stroke="none" /><path d="M 90.58718382345135 81.22770947309562 l -7.319072928410241 -14.596669139468558 a37.328857231861065,37.328857231861065 0 0,0 0.5768707972097413,-0.2830679948684534 l 7.066730864190074 14.72049229447184" fill="#ffcc13" stroke="none" /><path d="M 90.91171255644093 81.06846463323043 l -6.105122646109527 -12.717395440127742 a35.10690147780941,35.10690147780941 0 0,0 0.5470353855855816,-0.2568404484761329 l 5.885309049224337 12.820600871243883" fill="#ffaf10" stroke="none" /><path d="M 91.23893434514133 80.91482961587045 l -6.194341503442943 -13.493799460928798 a35.847642592446725,35.847642592446725 0 0,0 0.5630092160857623,-0.252605823932946 l 5.9611501688904065 13.598425615378273" fill="#ffb911" stroke="none" /><path d="M 91.90106846888425 80.62456947434976 l -13.944652714880561 -33.360406720745075 a57.15757287086841,57.15757287086841 0 0,0 0.911026743574154,-0.3716306832231426 l 13.368342101718028 33.595498290151795" fill="#4fff2b" stroke="none" /><path d="M 92.91201910852362 80.23233633223022 l -5.196337309379638 -14.492060547119316 a36.395510395379006,36.395510395379006 0 0,0 0.591544889011649,-0.2063783964877953 l 4.946110416304704 14.579359796779322" fill="#ffc011" stroke="none" /><path d="M 93.59665428221793 80.00007090966166 l -4.2412389137554385 -13.246899553577904 a34.90929384642283,34.90929384642283 0 0,0 0.5738666125773575,-0.17830314996731447 l 4.0125869284673525 13.317942838427744" fill="#ffac10" stroke="none" /><path d="M 94.63758080256005 79.69619591428918 l -7.615372930247721 -28.834194851680426 a50.82288882069314,50.82288882069314 0 0,0 0.8477526764399675,-0.21611103322527977 l 7.117911365122755 28.96100888107457" fill="#92ff23" stroke="none" /><path d="M 95.33964822691252 79.52364482259891 l -4.132288620133202 -18.15618511246484 a39.62049588701043,39.62049588701043 0 0,0 0.6662983997687253,-0.1456270229154941 l 3.8191474962109555 18.224625633476204" fill="#ffe915" stroke="none" /><path d="M 96.04723909329186 79.375362276772 l -2.734131835264686 -14.26609904337489 a35.52573780597701,35.52573780597701 0 0,0 0.6015774138202296,-0.109934427189589 l 2.488159300341563 14.311048951915215" fill="#ffb510" stroke="none" /><path d="M 96.40284397218896 79.31037775812273 l -2.6903250791970112 -15.473837989259094 a36.70597055738977,36.70597055738977 0 0,0 0.6234260789593761,-0.10287064474906717 l 2.4235697940987495 15.517854896947787" fill="#ffc412" stroke="none" /><path d="M 97.11714578562143 79.19881850522333 l -6.94694563805659 -50.12555832023296 a71.60466036456711,71.60466036456711 0 0,0 1.2223436243283083,-0.15869528393473487 l 6.083087285220424 50.23771192733183" fill="#3dffb1" stroke="none" /><path d="M 98.19473922651362 79.07773832637324 l -1.3096184913274942 -15.17796274676593 a36.23435767385817,36.23435767385817 0 0,0 0.621867523229175,-0.048268888366460254 l 1.048160778735985 15.198256897320853" fill="#ffbe11" stroke="none" /></svg>