<?xml version="1.0" encoding="utf-8" ?>
<svg baseProfile="full" height="200mm" version="1.1" viewBox="0,0,200,200" width="200mm" xmlns="http://www.w3.org/2000/svg" xmlns:ev="http://www.w3.org/2001/xml-events" xmlns:xlink="http://www.w3.org/1999/xlink"><defs /><rect fill="#1a1a1a" height="200" width="200" x="0" y="0" /><text alignment-baseline="middle" fill="#e1ed5e" style="dominant-baseline: central; font-size:9.0px; font-family:Arial;" text-anchor="middle" x="100.0" y="100.0">2024</text><line stroke="#e1ed5e" stroke-width="0.3" x1="100.0" x2="100.0" y1="15.0" y2="10.0" /><path d="M 100.0 14.0 a86.0,86.0 0 0,1 42.35913384403234,11.155469271406648" fill="none" id="id97" stroke="none" /><text fill="#e1ed5e" style="font-size:6.75px; font-family:Arial;" text-anchor="middle"><textPath startOffset="22.145653131862478" xlink:href="#id97">January</textPath></text><path d="M 100.72087961077811 79.0123766808444 l 0.30383933294921556 -8.84595066102437 a29.851167235880503,29.851167235880503 0 0,0 0.5119819740171665,0.021986708887145694 l -0.45564706756721834 8.839431383711393" fill="#ff6f0a" stroke="none" /><path d="M 101.08105385017728 79.02784411241856 l 0.3930835678698549 -7.625716203555846 a28.635840641900764,28.635840641900764 0 0,0 0.4907032850677507,0.02951949110592672 l -0.5239312050700679 7.617844734625227" fill="#ff5e08" stroke="none" /><path d="M 102.15924093988457 79.11130261209362 l 2.869989599663452 -27.76454593205949 a48.91248557752637,48.91248557752637 0 0,0 0.8344565498045963,0.09350259691540726 l -3.346182051068845 27.711187574637112" fill="#a4ff21" stroke="none" /><path d="M 102.87502721639298 79.19773525538626 l 0.3266573430517137 -2.363529810148774 a23.38599626639094,23.38599626639094 0 0,0 0.3971998927892444,0.05837470591050268 l -0.36718234144864004 2.3575740309393893" fill="#ff1402" stroke="none" /><path d="M 103.94208987418118 79.37332000966035 l 1.715502190600924 -8.976232363449578 a30.138692204500387,30.138692204500387 0 0,0 0.507339695990078,0.10148214807488601 l -1.869338372121959 8.945460818711831" fill="#ff730a" stroke="none" /><path d="M 105.3480935250658 79.69241777938227 l 3.7811044170643275 -14.357469343868651 a35.84700901100526,35.84700901100526 0 0,0 0.5937264978518711,0.1618227971739898 l -4.027012315850891 14.290446052550518" fill="#ffbe11" stroke="none" /><path d="M 107.74402155503746 80.48000691201159 l 3.1314044617340597 -7.89318482836392 a29.491646521004178,29.491646521004178 0 0,0 0.4689811327541826,0.1907305439053004 l -3.266440055678682 7.8382670278793265" fill="#ff6a09" stroke="none" /><line stroke="#e1ed5e" stroke-width="0.3" x1="143.13028292997686" x2="145.6673583964461" y1="26.7553504044142" y2="22.446841604673864" /><path d="M 143.63769802327073 25.89364864446614 a86.0,86.0 0 0,1 29.32050498858742,28.57503671076993" fill="none" id="id98" stroke="none" /><text fill="#e1ed5e" style="font-size:6.75px; font-family:Arial;" text-anchor="middle"><textPath startOffset="20.669276256404974" xlink:href="#id98">February</textPath></text><path d="M 112.16784306229584 82.88440491214696 l 4.55615739919526 -6.408805965191179 a28.863292195112155,28.863292195112155 0 0,0 0.40136330590940905,0.29055608122286963 l -4.665501715478637 6.329649112595233" fill="#ff6109" stroke="none" /><path d="M 114.91283532996326 85.21462403516908 l 6.946276863697287 -6.886907332720078 a30.78162843685088,30.78162843685088 0 0,0 0.36881257127538986,0.3784341887427238 l -7.063476236123488 6.766650451909612" fill="#ff7b0b" stroke="none" /><path d="M 117.01052211995028 87.68569379921539 l 7.419445012736293 -5.371106017937209 a30.159527507079105,30.159527507079105 0 0,0 0.2999938062713886,0.42197885777433247 l -7.510553917537642 5.242949933453373" fill="#ff730a" stroke="none" /><path d="M 117.42321728460499 88.27688183743584 l 6.994943601623697 -4.706510229586787 a29.43092370568619,29.43092370568619 0 0,0 0.2784383466813599,0.4215911452256381 l -7.074706387225781 4.585739206022089" fill="#ff6909" stroke="none" /><path d="M 117.62189284568427 88.57770195909679 l 7.1493811772759965 -4.634142502737421 a29.519913611866365,29.519913611866365 0 0,0 0.27198004898229605,0.4275978116855563 l -7.2278789178841825 4.510731016373193" fill="#ff6a09" stroke="none" /><line stroke="#e1ed5e" stroke-width="0.3" x1="172.87174338648825" x2="177.1583165268699" y1="56.24261187166439" y2="53.66864786411523" /><path d="M 173.72905801456457 55.72781907015455 a86.0,86.0 0 0,1 12.242430191666344,42.057860355516425" fill="none" id="id99" stroke="none" /><text fill="#e1ed5e" style="font-size:6.75px; font-family:Arial;" text-anchor="middle"><textPath startOffset="22.145653131862474" xlink:href="#id99">March</textPath></text><path d="M 118.36410011445183 89.81374322990088 l 9.031966221500525 -5.009879411333875 a31.328373809193465,31.328373809193465 0 0,0 0.2568250114400762,0.4725290942458505 l -9.116636582555943 4.854095483613421" fill="#ff830c" stroke="none" /><path d="M 118.70294669586156 90.45014215332178 l 5.844953546439201 -2.9844749277547375 a27.562817425041537,27.562817425041537 0 0,0 0.21155130022367824,0.4232443130452657 l -5.895324759874616 2.883698758545721" fill="#ff4f07" stroke="none" /><path d="M 119.16976305983485 91.42560881287824 l 8.214215613169817 -3.6741141631662937 a29.998469482285415,29.998469482285415 0 0,0 0.20622678974237768,0.4718872532700244 l -8.276076284929164 3.53256484012042" fill="#ff710a" stroke="none" /><path d="M 119.31412917781788 91.75594674310238 l 5.6745253658310535 -2.4221174505374696 a27.16983719976939,27.16983719976939 0 0,0 0.17941686798853632,0.4305351687550609 l -5.715268078356073 2.324349772341131" fill="#ff4a06" stroke="none" /><path d="M 119.71291397450082 92.76114493625339 l 7.847663887620897 -2.8817708810056546 a29.3600497548568,29.3600497548568 0 0,0 0.16967288789289464,0.474605265270996 l -7.895976945557734 2.746630659353742" fill="#ff6809" stroke="none" /><path d="M 120.26092885502905 94.47779374421319 l 4.1653862844337155 -1.1352945544724615 a25.317329802547327,25.317329802547327 0 0,0 0.11068558065760693,0.4202911783995983 l -4.184261345896053 1.0636228717000646" fill="#ff3004" stroke="none" /><path d="M 120.592083275326 95.88100663000786 l 7.020747069466288 -1.4043460413825246 a28.159823825860958,28.159823825860958 0 0,0 0.0907466517608223,0.4748248278976724 l -7.043820013509267 1.2836186484515377" fill="#ff5708" stroke="none" /><path d="M 120.82617615685814 97.30363454192243 l 3.3365566035816796 -0.431984052523999 a24.364404879104114,24.364404879104114 0 0,0 0.050141845161892934,0.41524640782044814 l -3.343480535003236 0.3746439677801379" fill="#ff2203" stroke="none" /><path d="M 120.86939407059847 97.66154086499901 l 8.382850180506885 -0.939315847678026 a29.435312170306645,29.435312170306645 0 0,0 0.05195698089088405,0.5026366585458169 l -8.397739553879434 0.7952746668492777" fill="#ff6909" stroke="none" /><line stroke="#e1ed5e" stroke-width="0.3" x1="184.99686870605535" x2="189.99668451229388" y1="99.2704041080226" y2="99.22748670261217" /><path d="M 185.99683186730306 99.26182062694052 a86.0,86.0 0 0,1 -10.086455211305974,41.156179273409016" fill="none" id="id100" stroke="none" /><text fill="#e1ed5e" style="font-size:6.75px; font-family:Arial;" text-anchor="middle"><textPath startOffset="21.40746469413373" xlink:href="#id100">April</textPath></text><path d="M 120.99922638620191 100.18025310272382 l 6.142413996819371 0.05272523667197826 a27.1426402840232,27.1426402840232 0 0,0 -0.007998765999543678,0.465888019005633 l -6.140603799221159 -0.15816017164668228" fill="#ff4906" stroke="none" /><path d="M 120.98066250479742 100.90099992219065 l 6.5848941287861535 0.2827836869456968 a27.59096330599139,27.59096330599139 0 0,0 -0.024383067824820342,0.47302500181259577 l -6.579069471504761 -0.3957804821350232" fill="#ff5007" stroke="none" /><path d="M 120.82617615685814 102.69636545807757 l 12.654421799587354 1.6383682523070866 a33.76004081545351,33.76004081545351 0 0,0 -0.07934491121726396,0.5741002519447992 l -12.62443237181488 -1.8553568124519708" fill="#ffa30f" stroke="none" /><path d="M 120.77682067341334 103.0534771498775 l 14.348212288810148 2.1086930986287165 a35.50233713816387,35.50233713816387 0 0,0 -0.09379127095378575,0.6022072408413301 l -14.309899525718095 -2.354688521401497" fill="#ffb911" stroke="none" /><path d="M 120.51834098615036 104.47187691870673 l 6.215923273244864 1.3547315464168472 a27.361839333221496,27.361839333221496 0 0,0 -0.10396083745692203,0.4580706318970295 l -6.191751574230278 -1.4612365122528936" fill="#ff4c07" stroke="none" /><path d="M 120.35273937422433 105.17358676015961 l 13.547544654715256 3.443732873967347 a34.97838553906521,34.97838553906521 0 0,0 -0.15292303509304245,0.5806736725944069 l -13.486432138817484 -3.6757870509345576" fill="#ffb310" stroke="none" /><path d="M 119.94978838288452 106.5578916946017 l 3.597997821544919 1.182733349259356 a24.787406302377953,24.787406302377953 0 0,0 -0.13634794234922346,0.40308846411384347 l -3.5771644576233306 -1.2443234878473597" fill="#ff2803" stroke="none" /><path d="M 119.83427380445688 106.89939002012753 l 6.232038835904521 2.167826610310536 a27.5983164719944,27.5983164719944 0 0,0 -0.15949176162450862,0.44612684309422446 l -6.193906904236069 -2.274488409785682" fill="#ff5007" stroke="none" /><path d="M 119.71291397450082 107.23885506374661 l 6.224522819435711 2.2857309979216036 a27.630931346691472,27.630931346691472 0 0,0 -0.16732412594899485,0.4438471233817409 l -6.1843680096722755 -2.392246401497504" fill="#ff5007" stroke="none" /><path d="M 119.4528033332814 107.91128576633889 l 6.1809475836632926 2.513737573106568 a27.67255495432153,27.67255495432153 0 0,0 -0.18273658037182056,0.43850126997609096 l -6.136885158754986 -2.619471352523937" fill="#ff5107" stroke="none" /><path d="M 119.0197475246899 108.90220220490707 l 14.867155226273837 6.958579332571267 a37.41505805197805,37.41505805197805 0 0,0 -0.27726471892960924,0.579376624429126 l -14.745511249384315 -7.212768459065496" fill="#ffd213" stroke="none" /><line stroke="#e1ed5e" stroke-width="0.3" x1="174.33088141563837" x2="178.70328620479359" y1="141.23008692659167" y2="143.65538615756765" /><path d="M 175.20536237346943 141.71514677278685 a86.0,86.0 0 0,1 -30.301960400862466,31.631185727798858" fill="none" id="id101" stroke="none" /><text fill="#e1ed5e" style="font-size:6.75px; font-family:Arial;" text-anchor="middle"><textPath startOffset="22.145653131862474" xlink:href="#id101">May</textPath></text><path d="M 118.18653347947321 110.5 l 1.9119399394312584 1.1038590387050333 a23.207718077410068,23.207718077410068 0 0,0 -0.20215722686928564,0.34330716701524333 l -1.8927090024322075 -1.1365173740138261" fill="#ff1101" stroke="none" /><path d="M 118.00360718960297 110.81064883170644 l 7.080344542367313 4.251543462869246 a29.25874691798319,29.25874691798319 0 0,0 -0.2622587376121967,0.4283799383802305 l -7.006317840299712 -4.372460517374034" fill="#ff6709" stroke="none" /><path d="M 117.81537515405839 111.11811171558189 l 3.620046986285382 2.2591770569595786 a25.267156097168982,25.267156097168982 0 0,0 -0.23279750893948686,0.3659963506913439 l -3.580731785720005 -2.3209870823295944" fill="#ff2f04" stroke="none" /><path d="M 117.423217284605 111.72311816256416 l 5.965121397931718 4.013599891438121 a28.189691049037847,28.189691049037847 0 0,0 -0.2735880167523434,0.399173092718607 l -5.895343644364054 -4.115407719226772" fill="#ff5808" stroke="none" /><path d="M 117.21940702142032 112.02048342749411 l 16.605904254052774 11.59221084884552 a41.25180012884928,41.25180012884928 0 0,0 -0.41032753358935425,0.5771770627182732 l -16.40446162193346 -11.875565138273297" fill="#fdff18" stroke="none" /><path d="M 116.79662413953412 112.60449989151573 l 5.331182127400667 4.000618456914293 a27.665317015215376,27.665317015215376 0 0,0 -0.28830952022124773,0.3774064168295485 l -5.261720629825115 -4.091545786984719" fill="#ff5107" stroke="none" /><path d="M 116.1254893667686 113.45245675266167 l 5.484391684952833 4.575274602737208 a28.14224683446546,28.14224683446546 0 0,0 -0.31265424674311854,0.3683059165054724 l -5.4050428747026 -4.668747301692237" fill="#ff5708" stroke="none" /><path d="M 115.89218393027572 113.72728997021213 l 10.786461368561904 9.317088425880774 a35.25327631077009,35.25327631077009 0 0,0 -0.39951855815115117,0.4545787805658348 l -10.624931746452168 -9.500879484257903" fill="#ffb610" stroke="none" /><path d="M 115.6541949942343 113.99807769240083 l 4.6542979981975945 4.16190196981396 a27.24371026412721,27.24371026412721 0 0,0 -0.31473270227023514,0.34594637284935736 l -4.58216759508548 -4.24118591822099" fill="#ff4b06" stroke="none" /><path d="M 114.65682725009322 115.03919595460226 l 7.363053512203971 7.555141553132086 a31.549631316375105,31.549631316375105 0 0,0 -0.39110652821227776,0.3746712068397687 l -7.232274498126381 -7.680424890277434" fill="#ff860c" stroke="none" /><path d="M 113.59037401385872 116.0094264158162 l 3.10396360682076 3.6564613240293826 a25.796279754829825,25.796279754829825 0 0,0 -0.3400510628227045,0.28368269094184934 l -3.0407382098361606 -3.709206198883102" fill="#ff3605" stroke="none" /><path d="M 112.45986205192187 116.90419585922612 l 3.9242242920733093 5.323963921294633 a27.61393439109772,27.61393439109772 0 0,0 -0.38399015335656655,0.2779792585539294 l -3.8322531283427748 -5.390543951221639" fill="#ff5007" stroke="none" /><path d="M 111.5731344415666 117.5232005979908 l 4.716059058042189 7.140714499023667 a29.557512290117298,29.557512290117298 0 0,0 -0.425789149642881,0.27599138255995326 l -4.592784276142299 -7.2206197232875144" fill="#ff6b09" stroke="none" /><line stroke="#e1ed5e" stroke-width="0.3" x1="143.1302829299769" x2="145.66735839644613" y1="173.24464959558577" y2="177.55315839532614" /><path d="M 143.63769802327073 174.10635135553383 a86.0,86.0 0 0,1 -40.68552437913181,11.842963189579606" fill="none" id="id102" stroke="none" /><text fill="#e1ed5e" style="font-size:6.75px; font-family:Arial;" text-anchor="middle"><textPath startOffset="21.407464694133747" xlink:href="#id102">June</textPath></text><path d="M 110.65571695917076 118.09573695890943 l 6.28799158548234 10.678384398413975 a33.39220446649375,33.39220446649375 0 0,0 -0.49644274996119003,0.28662135532733224 l -6.103756367660751 -10.78475265101748" fill="#ff9e0e" stroke="none" /><path d="M 108.73861861582097 119.09545874513695 l 2.6807592599815195 5.857942783078169 a27.442201786640517,27.442201786640517 0 0,0 -0.43004099067213153,0.19235186522707093 l -2.5798048664537614 -5.90309839921509" fill="#ff4d07" stroke="none" /><path d="M 107.407793817531 119.65005319985036 l 1.5846610911925287 4.203501813451469 a25.492279852105085,25.492279852105085 0 0,0 -0.4108030500486327,0.1508525701930078 l -1.512268889489769 -4.230085232653199" fill="#ff3204" stroke="none" /><path d="M 106.38641147887787 120.00534299687104 l 2.3766226868472717 7.444736716663735 a28.814885806976214,28.814885806976214 0 0,0 -0.4725083733507973,0.1463843018976246 l -2.24847368062485 -7.484437606368004" fill="#ff6008" stroke="none" /><path d="M 106.0420521117495 120.11202640906438 l 2.8228140653089264 9.39622995289473 a30.811086411554125,30.811086411554125 0 0,0 -0.507854717571647,0.14782910673114633 l -2.6610993353556727 -9.443302753928394" fill="#ff7c0b" stroke="none" /><path d="M 104.29559338865022 120.5559693870025 l 1.3155118868209073 6.295200599101779 a27.431183569709273,27.431183569709273 0 0,0 -0.4617628475208405,0.09236550192694971 l -1.2072525537691081 -6.31685549769159" fill="#ff4d07" stroke="none" /><path d="M 102.875027216393 120.80226474461374 l 0.587519409367744 4.250997773718573 a25.29140549570232,25.29140549570232 0 0,0 -0.43058278001271943,0.05574756144022028 l -0.5144588074642493 -4.260456931359188" fill="#ff2f04" stroke="none" /><path d="M 102.15924093988457 120.88869738790638 l 0.4567065901075106 4.418221968470271 a25.44176386946908,25.44176386946908 0 0,0 -0.4348123886194189,0.04117718527499518 l -0.38079463810307645 -4.42541090925045" fill="#ff3104" stroke="none" /><path d="M 101.80034050326958 120.92268563240118 l 0.7796060757789957 9.060204339685075 a30.093683979017513,30.093683979017513 0 0,0 -0.5150763373092688,0.039870166078164106 l -0.6239607436944911 -9.072252272758293" fill="#ff720a" stroke="none" /><path d="M 101.08105385017728 120.97215588758144 l 0.5888469382138614 11.423473289624718 a32.43863989796922,32.43863989796922 0 0,0 -0.5563601167806974,0.023892497284807135 l -0.39266106083233426 -11.431898355335356" fill="#ff910d" stroke="none" /><line stroke="#e1ed5e" stroke-width="0.3" x1="101.45913802915013" x2="101.54496967792366" y1="184.9874750549273" y2="189.98673829345242" /><path d="M 101.47630435890484 185.9873277026323 a86.0,86.0 0 0,1 -42.54439059252881,-10.42667462771756" fill="none" id="id103" stroke="none" /><text fill="#e1ed5e" style="font-size:6.75px; font-family:Arial;" text-anchor="middle"><textPath startOffset="22.145653131862474" xlink:href="#id103">July</textPath></text><path d="M 99.27912038922189 120.98762331915562 l -0.14675999286105487 4.272757062951371 a25.275276764667453,25.275276764667453 0 0,0 -0.43350017068178065,-0.01861636256551135 l 0.22008592414367426 -4.269608131960031" fill="#ff2f04" stroke="none" /><path d="M 97.48249496171623 120.84855314841334 l -0.7528093190283232 6.2343410875882155 a27.27962822683051,27.27962822683051 0 0,0 -0.46443200484122954,-0.06013002127936085 l 0.8597191457603468 -6.220499470108458" fill="#ff4b07" stroke="none" /><path d="M 96.05791012581884 120.62667999033965 l -1.532885239494505 8.020703308682405 a29.16586913459731,29.16586913459731 0 0,0 -0.49096367817258585,-0.09820648587425723 l 1.670345403198049 -7.993207426145285" fill="#ff6509" stroke="none" /><path d="M 95.00130118170881 120.39639698878247 l -1.4879748287476349 6.0714450739457275 a27.251121049613932,27.251121049613932 0 0,0 -0.4533998784956938,-0.1152524761071736 l 1.5919800004687075 -6.045007366003291" fill="#ff4b07" stroke="none" /><path d="M 93.61358852112213 120.00534299687104 l -3.1164313541133355 9.762176829889283 a31.24754804052793,31.24754804052793 0 0,0 -0.5095987956257438,-0.16751524604041435 l 3.283552887386823 -9.707240662446848" fill="#ff820b" stroke="none" /><path d="M 92.59220618246901 119.65005319985036 l -2.133126081119749 5.6583703607941365 a27.047096990942585,27.047096990942585 0 0,0 -0.433046867970606,-0.16751183143729803 l 2.229945211583883 -5.620918641218798" fill="#ff4806" stroke="none" /><path d="M 92.25597844496254 119.51999308798841 l -2.392110123983303 6.029680154426596 a27.486850823778003,27.486850823778003 0 0,0 -0.43710053373926283,-0.17776498182728845 l 2.495265118913007 -5.987727916020016" fill="#ff4e07" stroke="none" /><path d="M 91.26138138417905 119.09545874513695 l -2.5955835944663903 5.6718185821674005 a27.237513945866773,27.237513945866773 0 0,0 -0.42349312901943764,-0.19821616780274748 l 2.692565437357318 -5.626426182794126" fill="#ff4b06" stroke="none" /><path d="M 89.97174638481275 118.45085714620012 l -1.4796792327841106 2.722443128577461 a24.098571803310552,24.098571803310552 0 0,0 -0.3617721341967201,-0.20066890445094535 l 1.5261955551369333 -2.696641308693367" fill="#ff1e03" stroke="none" /><line stroke="#e1ed5e" stroke-width="0.3" x1="58.13341422392154" x2="55.67067388415222" y1="173.97424548756322" y2="178.32567169271397" /><path d="M 57.64086615596768 174.84453072859336 a86.0,86.0 0 0,1 -31.369924170532247,-30.572349798747897" fill="none" id="id104" stroke="none" /><text fill="#e1ed5e" style="font-size:6.75px; font-family:Arial;" text-anchor="middle"><textPath startOffset="22.145653131862474" xlink:href="#id104">August</textPath></text><path d="M 89.65649057296885 118.27599006163327 l -3.1694846588398335 5.6001756980156765 a27.434873802279764,27.434873802279764 0 0,0 -0.4078749640176732,-0.23548672027131434 l 3.2651520907179066 -5.544942080468191" fill="#ff4d07" stroke="none" /><path d="M 89.34428304082925 118.09573695890944 l -3.2650137191619337 5.544707095315237 a27.43460110334392,27.43460110334392 0 0,0 -0.4037684065693843,-0.242451326936308 l 3.359714882288745 -5.48784176784301" fill="#ff4d07" stroke="none" /><path d="M 89.03521579738668 117.91015095944536 l -3.38603765971204 5.530838046530441 a27.48501507553659,27.48501507553659 0 0,0 -0.4002811205168865,-0.2498050238662067 l 3.4804829090186393 -5.471897225822686" fill="#ff4e07" stroke="none" /><path d="M 88.4268655584334 117.5232005979908 l -3.5154075319878726 5.322775059577773 a27.378873290074058,27.378873290074058 0 0,0 -0.38995822041823325,-0.26238129397981824 l 3.606262040503111 -5.261644091540834" fill="#ff4d07" stroke="none" /><path d="M 88.1277618465304 117.32195027204791 l -4.394408200953265 6.411572893670976 a28.77297178738362,28.77297178738362 0 0,0 -0.4050205572318741,-0.282735804429494 l 4.503823849358905 -6.335192273436354" fill="#ff6008" stroke="none" /><path d="M 87.83215693770417 117.11559508785305 l -3.856889541816908 5.425198152075602 a27.656453404558704,27.656453404558704 0 0,0 -0.38458140856376455,-0.2784072817276414 l 3.9494519607546263 -5.3581900989748945" fill="#ff5007" stroke="none" /><path d="M 87.54013794807813 116.9041958592261 l -3.8398097228066597 5.209439345796979 a27.471661069995726,27.471661069995726 0 0,0 -0.37720815996141555,-0.28306403547614134 l 3.9286708716788414 -5.142756283056824" fill="#ff4e07" stroke="none" /><path d="M 86.96720088162412 116.46651593811092 l -6.463488468750881 8.166406534757188 a31.414743341849597,31.414743341849597 0 0,0 -0.41998404727197336,-0.33830941937149434 l 6.602723286378116 -8.054248821592283" fill="#ff840c" stroke="none" /><path d="M 86.68645165197938 116.24036423190432 l -8.812152033438538 10.74939264491689 a34.899764951071234,34.899764951071234 0 0,0 -0.4600547938177969,-0.3837940714185451 l 8.995381161418228 -10.596536389586475" fill="#ffb210" stroke="none" /><path d="M 86.40962598614128 116.0094264158162 l -4.208129226560658 4.957165647698025 a27.502448988354416,27.502448988354416 0 0,0 -0.3572967828951517,-0.3086244512235895 l 4.292605489218672 -4.8841970640097125" fill="#ff4e07" stroke="none" /><path d="M 85.86807049272751 115.53346607816431 l -4.945254205259924 5.435700652608926 a28.348631215363447,28.348631215363447 0 0,0 -0.3571525639802245,-0.3305750812419165 l 5.037836540554116 -5.3500078252346315" fill="#ff5a08" stroke="none" /><path d="M 85.60350026404147 115.28858382429668 l -4.545397976734458 4.827055135389578 a27.630317039704256,27.630317039704256 0 0,0 -0.3425205595094978,-0.32812694788158137 l 4.627591022109271 -4.748316057202414" fill="#ff5007" stroke="none" /><path d="M 85.34317274990678 115.03919595460226 l -4.6145314835661955 4.734915820174668 a27.611605602042818,27.611605602042818 0 0,0 -0.33660924439560724,-0.33373225959432373 l 4.695132648091765 -4.655003550351684" fill="#ff5007" stroke="none" /><path d="M 84.83555147118756 114.52719865689866 l -6.909165764607655 6.61882451084153 a30.567936531360516,30.567936531360516 0 0,0 -0.35974700897363,-0.3820388568823984 l 7.021768607317538 -6.499244194014641" fill="#ff780b" stroke="none" /><path d="M 84.58840730492382 114.26474011684316 l -4.71746048298206 4.366410995452524 a27.428061791061598,27.428061791061598 0 0,0 -0.31686242152202526,-0.3482873073789719 l 4.791720605345965 -4.284786112515879" fill="#ff4d07" stroke="none" /><path d="M 84.3458050057657 113.99807769240083 l -6.259882319640936 5.597625370572828 a29.39759110965959,29.39759110965959 0 0,0 -0.33315721096991546,-0.37907174925807113 l 6.355050594569444 -5.489341343503457" fill="#ff6809" stroke="none" /><path d="M 84.1078160697243 113.72728997021213 l -3.231502020583839 2.7912944797582115 a25.270120628479493,25.270120628479493 0 0,0 -0.2807455487359684,-0.330717550486329 l 3.2789421328269195 -2.735410146822328" fill="#ff2f04" stroke="none" /><path d="M 83.8745106332314 113.45245675266167 l -4.9537434634717155 4.132588983219663 a27.451191053295297,27.451191053295297 0 0,0 -0.29876462051993835,-0.3644442585865434 l 5.023954903230284 -4.046942442934625" fill="#ff4e07" stroke="none" /><path d="M 83.64595745247003 113.17365903436017 l -5.04905772483664 4.067163499085201 a27.483425239564617,27.483425239564617 0 0,0 -0.2928078489068374,-0.36995315181603855 l 5.118132004385039 -3.979890403354481" fill="#ff4e07" stroke="none" /><path d="M 83.4222238831116 112.89097897827486 l -8.523475588672076 6.627906171532613 a31.797165198760688,31.797165198760688 0 0,0 -0.33136889188036184,-0.4337725165557211 l 8.635996457906733 -6.480612741736022" fill="#ff890c" stroke="none" /><path d="M 83.20337586046588 112.60449989151573 l -3.789834826766078 2.8439627073872544 a25.738245655849695,25.738245655849695 0 0,0 -0.2621599412019762,-0.35567030951501183 l 3.8380967875518848 -2.778486088603363" fill="#ff3605" stroke="none" /><path d="M 82.98947788004972 112.3143062007846 l -5.42019537591114 3.9238034586113977 a27.69139383797272,27.69139383797272 0 0,0 -0.2754435273053803,-0.387445815892976 l 5.4867540017464815 -3.8301804160089175" fill="#ff5107" stroke="none" /><path d="M 82.78059297857968 112.02048342749411 l -5.687500995954296 3.9703174087632274 a27.936215676095248,27.936215676095248 0 0,0 -0.2711279747299436,-0.3955838178886789 l 5.754818707499565 -3.8720988558044978" fill="#ff5407" stroke="none" /><path d="M 82.37810715431573 111.42229804090323 l -7.266083112975676 4.7097872875051685 a29.658987244373073,29.658987244373073 0 0,0 -0.2732613960037899,-0.4296123020294279 l 7.345862200605357 -4.584361310797068" fill="#ff6c09" stroke="none" /><path d="M 82.18462484594161 111.11811171558189 l -5.513289728293903 3.440700551600682 a27.49882942643491,27.49882942643491 0 0,0 -0.24648383990626,-0.40261282850717 l 5.5715415326555675 -3.345550606968955" fill="#ff4e07" stroke="none" /><path d="M 81.99639281039703 110.81064883170644 l -7.004070926775097 4.205743348225101 a29.16977886227258,29.16977886227258 0 0,0 -0.2540914011243134,-0.4315027487952486 l 7.07523603802918 -4.084889431136293" fill="#ff6509" stroke="none" /><line stroke="#e1ed5e" stroke-width="0.3" x1="26.387840678322732" x2="22.057713659400548" y1="142.50000000000003" y2="145.00000000000006" /><path d="M 25.521815274538298 143.00000000000003 a86.0,86.0 0 0,1 -11.493303480769221,-40.785679425670985" fill="none" id="id105" stroke="none" /><text fill="#e1ed5e" style="font-size:6.75px; font-family:Arial;" text-anchor="middle"><textPath startOffset="21.40746469413373" xlink:href="#id105">September</textPath></text><path d="M 81.81346652052679 110.50000000000001 l -5.54637940583521 3.202203642986759 a27.404407285973512,27.404407285973512 0 0,0 -0.23171944692161614,-0.40942605978192836 l 5.600532217778205 -3.106520813105709" fill="#ff4d07" stroke="none" /><path d="M 81.63589988554817 110.18625677009913 l -5.871897741524909 3.257042694723042 a27.714723389848167,27.714723389848167 0 0,0 -0.22720088169938846,-0.4180240321582484 l 5.926943972839627 -3.1557638290902066" fill="#ff5107" stroke="none" /><path d="M 81.29705330413844 109.54985784667822 l -4.103824631385218 2.095442097693481 a25.60784702327997,25.60784702327997 0 0,0 -0.19654642884156323,-0.3932245189161743 l 4.139190973438518 -2.0246857226135537" fill="#ff3404" stroke="none" /><path d="M 81.1358732173502 109.22738970284198 l -3.495696969439459 1.7099205593618572 a24.8914940089221,24.8914940089221 0 0,0 -0.18445870324546965,-0.38544774555346734 l 3.524534930644841 -1.6496603117432853" fill="#ff2a04" stroke="none" /><path d="M 80.5471966667186 107.91128576633889 l -4.330778678728824 1.7612899863935367 a25.67523115795383,25.67523115795383 0 0,0 -0.1625380595566395,-0.40970208780175726 l 4.360375413251588 -1.686686881378214" fill="#ff3505" stroke="none" /><path d="M 80.28708602549918 107.23885506374661 l -6.130336997911851 2.251144659648477 a27.530595990155167,27.530595990155167 0 0,0 -0.15910040228352995,-0.44503214136463104 l 6.1680775702393245 -2.1455775619029245" fill="#ff4f07" stroke="none" /><path d="M 80.16572619554312 106.89939002012753 l -8.778031432761308 3.053454997175154 a30.29394551599693,30.29394551599693 0 0,0 -0.16663773072333615,-0.49263484129923485 l 8.829154585057012 -2.9023184814017573" fill="#ff750a" stroke="none" /><path d="M 80.05021161711548 106.5578916946017 l -4.513179029243855 1.4835715900385613 a25.750765160768953,25.750765160768953 0 0,0 -0.13443773606447942,-0.421124293445187 l 4.537981481085589 -1.4058782629019826" fill="#ff3605" stroke="none" /><path d="M 79.94057633289273 106.21446072829308 l -4.323027377610801 1.3392849321763367 a25.525731967000155,25.525731967000155 0 0,0 -0.12607727877229738,-0.41967025662034996 l 4.345380976386728 -1.2648770719652631" fill="#ff3304" stroke="none" /><path d="M 79.73907114497094 105.5222062557868 l -4.390513279494843 1.196653918071649 a25.55066890215678,25.55066890215678 0 0,0 -0.11170572274730413,-0.4241648240765435 l 4.41040848304688 -1.1211085896223028" fill="#ff3304" stroke="none" /><path d="M 79.01933749520258 100.90099992219065 l -3.277491169414219 0.14074957299120158 a24.280511973440333,24.280511973440333 0 0,0 -0.01430852074038575,-0.4165769693907824 l 3.279424377151453 -0.08446633903629927" fill="#ff2103" stroke="none" /><line stroke="#e1ed5e" stroke-width="0.3" x1="15.003131293944662" x2="10.003315487706104" y1="100.72959589197737" y2="100.7725132973878" /><path d="M 14.003168132696942 100.73817937305945 a86.0,86.0 0 0,1 10.791469493833604,-42.45332614584628" fill="none" id="id106" stroke="none" /><text fill="#e1ed5e" style="font-size:6.75px; font-family:Arial;" text-anchor="middle"><textPath startOffset="22.145653131862435" xlink:href="#id106">October</textPath></text><path d="M 79.00077361379809 99.81974689727619 l -4.81053560698105 -0.04129266254739168 a25.810712827639247,25.810712827639247 0 0,0 0.007606255324811126,-0.4430262399885575 l 4.809117920057573 0.12386581850500154" fill="#ff3705" stroke="none" /><path d="M 79.0935383218832 98.0201363427161 l -4.718973305257812 -0.44689167830595977 a25.74008662662139,25.74008662662139 0 0,0 0.045434448979217994,-0.4395370790644051 l 4.71060646379693 0.5278332796532776" fill="#ff3605" stroke="none" /><path d="M 79.22317932658666 96.9465228501225 l -5.95588699128428 -0.8753102854861097 a27.019863615467305,27.019863615467305 0 0,0 0.0713819864768401,-0.4583235591633273 l 5.939983512669172 0.977422026580887" fill="#ff4806" stroke="none" /><path d="M 79.407916724674 95.88100663000787 l -20.58750558828175 -4.118077704377679 a41.99533163174197,41.99533163174197 0 0,0 0.147468185200692,-0.7056886502692961 l 20.513779692256694 4.470882805932384" fill="#f4ff19" stroke="none" /><path d="M 79.48165901384962 95.52812308129327 l -5.044466622286054 -1.0994180216916172 a26.16288325354916,26.16288325354916 0 0,0 0.09940542447467463,-0.43799864176714187 l 5.024850336253717 1.1858509973977673" fill="#ff3c05" stroke="none" /><path d="M 79.83685265289637 94.1308016681162 l -6.679880335226949 -1.9444158119654438 a27.957122547632242,27.957122547632242 0 0,0 0.13808645870237696,-0.45964491083349174 l 6.645517556520942 2.058798326389659" fill="#ff5507" stroke="none" /><path d="M 80.28708602549916 92.7611449362534 l -6.1337177179845295 -2.252386106887015 a27.534197442564388,27.534197442564388 0 0,0 0.16673833621377235,-0.4422932465130582 l 6.094148697956321 2.357347633594218" fill="#ff4f07" stroke="none" /><path d="M 80.41425534168474 92.42381321644754 l -3.096351726865475 -1.1977353651625673 a24.319934339926608,24.319934339926608 0 0,0 0.15395829980412024,-0.3880754885115173 l 3.0753347520952237 1.2507118708876672" fill="#ff2103" stroke="none" /><path d="M 80.5471966667186 92.08871423366112 l -12.786422411498092 -5.200126680631873 a34.803402318989335,34.803402318989335 0 0,0 0.22982535351633382,-0.551497183456961 l 12.69527121344528 5.418856373530097" fill="#ffb010" stroke="none" /><path d="M 80.9802524753101 91.09779779509293 l -13.33711304057948 -6.242442333307327 a35.72571460207832,35.72571460207832 0 0,0 0.2647458198232422,-0.553216940161268 l 13.227987962796332 6.4704717755336825" fill="#ffbc11" stroke="none" /><path d="M 81.29705330413844 90.45014215332179 l -8.504379948970685 -4.342396998050653 a30.548868519627547,30.548868519627547 0 0,0 0.24248808972225638,-0.46500288529552514 l 8.428583790273489 4.487746126450665" fill="#ff780b" stroke="none" /><path d="M 81.63589988554816 89.8137432299009 l -5.695142942962593 -3.1589997875137645 a27.512598006808698,27.512598006808698 0 0,0 0.23263425940899102,-0.41104244579148 l 5.640075318532233 3.25629900340435" fill="#ff4e07" stroke="none" /><line stroke="#e1ed5e" stroke-width="0.3" x1="26.387840678322718" x2="22.05771365940052" y1="57.49999999999999" y2="54.99999999999999" /><path d="M 25.521815274538284 56.99999999999999 a86.0,86.0 0 0,1 29.574782752854787,-30.34633250058573" fill="none" id="id107" stroke="none" /><text fill="#e1ed5e" style="font-size:6.75px; font-family:Arial;" text-anchor="middle"><textPath startOffset="21.40746469413373" xlink:href="#id107">November</textPath></text><path d="M 81.99639281039701 89.18935116829357 l -12.091233414923662 -7.260438256307941 a35.103612628253316,35.103612628253316 0 0,0 0.314648783808833,-0.5139551415776035 l 11.964816666659438 7.4669305140100874" fill="#ffb410" stroke="none" /><path d="M 82.576782715395 88.27688183743585 l -7.986765134191185 -5.373852020286819 a30.626354597908424,30.626354597908424 0 0,0 0.29723644718986925,-0.43367685946886186 l 7.893338950186003 5.510163614825715" fill="#ff790b" stroke="none" /><path d="M 82.98947788004972 87.6856937992154 l -15.566604629992142 -11.269021289796523 a40.21744053031985,40.21744053031985 0 0,0 0.40963949080682327,-0.5557546428215961 l 15.370863119601498 11.534582241886982" fill="#fff517" stroke="none" /><path d="M 83.64595745247003 86.82634096563983 l -8.05084315370491 -6.485189355340156 a31.337976419985416,31.337976419985416 0 0,0 0.3410663899720229,-0.41604553914658887 l 7.938329944494257 6.622437176185238" fill="#ff830c" stroke="none" /><path d="M 84.10781606972428 86.27271002978789 l -7.556025739823919 -6.526715070000448 a30.98456481704899,30.98456481704899 0 0,0 0.35114207688169125,-0.3995352252293726 l 7.4428725989836355 6.655462573041121" fill="#ff7e0b" stroke="none" /><path d="M 84.83555147118756 85.47280134310135 l -0.7302664610948492 -0.6995787504332021 a22.011286078346615,22.011286078346615 0 0,0 0.26373000480750475,-0.2706102182778369 l 0.7181496551365419 0.7120116607787692" fill="#ff0000" stroke="none" /><path d="M 85.08716467003674 85.21462403516908 l -25.184849897962568 -24.969596064072395 a56.464875468353824,56.464875468353824 0 0,0 0.6883554451787265,-0.6824721006579427 l 24.752502532653864 25.39824817495901" fill="#54ff2b" stroke="none" /><path d="M 85.60350026404147 84.71141617570332 l -2.617668890721011 -2.7798736494317233 a24.818361943065824,24.818361943065824 0 0,0 0.3126761759471431,-0.2894084004724134 l 2.5695629434599145 2.824399796036502" fill="#ff2903" stroke="none" /><path d="M 86.40962598614128 83.9905735841838 l -2.3680057413627873 -2.7895048090596224 a24.659069317585264,24.659069317585264 0 0,0 0.3250601563232467,-0.2711767435699363 l 2.319771250877632 2.829743736541441" fill="#ff2603" stroke="none" /><path d="M 86.96720088162412 83.53348406188908 l -39.09839735512763 -49.399547814332756 a84.0,84.0 0 0,0 1.1383602214590214,-0.8851957935167807 l 38.244627189033366 50.06344465947034" fill="#4dd2ff" stroke="none" /><path d="M 87.83215693770416 82.88440491214696 l -4.117031134217275 -5.791119880210857 a28.105421509459365,28.105421509459365 0 0,0 0.3956238363250775,-0.27617616345043056 l 4.017012206718433 5.860940859466415" fill="#ff5708" stroke="none" /><path d="M 88.72937992617638 82.28071324371311 l -2.296401578352662 -3.610324703334279 a25.278773734677536,25.278773734677536 0 0,0 0.36815027563205666,-0.22975300027106363 l 2.234087173930907 3.6492135004468786" fill="#ff2f04" stroke="none" /><line stroke="#e1ed5e" stroke-width="0.3" x1="56.869717070023135" x2="54.33264160355391" y1="26.7553504044142" y2="22.446841604673864" /><path d="M 56.362301976729285 25.89364864446614 a86.0,86.0 0 0,1 42.16139366436587,-11.88097634709845" fill="none" id="id108" stroke="none" /><text fill="#e1ed5e" style="font-size:6.75px; font-family:Arial;" text-anchor="middle"><textPath startOffset="22.145653131862474" xlink:href="#id108">December</textPath></text><path d="M 89.34428304082924 81.90426304109057 l -7.125711165095243 -12.101015387589863 a35.04315965226664,35.04315965226664 0 0,0 0.5209875425432466,-0.30079229793178347 l 6.916931154691596 12.22155458279782" fill="#ffb310" stroke="none" /><path d="M 89.97174638481275 81.54914285379989 l -2.1352574791567265 -3.9286332625863145 a25.471407363928535,25.471407363928535 0 0,0 0.3859660333742185,-0.20550517314848374 l 2.067502629995946 3.9647089034573737" fill="#ff3204" stroke="none" /><path d="M 90.61103034731259 81.2157712731953 l -2.986325932211954 -5.974652324858813 a27.679417113516898,27.679417113516898 0 0,0 0.4268426446958559,-0.20879012687843834 l 2.883323038254045 6.025036201834465" fill="#ff5107" stroke="none" /><path d="M 91.5904679813234 80.7573450057729 l -9.09185206222326 -20.803936783089437 a43.70386662214467,43.70386662214467 0 0,0 0.6900318691110905,-0.29453357309227185 l 8.73338511794174 20.95694500584111" fill="#dfff1b" stroke="none" /><path d="M 93.27111125876988 80.10723608172694 l -2.1900337986489617 -6.474445782201793 a27.83481501036388,27.83481501036388 0 0,0 0.45394244013478235,-0.14921989651484527 l 2.0785686208664185 6.511086600118667" fill="#ff5307" stroke="none" /><path d="M 94.6519064749342 79.69241777938228 l -1.8971190559711004 -7.203670061278471 a28.449290104720614,28.449290104720614 0 0,0 0.47333482733738147,-0.1203198621477194 l 1.773178935408341 7.235175155261453" fill="#ff5b08" stroke="none" /><path d="M 95.35216902796891 79.52079915486377 l -1.2251433365579327 -5.398207594990482 a26.535487461256256,26.535487461256256 0 0,0 0.4450855227231709,-0.09700431810055979 l 1.1322953972156433 5.418443371224756" fill="#ff4106" stroke="none" /><path d="M 96.41257539226777 79.30868818359171 l -2.383230835131828 -13.74584213809144 a34.950912704868216,34.950912704868216 0 0,0 0.5920393303785619,-0.0974198465164057 l 2.146914001700193 13.784727983103513" fill="#ffb210" stroke="none" /><path d="M 97.12497278360702 79.19773525538626 l -1.1374254930211791 -8.229844259625672 a29.30807277832038,29.30807277832038 0 0,0 0.4989660007565824,-0.06460113844529114 l 0.9959816703738027 8.248156994271358" fill="#ff6709" stroke="none" /><path d="M 97.48249496171623 79.15144685158666 l -0.5297841317788039 -4.387372601290251 a25.41924309908801,25.41924309908801 0 0,0 0.4336572481373748,-0.04859219917625321 l 0.4543909820406298 4.395820560973475" fill="#ff3104" stroke="none" /><path d="M 98.1996594967304 79.07731436759882 l -1.6975992961680235 -19.728677069145718 a40.801579287243385,40.801579287243385 0 0,0 0.6983501265701223,-0.054056716471403726 l 1.358680174822684 19.754911552612175" fill="#fffc17" stroke="none" /><path d="M 99.27912038922189 79.0123766808444 l -0.2207523921472348 -6.426965035379182 a27.430755102211968,27.430755102211968 0 0,0 0.47074661542015256,-0.012124762960020189 l 0.11039246265633833 6.429807515689247" fill="#ff4d07" stroke="none" /><path d="M 99.63950707515114 79.00309439819443 l -0.10932666346182195 -6.367730055813652 a27.368668493732127,27.368668493732127 0 0,0 0.46981958831067255,-0.004032836112909158 l 1.5598738971359288e-15 6.368668493732127" fill="#ff4c07" stroke="none" /></svg>