<?xml version="1.0" encoding="utf-8" ?>
<svg baseProfile="full" height="200mm" version="1.1" viewBox="0,0,200,200" width="200mm" xmlns="http://www.w3.org/2000/svg" xmlns:ev="http://www.w3.org/2001/xml-events" xmlns:xlink="http://www.w3.org/1999/xlink"><defs /><rect fill="#1a1a1a" height="200" width="200" x="0" y="0" /><text alignment-baseline="middle" fill="#e1ed5e" style="dominant-baseline: central; font-size:9.0px; font-family:Arial;" text-anchor="middle" x="100.0" y="100.0">2017</text><line stroke="#e1ed5e" stroke-width="0.3" x1="100.0" x2="100.0" y1="15.0" y2="10.0" /><path d="M 100.0 14.0 a86.0,86.0 0 0,1 42.46469731375804,11.215312516191453" fill="none" id="id13" stroke="none" /><text fill="#e1ed5e" style="font-size:6.75px; font-family:Arial;" text-anchor="middle"><textPath startOffset="22.20632615414155" xlink:href="#id13">January</textPath></text><line stroke="#e1ed5e" stroke-width="0.3" x1="143.23703022742887" x2="145.7803849466894" y1="26.81831364943548" y2="22.513508569990506" /><path d="M 143.74570117128098 25.957352633546492 a86.0,86.0 0 0,1 28.547481713284135,27.462654790039103" fill="none" id="id14" stroke="none" /><text fill="#e1ed5e" style="font-size:6.75px; font-family:Arial;" text-anchor="middle"><textPath startOffset="19.985693538727396" xlink:href="#id14">February</textPath></text><line stroke="#e1ed5e" stroke-width="0.3" x1="172.23445277983987" x2="176.4835382374775" y1="55.19839476539836" y2="52.563006222186495" /><path d="M 173.08426987136738 54.67131705675599 a86.0,86.0 0 0,1 12.851231095245387,41.99856678651699" fill="none" id="id15" stroke="none" /><text fill="#e1ed5e" style="font-size:6.75px; font-family:Arial;" text-anchor="middle"><textPath startOffset="22.20632615414155" xlink:href="#id15">March</textPath></text><path d="M 118.03404312379186 89.2402003453031 l 13.576283703168492 -8.100129943057656 a36.80909814895643,36.80909814895643 0 0,0 0.3199592742173419,0.5469141159600253 l -13.713702651856162 7.865236414743736" fill="#ffc812" stroke="none" /><path d="M 118.56541770881063 90.18545643968196 l 50.85053629929285 -26.88195931827036 a78.51883846806055,78.51883846806055 0 0,0 0.621385251076964,1.200318522127676 l -51.30573098352993 26.00266807388234" fill="#46fff8" stroke="none" /><path d="M 119.196687751892 91.48605970444005 l 11.74450764066738 -5.208817174386479 a33.847771638610254,33.847771638610254 0 0,0 0.23163043979008202,0.5346349907792546 l -11.832428790300142 5.005883039020621" fill="#ffa10e" stroke="none" /><path d="M 120.18372546131832 94.20196356495316 l 6.665411601116187 -1.9147257721038864 a27.934975601590324,27.934975601590324 0 0,0 0.1287845334352292,0.46330648768101307 l -6.697382905117779 1.7997079810039214" fill="#ff5107" stroke="none" /><path d="M 120.37134235888165 94.90015583598534 l 49.51224528032955 -12.395095555893084 a72.04018834741146,72.04018834741146 0 0,0 0.29079262070920076,1.205523147586588 l -49.71827070129957 11.54098717664709" fill="#3effb6" stroke="none" /><path d="M 120.53481517161879 95.60439243477599 l 11.37256463830007 -2.43436966645803 a32.63019269510545,32.63019269510545 0 0,0 0.11283940799751821,0.5502450274959834 l -11.412783342212585 2.2382489827986345" fill="#ff910d" stroke="none" /><path d="M 120.83666639777658 97.38593545837742 l 11.236266898012854 -1.4096461649660592 a32.3243452841117,32.3243452841117 0 0,0 0.06450961429748699,0.5526789799433249 l -11.25886686531393 1.2160234466978814" fill="#ff8d0d" stroke="none" /><path d="M 120.94382443527127 98.46500227214037 l 11.929248738207908 -0.8743087856190944 a32.96124539128956,32.96124539128956 0 0,0 0.03660175058491931,0.5662128812304346 l -11.942531079797243 0.6688368401356246" fill="#ff960d" stroke="none" /><path d="M 120.96714384426684 98.82574320788733 l 11.556715047632927 -0.6472293622817067 a32.574824773601755,32.574824773601755 0 0,0 0.02653512925249696,0.5601146394975977 l -11.56614378511892 0.4482036161611093" fill="#ff910d" stroke="none" /><line stroke="#e1ed5e" stroke-width="0.3" x1="184.98032266829074" x2="189.97916517819016" y1="98.17113171792111" y2="98.06355123074" /><path d="M 185.9800911702706 98.14961562048488 a86.0,86.0 0 0,1 -9.607161424134198,41.387399972396054" fill="none" id="id16" stroke="none" /><text fill="#e1ed5e" style="font-size:6.75px; font-family:Arial;" text-anchor="middle"><textPath startOffset="21.466115282336823" xlink:href="#id16">April</textPath></text><path d="M 120.9904718944345 100.63252640178507 l 10.873922968303917 0.3276745469573259 a31.878858916693936,31.878858916693936 0 0,0 -0.02124933485576753,0.5483509133304896 l -10.866671500596945 -0.5148027073018216" fill="#ff870c" stroke="none" /><path d="M 120.9764740272857 100.99374915477107 l 11.406648922513433 0.5403838467214862 a32.419441945352425,32.419441945352425 0 0,0 -0.031205486852641354,0.5571949304142588 l -11.395657084773262 -0.7366504934711683" fill="#ff8f0d" stroke="none" /><path d="M 120.89721153311464 102.0752229133903 l 22.059494039618617 2.190644786088846 a43.16799950069441,43.16799950069441 0 0,0 -0.07979439949622373,0.7387970379726218 l -22.01851733862134 -2.570038145946259" fill="#e8ff1a" stroke="none" /><path d="M 120.70491114924044 103.5080841355445 l 12.181255804630837 2.0639001989053423 a33.35486450791323,33.35486450791323 0 0,0 -0.10078499134863904,0.5652557547714474 l -12.143924370943008 -2.2732747044100083" fill="#ff9b0e" stroke="none" /><path d="M 120.41448212921028 104.9243191809786 l 14.170453327393854 3.4181535775233978 a35.576883116200925,35.576883116200925 0 0,0 -0.14872608620235803,0.5940867842792611 l -14.109515926896435 -3.6615682012000548" fill="#ffb811" stroke="none" /><path d="M 120.23288151984713 105.62410040840565 l 5.5341184188093 1.5383096880619618 a26.74394144902171,26.74394144902171 0 0,0 -0.12710677501425746,0.44247535866694054 l -5.506819006908944 -1.6333425222334843" fill="#ff4106" stroke="none" /><path d="M 119.26925614724726 108.34839909993367 l 17.975881141709376 7.788044789959346 a40.5904554431814,40.5904554431814 0 0,0 -0.2832806247626793,0.6387230249389872 l -17.839159432215425 -8.09631615139102" fill="#fff717" stroke="none" /><path d="M 118.64920377521936 109.65438752849418 l 19.935565425926832 10.320315898810215 a43.4485119574248,43.4485119574248 0 0,0 -0.3495484341222696,0.6612139065925484 l -19.75496448357967 -10.661944820488898" fill="#e4ff1a" stroke="none" /><line stroke="#e1ed5e" stroke-width="0.3" x1="174.80103733775053" x2="179.2010983576182" y1="140.37084112569926" y2="142.7455964860345" /><path d="M 175.68104954172406 140.8457921977663 a86.0,86.0 0 0,1 -30.038265399797805,32.042727171017184" fill="none" id="id17" stroke="none" /><text fill="#e1ed5e" style="font-size:6.75px; font-family:Arial;" text-anchor="middle"><textPath startOffset="22.206326154141568" xlink:href="#id17">May</textPath></text><path d="M 118.48025628344425 109.97397251340804 l 9.60794368721093 5.185499853292838 a31.917966414361075,31.917966414361075 0 0,0 -0.2651069669047136,0.4812461504559722 l -9.517260310854708 -5.350116522146616" fill="#ff880c" stroke="none" /><path d="M 117.94076556474637 110.91462005526583 l 19.188023066652644 11.673413858978261 a43.459938119446804,43.459938119446804 0 0,0 -0.3943169033141348,0.6357644013777264 l -18.984241523670544 -12.001974591721261" fill="#e4ff1a" stroke="none" /><path d="M 117.14729908036423 112.12312394758627 l 9.533169509958032 6.73994166900112 a32.675107477326755,32.675107477326755 0 0,0 -0.3286496659766881,0.45646564152953023 l -9.415740051605741 -6.903040915981782" fill="#ff920d" stroke="none" /><path d="M 116.27256486870786 113.27417163493432 l 8.662683437516984 7.066491834352984 a32.179328744768554,32.179328744768554 0 0,0 -0.35382551085274955,0.4262056211425065 l -8.53976192677069 -7.214558712609262" fill="#ff8b0c" stroke="none" /><path d="M 114.29624159901734 115.38237550388516 l 10.97668256705202 11.810618326774085 a37.123841522371634,37.123841522371634 0 0,0 -0.47182714418293964,0.43100290929750307 l -10.771755873402217 -11.997814002658172" fill="#ffcc13" stroke="none" /><path d="M 113.75828350139079 115.86535959552629 l 5.287133077511342 6.096855577633616 a29.070032472910917,29.070032472910917 0 0,0 -0.3808652157297193,0.3245815995392631 l -5.181402385204576 -6.186961567395826" fill="#ff6109" stroke="none" /><path d="M 111.7513745106137 117.40417183066458 l 6.545518866316539 9.694128543630299 a32.697005832679295,32.697005832679295 0 0,0 -0.4691635777539637,0.31093603662736946 l -6.377680589822611 -9.805362601348987" fill="#ff920d" stroke="none" /><path d="M 111.1453310114006 117.79835938074945 l 3.65578438284998 5.838046819599889 a27.88821821095486,27.88821821095486 0 0,0 -0.40905482313336544,0.2512748821485483 l -3.5547503597843058 -5.900110168576815" fill="#ff5107" stroke="none" /><line stroke="#e1ed5e" stroke-width="0.3" x1="143.8653032363475" x2="146.44561519142675" y1="172.8068346515853" y2="177.08958963109032" /><path d="M 144.38136562736335 173.6633856474863 a86.0,86.0 0 0,1 -40.68145358897372,12.25698825130547" fill="none" id="id18" stroke="none" /><text fill="#e1ed5e" style="font-size:6.75px; font-family:Arial;" text-anchor="middle"><textPath startOffset="21.466115282336833" xlink:href="#id18">June</textPath></text><path d="M 109.89434966115114 118.52300852407294 l 5.412010294536761 10.131713174811313 a32.486577701161345,32.486577701161345 0 0,0 -0.495511732545803,0.2592283191372006 l -5.236807659464462 -10.22337091289323" fill="#ff8f0d" stroke="none" /><path d="M 109.2508944713604 118.85261126421891 l 5.0759838616590365 10.344464616212834 a32.522741008974485,32.522741008974485 0 0,0 -0.5047023474635293,0.24228779749364007 l -4.8971688461952745 -10.430306690206034" fill="#ff900d" stroke="none" /><path d="M 108.2653958097858 119.30500536409082 l 4.453833480137868 10.402560410117495 a32.315913385800584,32.315913385800584 0 0,0 -0.5132514012653585,0.214539127354841 l -4.2741106193750475 -10.477684580492308" fill="#ff8d0d" stroke="none" /><path d="M 106.57524785965236 119.94407469862006 l 2.1947288114719625 6.657062409435113 a28.009515994633237,28.009515994633237 0 0,0 -0.4591942138707677,0.14701948640608759 l -2.079813252510254 -6.693854742500908" fill="#ff5207" stroke="none" /><path d="M 105.18746579009965 120.34920634021253 l 6.058736879354323 23.76699758759623 a45.52709658524737,45.52709658524737 0 0,0 -0.7610541767347456,0.18704860028527462 l -5.648729417876367 -23.867767446195536" fill="#ccff1d" stroke="none" /><path d="M 104.13013068566511 120.58985236759428 l 2.7031630374906133 13.47602100355971 a34.74446188454237,34.74446188454237 0 0,0 -0.5874004372995987,0.11257669183329169 l -2.4707949856193103 -13.520554893741469" fill="#ffad10" stroke="none" /><path d="M 103.06178313531738 120.77559828337769 l 5.181829097976166 35.16107933016976 a56.540861729326764,56.540861729326764 0 0,0 -0.9640793340443169,0.13361261098764377 l -4.575821172745019 -35.24506650665001" fill="#54ff2b" stroke="none" /><line stroke="#e1ed5e" stroke-width="0.3" x1="102.19456741930631" x2="102.32365962044197" y1="184.97166512339345" y2="189.96999836594603" /><path d="M 102.22038585953345 185.97133177190398 a86.0,86.0 0 0,1 -42.740103519485714,-10.115201625700543" fill="none" id="id19" stroke="none" /><text fill="#e1ed5e" style="font-size:6.75px; font-family:Arial;" text-anchor="middle"><textPath startOffset="22.20632615414155" xlink:href="#id19">July</textPath></text><path d="M 97.65516085044442 120.86867818915974 l -1.9291744425167328 17.169331473872603 a38.27737414335211,38.27737414335211 0 0,0 -0.6541285665548043,-0.07920585977054186 l 2.2244304321229267 -17.133580085376714" fill="#ffda14" stroke="none" /><path d="M 96.58105272829116 120.7198165907248 l -1.150542782903196 6.972624479704592 a28.066911689717536,28.066911689717536 0 0,0 -0.4760028317093355,-0.08275919373108087 l 1.2703945860845816 -6.951786707452505" fill="#ff5307" stroke="none" /><path d="M 95.51606077576429 120.51570834832081 l -5.216025505812161 23.865278422208043 a45.42863967245806,45.42863967245806 0 0,0 -0.7625085773825472,-0.17354446969747012 l 5.626054232587571 -23.771957218932886" fill="#cdff1d" stroke="none" /><path d="M 93.08242187328487 119.8279376855182 l -4.9838024441130555 14.285133104196943 a36.12955103783885,36.12955103783885 0 0,0 -0.5854371191145962,-0.2099169220594792 l 5.228959123857378 -14.197228641097507" fill="#ffbf11" stroke="none" /><path d="M 92.40401165467489 119.57807347666478 l -2.822949767488683 7.275935066809489 a28.80437547060573,28.80437547060573 0 0,0 -0.46070393515968333,-0.18332360364566413 l 2.9477747786902246 -7.226264618757758" fill="#ff5d08" stroke="none" /><path d="M 92.06813273071674 119.44442032107085 l -3.2397747937984884 7.942082324068046 a29.57745955145264,29.57745955145264 0 0,0 -0.46975842456994493,-0.19635905956877397 l 3.376004677865896 -7.885138221479299" fill="#ff6809" stroke="none" /><path d="M 91.7346041902142 119.30500536409082 l -3.9727753263803054 9.2789807954868 a31.093682598383456,31.093682598383456 0 0,0 -0.49021311700376485,-0.21489502445890005 l 4.131909118041814 -9.209221217733447" fill="#ff7d0b" stroke="none" /><path d="M 91.40352486487194 119.15986991738527 l -4.707431265389248 10.491948068497127 a32.499603618838556,32.499603618838556 0 0,0 -0.5084361863648313,-0.23339811593992196 l 4.887335447521499 -10.409362882223132" fill="#ff900d" stroke="none" /><path d="M 90.7491055286396 118.85261126421891 l -14.713340573417005 29.984656195942932 a54.40002991043957,54.40002991043957 0 0,0 -0.837102718452357,-0.4197406809993842 l 15.227297199552122 -29.726947674034246" fill="#6aff28" stroke="none" /><line stroke="#e1ed5e" stroke-width="0.3" x1="58.666819895761336" x2="56.23545636021788" y1="174.27360380694188" y2="178.64263932499728" /><path d="M 58.180547188652646 175.14741091055294 a86.0,86.0 0 0,1 -31.652253787137756,-30.449443065178592" fill="none" id="id20" stroke="none" /><text fill="#e1ed5e" style="font-size:6.75px; font-family:Arial;" text-anchor="middle"><textPath startOffset="22.20632615414155" xlink:href="#id20">August</textPath></text><path d="M 89.4739219176387 118.17145234162733 l -8.796851268339438 15.186241478379282 a38.550114600108245,38.550114600108245 0 0,0 -0.5713349637662638,-0.33755476718607025 l 9.056954103134085 -15.032568138899462" fill="#ffde14" stroke="none" /><path d="M 88.8546689885994 117.79835938074946 l -4.436468696707888 7.084748238045313 a29.35918130520897,29.35918130520897 0 0,0 -0.4260131819381396,-0.2719017688290027 l 4.557763680692951 -7.007332040392505" fill="#ff6509" stroke="none" /><path d="M 88.24862548938628 117.40417183066458 l -0.6988514575890441 1.0350219747489706 a22.24886502392676,22.24886502392676 0 0,0 -0.31555577487291236,-0.21704213934876412 l 0.7165641170848467 -1.0228390460351053" fill="#ff0000" stroke="none" /><path d="M 87.65650970185807 116.9893568818739 l -9.866333650501318 13.579843257886374 a37.78560939053976,37.78560939053976 0 0,0 -0.5229079043230613,-0.386834766655776 l 10.098626525242944 -13.40799854249083" fill="#ffd413" stroke="none" /><path d="M 86.79598089348748 116.32954008644616 l -5.691887344529668 7.039212970707515 a30.052519030070798,30.052519030070798 0 0,0 -0.3994550368462836,-0.3287243005640346 l 5.8122125099206405 -6.9401935512863" fill="#ff6f0a" stroke="none" /><path d="M 86.24171649860922 115.8653595955263 l -20.43927071774862 23.56953756437805 a52.19754619312301,52.19754619312301 0 0,0 -0.6737401931027439,-0.5944973859841423 l 20.84195326375795 -23.214217036621616" fill="#81ff25" stroke="none" /><path d="M 85.44109423537348 115.13401014063109 l -13.51512074130874 14.04899363026182 a40.4944276826813,40.4944276826813 0 0,0 -0.4981779676350319,-0.48757199389406725 l 13.754948661319567 -13.814271533445183" fill="#fff617" stroke="none" /><path d="M 84.9287848128048 114.62390073753433 l -12.914574164967984 12.531268932877923 a38.99496948957041,38.99496948957041 0 0,0 -0.46328521032501213,-0.4857526908359122 l 13.128365926671954 -12.30710912545951" fill="#ffe315" stroke="none" /><path d="M 84.43433777217949 114.09645910891817 l -17.940065218779594 16.24674826335746 a45.20336276609046,45.20336276609046 0 0,0 -0.5173442003316978,-0.5812416934008802 l 18.21706826875963 -15.935532400215717" fill="#d0ff1d" stroke="none" /><path d="M 83.95833913139862 113.55231037782056 l -4.910767945097451 4.148713274177027 a27.42864399713729,27.42864399713729 0 0,0 -0.301589696020721,-0.3632842171637118 l 4.981453641011709 -4.063567799899554" fill="#ff4a06" stroke="none" /><path d="M 83.06392112726016 112.41649034213515 l -7.300757796368137 5.35246613752974 a30.052621617776403,30.052621617776403 0 0,0 -0.30227242751257327,-0.41982996432134506 l 7.391810016256318 -5.226002567757257" fill="#ff6f0a" stroke="none" /><path d="M 82.85270091963577 112.12312394758628 l -19.30228038020617 13.64669365266193 a44.639168249447685,44.639168249447685 0 0,0 -0.43818464990371536,-0.631237669541789 l 19.534325937272023 -13.31241472093313" fill="#d6ff1c" stroke="none" /><path d="M 82.44556493220864 111.52570212397912 l -6.352274166628633 4.170707833756617 a28.599091453757897,28.599091453757897 0 0,0 -0.2666458580228997,-0.4138402930794348 l 6.423124888028578 -4.060745940755734" fill="#ff5b08" stroke="none" /><line stroke="#e1ed5e" stroke-width="0.3" x1="26.63291911575756" x2="22.317208475507996" y1="142.92168965132927" y2="145.44649492493687" /><path d="M 25.769776987707644 143.4266507060508 a86.0,86.0 0 0,1 -11.730757126820373,-40.83630448921669" fill="none" id="id21" stroke="none" /><text fill="#e1ed5e" style="font-size:6.75px; font-family:Arial;" text-anchor="middle"><textPath startOffset="21.46611528233685" xlink:href="#id21">September</textPath></text><path d="M 81.87401531095188 110.60418214915194 l -7.150296661233042 4.183113332430488 a29.284031596728617,29.284031596728617 0 0,0 -0.25079402987058835,-0.4372805305710652 l 7.221242687256007 -4.059412956001116" fill="#ff6409" stroke="none" /><path d="M 81.69416730710424 110.29060199501025 l -22.51268150133265 12.655477030583354 a46.82599324812249,46.82599324812249 0 0,0 -0.3889313273017413,-0.7060233317933374 l 22.72718923808591 -12.266083180392194" fill="#bdff1f" stroke="none" /><path d="M 81.35079622478065 109.6543875284942 l -19.805895002521087 10.253187643168216 a43.30249613152992,43.30249613152992 0 0,0 -0.33697864378045994,-0.6648908333510761 l 19.979452316087812 -9.910742598114455" fill="#e6ff1a" stroke="none" /><path d="M 81.18737489456691 109.33194174019688 l -9.718784045739612 4.8209713419635545 a31.84880306797744,31.84880306797744 0 0,0 -0.23939189738092315,-0.4932182141425231 l 9.800329199735254 -4.652964171855746" fill="#ff870c" stroke="none" /><path d="M 80.58989483394504 108.01547362559985 l -22.207255092810353 9.170566875891254 a45.02626636792211,45.02626636792211 0 0,0 -0.28966337505032286,-0.7189207417544056 l 22.361821082118063 -8.786946766294044" fill="#d2ff1c" stroke="none" /><path d="M 80.45479744820244 107.68017299344265 l -18.62796983497214 7.319751763639804 a41.01449539843411,41.01449539843411 0 0,0 -0.2525432797430109,-0.6593108126067261 l 18.75120739430866 -6.99801738419992" fill="#fffc17" stroke="none" /><path d="M 79.76711848015287 105.62410040840567 l -24.91781202671338 6.92636274563987 a46.8625570484206,46.8625570484206 0 0,0 -0.2093460297264596,-0.7790544552467707 l 25.033346132781617 -6.4964173572175605" fill="#bcff1f" stroke="none" /><path d="M 79.67330655649465 105.27499134158121 l -9.875872999658204 2.562893207817713 a31.20300392531808,31.20300392531808 0 0,0 -0.13044146212618113,-0.5210488001801407 l 9.918525776079445 -2.3925165682401808" fill="#ff7e0b" stroke="none" /><path d="M 79.50377843672027 104.57218783832718 l -10.029639882473841 2.2373585956742645 a31.276159285343304,31.276159285343304 0 0,0 -0.11269241225395282,-0.5264614328146519 l 10.066666333452234 -2.0643833434434486" fill="#ff7f0b" stroke="none" /><path d="M 79.35854240842038 103.8639653848113 l -7.0214635631475915 1.31437869822641 a28.14342648390537,28.14342648390537 0 0,0 -0.08503812072234727,-0.4769389417019144 l 7.043048126209127 -1.193321005791282" fill="#ff5407" stroke="none" /><path d="M 79.23777060512086 103.15116336523772 l -1.3445027360287567 0.20406034851347254 a22.359900082000237,22.359900082000237 0 0,0 -0.054479309850931794,-0.3810281662099808 l 1.3478160968962873 -0.18088671032309114" fill="#ff0200" stroke="none" /><path d="M 79.18660465613746 102.79330883721812 l -23.790604207299236 3.1928718922164583 a45.00390133850058,45.00390133850058 0 0,0 -0.09643369705887038,-0.7686714475200612 l 23.842039413604954 -2.7828826904089885" fill="#d2ff1c" stroke="none" /><path d="M 79.04373962182676 101.35467743843564 l -9.398055249405928 0.6075193370283772 a30.417670742585436,30.417670742585436 0 0,0 -0.029278672533772244,-0.5227903663902446 l 9.407120272827232 -0.445657254302695" fill="#ff740a" stroke="none" /><path d="M 79.0235259727143 100.99374915477108 l -16.47551047333091 0.780518431553256 a37.49398843151137,37.49398843151137 0 0,0 -0.024992184235376566,-0.6449372248407569 l 16.486504790417488 -0.4968039596985023" fill="#ffd113" stroke="none" /><line stroke="#e1ed5e" stroke-width="0.3" x1="15.007084014347285" x2="10.007500721073583" y1="101.09737516637583" y2="101.16192664675087" /><path d="M 14.007167355692545 101.11028546245083 a86.0,86.0 0 0,1 10.666146001902534,-42.60595125391555" fill="none" id="id22" stroke="none" /><text fill="#e1ed5e" style="font-size:6.75px; font-family:Arial;" text-anchor="middle"><textPath startOffset="22.20632615414155" xlink:href="#id22">October</textPath></text><path d="M 79.00175016825051 100.2711162175752 l -6.6781844292299875 0.08622452429272816 a27.678741044493293,27.678741044493293 0 0,0 -0.002050471069812496,-0.4764572639447251 l 6.678679197589303 0.028742217855672346" fill="#ff4e07" stroke="none" /><path d="M 79.00019446554 99.90962569577889 l -19.68108075272143 -0.08469906906652785 a40.68126300640898,40.68126300640898 0 0,0 0.009040912613964398,-0.7002286453867945 l 19.67670683298975 0.4234639725137943" fill="#fff817" stroke="none" /><path d="M 79.01574976396665 99.18683210126434 l -34.83088936742126 -1.349743774469682 a55.857031749451345,55.857031749451345 0 0,0 0.045500584191429064,-0.960445418177754 l 34.80249517499633 1.949100299270445" fill="#5bff2a" stroke="none" /><path d="M 79.03285615573316 98.82574320788736 l -31.616844709113387 -1.7706891754357261 a52.666389271847784,52.666389271847784 0 0,0 0.05848328913100021,-0.904710597540072 l 31.581680828977973 2.31465883722881" fill="#7cff26" stroke="none" /><path d="M 79.08570108090925 98.10471618934814 l -14.107486745602754 -1.2784407137606755 a35.16529537058646,35.16529537058646 0 0,0 0.05981930604146505,-0.6023722483241033 l 14.083390313879061 1.5210884927892092" fill="#ffb310" stroke="none" /><path d="M 79.21141760316559 97.0276538004421 l -3.0977608425487073 -0.442917053780975 a24.129264730596965,24.129264730596965 0 0,0 0.06232716225132326,-0.4106581253353116 l 3.089677786858082 0.4961742915083786" fill="#ff1b02" stroke="none" /><path d="M 79.54389044137918 95.25157060432595 l -28.442031411306193 -6.602182963437183 a50.198252870410386,50.198252870410386 0 0,0 0.2026269203630574,-0.8400194001694422 l 28.32417169068232 7.090787595266022" fill="#97ff23" stroke="none" /><path d="M 80.14247586403 93.16781622104843 l -59.572572407909995 -20.496551336854708 a84.0,84.0 0 0,0 0.4821876767607618,-1.3632094942935558 l 59.210931650339425 21.518958457574875" fill="#4dd2ff" stroke="none" /><path d="M 80.38941819471856 92.48833698450439 l -10.165975437823692 -3.89398858590576 a31.886239190353983,31.886239190353983 0 0,0 0.2007412614752381,-0.5108646145583955 l 10.097440626466764 4.068402205359919" fill="#ff870c" stroke="none" /><path d="M 80.65960295795068 91.81776055985345 l -17.99177983338362 -7.611687093655747 a40.53565770545428,40.53565770545428 0 0,0 0.27739764737670963,-0.6402720159830473 l 17.85809147616423 7.920258254225394" fill="#fff617" stroke="none" /><path d="M 81.26839172434947 90.50648371742162 l -23.979812329274353 -12.153400575703303 a47.88375987284375,47.88375987284375 0 0,0 0.3789442474139471,-0.7319996704723244 l 23.767058648700292 12.564372968435963" fill="#b1ff20" stroke="none" /><path d="M 81.6062741919709 89.86733742301443 l -28.632969917235222 -15.773216681401117 a53.690080005404205,53.690080005404205 0 0,0 0.4528946386359718,-0.8056490267915988 l 28.35721763730682 16.2637492181275" fill="#71ff27" stroke="none" /><line stroke="#e1ed5e" stroke-width="0.3" x1="26.266209847984243" x2="21.928928074336255" y1="57.711370442889674" y2="55.22380399835377" /><path d="M 25.398753493254645 57.213857153982495 a86.0,86.0 0 0,1 29.58750427330803,-30.492523968695096" fill="none" id="id23" stroke="none" /><text fill="#e1ed5e" style="font-size:6.75px; font-family:Arial;" text-anchor="middle"><textPath startOffset="21.46611528233685" xlink:href="#id23">November</textPath></text><path d="M 82.54541684631803 88.32363383020206 l -12.496873868703611 -8.359871672901106 a36.03526889941319,36.03526889941319 0 0,0 0.3493285295699363,-0.5125965122673722 l 12.351120873464934 8.573746208438894" fill="#ffbe11" stroke="none" /><path d="M 83.17141714833178 87.43820079747576 l -7.087569705987983 -5.29056001121859 a29.844414597334513,29.844414597334513 0 0,0 0.31084245344589867,-0.40903223219197116 l 6.995451312317975 5.411777019291588" fill="#ff6c09" stroke="none" /><path d="M 84.07557802195018 86.31012108654704 l -38.93637126778186 -33.4727507673381 a72.34652910796291,72.34652910796291 0 0,0 0.8199553604570261,-0.9373507206184606 l 38.35442404374699 34.138017044159504" fill="#3effb9" stroke="none" /><path d="M 84.5562425177563 85.77008943001954 l -10.898936188951515 -10.042302687996614 a35.82007602302299,35.82007602302299 0 0,0 0.42170920582827787,-0.4498499779535442 l 10.724459661152782 10.228422082828208" fill="#ffbb11" stroke="none" /><path d="M 85.83668400450813 84.49514656593479 l -8.233987437875156 -9.013903837408153 a33.208563040633706,33.208563040633706 0 0,0 0.4253685036027136,-0.38190004246004444 l 8.077607946676471 9.154302888637476" fill="#ff990e" stroke="none" /><path d="M 86.37877921826538 84.01681056812374 l -9.354858537945871 -10.977024637974694 a35.422497986398966,35.422497986398966 0 0,0 0.46747992090531254,-0.39150098975539105 l 9.164521080081448 11.136426785123898" fill="#ffb610" stroke="none" /><path d="M 87.51073957382395 83.11751280151077 l -14.75506559668438 -19.94531281666636 a45.809825959025474,45.809825959025474 0 0,0 0.6379665789873864,-0.4635098510804288 l 14.409553701343212 20.196341902563454" fill="#c9ff1d" stroke="none" /><path d="M 87.80319425747018 82.90503203632743 l -23.251097119011217 -32.58859481411179 a61.03286186617246,61.03286186617246 0 0,0 0.8604728505078837,-0.6028162209780349 l 22.686693128919675 32.98399587785376" fill="#30ff39" stroke="none" /><path d="M 88.39885842347998 82.49532879139004 l -7.05511146568751 -10.64528052971141 a33.77092774036124,33.77092774036124 0 0,0 0.4873192702469328,-0.31696600903599065 l 6.87082516965629 10.765145462906936" fill="#ffa00e" stroke="none" /><line stroke="#e1ed5e" stroke-width="0.3" x1="56.762969772571076" x2="54.21961505331055" y1="26.818313649435495" y2="22.513508569990535" /><path d="M 56.25429882871897 25.957352633546506 a86.0,86.0 0 0,1 42.265352541879196,-11.944610805530505" fill="none" id="id24" stroke="none" /><text fill="#e1ed5e" style="font-size:6.75px; font-family:Arial;" text-anchor="middle"><textPath startOffset="22.20632615414155" xlink:href="#id24">December</textPath></text><path d="M 89.63071344664047 81.73862282372117 l -23.58244819445441 -41.531110072318604 a68.75944897801031,68.75944897801031 0 0,0 1.034259694325391,-0.5755644001228721 l 22.864064411056972 41.930889870001664" fill="#3aff93" stroke="none" /><path d="M 90.91171255644093 81.06846463323043 l -2.798769132525434 -5.83003092110374 a27.46702166365653,27.46702166365653 0 0,0 0.42799085519305213,-0.20094744524395994 l 2.6980000660327734 5.877343348987708" fill="#ff4b07" stroke="none" /><path d="M 94.63758080256005 79.69619591428918 l -6.747480365973772 -25.548080890116946 a47.42409749560352,47.42409749560352 0 0,0 0.7910590388021854,-0.20165856265491014 l 6.306712438486588 25.660442448940717" fill="#b6ff1f" stroke="none" /><path d="M 95.33964822691252 79.52364482259891 l -3.34728703885185 -14.707095435165773 a36.08320213547307,36.08320213547307 0 0,0 0.6068116842848346,-0.1326255309684221 l 3.0936326304134947 14.762534464230063" fill="#ffbf11" stroke="none" /><path d="M 96.75951476605007 79.25152402106235 l -0.737489893019127 -4.722067908133888 a25.779311317683053,25.779311317683053 0 0,0 0.43902292335191734,-0.06470056671302174 l 0.6560979892385609 4.734062959007879" fill="#ff3304" stroke="none" /><path d="M 97.11714578562143 79.19881850522333 l -3.4119586713526884 -24.618924960374155 a45.8542336067631,45.8542336067631 0 0,0 0.7827651135040278,-0.10162537724200718 l 2.987678829340803 24.6740086607803" fill="#c8ff1d" stroke="none" /><path d="M 97.83486435360386 79.11191278185805 l -1.728075850786662 -16.671564735853178 a37.76088651855311,37.76088651855311 0 0,0 0.6471044874678241,-0.06145036835217201 l 1.4408462362286014 16.69884064872053" fill="#ffd413" stroke="none" /><path d="M 99.27714615592234 79.0124445844662 l -0.8116458887121965 -23.565570283260826 a44.57954350329898,44.57954350329898 0 0,0 0.7671361732030201,-0.01981286408166715 l 0.40588308031429726 23.57604993948485" fill="#d7ff1c" stroke="none" /><path d="M 99.63851952072746 79.00311137660856 l -0.40299453853085565 -23.408266632809504 a44.41173533403256,44.41173533403256 0 0,0 0.7644750178033857,-0.0065800778316103 l 5.734221347861592e-15 23.411735334032556" fill="#d9ff1c" stroke="none" /></svg>