<?xml version="1.0" encoding="utf-8" ?>
<svg baseProfile="full" height="200mm" version="1.1" viewBox="0,0,200,200" width="200mm" xmlns="http://www.w3.org/2000/svg" xmlns:ev="http://www.w3.org/2001/xml-events" xmlns:xlink="http://www.w3.org/1999/xlink"><defs /><rect fill="#1a1a1a" height="200" width="200" x="0" y="0" /><text alignment-baseline="middle" fill="#e1ed5e" style="dominant-baseline: central; font-size:9.0px; font-family:Arial;" text-anchor="middle" x="100.0" y="100.0">2018</text><line stroke="#e1ed5e" stroke-width="0.3" x1="100.0" x2="100.0" y1="15.0" y2="10.0" /><path d="M 100.0 14.0 a86.0,86.0 0 0,1 42.46469731375804,11.215312516191453" fill="none" id="id25" stroke="none" /><text fill="#e1ed5e" style="font-size:6.75px; font-family:Arial;" text-anchor="middle"><textPath startOffset="22.20632615414155" xlink:href="#id25">January</textPath></text><path d="M 101.08401301168833 79.027996857942 l 0.2202353062965672 -4.260811896021488 a25.266499924225684,25.266499924225684 0 0,0 0.43414819360246176,0.026189004645389893 l -0.29354554873864086 4.256389621995794" fill="#ff2003" stroke="none" /><path d="M 102.16513564639614 79.11191278185805 l 4.680972211988397 -45.15955200888292 a66.40150480427283,66.40150480427283 0 0,0 1.1358872125120831,0.1276301633115139 l -5.457626128010205 45.07228589210081" fill="#37ff75" stroke="none" /><path d="M 103.59715602781102 79.31037775812273 l 1.6154955840264495 -9.29178303874341 a30.43117479538412,30.43117479538412 0 0,0 0.5153082965623346,0.09416929742902738 l -1.7751990016916848 9.262598259963646" fill="#ff6a09" stroke="none" /><path d="M 104.66035177308747 79.52364482259891 l 4.890187958815022 -21.48619469182438 a43.03566428786574,43.03566428786574 0 0,0 0.7209013005859051,0.1706140464618122 l -5.259312946363451 21.3988347332217" fill="#f0ff19" stroke="none" /><path d="M 105.36241919743992 79.69619591428918 l 3.2112145482250893 -12.158667322292464 a33.57557513312672,33.57557513312672 0 0,0 0.5575178056880559,0.15239067665166592 l -3.420030243136856 12.101590104814505" fill="#ff950d" stroke="none" /><line stroke="#e1ed5e" stroke-width="0.3" x1="143.23703022742887" x2="145.7803849466894" y1="26.81831364943548" y2="22.513508569990506" /><path d="M 143.74570117128098 25.957352633546492 a86.0,86.0 0 0,1 28.547481713284135,27.462654790039103" fill="none" id="id26" stroke="none" /><text fill="#e1ed5e" style="font-size:6.75px; font-family:Arial;" text-anchor="middle"><textPath startOffset="19.985693538727396" xlink:href="#id26">February</textPath></text><path d="M 113.89432698308785 84.25364557470407 l 7.346926401809732 -8.326226034573295 a32.10420494823538,32.10420494823538 0 0,0 0.4112227801448459,0.36919987227011763 l -7.489160169550567 8.198527153533881" fill="#ff810b" stroke="none" /><path d="M 114.68862486808459 84.99185889309783 l 7.897996965140037 -8.069799179925809 a32.29159044890012,32.29159044890012 0 0,0 0.39390235374604904,0.3922108118573077 l -8.03573511905341 7.932652517418382" fill="#ff830c" stroke="none" /><path d="M 116.15771136456269 86.58626213691792 l 9.039300656908983 -7.504206922726168 a32.7482797849339,32.7482797849339 0 0,0 0.356334824417193,0.4368243612315716 l -9.167133973402585 7.347498391886496" fill="#ff890c" stroke="none" /><path d="M 116.38621287248628 86.86637796730983 l 13.98322877234742 -11.207619656950293 a38.92041922709018,38.92041922709018 0 0,0 0.41449490198623534,0.5263664329061913 l -14.17407775492762 10.965260830091063" fill="#ffdb14" stroke="none" /><path d="M 116.82858285166822 87.43820079747576 l 42.52285511806245 -31.74144681221209 a74.06328912840043,74.06328912840043 0 0,0 0.7538139965215355,1.028201444102166 l -43.06293172709761 31.00478292443843" fill="#40ffca" stroke="none" /><path d="M 117.2510076193507 88.02491185347247 l 8.726041484681865 -6.057334055786263 a31.62238654238194,31.62238654238194 0 0,0 0.3065497255807266,0.4498238960403633 l -8.829015675931323 5.906232136475493" fill="#ff7a0b" stroke="none" /><line stroke="#e1ed5e" stroke-width="0.3" x1="172.23445277983987" x2="176.4835382374775" y1="55.19839476539836" y2="52.563006222186495" /><path d="M 173.08426987136738 54.67131705675599 a86.0,86.0 0 0,1 12.851231095245387,41.99856678651699" fill="none" id="id27" stroke="none" /><text fill="#e1ed5e" style="font-size:6.75px; font-family:Arial;" text-anchor="middle"><textPath startOffset="22.20632615414155" xlink:href="#id27">March</textPath></text><path d="M 117.84615892207809 88.93136811851018 l 11.982169496071393 -7.431639708730501 a35.09970406047459,35.09970406047459 0 0,0 0.3140323751329549,0.5161866554651816 l -12.108317669490573 7.224285280058237" fill="#ffa90f" stroke="none" /><path d="M 118.73160827565052 90.50648371742162 l 8.222752278395602 -4.167438881584567 a30.21852492883774,30.21852492883774 0 0,0 0.23115730729217185,0.46599902609093125 l -8.293269598641182 4.025280266994685" fill="#ff6709" stroke="none" /><path d="M 119.97218684219823 93.5106431181261 l 3.37327223736081 -1.0960425906741709 a24.546868329656593,24.546868329656593 0 0,0 0.12711130102447843,0.4029775605429387 l -3.3916390221534947 1.037814863704813" fill="#ff1602" stroke="none" /><path d="M 120.18372546131832 94.20196356495316 l 23.250470161434045 -6.678998551893654 a45.1907706446887,45.1907706446887 0 0,0 0.20833640222414812,0.749496885968177 l -23.361993334224557 6.277790362506526" fill="#d6ff1c" stroke="none" /><path d="M 120.28053869075195 94.5502522615342 l 11.004365471145313 -2.9570721347245286 a32.3947503277825,32.3947503277825 0 0,0 0.14007438847182693,0.539763758721126 l -11.053636191487442 2.767211950454552" fill="#ff850c" stroke="none" /><path d="M 120.45610955862082 95.25157060432595 l 15.859352915776336 -3.6813949087354536 a37.281024027413224,37.281024027413224 0 0,0 0.13972504044139636,0.6263599589716053 l -15.92037234321977 3.4078567802138844" fill="#ffc612" stroke="none" /><path d="M 120.53481517161879 95.60439243477599 l 20.400771986656547 -4.366914770428323 a41.86292027171018,41.86292027171018 0 0,0 0.1447673688183782,0.7059371034429892 l -20.47291865138992 4.015102010821923" fill="#feff18" stroke="none" /><path d="M 120.6074358757038 95.95851677861258 l 19.517445408945264 -3.8277167824453304 a40.889245613088804,40.889245613088804 0 0,0 0.12951040818221732,0.6918497791594374 l -19.58044154103734 3.49118892582333" fill="#fff417" stroke="none" /><path d="M 120.73433829027371 96.67025291283417 l 30.881005428263006 -4.95921000390669 a52.276672778977904,52.276672778977904 0 0,0 0.13503340042198705,0.8897013929712086 l -30.961794722124292 4.4269094985434" fill="#85ff25" stroke="none" /><path d="M 120.78858239683441 97.02765380044208 l 2.0660874143758883 -0.29540865061629923 a23.0870992967996,23.0870992967996 0 0,0 0.05286286211138768,0.3938897244273849 l -2.070866275545112 0.25980058412424994" fill="#ff0000" stroke="none" /><path d="M 120.91429891909075 98.10471618934814 l 5.437558055131393 -0.49275932180365933 a26.45983968190905,26.45983968190905 0 0,0 0.03720192498389431,0.453957713824069 l -5.445234463934782 0.39908769077182155" fill="#ff3104" stroke="none" /><path d="M 120.98425023603335 99.18683210126433 l 61.37186109254964 -2.378242098944754 a82.41792384511545,82.41792384511545 0 0,0 0.042732930340809216,1.4180979177377724 l -61.40370571734609 1.3214740337819824" fill="#4be1ff" stroke="none" /><line stroke="#e1ed5e" stroke-width="0.3" x1="184.98032266829074" x2="189.97916517819016" y1="98.17113171792111" y2="98.06355123074" /><path d="M 185.9800911702706 98.14961562048488 a86.0,86.0 0 0,1 -9.607161424134198,41.387399972396054" fill="none" id="id28" stroke="none" /><text fill="#e1ed5e" style="font-size:6.75px; font-family:Arial;" text-anchor="middle"><textPath startOffset="21.466115282336823" xlink:href="#id28">April</textPath></text><path d="M 120.99513854157772 99.54816195383933 l 4.201632889412719 -0.090423675541699 a25.20260578433109,25.20260578433109 0 0,0 0.00560097056240448,0.43380134254434966 l -4.202566867092839 0.018086074936886614" fill="#ff1f03" stroke="none" /><path d="M 120.99824983174949 100.27111621757518 l 10.187411753164897 0.13153346414723252 a31.18826085653056,31.18826085653056 0 0,0 -0.011551444662177638,0.5367502429211743 l -10.183638245817711 -0.3068735228585217" fill="#ff740a" stroke="none" /><path d="M 120.9904718944345 100.63252640178507 l 10.135533394561133 0.30542393236685683 a31.140134169266517,31.140134169266517 0 0,0 -0.020756926718909555,0.5356440472845555 l -10.12877433499102 -0.4798452266654185" fill="#ff730a" stroke="none" /><path d="M 120.9764740272857 100.99374915477107 l 7.038577783827181 0.33344883007364656 a28.046471836406006,28.046471836406006 0 0,0 -0.02699626383542394,0.4820364258457575 l -7.031795169104228 -0.4545569722548274" fill="#ff4806" stroke="none" /><path d="M 120.95626037817324 101.35467743843564 l 3.9149243801834515 0.25307281143251675 a24.923095557138666,24.923095557138666 0 0,0 -0.031359712064626656,0.4278783557145944 l -3.909988109454487 -0.3204243036438814" fill="#ff1b02" stroke="none" /><path d="M 120.89721153311464 102.0752229133903 l 10.787668648019235 1.071282506996521 a31.840730652001916,31.840730652001916 0 0,0 -0.05885637535407743,0.5449369385811977 l -10.767629971164105 -1.2568157674625102" fill="#ff7d0b" stroke="none" /><path d="M 120.76222939487914 103.15116336523771 l 10.488890469214631 1.5919392257910485 a31.609010027980638,31.609010027980638 0 0,0 -0.08627490481810912,0.5372339146581933 l -10.459933810035235 -1.7722523701424469" fill="#ff7a0b" stroke="none" /><path d="M 120.64145759157962 103.86396538481128 l 5.690486400845167 1.065227219446686 a26.789330229590803,26.789330229590803 0 0,0 -0.08874930950522378,0.4525308171424322 l -5.671307158364279 -1.1630217636570632" fill="#ff3605" stroke="none" /><path d="M 120.49622156327973 104.57218783832717 l 44.283225978562854 9.878465971690051 a66.3716672938333,66.3716672938333 0 0,0 -0.25834202489731284,1.11293068181866 l -44.106623387734984 -10.639265310857278" fill="#37ff75" stroke="none" /><path d="M 120.32669344350535 105.2749913415812 l 10.37270222151347 2.6918256311267474 a31.716290244510056,31.716290244510056 0 0,0 -0.141684104720953,0.5272592614473509 l -10.32483004045074 -2.869975825749646" fill="#ff7b0b" stroke="none" /><path d="M 120.02730092923936 106.31721596034902 l 10.167218112396146 3.2070478572680026 a31.661026221890815,31.661026221890815 0 0,0 -0.1684181890363334,0.5183378877579967 l -10.110507672343566 -3.3815846450037945" fill="#ff7b0b" stroke="none" /><path d="M 119.79798401119884 107.00284435728193 l 10.2172849291865 3.614007167225847 a31.837617779241956,31.837617779241956 0 0,0 -0.18719873252976346,0.5150905132654391 l -10.153561935651508 -3.789345477497417" fill="#ff7d0b" stroke="none" /><path d="M 119.54520255179757 107.68017299344265 l 5.226004042537028 2.0535277137572376 a26.61498836363731,26.61498836363731 0 0,0 -0.17121977854749146,0.4249534487230358 l -5.189881649732144 -2.143180530323087" fill="#ff3404" stroke="none" /><path d="M 119.12269723197855 108.67885076344098 l 7.2309196019418 3.2817583914233137 a28.94078940845452,28.94078940845452 0 0,0 -0.2097867979361781,0.4518620992448381 l -7.17335818716579 -3.4057405579469826" fill="#ff5507" stroke="none" /><path d="M 118.64920377521936 109.65438752849418 l 11.863869235193134 6.141730905215935 a34.3593507230646,34.3593507230646 0 0,0 -0.2764250535087129,0.5228920277371819 l -11.756391673459529 -6.345037948039251" fill="#ff9f0e" stroke="none" /><line stroke="#e1ed5e" stroke-width="0.3" x1="174.80103733775053" x2="179.2010983576182" y1="140.37084112569926" y2="142.7455964860345" /><path d="M 175.68104954172406 140.8457921977663 a86.0,86.0 0 0,1 -30.038265399797805,32.042727171017184" fill="none" id="id29" stroke="none" /><text fill="#e1ed5e" style="font-size:6.75px; font-family:Arial;" text-anchor="middle"><textPath startOffset="22.206326154141568" xlink:href="#id29">May</textPath></text><path d="M 118.48025628344425 109.97397251340804 l 4.657567330618273 2.513733999270925 a26.292616749617643,26.292616749617643 0 0,0 -0.21838345801827092,0.39642941006650584 l -4.613607463148493 -2.593533927735236" fill="#ff2f04" stroke="none" /><path d="M 118.30583269289576 110.29060199501025 l 6.177170820272592 3.472489202377863 a28.086298088808995,28.086298088808995 0 0,0 -0.24053641174959692,0.4193955087599064 l -6.116482412370616 -3.5783045569960845" fill="#ff4906" stroke="none" /><path d="M 118.12598468904814 110.60418214915192 l 7.119831012040556 4.165290119023241 a29.248735382811542,29.248735382811542 0 0,0 -0.25797262640660146,0.4323769604152111 l -7.047077509935726 -4.287229173324556" fill="#ff5908" stroke="none" /><path d="M 117.94076556474637 110.91462005526583 l 6.869473654413796 4.17918035030324 a29.040846764430096,29.040846764430096 0 0,0 -0.26349086679086486,0.42483117458532627 l -6.796518147954968 -4.29680785625384" fill="#ff5608" stroke="none" /><path d="M 117.75023020441432 111.22182372390056 l 6.941042352654685 4.38817710219037 a29.21183092991654,29.21183092991654 0 0,0 -0.27235878228235794,0.42270687839752635 l -6.8644787069952775 -4.507005580509349" fill="#ff5908" stroke="none" /><path d="M 117.55443506779139 111.5257021239791 l 8.885049350729929 5.833650116218259 a31.62899692555039,31.62899692555039 0 0,0 -0.30273000766711805,0.45254028651551986 l -8.783316237652091 -5.9857273169395855" fill="#ff7a0b" stroke="none" /><path d="M 117.35343817320211 111.8261652097733 l 4.950305102361199 3.3735750457630895 a26.990536636717845,26.990536636717845 0 0,0 -0.2649430827381021,0.3816702710730827 l -4.891501112460961 -3.458286579023192" fill="#ff3905" stroke="none" /><path d="M 117.14729908036423 112.12312394758627 l 6.723867526081687 4.753767870018807 a29.23460402632203,29.23460402632203 0 0,0 -0.2940447205836561,0.40840239901266373 l -6.641043013122427 -4.8688038744826025" fill="#ff5908" stroke="none" /><path d="M 116.93607887273984 112.41649034213515 l 6.646661425707825 4.872922948686785 a29.241570613167777,29.241570613167777 0 0,0 -0.3011028661541629,0.403376494740648 l -6.56179729285857 -4.9866123229367485" fill="#ff5908" stroke="none" /><path d="M 116.71984013943494 112.70617746262583 l 4.785430635741918 3.6366693931128755 a27.010466757607205,27.010466757607205 0 0,0 -0.2845014814543189,0.3677565159653505 l -4.72212233706953 -3.7185039031914786" fill="#ff3905" stroke="none" /><path d="M 116.498646956653 112.99209946851258 l 6.206086805439998 4.88707330354664 a28.899303697851774,28.899303697851774 0 0,0 -0.3111245200081528,0.3881756762920539 l -6.121044373376992 -4.9931768134169445" fill="#ff5407" stroke="none" /><path d="M 116.27256486870786 113.27417163493432 l 4.257388496323908 3.4729193629133173 a26.49422657977712,26.49422657977712 0 0,0 -0.29131537604749247,0.3509081368877208 l -4.196977120382872 -3.545688756914809" fill="#ff3204" stroke="none" /><path d="M 116.0416608686014 113.55231037782055 l 5.608005800793598 4.737753517887401 a28.341392065404836,28.341392065404836 0 0,0 -0.31804101568590226,0.36995355270329655 l -5.525622275536917 -4.833584169752226" fill="#ff4c07" stroke="none" /><path d="M 115.80600337817218 113.82643327865902 l 4.394832905370137 3.8444167373056892 a26.83901501249999,26.83901501249999 0 0,0 -0.3071676067814174,0.3451060624803647 l -4.328006448940381 -3.9194969695269206" fill="#ff3705" stroke="none" /><path d="M 115.56566222782051 114.09645910891815 l 10.063910616849556 9.114003786660025 a34.57745785952549,34.57745785952549 0 0,0 -0.403327262146063,0.4377320849578369 l -9.905536946707771 -9.285887126419196" fill="#ffa20f" stroke="none" /><path d="M 115.32070863581623 114.36230785411682 l 3.8655688035827294 3.6237546518270016 a26.29851110708186,26.29851110708186 0 0,0 -0.31244315379545046,0.32759539762326223 l -3.802619098408315 -3.6897571660327713" fill="#ff2f04" stroke="none" /><path d="M 114.81725581225074 114.88116024355365 l 5.479178212316835 5.5028090230487345 a28.765455622593826,28.765455622593826 0 0,0 -0.35388365857281395,0.34634964255038914 l -5.3836446013682275 -5.596308768521695" fill="#ff5207" stroke="none" /><path d="M 114.55890576462653 115.13401014063108 l 7.987612908086396 8.303138759516257 a32.52146141898716,32.52146141898716 0 0,0 -0.40677250133380016,0.3846287894704879 l -7.843504572361788 -8.439402185732666" fill="#ff860c" stroke="none" /><path d="M 114.29624159901734 115.38237550388516 l 12.057840333925128 12.973915311775178 a38.71197312654765,38.71197312654765 0 0,0 -0.49201157469058204,0.4494409079980062 l -11.832729209767681 -13.179548986359768" fill="#ffd814" stroke="none" /><path d="M 114.0293411484842 115.62618273729858 l 3.67844046893624 4.097126325998735 a26.506120995283318,26.506120995283318 0 0,0 -0.34212794240737104,0.3018881306407351 l -3.607370173622282 -4.159837598411759" fill="#ff3204" stroke="none" /><path d="M 113.75828350139079 115.86535959552629 l 3.6043924815749873 4.156403873914783 a26.50157598550889,26.50157598550889 0 0,0 -0.34721421327286467,0.2959034852026241 l -3.5323127917250754 -4.217831749340354" fill="#ff3204" stroke="none" /><path d="M 113.48314897796784 116.09983520530334 l 3.5530200015310847 4.242557625022894 a26.533827457819754,26.533827457819754 0 0,0 -0.35268494511993204,0.29023569916488684 l -3.4794649278664616 -4.303088443044959" fill="#ff3204" stroke="none" /><path d="M 113.20401910651253 116.32954008644616 l 3.4135472853614806 4.221567447277979 a26.42899040165995,26.42899040165995 0 0,0 -0.35621560515404255,0.2829992204008269 l -3.3403741874900867 -4.279700581683932" fill="#ff3104" stroke="none" /><path d="M 112.92097659922987 116.55440617244103 l 6.694895926455858 8.577527062108983 a31.88097431148917,31.88097431148917 0 0,0 -0.4355112208382458,0.3339314329876105 l -6.546255977124118 -8.691497836923965" fill="#ff7e0b" stroke="none" /><path d="M 112.63410532772338 116.77436683061366 l 4.36811796623386 5.799572761532797 a28.26054397295741,28.26054397295741 0 0,0 -0.39109232488992773,0.2893207522565774 l -4.267640670925368 -5.873903462529143" fill="#ff4b07" stroke="none" /><path d="M 112.34349029814194 116.9893568818739 l 6.32683448173961 8.708140594480003 a31.763853732402715,31.763853732402715 0 0,0 -0.44510638645958706,0.3175715884313744 l -6.176000767431138 -8.815756444755598" fill="#ff7c0b" stroke="none" /><path d="M 111.7513745106137 117.40417183066458 l 5.710064832138077 8.456793663839754 a31.2040285897277,31.2040285897277 0 0,0 -0.4477411102536415,0.29673839329960466 l -5.563649023144471 -8.553830078230677" fill="#ff740a" stroke="none" /><path d="M 111.45004920935366 117.60387380957326 l 2.9036204249376487 4.464170119875597 a26.325394485979906,26.325394485979906 0 0,0 -0.3819917508653081,0.24380520871639785 l -2.82634687202541 -4.513489757415804" fill="#ff2f04" stroke="none" /><path d="M 111.1453310114006 117.79835938074945 l 4.090336796475787 6.531998396235229 a28.707000594071822,28.707000594071822 0 0,0 -0.4210644424061758,0.2586521711982376 l -3.9772931541373024 -6.601439034261845" fill="#ff5107" stroke="none" /><line stroke="#e1ed5e" stroke-width="0.3" x1="143.8653032363475" x2="146.44561519142675" y1="172.8068346515853" y2="177.08958963109032" /><path d="M 144.38136562736335 173.6633856474863 a86.0,86.0 0 0,1 -40.68145358897372,12.25698825130547" fill="none" id="id30" stroke="none" /><text fill="#e1ed5e" style="font-size:6.75px; font-family:Arial;" text-anchor="middle"><textPath startOffset="21.466115282336833" xlink:href="#id30">June</textPath></text><path d="M 110.21172684928248 118.3499491758327 l 3.3568087674299787 6.032013114379155 a27.903140395004066,27.903140395004066 0 0,0 -0.421705725647653,0.22994758526738207 l -3.252480229913677 -6.0889013514063075" fill="#ff4606" stroke="none" /><path d="M 109.57404056367764 118.69057910512821 l 5.361927333781821 10.467631333024372 a32.76101910792046,32.76101910792046 0 0,0 -0.5041235859549958,0.2527780314318077 l -5.180949840144065 -10.558377205365481" fill="#ff8a0c" stroke="none" /><path d="M 109.2508944713604 118.85261126421891 l 4.691932136991463 9.561796746319184 a31.65092410056768,31.65092410056768 0 0,0 -0.49117310526005403,0.23579293906527724 l -4.526646363731176 -9.641143961884021" fill="#ff7a0b" stroke="none" /><path d="M 108.92500713936063 119.00905698771935 l 3.0395609896963443 6.4738534287520615 a28.15190249004058,28.15190249004058 0 0,0 -0.44041909276253366,0.20217480429488033 l -2.9276739011663913 -6.5252153033810165" fill="#ff4a06" stroke="none" /><path d="M 107.93186726928326 119.44442032107085 l 10.520419401924665 25.790075635425588 a48.85331624193725,48.85331624193725 0 0,0 -0.7813713948156334,0.3109238036649124 l -10.074926931067164 -25.967346283496568" fill="#abff21" stroke="none" /><path d="M 107.59598834532513 119.57807347666477 l 2.537889514912866 6.541214275190477 a28.016292994442317,28.016292994442317 0 0,0 -0.4511020459679162,0.17056819451737087 l -2.4249172481846752 -6.583930719814479" fill="#ff4806" stroke="none" /><path d="M 106.91757812671514 119.82793768551818 l 4.0186963251384356 11.518837785747367 a33.1997354105752,33.1997354105752 0 0,0 -0.5412035375959815,0.18360562411222955 l -3.8198230546052265 -11.586306396757719" fill="#ff900d" stroke="none" /><path d="M 105.88484417918355 120.15858648285463 l 9.883971516352585 33.85763302132299 a56.270840743348465,56.270840743348465 0 0,0 -0.9321367447219233,0.2634311549206959 l -9.299703603526055 -34.0227529695822" fill="#5bff2a" stroke="none" /><path d="M 104.48393922423573 120.51570834832081 l 0.585576823960771 2.6792342034838446 a23.742479924061012,23.742479924061012 0 0,0 -0.4000139106654456,0.08382680424234708 l -0.5393714518659474 -2.688916988452733" fill="#ff0a01" stroke="none" /><path d="M 103.41894727170886 120.7198165907248 l 4.776847224089635 28.949085931816718 a50.34054951240691,50.34054951240691 0 0,0 -0.856182804384357,0.13371814575613747 l -4.277828556096761 -29.02702238491996" fill="#9bff22" stroke="none" /><path d="M 102.34483914955558 120.86867818915974 l 1.131546970445808 10.070579718283748 a31.133951569285944,31.133951569285944 0 0,0 -0.5330835296750033,0.0552562874978628 l -0.9580308441652022 -10.088565374237369" fill="#ff730a" stroke="none" /><path d="M 100.90346689309514 120.98055641714683 l 1.4446357858998637 33.54772913091075 a54.57881925254163,54.57881925254163 0 0,0 -0.9389626964557598,0.03233977379167471 l -0.8669527377694516 -33.56762570312852" fill="#6cff28" stroke="none" /><line stroke="#e1ed5e" stroke-width="0.3" x1="102.19456741930631" x2="102.32365962044197" y1="184.97166512339345" y2="189.96999836594603" /><path d="M 102.22038585953345 185.97133177190398 a86.0,86.0 0 0,1 -42.740103519485714,-10.115201625700543" fill="none" id="id31" stroke="none" /><text fill="#e1ed5e" style="font-size:6.75px; font-family:Arial;" text-anchor="middle"><textPath startOffset="22.20632615414155" xlink:href="#id31">July</textPath></text><path d="M 98.37488393609728 120.93702456842531 l -0.44825888095796584 5.775099644940549 a26.792470279021735,26.792470279021735 0 0,0 -0.4594981148919305,-0.03964743082010895 l 0.5476013135914379 -5.766527961841776" fill="#ff3605" stroke="none" /><path d="M 97.65516085044442 120.86867818915974 l -0.7833891482375703 6.9720330430973485 a28.015906449748147,28.015906449748147 0 0,0 -0.47876859729391996,-0.05797220962161438 l 0.9032851685828797 -6.957515304750386" fill="#ff4806" stroke="none" /><path d="M 96.93821686468263 120.77559828337769 l -1.5542081111868562 10.54601254880791 a31.65992230424279,31.65992230424279 0 0,0 -0.538466133715063,-0.08409733597094202 l 1.7355101085104363 -10.517696905489863" fill="#ff7b0b" stroke="none" /><path d="M 95.86986931433489 120.58985236759428 l -1.3394614338506414 6.677588501204916 a27.810605341979326,27.810605341979326 0 0,0 -0.4685537920385616,-0.09819000278487008 l 1.4542066873185897 -6.653542517693505" fill="#ff4506" stroke="none" /><path d="M 95.16358092515715 120.4354850818985 l -3.486371014952848 14.731081356581416 a36.13801640863571,36.13801640863571 0 0,0 -0.6041015217213107,-0.14847345632209655 l 3.739425821417369 -14.668886641945289" fill="#ffb710" stroke="none" /><path d="M 94.46302465271185 120.25689768951611 l -2.013114354429955 7.364932830151838 a28.63510739915689,28.63510739915689 0 0,0 -0.4743457791496969,-0.13405485529962613 l 2.139591301684266 -7.329189181513691" fill="#ff5007" stroke="none" /><path d="M 94.11515582081647 120.15858648285463 l -3.0260107309791433 10.36562688172185 a31.798285122882966,31.798285122882966 0 0,0 -0.5241039167102008,-0.1579082108147975 l 3.20398962212959 -10.312003301801328" fill="#ff7d0b" stroke="none" /><path d="M 93.42475214034765 119.94407469862007 l -4.504604153749773 13.663387852096845 a35.386786513283894,35.386786513283894 0 0,0 -0.5768556227421834,-0.19570074709174165 l 4.7391295094291825 -13.58382411810698" fill="#ffad10" stroke="none" /><path d="M 93.08242187328487 119.8279376855182 l -3.205705078531511 9.188551162118243 a30.731701675934545,30.731701675934545 0 0,0 -0.4979712832801511,-0.1785547852146297 l 3.363395922441389 -9.132008835863655" fill="#ff6e0a" stroke="none" /><path d="M 92.7421414339146 119.70592522655815 l -3.6760039827675937 9.98077586623721 a31.63620666278097,31.63620666278097 0 0,0 -0.5093877892794378,-0.19260687532498746 l 3.847261992807314 -9.916020740805589" fill="#ff7a0b" stroke="none" /><path d="M 91.7346041902142 119.30500536409082 l -1.6606884791598098 3.8787737134508515 a25.21933309244144,25.21933309244144 0 0,0 -0.3975999898012933,-0.17429615114226152 l 1.7272091436188464 -3.8496130090141376" fill="#ff1f03" stroke="none" /><path d="M 90.7491055286396 118.85261126421891 l -9.62161390931971 19.60810895944978 a42.84155194086879,42.84155194086879 0 0,0 -0.6592419094522761,-0.3305575790369166 l 9.957709726454747 -19.43958353950356" fill="#f2ff19" stroke="none" /><path d="M 90.10565033884886 118.52300852407294 l -1.4298362439872798 2.6767670278921076 a24.034718010990478,24.034718010990478 0 0,0 -0.36324148665991896,-0.19806822067237284 l 1.4757005425158394 -2.651758155459969" fill="#ff0e01" stroke="none" /><line stroke="#e1ed5e" stroke-width="0.3" x1="58.666819895761336" x2="56.23545636021788" y1="174.27360380694188" y2="178.64263932499728" /><path d="M 58.180547188652646 175.14741091055294 a86.0,86.0 0 0,1 -31.652253787137756,-30.449443065178592" fill="none" id="id32" stroke="none" /><text fill="#e1ed5e" style="font-size:6.75px; font-family:Arial;" text-anchor="middle"><textPath startOffset="22.20632615414155" xlink:href="#id32">August</textPath></text><path d="M 89.4739219176387 118.17145234162733 l -6.679108665856032 11.530325336416901 a34.32512269864449,34.32512269864449 0 0,0 -0.508718143557673,-0.30055964609614166 l 6.8765946804420865 -11.41364711802701" fill="#ff9f0e" stroke="none" /><path d="M 88.8546689885994 117.79835938074946 l -6.978588701934877 11.144346413796287 a34.14903636246654,34.14903636246654 0 0,0 -0.49551584867642323,-0.3162616591462374 l 7.169386352658223 -11.022570325826246" fill="#ff9c0e" stroke="none" /><path d="M 88.54995079064634 117.60387380957326 l -13.796677710024943 21.21169690696386 a46.30384163535646,46.30384163535646 0 0,0 -0.6644056681081374,-0.440331847888328 l 14.159758076873043 -20.971067037984213" fill="#c9ff1d" stroke="none" /><path d="M 87.95078237400918 117.19931262002967 l -6.0990513428826665 8.705917179682844 a31.629742293330338,31.629742293330338 0 0,0 -0.4432270849575902,-0.3162307567082518 l 6.248005755689143 -8.599642161130372" fill="#ff7a0b" stroke="none" /><path d="M 87.65650970185807 116.9893568818739 l -5.010229924405839 6.895989885355854 a29.523912270450815,29.523912270450815 0 0,0 -0.4085758398969893,-0.3022546386869929 l 5.128190734721392 -6.808725297929094" fill="#ff5d08" stroke="none" /><path d="M 87.36589467227662 116.77436683061367 l -5.16497416977217 6.857562854434013 a29.585052502863736,29.585052502863736 0 0,0 -0.40414769662302247,-0.3098832200286579 l 5.282250594888679 -6.767640292577989" fill="#ff5e08" stroke="none" /><path d="M 86.79598089348748 116.32954008644616 l -6.330517805594928 7.829013532965651 a31.06821278014692,31.06821278014692 0 0,0 -0.4129555352223174,-0.33983429161826034 l 6.464343469361935 -7.71888412249021" fill="#ff720a" stroke="none" /><path d="M 85.97065885151581 115.62618273729859 l -7.15972368619964 7.974654653059645 a31.717124618958856,31.717124618958856 0 0,0 -0.4031102309721922,-0.3682316383417695 l 7.295933466638687 -7.850230248131299" fill="#ff7b0b" stroke="none" /><path d="M 85.70375840098266 115.38237550388516 l -9.438555050165839 10.155634051800169 a34.86445903845852,34.86445903845852 0 0,0 -0.436078287750107,-0.4123392397020651 l 9.611969172306763 -9.991660175352173" fill="#ffa60f" stroke="none" /><path d="M 85.44109423537348 115.13401014063109 l -10.545768902448861 10.962346764973878 a36.211386798690995,36.211386798690995 0 0,0 -0.44548635733239783,-0.4360021630990494 l 10.732905212157053 -10.779194498952258" fill="#ffb811" stroke="none" /><path d="M 84.9287848128048 114.62390073753433 l -5.043847606873931 4.894145947888994 a28.028019866264334,28.028019866264334 0 0,0 -0.3329908254501609,-0.34913954920471696 l 5.12734498370305 -4.806599282101777" fill="#ff4806" stroke="none" /><path d="M 84.67929136418377 114.36230785411682 l -7.81523476701199 7.326345689625679 a31.7122936679037,31.7122936679037 0 0,0 -0.3699066783165386,-0.40146064185635616 l 7.940187853324258 -7.190733792967979" fill="#ff7b0b" stroke="none" /><path d="M 84.43433777217949 114.09645910891817 l -5.429011212366183 4.916580704173087 a28.324406362610205,28.324406362610205 0 0,0 -0.3241676384865554,-0.3642057783171891 l 5.512837700501077 -4.822400756115033" fill="#ff4c07" stroke="none" /><path d="M 84.19399662182784 113.82643327865904 l -5.179221113049482 4.530566863847017 a27.881160326983096,27.881160326983096 0 0,0 -0.3128763939481715,-0.36394593083690774 l 5.2564400165684315 -4.440743833848579" fill="#ff4606" stroke="none" /><path d="M 83.95833913139862 113.55231037782056 l -5.998171641687412 5.067373288429118 a28.85215480536572,28.85215480536572 0 0,0 -0.31724180744047004,-0.3821381936725513 l 6.084509449021418 -4.963373837642806" fill="#ff5407" stroke="none" /><path d="M 83.28015986056508 112.70617746262583 l -26.616708513717846 20.227264078238544 a54.430396111847365,54.430396111847365 0 0,0 -0.5604742813576497,-0.7508468912766105 l 26.96094406177058 -19.766104307452625" fill="#6eff28" stroke="none" /><path d="M 83.06392112726016 112.41649034213515 l -7.869170946633725 5.7691916643561 a30.757429161793603,30.757429161793603 0 0,0 -0.309361455883171,-0.4296760047041624 l 7.967312194892503 -5.632882054200799" fill="#ff6e0a" stroke="none" /><path d="M 82.85270091963577 112.12312394758628 l -8.983946485478414 6.351641519255727 a32.00248355795514,32.00248355795514 0 0,0 -0.31414109186645706,-0.4525436725833924 l 9.091948484507006 -6.196056584485322" fill="#ff7f0b" stroke="none" /><path d="M 82.44556493220864 111.52570212397912 l -7.337961472731279 4.817879801048862 a29.778248364716234,29.778248364716234 0 0,0 -0.27763981937913723,-0.43090316524817707 l 7.419806155487462 -4.6908550358792365" fill="#ff6108" stroke="none" /><line stroke="#e1ed5e" stroke-width="0.3" x1="26.63291911575756" x2="22.317208475507996" y1="142.92168965132927" y2="145.44649492493687" /><path d="M 25.769776987707644 143.4266507060508 a86.0,86.0 0 0,1 -11.730757126820373,-40.83630448921669" fill="none" id="id33" stroke="none" /><text fill="#e1ed5e" style="font-size:6.75px; font-family:Arial;" text-anchor="middle"><textPath startOffset="21.46611528233685" xlink:href="#id33">September</textPath></text><path d="M 81.87401531095188 110.60418214915194 l -39.165892104939694 22.9130864358367 a66.37594775199634,66.37594775199634 0 0,0 -0.5684562717471736,-0.9911514251129512 l 39.55450037283925 -22.23551516486544" fill="#37ff75" stroke="none" /><path d="M 81.69416730710424 110.29060199501025 l -8.747776357984801 4.917552036642253 a31.035233392522677,31.035233392522677 0 0,0 -0.25777508770638075,-0.46793666002271633 l 8.831127855142698 -4.7662448582217145" fill="#ff720a" stroke="none" /><path d="M 80.58989483394504 108.01547362559985 l -9.619513016415365 3.972412937207343 a31.407453829668277,31.407453829668277 0 0,0 -0.20205070977237993,-0.501473291596937 l 9.686466340445133 -3.8062402777676008" fill="#ff770b" stroke="none" /><path d="M 80.32549172779594 107.34259656027581 l -9.00750993566426 3.361634789302378 a30.614355084858182,30.614355084858182 0 0,0 -0.18000619609292048,-0.49529974206274036 l 9.064040392762404 -3.2060872502335207" fill="#ff6c0a" stroke="none" /><path d="M 80.0844068197444 106.66101706037122 l -11.121546037235468 3.7197389613869722 a32.72711576642817,32.72711576642817 0 0,0 -0.1740891634761099,-0.535791352431037 l 11.183927451727827 -3.5277487089781316" fill="#ff890c" stroke="none" /><path d="M 79.86692584326677 105.97154293290107 l -21.45515183904651 6.363675976225899 a43.37900606298089,43.37900606298089 0 0,0 -0.20616877188799176,-0.717700541743977 l 21.561513247820606 -5.993417958977326" fill="#ecff1a" stroke="none" /><path d="M 79.76711848015287 105.62410040840567 l -5.004611990144651 1.3911236671887124 a26.194359077818184,26.194359077818184 0 0,0 -0.1170163435278293,-0.43546134541533127 l 5.027816410014255 -1.3047713885978423" fill="#ff2e04" stroke="none" /><path d="M 79.58551787078972 104.9243191809786 l -15.20943486318452 3.668773538049161 a36.645664195902405,36.645664195902405 0 0,0 -0.14263789773676094,-0.6144803302693521 l 15.270333326851835 -3.4064245504312347" fill="#ffbd11" stroke="none" /><path d="M 79.4281124754447 104.21870165774334 l -12.447186069071474 2.552559381882329 a33.706218966951674,33.706218966951674 0 0,0 -0.1116639958413186,-0.569372309093707 l 12.48927999788846 -2.337923345720667" fill="#ff960d" stroke="none" /><path d="M 79.29508885075956 103.50808413554451 l -15.075580336117879 2.5542927390539436 a36.290439296093744,36.290439296093744 0 0,0 -0.09905258637667466,-0.6168005499206404 l 15.117314676855845 -2.29441295944009" fill="#ffb911" stroke="none" /><path d="M 79.23777060512086 103.15116336523772 l -10.749728883241577 1.6315276745503782 a31.872835583049252,31.872835583049252 0 0,0 -0.07765732759041075,-0.5431351682961135 l 10.776220261848586 -1.446247034273864" fill="#ff7e0b" stroke="none" /><path d="M 79.1416061653843 102.43462659150553 l -15.925925499941314 1.8589006432578725 a37.0340454855032,37.0340454855032 0 0,0 -0.06845601961202828,-0.6338177220464825 l 15.955563821054394 -1.584486599326608" fill="#ffc212" stroke="none" /><path d="M 79.07016306316243 101.71520430193888 l -15.727198624996804 1.2888470569765296 a36.77992089100508,36.77992089100508 0 0,0 -0.04627867057113617,-0.6314356913681585 l 15.747053854232275 -1.0179382291116104" fill="#ffbf11" stroke="none" /><path d="M 79.0235259727143 100.99374915477108 l -31.928474113933763 1.5125942578614378 a52.96428320224081,52.96428320224081 0 0,0 -0.03530414285220669,-0.9110430565830357 l 31.94978038963717 -0.9627739542644053" fill="#7eff26" stroke="none" /><path d="M 79.0095281055655 100.63252640178507 l -4.3235678422106245 0.1302862948418162 a25.325530418899103,25.325530418899103 0 0,0 -0.009380018479387338,-0.4358526006622391 l 4.32516992337502 -0.05584387838944828" fill="#ff2103" stroke="none" /><line stroke="#e1ed5e" stroke-width="0.3" x1="15.007084014347285" x2="10.007500721073583" y1="101.09737516637583" y2="101.16192664675087" /><path d="M 14.007167355692545 101.11028546245083 a86.0,86.0 0 0,1 10.666146001902534,-42.60595125391555" fill="none" id="id34" stroke="none" /><text fill="#e1ed5e" style="font-size:6.75px; font-family:Arial;" text-anchor="middle"><textPath startOffset="22.20632615414155" xlink:href="#id34">October</textPath></text><path d="M 79.00019446554 99.90962569577889 l -17.810786215359716 -0.0766501103642551 a38.810951149466064,38.810951149466064 0 0,0 0.008625258703297502,-0.6680357919389633 l 17.8068279495387 0.3832221603636904" fill="#ffd914" stroke="none" /><path d="M 79.01574976396665 99.18683210126434 l -11.956330865107539 -0.4633238899082811 a32.965304709153166,32.965304709153166 0 0,0 0.02685321033604099,-0.5668288284411154 l 11.946584046538 0.6690638249724057" fill="#ff8c0c" stroke="none" /><path d="M 79.05617556472873 98.46500227214037 l -7.495136351883309 -0.5493274308947865 a28.51523982050181,28.51523982050181 0 0,0 0.04009177022434035,-0.4892211454671129 l 7.484570097839471 0.6782624935696777" fill="#ff4f07" stroke="none" /><path d="M 79.08570108090925 98.10471618934814 l -5.266486335889756 -0.4772565568678885 a26.28806695751736,26.28806695751736 0 0,0 0.04471834818954999,-0.45030766357615876 l 5.257490862017977 0.5678397511484775" fill="#ff2f04" stroke="none" /><path d="M 79.3925641242962 95.95851677861259 l -23.013551334415457 -4.513365085475556 a44.4519510791014,44.4519510791014 0 0,0 0.15372057072936002,-0.7495960956258721 l 22.932451467771102 4.908836837264831" fill="#dfff1b" stroke="none" /><path d="M 79.62865764111835 94.90015583598534 l -5.566748710120694 -1.3936023665847248 a26.738538033138838,26.738538033138838 0 0,0 0.11561701589687161,-0.4455195253996634 l 5.541935362353515 1.489218317533252" fill="#ff3505" stroke="none" /><path d="M 80.02781315780177 93.51064311812611 l -59.91656052659468 -19.468070645621676 a84.0,84.0 0 0,0 0.4586508249129104,-1.3713075883107113 l 59.572572407909995 20.496551336854708" fill="#4dd2ff" stroke="none" /><path d="M 80.38941819471856 92.48833698450439 l -11.023406521815362 -4.222420114654283 a32.80441963714602,32.80441963714602 0 0,0 0.20652170801992467,-0.525575220511178 l 10.949091263913747 4.411544340061225" fill="#ff8a0c" stroke="none" /><path d="M 80.65960295795068 91.81776055985345 l -8.855247969003901 -3.7463429022025814 a30.615118394145306,30.615118394145306 0 0,0 0.20950842535737665,-0.48357433142478745 l 8.789448833803844 3.8982163782139683" fill="#ff6c0a" stroke="none" /><path d="M 80.95270993114464 91.15688171328213 l -4.812179398394031 -2.23415884795535 a26.30551942039845,26.30551942039845 0 0,0 0.19421215442235512,-0.40906032748792315 l 4.773009050129924 2.316661591083805" fill="#ff2f04" stroke="none" /><path d="M 81.10775173730289 90.83032412892265 l -12.791923585583511 -6.20877893495586 a35.21908031071487,35.21908031071487 0 0,0 0.2694091716621882,-0.5431124505004774 l 12.683154400967911 6.4280509739552985" fill="#ffab0f" stroke="none" /><path d="M 81.43458229118936 90.18545643968196 l -13.207172963914758 -6.981926094853278 a35.93910002954509,35.93910002954509 0 0,0 0.2938310664976225,-0.5444243410149897 l 13.085033798198662 7.20823141920074" fill="#ffb410" stroke="none" /><line stroke="#e1ed5e" stroke-width="0.3" x1="26.266209847984243" x2="21.928928074336255" y1="57.711370442889674" y2="55.22380399835377" /><path d="M 25.398753493254645 57.213857153982495 a86.0,86.0 0 0,1 29.58750427330803,-30.492523968695096" fill="none" id="id35" stroke="none" /><text fill="#e1ed5e" style="font-size:6.75px; font-family:Arial;" text-anchor="middle"><textPath startOffset="21.46611528233685" xlink:href="#id35">November</textPath></text><path d="M 82.15384107792192 88.93136811851018 l -20.745000482905514 -12.866565557843408 a45.411135866444894,45.411135866444894 0 0,0 0.41772277488201615,-0.6607371135219806 l 20.520450111777535 13.221750319079604" fill="#d3ff1c" stroke="none" /><path d="M 82.54541684631803 88.32363383020206 l -8.694076888384158 -5.815963885435828 a31.46003866426073,31.46003866426073 0 0,0 0.30497591338852215,-0.4475145208465292 l 8.592676509326896 5.964756429552772" fill="#ff780b" stroke="none" /><path d="M 82.7489923806493 88.02491185347247 l -17.573771357424032 -12.19914023085883 a42.39290681733494,42.39290681733494 0 0,0 0.42127926964799706,-0.5958696507800588 l 17.361179467972157 12.499836381970676" fill="#f8ff18" stroke="none" /><path d="M 83.17141714833178 87.43820079747576 l -6.025671438178425 -4.497899516196001 a28.519296266185783,28.519296266185783 0 0,0 0.29704077434721754,-0.3908708403127459 l 5.9473547236070985 4.600955132389774" fill="#ff4f07" stroke="none" /><path d="M 83.84228863543731 86.58626213691792 l -17.290226475749513 -14.353924284579678 a43.47191745156954,43.47191745156954 0 0,0 0.4829303310864303,-0.5716371879387038 l 17.040585531175957 14.649420422147498" fill="#ebff1a" stroke="none" /><path d="M 84.5562425177563 85.77008943001954 l -4.832020465603464 -4.452233802357221 a27.570449574485977,27.570449574485977 0 0,0 0.3245864801323177,-0.3462462258673096 l 4.754666663500691 4.53474944510258" fill="#ff4106" stroke="none" /><path d="M 85.57189188830299 84.74124197986013 l -32.03726204987325 -33.8816999056523 a67.62998764903254,67.62998764903254 0 0,0 0.8527565499292891,-0.792544276393102 l 31.4492976161491 34.428148768120046" fill="#38ff84" stroke="none" /><path d="M 86.10567301691215 84.25364557470407 l -8.260320660383705 -9.361370071635523 a33.484716537850396,33.484716537850396 0 0,0 0.4354706541448516,-0.37763586007532995 l 8.09795620759208 9.502170925130534" fill="#ff930d" stroke="none" /><path d="M 86.65592168130627 83.78471172551755 l -6.772924018335862 -8.230236123886371 a31.658765707767245,31.658765707767245 0 0,0 0.4237700688617195,-0.34265925778660994 l 6.630250550909642 8.345601478937116" fill="#ff7b0b" stroke="none" /><path d="M 87.51073957382395 83.11751280151077 l -13.539192724176512 -18.30174406201998 a43.76540303473843,43.76540303473843 0 0,0 0.609495099960651,-0.44282411073229283 l 13.222152307862078 18.53208740756894" fill="#e7ff1a" stroke="none" /><path d="M 88.09926311788651 82.69761687909137 l -5.949231928463416 -8.649539194175965 a31.497994513726645,31.497994513726645 0 0,0 0.44936434723433694,-0.3034128131718519 l 5.799462886822539 8.750663919646483" fill="#ff780b" stroke="none" /><line stroke="#e1ed5e" stroke-width="0.3" x1="56.762969772571076" x2="54.21961505331055" y1="26.818313649435495" y2="22.513508569990535" /><path d="M 56.25429882871897 25.957352633546506 a86.0,86.0 0 0,1 42.265352541879196,-11.944610805530505" fill="none" id="id36" stroke="none" /><text fill="#e1ed5e" style="font-size:6.75px; font-family:Arial;" text-anchor="middle"><textPath startOffset="22.20632615414155" xlink:href="#id36">December</textPath></text><path d="M 89.3179101791058 81.91981866633112 l -5.4110414254625585 -9.158564645749022 a31.637606670601983,31.637606670601983 0 0,0 0.47125460683529924,-0.27298108565914236 l 5.2525900861619395 9.250349888798214" fill="#ff7a0b" stroke="none" /><path d="M 89.63071344664047 81.73862282372117 l -5.382757439774928 -9.479587949501118 a31.901223112466745,31.901223112466745 0 0,0 0.47984894811268314,-0.267035420103277 l 5.218784402590199 9.57083876716458" fill="#ff7e0b" stroke="none" /><path d="M 90.26544431104013 81.39251694778311 l -6.072159703309899 -11.606858328196168 a34.09924744835814,34.09924744835814 0 0,0 0.522432154648802,-0.26761004098609076 l 5.871467061072334 11.709660894494764" fill="#ff9c0e" stroke="none" /><path d="M 91.23893434514133 80.91482961587045 l -4.314019951474151 -9.397693049904055 a31.340570719352584,31.340570719352584 0 0,0 0.49222288765233857,-0.2208460617368165 l 4.151614945355038 9.4705594421574" fill="#ff760a" stroke="none" /><path d="M 92.91201910852362 80.23233633223022 l -2.676326104302014 -7.46400351597097 a28.929317114543686,28.929317114543686 0 0,0 0.47019507339779776,-0.16404182858621197 l 2.547449026840931 7.508966197729392" fill="#ff5507" stroke="none" /><path d="M 93.59665428221793 80.00007090966166 l -2.407077231991863 -7.518159424239218 a28.894095383832816,28.894095383832816 0 0,0 0.47498401756145237,-0.14757984636006466 l 2.2773078417196824 7.558479405481807" fill="#ff5407" stroke="none" /><path d="M 93.94186890950719 79.89281104454417 l -6.250266379244392 -20.74489396682508 a42.66602075846713,42.66602075846713 0 0,0 0.7050250749525555,-0.2058161524391526 l 5.8922510865684155 20.84940844818293" fill="#f5ff19" stroke="none" /><path d="M 94.98787191387505 79.60689891045804 l -2.5433022267203036 -10.348063441224541 a31.65602192190164,31.65602192190164 0 0,0 0.530278032243798,-0.12549967763602446 l 2.3648005075139715 10.390309031001436" fill="#ff7b0b" stroke="none" /><path d="M 96.04723909329186 79.375362276772 l -2.0002610785225197 -10.436922715560142 a31.626871607054795,31.626871607054795 0 0,0 0.5355557070343363,-0.09786938227459639 l 1.82031025038529 10.469807579185476" fill="#ff7a0b" stroke="none" /><path d="M 96.75951476605007 79.25152402106235 l -3.428337747778898 -21.951275278847632 a43.21738027042326,43.21738027042326 0 0,0 0.7359940842530605,-0.10846639620782006 l 3.0499746830971888 22.00703615921642" fill="#eeff19" stroke="none" /><path d="M 98.19473922651362 79.07773832637324 l -0.9078313128538342 -10.521407522946623 a31.560500648952004,31.560500648952004 0 0,0 0.5416530505961296,-0.04204270146930006 l 0.7265880728953705 10.535475486604385" fill="#ff790b" stroke="none" /><path d="M 99.27714615592234 79.0124445844662 l -0.7799608902851445 -22.645618531219775 a43.65904626527557,43.65904626527557 0 0,0 0.7512960215745278,-0.019403759698102565 l 0.3900382335157377 22.655689083060235" fill="#e8ff1a" stroke="none" /></svg>