<?xml version="1.0" encoding="utf-8" ?>
<svg baseProfile="full" height="200mm" version="1.1" viewBox="0,0,200,200" width="200mm" xmlns="http://www.w3.org/2000/svg" xmlns:ev="http://www.w3.org/2001/xml-events" xmlns:xlink="http://www.w3.org/1999/xlink"><defs /><rect fill="#1a1a1a" height="200" width="200" x="0" y="0" /><text alignment-baseline="middle" fill="#e1ed5e" style="dominant-baseline: central; font-size:9.0px; font-family:Arial;" text-anchor="middle" x="100.0" y="100.0">2024</text><line stroke="#e1ed5e" stroke-width="0.3" x1="100.0" x2="100.0" y1="15.0" y2="10.0" /><path d="M 100.0 14.0 a86.0,86.0 0 0,1 42.35913384403234,11.155469271406648" fill="none" id="id97" stroke="none" /><text fill="#e1ed5e" style="font-size:6.75px; font-family:Arial;" text-anchor="middle"><textPath startOffset="22.145653131862478" xlink:href="#id97">January</textPath></text><path d="M 100.72087961077811 79.0123766808444 l 0.5397418635483818 -15.713995447180498 a36.72326219946981,36.72326219946981 0 0,0 0.6298463348071476,0.027048311678598527 l -0.8094139589563657 15.702414567076069" fill="#ffc112" stroke="none" /><path d="M 101.08105385017728 79.02784411241856 l 0.6982758137103463 -13.546364240097475 a34.56434934810382,34.56434934810382 0 0,0 0.5922941108467524,0.035630942912516804 l -0.9307142766895611 13.532381319360265" fill="#ffa50f" stroke="none" /><path d="M 102.15924093988457 79.11130261209362 l 5.098265322830136 -49.32109222491339 a70.58389302546125,70.58389302546125 0 0,0 1.2041749902986996,0.13493031933164124 l -5.944176214729632 49.22630614507479" fill="#3cffa5" stroke="none" /><path d="M 102.87502721639298 79.19773525538626 l 0.5802759022972311 -4.198587364905368 a25.23849690144158,25.23849690144158 0 0,0 0.42866372461631047,0.06299880567252616 l -0.6522647325212236 4.1880074859339596" fill="#ff2403" stroke="none" /><path d="M 103.94208987418118 79.37332000966035 l 3.0474275344431323 -15.945428580510178 a37.234023136420404,37.234023136420404 0 0,0 0.6267789541212512,0.12537334479263565 l -3.32070297409534 15.890765839054684" fill="#ffc812" stroke="none" /><path d="M 105.3480935250658 79.69241777938227 l 6.716774699733906 -25.50468757378976 a47.374308533184546,47.374308533184546 0 0,0 0.7846507440809466,0.21386004948613568 l -7.153606844749546 25.38562703015948" fill="#baff1f" stroke="none" /><path d="M 107.74402155503746 80.48000691201159 l 5.562644122782334 -14.02149697749972 a36.084607622565414,36.084607622565414 0 0,0 0.5738235112023417,0.2333690264990639 l -5.8025220951751155 13.923940694421361" fill="#ffb911" stroke="none" /><line stroke="#e1ed5e" stroke-width="0.3" x1="143.13028292997686" x2="145.6673583964461" y1="26.7553504044142" y2="22.446841604673864" /><path d="M 143.63769802327073 25.89364864446614 a86.0,86.0 0 0,1 29.32050498858742,28.57503671076993" fill="none" id="id98" stroke="none" /><text fill="#e1ed5e" style="font-size:6.75px; font-family:Arial;" text-anchor="middle"><textPath startOffset="20.669276256404974" xlink:href="#id98">February</textPath></text><path d="M 112.16784306229584 82.88440491214696 l 8.093583083505603 -11.38463819412885 a34.968395539245925,34.968395539245925 0 0,0 0.4862588349625735,0.3520138973008478 l -8.287822928842145 11.244023525454928" fill="#ffaa0f" stroke="none" /><path d="M 114.91283532996326 85.21462403516908 l 12.339404456768051 -12.23394009513786 a38.376138598639486,38.376138598639486 0 0,0 0.45980680915635636,0.47180229296342663 l -12.547598067075219 12.020315110106692" fill="#ffd714" stroke="none" /><path d="M 117.01052211995028 87.68569379921539 l 13.179942961296486 -9.541262295760452 a37.271035082610105,37.271035082610105 0 0,0 0.37073126147225677,0.5214799472085653 l -13.341789321298705 9.313605121842384" fill="#ffc812" stroke="none" /><path d="M 117.42321728460499 88.27688183743584 l 12.425856317908794 -8.36067067903709 a35.97673927918305,35.97673927918305 0 0,0 0.34036661248069083,0.5153584327108481 l -12.567547369310208 8.146132367987184" fill="#ffb811" stroke="none" /><path d="M 117.62189284568427 88.57770195909679 l 12.700200077406182 -8.23211625071044 a36.13482143837049,36.13482143837049 0 0,0 0.3329261268848668,0.5234151690228698 l -12.839643895916938 8.012887407008899" fill="#ffba11" stroke="none" /><line stroke="#e1ed5e" stroke-width="0.3" x1="172.87174338648825" x2="177.1583165268699" y1="56.24261187166439" y2="53.66864786411523" /><path d="M 173.72905801456457 55.72781907015455 a86.0,86.0 0 0,1 12.242430191666344,42.057860355516425" fill="none" id="id99" stroke="none" /><text fill="#e1ed5e" style="font-size:6.75px; font-family:Arial;" text-anchor="middle"><textPath startOffset="22.145653131862474" xlink:href="#id99">March</textPath></text><path d="M 118.36410011445183 89.81374322990088 l 16.044434512741432 -8.899577363402042 a39.34738008765356,39.34738008765356 0 0,0 0.3225635458353467,0.5934805932477097 l -16.19484340819212 8.622841936679729" fill="#ffe315" stroke="none" /><path d="M 118.70294669586156 90.45014215332178 l 10.383007653706617 -5.301637689841181 a32.6582249991701,32.6582249991701 0 0,0 0.2506597876055647,0.5014874855461422 l -10.472487354523919 5.122618348131288" fill="#ff8c0c" stroke="none" /><path d="M 119.16976305983485 91.42560881287824 l 14.591777830757435 -6.526716623776732 a36.98493072081539,36.98493072081539 0 0,0 0.2542557558112102,0.5817869268475124 l -14.701667468585615 6.2752676271533705" fill="#ffc512" stroke="none" /><path d="M 119.31412917781788 91.75594674310238 l 10.080258095544645 -4.302662771790173 a31.96013276381917,31.96013276381917 0 0,0 0.21104973426307128,0.5064425322733193 l -10.1526336743442 4.128987730075576" fill="#ff820c" stroke="none" /><path d="M 119.71291397450082 92.76114493625339 l 13.940633327791726 -5.119193655857023 a35.85083840280084,35.85083840280084 0 0,0 0.20718341201647522,0.5795288772470233 l -14.026456909852145 4.879129822229083" fill="#ffb610" stroke="none" /><path d="M 120.26092885502905 94.47779374421319 l 7.399415124225863 -2.0167434958452706 a28.669328426182872,28.669328426182872 0 0,0 0.12534028227559785,0.4759374674241172 l -7.432944887306191 1.889425524048355" fill="#ff5507" stroke="none" /><path d="M 120.592083275326 95.88100663000786 l 12.471693740220731 -2.4946880381984253 a33.71875045583454,33.71875045583454 0 0,0 0.10866061252185881,0.5685582403187032 l -12.512680645024746 2.2802272328464075" fill="#ff9a0e" stroke="none" /><path d="M 120.82617615685814 97.30363454192243 l 5.927077516829719 -0.7673788487794506 a26.97654734675987,26.97654734675987 0 0,0 0.05551762363068416,0.4597655652466802 l -5.939377226720067 0.6655196066093575" fill="#ff3d05" stroke="none" /><path d="M 120.86939407059847 97.66154086499901 l 14.891341204431624 -1.6686058423219507 a35.98453497189132,35.98453497189132 0 0,0 0.06351717233656329,0.6144710242224728 l -14.917790769249853 1.4127302958165466" fill="#ffb811" stroke="none" /><line stroke="#e1ed5e" stroke-width="0.3" x1="184.99686870605535" x2="189.99668451229388" y1="99.2704041080226" y2="99.22748670261217" /><path d="M 185.99683186730306 99.26182062694052 a86.0,86.0 0 0,1 -10.086455211305974,41.156179273409016" fill="none" id="id100" stroke="none" /><text fill="#e1ed5e" style="font-size:6.75px; font-family:Arial;" text-anchor="middle"><textPath startOffset="21.40746469413373" xlink:href="#id100">April</textPath></text><path d="M 120.99922638620191 100.18025310272382 l 10.911418035146497 0.09366140065255991 a31.91182001298099,31.91182001298099 0 0,0 -0.009404213379110323,0.547748282891377 l -10.908202390168718 -0.280956599513008" fill="#ff810b" stroke="none" /><path d="M 120.98066250479742 100.90099992219065 l 11.69744217722425 0.5023384980859721 a32.708223497019695,32.708223497019695 0 0,0 -0.02890536380018418,0.5607563355935753 l -11.687095223967495 -0.703066627056278" fill="#ff8c0c" stroke="none" /><path d="M 120.82617615685814 102.69636545807757 l 22.47938454162598 2.910406381870696 a43.66700674279528,43.66700674279528 0 0,0 -0.1026288680179789,0.7425713644646627 l -22.42611115705279 -3.295866054535444" fill="#e6ff1a" stroke="none" /><path d="M 120.77682067341334 103.0534771498775 l 25.488243290227942 3.745894027800895 a46.76203152100712,46.76203152100712 0 0,0 -0.12353751111279881,0.7931994411750839 l -25.420184286976877 -4.182881650907429" fill="#c1ff1e" stroke="none" /><path d="M 120.51834098615036 104.47187691870673 l 11.042000318423888 2.406552576236157 a32.30120641056795,32.30120641056795 0 0,0 -0.12272787762606072,0.5407616736335532 l -10.999061579240163 -2.595748583808727" fill="#ff870c" stroke="none" /><path d="M 120.35273937422433 105.17358676015961 l 24.065932897710464 6.117466033499463 a45.831281016252916,45.831281016252916 0 0,0 -0.20037112883268995,0.7608418129444957 l -23.957372288073046 -6.529688350816762" fill="#ccff1d" stroke="none" /><path d="M 119.94978838288452 106.5578916946017 l 6.391503135534665 2.1010140320337083 a27.727969403494043,27.727969403494043 0 0,0 -0.15252308077614177,0.45090738673928227 l -6.3544946331861585 -2.210423093247151" fill="#ff4706" stroke="none" /><path d="M 119.83427380445688 106.89939002012753 l 11.070628092641352 3.8509391234555816 a32.721285701583284,32.721285701583284 0 0,0 -0.1890976032708428,0.5289396513314428 l -11.002890319326566 -4.040413731167946" fill="#ff8c0c" stroke="none" /><path d="M 119.71291397450082 107.23885506374661 l 11.057276599613902 4.060385126617933 a32.779222944525216,32.779222944525216 0 0,0 -0.19850054128329855,0.5265462690369418 l -10.985945374516163 -4.2495996758490335" fill="#ff8d0d" stroke="none" /><path d="M 119.4528033332814 107.91128576633889 l 10.979869310925912 4.465417261849041 a32.85316335023828,32.85316335023828 0 0,0 -0.21694688961424666,0.5205935583321226 l -10.901596576775178 -4.653243329622441" fill="#ff8e0d" stroke="none" /><path d="M 119.0197475246899 108.90220220490707 l 26.410096380883395 12.361258630195286 a50.1597994809657,50.1597994809657 0 0,0 -0.37170977218142404,0.7767304614348265 l -26.19400735074206 -12.812801593695216" fill="#9bff22" stroke="none" /><line stroke="#e1ed5e" stroke-width="0.3" x1="174.33088141563837" x2="178.70328620479359" y1="141.23008692659167" y2="143.65538615756765" /><path d="M 175.20536237346943 141.71514677278685 a86.0,86.0 0 0,1 -30.301960400862466,31.631185727798858" fill="none" id="id101" stroke="none" /><text fill="#e1ed5e" style="font-size:6.75px; font-family:Arial;" text-anchor="middle"><textPath startOffset="22.145653131862474" xlink:href="#id101">May</textPath></text><path d="M 118.18653347947321 110.5 l 3.3963806327658377 1.9609012725977868 a24.921802545195575,24.921802545195575 0 0,0 -0.21708823221291415,0.3686632783182786 l -3.362218690423158 -2.0189157192096148" fill="#ff1f03" stroke="none" /><path d="M 118.00360718960297 110.81064883170644 l 12.577563019139102 7.5524652102548355 a35.67088348575249,35.67088348575249 0 0,0 -0.3197334765808229,0.5222606050911607 l -12.446061578102874 -7.767262931470554" fill="#ffb410" stroke="none" /><path d="M 117.81537515405839 111.11811171558189 l 6.43067139315025 4.0132145597256175 a28.580199579765342,28.580199579765342 0 0,0 -0.2633220470707509,0.4139859946247135 l -6.36083165445361 -4.123014229029002" fill="#ff5307" stroke="none" /><path d="M 117.423217284605 111.72311816256416 l 10.596474486567308 7.129780940193398 a33.77180675549145,33.77180675549145 0 0,0 -0.3277638487170883,0.47821725061952336 l -10.4725209010349 -7.310632925882966" fill="#ff9a0e" stroke="none" /><path d="M 117.21940702142032 112.02048342749411 l 29.498819724852822 20.592467161739805 a56.975409225840615,56.975409225840615 0 0,0 -0.5667287020168994,0.7971748927665429 l -29.14097592430596 -21.09581928121585" fill="#52ff2b" stroke="none" /><path d="M 116.79662413953412 112.60449989151573 l 9.47034127684847 7.106720648448377 a32.84030583536855,32.84030583536855 0 0,0 -0.3422398092928716,0.4480028964098414 l -9.346949490201295 -7.268244458099096" fill="#ff8e0d" stroke="none" /><path d="M 116.1254893667686 113.45245675266167 l 9.742503578233098 8.127542989109031 a33.687526591566225,33.687526591566225 0 0,0 -0.37426109980052596,0.44087863449886977 l -9.601547914925458 -8.293588406057458" fill="#ff990e" stroke="none" /><path d="M 115.89218393027572 113.72728997021213 l 19.161129349679413 16.55092716607062 a46.319598496258195,46.319598496258195 0 0,0 -0.5249310459042852,0.5972751699760575 l -18.874187239816543 -16.87741461385797" fill="#c7ff1e" stroke="none" /><path d="M 115.6541949942343 113.99807769240083 l 8.267920583792732 7.393225568555763 a32.09136128198204,32.09136128198204 0 0,0 -0.3707351442915581,0.40750286681466635 l -8.139787738659294 -7.534066010928101" fill="#ff840c" stroke="none" /><path d="M 114.65682725009322 115.03919595460226 l 13.079768789341298 13.420995042603337 a39.74042314133302,39.74042314133302 0 0,0 -0.4926440746211357,0.4719418794272317 l -12.84745222885485 -13.64354905233615" fill="#ffe815" stroke="none" /><path d="M 113.59037401385872 116.0094264158162 l 5.513898037064918 6.495358023163069 a29.52013775781925,29.52013775781925 0 0,0 -0.3891396090686141,0.3246341021148342 l -5.401584093834409 -6.589054309189774" fill="#ff6108" stroke="none" /><path d="M 112.45986205192187 116.90419585922612 l 6.971013633509707 9.45751881578877 a32.74902945904796,32.74902945904796 0 0,0 -0.4553970711363975,0.3296723602820531 l -6.807635551999342 -9.5757919474439" fill="#ff8d0d" stroke="none" /><path d="M 111.5731344415666 117.5232005979908 l 8.377633270467223 12.684804542452614 a36.20161193737907,36.20161193737907 0 0,0 -0.5215003688815867,0.33803023852033753 l -8.158647269328627 -12.826748622676847" fill="#ffbb11" stroke="none" /><line stroke="#e1ed5e" stroke-width="0.3" x1="143.1302829299769" x2="145.66735839644613" y1="173.24464959558577" y2="177.55315839532614" /><path d="M 143.63769802327073 174.10635135553383 a86.0,86.0 0 0,1 -40.68552437913181,11.842963189579606" fill="none" id="id102" stroke="none" /><text fill="#e1ed5e" style="font-size:6.75px; font-family:Arial;" text-anchor="middle"><textPath startOffset="21.407464694133747" xlink:href="#id102">June</textPath></text><path d="M 110.65571695917076 118.09573695890943 l 11.170022864985835 18.96914082499405 a43.013580227731296,43.013580227731296 0 0,0 -0.6394839872089878,0.36920625215756575 l -10.84274640991645 -19.158093974427786" fill="#eeff19" stroke="none" /><path d="M 108.73861861582097 119.09545874513695 l 4.76211550579216 10.406081805171919 a32.44396271518027,32.44396271518027 0 0,0 -0.5084225375151233,0.22741093415691455 l -4.58277956542141 -10.486296490238683" fill="#ff890c" stroke="none" /><path d="M 107.407793817531 119.65005319985036 l 2.8150006852332896 7.467123759781658 a28.98011065723776,28.98011065723776 0 0,0 -0.4670087539368145,0.17149208319086795 l -2.6864027796423477 -7.514346691981248" fill="#ff5908" stroke="none" /><path d="M 106.38641147887787 120.00534299687104 l 4.221845623142915 13.224871283372527 a34.88240616490608,34.88240616490608 0 0,0 -0.5720039671839051,0.17720829119936787 l -3.9942010230873852 -13.29539616237854" fill="#ffa90f" stroke="none" /><path d="M 106.0420521117495 120.11202640906438 l 5.014462443922887 16.691514610296334 a38.42846790705509,38.42846790705509 0 0,0 -0.6334109240734223,0.18437668856805278 l -4.727191507467857 -16.77513499316691" fill="#ffd714" stroke="none" /><path d="M 104.29559338865022 120.5559693870025 l 2.3368825570435336 11.18282899646175 a32.424389893973334,32.424389893973334 0 0,0 -0.5458159896206686,0.10917848439245102 l -2.1445700818919065 -11.221296877517062" fill="#ff880c" stroke="none" /><path d="M 102.875027216393 120.80226474461374 l 1.0436727128281087 7.55149584504381 a28.62327634480188,28.62327634480188 0 0,0 -0.48730743349599115,0.06309170350075619 l -0.9138874574413421 -7.5682991447449615" fill="#ff5407" stroke="none" /><path d="M 102.15924093988457 120.88869738790638 l 0.8112961006291308 7.848553825093899 a28.890373787615648,28.890373787615648 0 0,0 -0.49375084601644603,0.04675871846857679 l -0.6764456912276695 -7.861324299067659" fill="#ff5808" stroke="none" /><path d="M 101.80034050326958 120.92268563240118 l 1.3848965243908276 16.094596861322472 a37.15407027692281,37.15407027692281 0 0,0 -0.6359202298964713,0.049224247634604666 l -1.1084072997191206 -16.11599887595213" fill="#ffc712" stroke="none" /><path d="M 101.08105385017728 120.97215588758144 l 1.046030942377794 20.292720832716423 a41.319662879264875,41.319662879264875 0 0,0 -0.7086799118937792,0.030433764678703023 l -0.6975252698831853 -20.30768716582096" fill="#fffb17" stroke="none" /><line stroke="#e1ed5e" stroke-width="0.3" x1="101.45913802915013" x2="101.54496967792366" y1="184.9874750549273" y2="189.98673829345242" /><path d="M 101.47630435890484 185.9873277026323 a86.0,86.0 0 0,1 -42.54439059252881,-10.42667462771756" fill="none" id="id103" stroke="none" /><text fill="#e1ed5e" style="font-size:6.75px; font-family:Arial;" text-anchor="middle"><textPath startOffset="22.145653131862474" xlink:href="#id103">July</textPath></text><path d="M 99.27912038922189 120.98762331915562 l -0.26070525916541804 7.590149166211952 a28.59462517821021,28.59462517821021 0 0,0 -0.49043082735552235,-0.02106120992062121 l 0.3909618471217791 -7.584555387865502" fill="#ff5407" stroke="none" /><path d="M 97.48249496171623 120.84855314841334 l -1.337294618194969 11.074717825205108 a32.155166148640234,32.155166148640234 0 0,0 -0.547437382805965,-0.07087672928245636 l 1.527209822891728 -11.050129499722255" fill="#ff850c" stroke="none" /><path d="M 96.05791012581884 120.62667999033965 l -2.7230257772743958 14.248021507868733 a35.505894880095845,35.505894880095845 0 0,0 -0.5976885059277258,-0.11955444042840928 l 2.9672107687330795 -14.199177670777463" fill="#ffb110" stroke="none" /><path d="M 95.00130118170881 120.39639698878247 l -2.643246676412262 10.785348449902099 a32.10452584211366,32.10452584211366 0 0,0 -0.5341500663211216,-0.1357788580812444 l 2.8280020359587628 -10.738384359985591" fill="#ff840c" stroke="none" /><path d="M 93.61358852112213 120.00534299687104 l -5.536045811984726 17.341584656960645 a39.20380074728699,39.20380074728699 0 0,0 -0.6393528739873425,-0.21016798884134802 l 5.832921423619813 -17.243995746717275" fill="#ffe115" stroke="none" /><path d="M 92.59220618246901 119.65005319985036 l -3.789296912390427 10.051560255671106 a31.742096381230184,31.742096381230184 0 0,0 -0.5082177738082566,-0.19658955267028072 l 3.9612869486922118 -9.985030814862784" fill="#ff7f0b" stroke="none" /><path d="M 92.25597844496254 119.51999308798841 l -4.249357591722663 10.711157016971422 a32.523277510523954,32.523277510523954 0 0,0 -0.5171906396240352,-0.21033693065415693 l 4.432602692537139 -10.636632829737973" fill="#ff8a0c" stroke="none" /><path d="M 91.26138138417905 119.09545874513695 l -4.610808984717768 10.075449750144918 a32.08035410811628,32.08035410811628 0 0,0 -0.49879036568090857,-0.2334590765406795 l 4.783088064270166 -9.99481444203371" fill="#ff840c" stroke="none" /><path d="M 89.97174638481275 118.45085714620012 l -2.6285103340791727 4.836162959416736 a26.504320007629957,26.504320007629957 0 0,0 -0.3978876629226588,-0.22070157943624405 l 2.7111421851579345 -4.790328464547343" fill="#ff3605" stroke="none" /><line stroke="#e1ed5e" stroke-width="0.3" x1="58.13341422392154" x2="55.67067388415222" y1="173.97424548756322" y2="178.32567169271397" /><path d="M 57.64086615596768 174.84453072859336 a86.0,86.0 0 0,1 -31.369924170532247,-30.572349798747897" fill="none" id="id104" stroke="none" /><text fill="#e1ed5e" style="font-size:6.75px; font-family:Arial;" text-anchor="middle"><textPath startOffset="22.145653131862474" xlink:href="#id104">August</textPath></text><path d="M 89.65649057296885 118.27599006163327 l -5.630289994535202 9.948182936376288 a32.4309452434246,32.4309452434246 0 0,0 -0.48215168473352876,-0.2783704049711365 l 5.80023414712913 -9.85006563412898" fill="#ff880c" stroke="none" /><path d="M 89.34428304082925 118.09573695890944 l -5.799988343135431 9.849648205209794 a32.43046081953389,32.43046081953389 0 0,0 -0.4772949109078904,-0.2866018802035203 l 5.968216010600749 -9.748632324470355" fill="#ff880c" stroke="none" /><path d="M 89.03521579738668 117.91015095944536 l -6.014975937310411 9.825011150605668 a32.52001647724295,32.52001647724295 0 0,0 -0.47360893195669046,-0.2955670015061293 l 6.182748998056814 -9.720308352257993" fill="#ff8a0c" stroke="none" /><path d="M 88.4268655584334 117.5232005979908 l -6.244789290543534 9.455406915290803 a32.331465625285034,32.331465625285034 0 0,0 -0.4604981609422295,-0.30984371406188554 l 6.40618373958277 -9.346813527171795" fill="#ff870c" stroke="none" /><path d="M 88.1277618465304 117.32195027204791 l -7.806250917392722 11.389553381111046 a34.807949869784174,34.807949869784174 0 0,0 -0.48997146893741406,-0.34203813842024516 l 8.000617477503901 -11.253870426885673" fill="#ffa80f" stroke="none" /><path d="M 87.83215693770417 117.11559508785305 l -6.851399812507045 9.637351860596496 a32.824560468607885,32.824560468607885 0 0,0 -0.45644738014104425,-0.33043270300389893 l 7.015828203022044 -9.518318386219532" fill="#ff8e0d" stroke="none" /><path d="M 87.54013794807813 116.9041958592261 l -6.821059128000604 9.254076729469014 a32.49629434829242,32.49629434829242 0 0,0 -0.44620044508600365,-0.3348371324475433 l 6.978912561997373 -9.135620569757457" fill="#ff890c" stroke="none" /><path d="M 86.96720088162412 116.46651593811092 l -11.481776494454628 14.506849520698001 a39.50080740088893,39.50080740088893 0 0,0 -0.5280867261021304,-0.42538928524994796 l 11.72911399091202 -14.307611941654644" fill="#ffe515" stroke="none" /><path d="M 86.68645165197938 116.24036423190432 l -15.653955379090947 19.095280264949942 a45.69161897096983,45.69161897096983 0 0,0 -0.602314897374277,-0.502472509461273 l 15.979444610627116 -18.823745571576797" fill="#ceff1d" stroke="none" /><path d="M 86.40962598614128 116.0094264158162 l -7.475343921900629 8.805936343514016 a32.5509861759383,32.5509861759383 0 0,0 -0.422884618226255,-0.36527766125807476 l 7.625408019889747 -8.67631454979122" fill="#ff8a0c" stroke="none" /><path d="M 85.86807049272751 115.53346607816431 l -8.784776791599898 9.656008560355387 a34.054148941845604,34.054148941845604 0 0,0 -0.42903399872630055,-0.39710746411537484 l 8.949240561640165 -9.503783350107636" fill="#ff9e0e" stroke="none" /><path d="M 85.60350026404147 115.28858382429668 l -8.074469986220507 8.574807313250073 a32.778131686211644,32.778131686211644 0 0,0 -0.40633569237384987,-0.38926040160892417 l 8.220478164459672 -8.434934781335567" fill="#ff8d0d" stroke="none" /><path d="M 85.34317274990678 115.03919595460226 l -8.197279128304928 8.411130526517262 a32.744892585351906,32.744892585351906 0 0,0 -0.39918843220602707,-0.39577658576560315 l 8.340459480640918 -8.269173930523" fill="#ff8d0d" stroke="none" /><path d="M 84.83555147118756 114.52719865689866 l -12.2734800960655 11.757716294678747 a37.99653512144961,37.99653512144961 0 0,0 -0.44717247588104025,-0.47488167310207474 l 12.473508405682793 -11.545293161632182" fill="#ffd213" stroke="none" /><path d="M 84.58840730492382 114.26474011684316 l -8.380122769444618 7.756516527429319 a32.41884434919963,32.41884434919963 0 0,0 -0.3745183892935744,-0.41166131579885573 l 8.512038859580073 -7.611517636072789" fill="#ff880c" stroke="none" /><path d="M 84.3458050057657 113.99807769240083 l -11.120089410416433 9.943652520668422 a35.917527072120606,35.917527072120606 0 0,0 -0.4070463834824968,-0.4631440639290714 l 11.289146857857522 -9.75129617892805" fill="#ffb711" stroke="none" /><path d="M 84.1078160697243 113.72728997021213 l -5.740457977314635 4.958470878649607 a28.58546578950373,28.58546578950373 0 0,0 -0.31757831301774664,-0.37410645419559524 l 5.824730853839494 -4.859197642004458" fill="#ff5307" stroke="none" /><path d="M 83.8745106332314 113.45245675266167 l -8.799857156616833 7.341153817814988 a32.45993129794765,32.45993129794765 0 0,0 -0.35327716883054683,-0.43094070390911465 l 8.924581144686009 -7.189010832207379" fill="#ff890c" stroke="none" /><path d="M 83.64595745247003 113.17365903436017 l -8.969173935167156 7.224931627660979 a32.517192283871005,32.517192283871005 0 0,0 -0.34643749977072047,-0.4377124637400844 l 9.091877865579438 -7.069899220006214" fill="#ff8a0c" stroke="none" /><path d="M 83.4222238831116 112.89097897827486 l -15.141148953575213 11.7738490067208 a40.18014369256425,40.18014369256425 0 0,0 -0.41873071413037993,-0.5481319462331624 l 15.34103164505989 -11.512196147246769" fill="#ffed16" stroke="none" /><path d="M 83.20337586046588 112.60449989151573 l -6.732283447585033 5.05203100812449 a29.417045664939614,29.417045664939614 0 0,0 -0.29963079321622954,-0.40650671675784433 l 6.818016260385093 -4.935717982097765" fill="#ff5f08" stroke="none" /><path d="M 82.98947788004972 112.3143062007846 l -9.62846490147994 6.9702660626314685 a32.88662884685574,32.88662884685574 0 0,0 -0.32712001077891506,-0.46013526152182765 l 9.746700010788816 -6.803953574400137" fill="#ff8f0d" stroke="none" /><path d="M 82.78059297857968 112.02048342749411 l -10.103308076320522 7.052893699719332 a33.32153170772953,33.32153170772953 0 0,0 -0.323393816527088,-0.47184124305431835 l 10.222891629662934 -6.878417721594962" fill="#ff940d" stroke="none" /><path d="M 82.37810715431573 111.42229804090323 l -12.907510038374188 8.366492062762013 a36.38187260469252,36.38187260469252 0 0,0 -0.3352023187870812,-0.5269937207585768 l 13.049230048787159 -8.143684667324765" fill="#ffbd11" stroke="none" /><path d="M 82.18462484594161 111.11811171558189 l -9.793838221494768 6.112079399355762 a32.54455636622044,32.54455636622044 0 0,0 -0.29171086146235675,-0.4764877692764306 l 9.89731704741253 -5.943054513954775" fill="#ff8a0c" stroke="none" /><path d="M 81.99639281039703 110.81064883170644 l -12.442070148549517 7.47110563449217 a35.51284014185947,35.51284014185947 0 0,0 -0.30934438523356783,-0.5253343952688692 l 12.568488243912855 -7.2564200709297415" fill="#ffb210" stroke="none" /><line stroke="#e1ed5e" stroke-width="0.3" x1="26.387840678322732" x2="22.057713659400548" y1="142.50000000000003" y2="145.00000000000006" /><path d="M 25.521815274538298 143.00000000000003 a86.0,86.0 0 0,1 -11.493303480769221,-40.785679425670985" fill="none" id="id105" stroke="none" /><text fill="#e1ed5e" style="font-size:6.75px; font-family:Arial;" text-anchor="middle"><textPath startOffset="21.40746469413373" xlink:href="#id105">September</textPath></text><path d="M 81.81346652052679 110.50000000000001 l -9.85261890682278 5.688412178076936 a32.37682435615386,32.37682435615386 0 0,0 -0.27376398820076764,-0.48371473559205436 l 9.948816260044927 -5.5184406723857595" fill="#ff880c" stroke="none" /><path d="M 81.63589988554817 110.18625677009913 l -10.430871470172411 5.785828571445317 a32.92807159122587,32.92807159122587 0 0,0 -0.26993907869661365,-0.49665750092969335 l 10.528655898484354 -5.605916237041037" fill="#ff8f0d" stroke="none" /><path d="M 81.29705330413844 109.54985784667822 l -7.290056664881603 3.7223548767988106 a29.185404816257567,29.185404816257567 0 0,0 -0.22400505148738017,-0.448160158009907 l 7.35288162958072 -3.5966628626251507" fill="#ff5c08" stroke="none" /><path d="M 81.1358732173502 109.22738970284198 l -6.209775338734842 3.037512293985711 a27.912871378354566,27.912871378354566 0 0,0 -0.20684865506519393,-0.432234133509794 l 6.2610032517599485 -2.930465658410812" fill="#ff4a06" stroke="none" /><path d="M 80.5471966667186 107.91128576633889 l -7.693219083861632 3.1287652269301285 a29.305106364011237,29.305106364011237 0 0,0 -0.1855171271566816,-0.46762434919183044 l 7.745794885984439 -2.996239860524733" fill="#ff5e08" stroke="none" /><path d="M 80.28708602549918 107.23885506374661 l -10.88996438780879 3.998945764927483 a32.6009866648736,32.6009866648736 0 0,0 -0.18840239038327308,-0.5269950171531579 l 10.957006948236007 -3.811415791393404" fill="#ff8b0c" stroke="none" /><path d="M 80.16572619554312 106.89939002012753 l -15.593343356229516 5.4241742648635265 a37.50981597356176,37.50981597356176 0 0,0 -0.20633002757543184,-0.6099780640835087 l 15.684158805377315 -5.155694526305856" fill="#ffcb13" stroke="none" /><path d="M 80.05021161711548 106.5578916946017 l -8.017236070547542 2.635424738931636 a29.439285382392367,29.439285382392367 0 0,0 -0.15369449620062353,-0.48144582030047134 l 8.06129528252542 -2.4974098849397732" fill="#ff5f08" stroke="none" /><path d="M 79.94057633289273 106.21446072829308 l -7.679449629888189 2.379113125672725 a29.039535178276047,29.039535178276047 0 0,0 -0.1434327359083259,-0.47744092886967027 l 7.719158685800144 -2.2469345932123312" fill="#ff5a08" stroke="none" /><path d="M 79.73907114497094 105.5222062557868 l -7.799331957474209 2.125742607098268 a29.083833287154764,29.083833287154764 0 0,0 -0.12715246829915616,-0.48281863292730415 l 7.8346739065780975 -1.991543469798161" fill="#ff5a08" stroke="none" /><path d="M 79.01933749520258 100.90099992219065 l -5.822153354446279 0.25002831622398164 a26.82751952734642,26.82751952734642 0 0,0 -0.015809473869003846,-0.46027558204698377 l 5.825587515312131 -0.15004646961287796" fill="#ff3b05" stroke="none" /><line stroke="#e1ed5e" stroke-width="0.3" x1="15.003131293944662" x2="10.003315487706104" y1="100.72959589197737" y2="100.7725132973878" /><path d="M 14.003168132696942 100.73817937305945 a86.0,86.0 0 0,1 10.791469493833604,-42.45332614584628" fill="none" id="id106" stroke="none" /><text fill="#e1ed5e" style="font-size:6.75px; font-family:Arial;" text-anchor="middle"><textPath startOffset="22.145653131862435" xlink:href="#id106">October</textPath></text><path d="M 79.00077361379809 99.81974689727619 l -8.54546193205267 -0.07335251304652128 a29.54577674780541,29.54577674780541 0 0,0 0.008706955255920789,-0.5071364928017296 l 8.542943545198083 0.22003592181730325" fill="#ff6108" stroke="none" /><path d="M 79.0935383218832 98.0201363427161 l -8.38281015526266 -0.793860837278228 a29.420315975552157,29.420315975552157 0 0,0 0.05193051074510503,-0.50238058389718 l 8.367947252035892 0.9376459434583206" fill="#ff5f08" stroke="none" /><path d="M 79.22317932658666 96.9465228501225 l -10.580070435767595 -1.5549060093227103 a31.693718863128552,31.693718863128552 0 0,0 0.08372953481502934,-0.5376036770280247 l 10.5518194088143 1.736297868282185" fill="#ff7e0b" stroke="none" /><path d="M 79.407916724674 95.88100663000787 l -36.571758251882386 -7.315375902202094 a58.29622268038208,58.29622268038208 0 0,0 0.2047093767020877,-0.9796084731480594 l 36.440791164355936 7.942100826635563" fill="#44ff2d" stroke="none" /><path d="M 79.48165901384962 95.52812308129327 l -8.961018275324367 -1.9530122255293767 a30.17137423092987,30.17137423092987 0 0,0 0.11463561692891716,-0.5051056798796335 l 8.926171796837787 2.1065522393480185" fill="#ff6a09" stroke="none" /><path d="M 79.83685265289637 94.1308016681162 l -11.866176197201566 -3.454070951500482 a33.35867078941067,33.35867078941067 0 0,0 0.16476590924119516,-0.5484521246561933 l 11.805133967956742 3.6572606797473988" fill="#ff950d" stroke="none" /><path d="M 80.28708602549916 92.7611449362534 l -10.895969917555218 -4.001151078635622 a32.607384304757694,32.607384304757694 0 0,0 0.1974599411731395,-0.5237859536140171 l 10.825679292567642 4.187605312443783" fill="#ff8b0c" stroke="none" /><path d="M 80.41425534168474 92.42381321644754 l -5.50037625161241 -2.12766369566345 a26.897549636174844,26.897549636174844 0 0,0 0.17027599470463492,-0.42920673916806457 l 5.463041581941644 2.2217714520450973" fill="#ff3c05" stroke="none" /><path d="M 80.5471966667186 92.08871423366112 l -22.71387115522757 -9.237533659807731 a45.52043986090706,45.52043986090706 0 0,0 0.3005956454304431,-0.7213201210306622 l 22.551949665260647 9.626086290279659" fill="#d0ff1d" stroke="none" /><path d="M 80.9802524753101 91.09779779509293 l -23.692121020029298 -11.089108922694214 a47.15884047749614,47.15884047749614 0 0,0 0.3494711308980199,-0.7302602543042218 l 23.498270631171373 11.494181679063523" fill="#bdff1f" stroke="none" /><path d="M 81.29705330413844 90.45014215332179 l -15.10722735409685 -7.713857930258495 a37.96266260044643,37.96266260044643 0 0,0 0.30133664455815445,-0.5778527486661669 l 14.972582640563754 7.972056922029148" fill="#ffd113" stroke="none" /><path d="M 81.63589988554816 89.8137432299009 l -10.116883273051501 -5.611664611397124 a32.569014948186215,32.569014948186215 0 0,0 0.2753890661389599,-0.4865860925968793 l 10.019060841891173 5.784507474093108" fill="#ff8a0c" stroke="none" /><line stroke="#e1ed5e" stroke-width="0.3" x1="26.387840678322718" x2="22.05771365940052" y1="57.49999999999999" y2="54.99999999999999" /><path d="M 25.521815274538284 56.99999999999999 a86.0,86.0 0 0,1 29.574782752854787,-30.34633250058573" fill="none" id="id107" stroke="none" /><text fill="#e1ed5e" style="font-size:6.75px; font-family:Arial;" text-anchor="middle"><textPath startOffset="21.40746469413373" xlink:href="#id107">November</textPath></text><path d="M 81.99639281039701 89.18935116829357 l -21.478933595013377 -12.897482483917257 a46.053735106804865,46.053735106804865 0 0,0 0.41279944302790517,-0.6742768671035524 l 21.254366187530078 13.264296467145352" fill="#caff1d" stroke="none" /><path d="M 82.576782715395 88.27688183743585 l -14.187733547888307 -9.546140309449793 a38.10030929643021,38.10030929643021 0 0,0 0.36977305072016214,-0.5395099318022185 l 14.021770760352831 9.788284976322046" fill="#ffd313" stroke="none" /><path d="M 82.98947788004972 87.6856937992154 l -27.652602151799567 -20.018351450033567 a55.137967141333576,55.137967141333576 0 0,0 0.5616142769421435,-0.7619376278169395 l 27.304885855273604 20.49009538711937" fill="#65ff29" stroke="none" /><path d="M 83.64595745247003 86.82634096563983 l -14.301562094472855 -11.520326068845328 a39.36443821832239,39.36443821832239 0 0,0 0.4284222649372392,-0.522605502737568 l 14.101693010296986 11.76413385328139" fill="#ffe315" stroke="none" /><path d="M 84.10781606972428 86.27271002978789 l -13.422565716709762 -11.594092576948059 a38.73663590149593,38.73663590149593 0 0,0 0.43899479828668586,-0.4994954952866236 l 13.221559854464484 11.822800350045984" fill="#ffdb14" stroke="none" /><path d="M 84.83555147118756 85.47280134310135 l -1.2972493612737623 -1.2427355431325167 a22.796454156245034,22.796454156245034 0 0,0 0.2731375596510427,-0.28026319830765445 l 1.2757250004719172 1.2648214335079013" fill="#ff0000" stroke="none" /><path d="M 85.08716467003674 85.21462403516908 l -44.73850598988975 -44.35612789449276 a84.0,84.0 0 0,0 1.024032319480094,-1.0152799590853063 l 43.97048175027968 45.11758786380673" fill="#4dd2ff" stroke="none" /><path d="M 85.60350026404147 84.71141617570332 l -4.650041426553994 -4.938182852791157 a27.78295917400871,27.78295917400871 0 0,0 0.35002589820202784,-0.32397874579255825 l 4.564585757038013 5.017279344716082" fill="#ff4806" stroke="none" /><path d="M 86.40962598614128 83.9905735841838 l -4.2065384337519065 -4.955291697769308 a27.49999087727155,27.49999087727155 0 0,0 0.3625096802448631,-0.3024184683638221 l 4.120854419345134 5.026772350045012" fill="#ff4406" stroke="none" /><path d="M 87.83215693770416 82.88440491214696 l -7.313516769208261 -10.287377232688726 a33.62210988151873,33.62210988151873 0 0,0 0.4732790821939041,-0.3303855560771937 l 7.135842595840592 10.411407604571046" fill="#ff980e" stroke="none" /><path d="M 88.72937992617638 82.28071324371311 l -4.079340404432359 -6.413400676199165 a28.60083721498535,28.60083721498535 0 0,0 0.41653152223757406,-0.25994647641443436 l 3.9686447534050857 6.482482949455135" fill="#ff5407" stroke="none" /><line stroke="#e1ed5e" stroke-width="0.3" x1="56.869717070023135" x2="54.33264160355391" y1="26.7553504044142" y2="22.446841604673864" /><path d="M 56.362301976729285 25.89364864446614 a86.0,86.0 0 0,1 42.16139366436587,-11.88097634709845" fill="none" id="id108" stroke="none" /><text fill="#e1ed5e" style="font-size:6.75px; font-family:Arial;" text-anchor="middle"><textPath startOffset="22.145653131862474" xlink:href="#id108">December</textPath></text><path d="M 89.34428304082924 81.90426304109057 l -12.658152537475633 -21.49631034510293 a45.946346107495984,45.946346107495984 0 0,0 0.6830854918596786,-0.3943795926047112 l 12.287274577755555 21.710436834983813" fill="#cbff1d" stroke="none" /><path d="M 89.97174638481275 81.54914285379989 l -3.793083139595693 -6.9788457529983905 a28.94303265434738,28.94303265434738 0 0,0 0.43857127122229,-0.23351449930077625 l 3.672723052586841 7.042930720021743" fill="#ff5908" stroke="none" /><path d="M 90.61103034731259 81.2157712731953 l -5.304925824347919 -10.613405277624027 a32.86535332760601,32.86535332760601 0 0,0 0.5068146585488802,-0.247908446302672 l 5.121950916536986 10.702907474023913" fill="#ff8e0d" stroke="none" /><path d="M 91.5904679813234 80.7573450057729 l -16.150816049845627 -36.956227817694085 a61.33127364204182,61.33127364204182 0 0,0 0.9683475778488244,-0.4133299994773779 l 15.51403339682637 37.22803246683087" fill="#30ff3a" stroke="none" /><path d="M 93.27111125876988 80.10723608172694 l -3.890388095060435 -11.501241126383858 a33.141403006959756,33.141403006959756 0 0,0 0.540484617730278,-0.17766802923655095 l 3.6923807396823958 11.566330077022437" fill="#ff920d" stroke="none" /><path d="M 94.6519064749342 79.69241777938228 l -3.37005273380499 -12.7966391497838 a34.2329599469811,34.2329599469811 0 0,0 0.5695626191763256,-0.14478059053732634 l 3.149884821403286 12.85260497215639" fill="#ffa10e" stroke="none" /><path d="M 95.35216902796891 79.52079915486377 l -2.1763513669185994 -9.589405686419747 a30.83327039651752,30.83327039651752 0 0,0 0.5171731739142195,-0.11271548615759852 l 2.0114157763852614 9.625352630711058" fill="#ff730a" stroke="none" /><path d="M 96.41257539226777 79.30868818359171 l -4.2335843741304515 -24.418189638717408 a45.78247812235991,45.78247812235991 0 0,0 0.7755170206716159,-0.12761103063267834 l 3.8137898504057626 24.487266667845752" fill="#cdff1d" stroke="none" /><path d="M 97.12497278360702 79.19773525538626 l -2.0205289068130603 -14.619540644350204 a35.75850621557191,35.75850621557191 0 0,0 0.6087837632439452,-0.07881924642748042 l 1.7692673216783208 14.652071486978079" fill="#ffb510" stroke="none" /><path d="M 97.48249496171623 79.15144685158666 l -0.9411114479126599 -7.793752839423566 a28.850367767144107,28.850367767144107 0 0,0 0.4921929045991069,-0.055151241576485786 l 0.8071826417127537 7.8087598415070225" fill="#ff5708" stroke="none" /><path d="M 98.1996594967304 79.07731436759882 l -3.015624734225232 -35.04613054302858 a56.175634444550845,56.175634444550845 0 0,0 0.961488797978326,-0.07442531384366588 l 2.413566941471689 35.0927336238673" fill="#5aff2a" stroke="none" /><path d="M 99.27912038922189 79.0123766808444 l -0.3921457645519072 -11.416896066368244 a32.4236287619526,32.4236287619526 0 0,0 0.5564306721581241,-0.014331680319316725 l 0.1961017783230392 11.421945464037606" fill="#ff880c" stroke="none" /><path d="M 99.63950707515114 79.00309439819443 l -0.1942084867671603 -11.311670722606404 a32.313337768890456,32.313337768890456 0 0,0 0.5547014116160097,-0.004761444478486669 l 2.770968577268911e-15 11.313337768890456" fill="#ff870c" stroke="none" /></svg>