<?xml version="1.0" encoding="utf-8" ?>
<svg baseProfile="full" height="200mm" version="1.1" viewBox="0,0,200,200" width="200mm" xmlns="http://www.w3.org/2000/svg" xmlns:ev="http://www.w3.org/2001/xml-events" xmlns:xlink="http://www.w3.org/1999/xlink"><defs /><rect fill="#1a1a1a" height="200" width="200" x="0" y="0" /><text alignment-baseline="middle" fill="#e1ed5e" style="dominant-baseline: central; font-size:9.0px; font-family:Arial;" text-anchor="middle" x="100.0" y="100.0">2024</text><line stroke="#e1ed5e" stroke-width="0.3" x1="100.0" x2="100.0" y1="15.0" y2="10.0" /><path d="M 100.0 14.0 a86.0,86.0 0 0,1 42.35913384403234,11.155469271406648" fill="none" id="id97" stroke="none" /><text fill="#e1ed5e" style="font-size:6.75px; font-family:Arial;" text-anchor="middle"><textPath startOffset="22.145653131862478" xlink:href="#id97">January</textPath></text><path d="M 100.72087961077811 79.0123766808444 l 0.29140485537131505 -8.483934413548909 a29.48893750260499,29.48893750260499 0 0,0 0.5057693159852489,0.021719910619832906 l -0.4369999319574002 8.477681934503245" fill="#ff6a09" stroke="none" /><path d="M 101.08105385017728 79.02784411241856 l 0.37699681319107264 -7.313637460398531 a28.32334756100657,28.32334756100657 0 0,0 0.48534840887349817,0.02919735505141111 l -0.5024895741970332 7.306088127522428" fill="#ff5a08" stroke="none" /><path d="M 102.15924093988457 79.11130261209362 l 2.7525366649843592 -26.628295333752355 a47.770180620862845,47.770180620862845 0 0,0 0.8149686043095488,0.09131893197472275 l -3.2092411708947046 26.57712064127066" fill="#b0ff20" stroke="none" /><path d="M 102.87502721639298 79.19773525538626 l 0.31328904945915226 -2.2668034971210043 a23.288350524520016,23.288350524520016 0 0,0 0.39554142685259336,0.0581309685302261 l -0.35215558191942764 2.2610914552918957" fill="#ff1302" stroke="none" /><path d="M 103.94208987418118 79.37332000966035 l 1.6452960941195576 -8.608884400386495 a29.764695651107516,29.764695651107516 0 0,0 0.5010440247508547,0.100222837506485 l -1.7928366044013693 8.579372166217151" fill="#ff6e0a" stroke="none" /><path d="M 105.3480935250658 79.69241777938227 l 3.6263645496570165 -13.769896863048432 a35.239402356349096,35.239402356349096 0 0,0 0.5836628361659061,0.1590799014303643 l -3.8622087867576154 13.705616467473925" fill="#ffb610" stroke="none" /><path d="M 107.74402155503746 80.48000691201159 l 3.0032532504052796 -7.570160061248196 a29.14412999890026,29.14412999890026 0 0,0 0.4634548664580294,0.18848305951239774 l -3.1327625780537485 7.517489745156505" fill="#ff6509" stroke="none" /><line stroke="#e1ed5e" stroke-width="0.3" x1="143.13028292997686" x2="145.6673583964461" y1="26.7553504044142" y2="22.446841604673864" /><path d="M 143.63769802327073 25.89364864446614 a86.0,86.0 0 0,1 29.32050498858742,28.57503671076993" fill="none" id="id98" stroke="none" /><text fill="#e1ed5e" style="font-size:6.75px; font-family:Arial;" text-anchor="middle"><textPath startOffset="20.669276256404974" xlink:href="#id98">February</textPath></text><path d="M 112.16784306229584 82.88440491214696 l 4.369698863785203 -6.146528684294814 a28.54149076953785,28.54149076953785 0 0,0 0.39688844271148405,0.28731662535918145 l -4.474568316870655 6.070611287562557" fill="#ff5d08" stroke="none" /><path d="M 114.91283532996326 85.21462403516908 l 6.662003846530116 -6.6050639848606325 a30.38132002946734,30.38132002946734 0 0,0 0.3640162437083424,0.37351273412553654 l -6.77440689138927 6.4897285586673545" fill="#ff760a" stroke="none" /><path d="M 117.01052211995028 87.68569379921539 l 7.115807818184012 -5.151296104914097 a29.78467827901693,29.78467827901693 0 0,0 0.2962652184585368,0.416734132071712 l -7.2031881351725096 5.028384746132881" fill="#ff6e0a" stroke="none" /><path d="M 117.42321728460499 88.27688183743584 l 6.708678921771971 -4.513898577395796 a29.085892235396372,29.085892235396372 0 0,0 0.27517409330279624,0.41664864956518877 l -6.785177453995492 4.398070049491549" fill="#ff6509" stroke="none" /><path d="M 117.62189284568427 88.57770195909679 l 6.856796214421428 -4.444492464726326 a29.17124027275622,29.17124027275622 0 0,0 0.26876756695755605,0.4225472563635833 l -6.9320814730048745 4.32613153368407" fill="#ff6609" stroke="none" /><line stroke="#e1ed5e" stroke-width="0.3" x1="172.87174338648825" x2="177.1583165268699" y1="56.24261187166439" y2="53.66864786411523" /><path d="M 173.72905801456457 55.72781907015455 a86.0,86.0 0 0,1 12.242430191666344,42.057860355516425" fill="none" id="id99" stroke="none" /><text fill="#e1ed5e" style="font-size:6.75px; font-family:Arial;" text-anchor="middle"><textPath startOffset="22.145653131862474" xlink:href="#id99">March</textPath></text><path d="M 118.36410011445183 89.81374322990088 l 8.662337377283787 -4.804852522275279 a30.90569011218819,30.90569011218819 0 0,0 0.25335991791239815,0.4661537124365407 l -8.743542644811527 4.655443976364135" fill="#ff7d0b" stroke="none" /><path d="M 118.70294669586156 90.45014215332178 l 5.605751652755423 -2.862336736458829 a27.294237299725197,27.294237299725197 0 0,0 0.20948988270424537,0.4191200971175482 l -5.654061448671405 2.7656847831775306" fill="#ff4c07" stroke="none" /><path d="M 119.16976305983485 91.42560881287824 l 7.87805281663329 -3.523752820093656 a29.630211475901486,29.630211475901486 0 0,0 0.20369517170438636,0.4660944157644368 l -7.937381870354647 3.38799633455337" fill="#ff6c0a" stroke="none" /><path d="M 119.31412917781788 91.75594674310238 l 5.442298162915068 -2.3229934666957064 a26.917339599886056,26.917339599886056 0 0,0 0.17774949220661315,0.4265340738652858 l -5.481373499658164 2.229226883389143" fill="#ff4706" stroke="none" /><path d="M 119.71291397450082 92.76114493625339 l 7.526502042963238 -2.763835803092286 a29.017918766686563,29.017918766686563 0 0,0 0.16769569939065473,0.46907471713658416 l -7.572837912397836 2.634226129574785" fill="#ff6409" stroke="none" /><path d="M 120.26092885502905 94.47779374421319 l 3.994919867678702 -1.088833174555398 a25.140645170886586,25.140645170886586 0 0,0 0.10991312790681657,0.41735804948651994 l -4.0130224763902484 1.0200946206960795" fill="#ff2e04" stroke="none" /><path d="M 120.592083275326 95.88100663000786 l 6.733426395187484 -1.3468738596419754 a27.866811502669517,27.866811502669517 0 0,0 0.08980240269808974,0.46988411779978106 l -6.75555509016773 1.2310871768088798" fill="#ff5407" stroke="none" /><path d="M 120.82617615685814 97.30363454192243 l 3.200009640185181 -0.41430531434687773 a24.226718238516366,24.226718238516366 0 0,0 0.04985848662112541,0.4128997926171372 l -3.2066502130659704 0.35931184480632755" fill="#ff2103" stroke="none" /><path d="M 120.86939407059847 97.66154086499901 l 8.03978609595719 -0.9008748014410292 a29.090101104227188,29.090101104227188 0 0,0 0.051347640495245046,0.49674184296705587 l -8.054066128934101 0.7627284361910419" fill="#ff6509" stroke="none" /><line stroke="#e1ed5e" stroke-width="0.3" x1="184.99686870605535" x2="189.99668451229388" y1="99.2704041080226" y2="99.22748670261217" /><path d="M 185.99683186730306 99.26182062694052 a86.0,86.0 0 0,1 -10.086455211305974,41.156179273409016" fill="none" id="id100" stroke="none" /><text fill="#e1ed5e" style="font-size:6.75px; font-family:Arial;" text-anchor="middle"><textPath startOffset="21.40746469413373" xlink:href="#id100">April</textPath></text><path d="M 120.99922638620191 100.18025310272382 l 5.89103867823809 0.050567481891438386 a26.891255704747675,26.891255704747675 0 0,0 -0.007924684539358602,0.46157314534479105 l -5.889302562100063 -0.15168754320530045" fill="#ff4606" stroke="none" /><path d="M 120.98066250479742 100.90099992219065 l 6.315410525058898 0.27121090148506644 a27.321231324125787,27.321231324125787 0 0,0 -0.024144696545955857,0.4684006626840237 l -6.309824239056369 -0.3795833575458208" fill="#ff4c07" stroke="none" /><path d="M 120.82617615685814 102.69636545807757 l 12.136545714878578 1.5713188249011167 a33.23784232366254,33.23784232366254 0 0,0 -0.07811760840695524,0.5652201001896164 l -12.107783589916412 -1.7794272332908183" fill="#ff9c0e" stroke="none" /><path d="M 120.77682067341334 103.0534771498775 l 13.761018648485809 2.0223958546245795 a34.90883601300903,34.90883601300903 0 0,0 -0.09222333967579291,0.5921399972786094 l -13.724273816671749 -2.2583240338346395" fill="#ffb210" stroke="none" /><path d="M 120.51834098615036 104.47187691870673 l 5.961539623120037 1.2992898138587698 a27.10148413899662,27.10148413899662 0 0,0 -0.10297162237900823,0.45371196774131023 l -5.938357139183364 -1.401436115539097" fill="#ff4906" stroke="none" /><path d="M 120.35273937422433 105.17358676015961 l 12.993117949622338 3.3027997736014925 a34.40632687939915,34.40632687939915 0 0,0 -0.15042203497141907,0.5711769677657427 l -12.934506433846188 -3.525357245740038" fill="#ffac0f" stroke="none" /><path d="M 119.94978838288452 106.5578916946017 l 3.4507515028965905 1.1343305596361344 a24.632408533365638,24.632408533365638 0 0,0 -0.13549534701852434,0.4005679175148936 l -3.4307707343057015 -1.1934001516251884" fill="#ff2603" stroke="none" /><path d="M 119.83427380445688 106.89939002012753 l 5.976995664181217 2.0791093559740537 a27.328283565370622,27.328283565370622 0 0,0 -0.15793123078496568,0.44176176059776595 l -5.940424263352308 -2.181406072952741" fill="#ff4c07" stroke="none" /><path d="M 119.71291397450082 107.23885506374661 l 5.96978723704704 2.1921885636130116 a27.359563692113273,27.359563692113273 0 0,0 -0.1656808098029192,0.4394880320665723 l -5.93127574342968 -2.2943448758737426" fill="#ff4d07" stroke="none" /><path d="M 119.4528033332814 107.91128576633889 l 5.927995296698898 2.4108640801123467 a27.399483873755774,27.399483873755774 0 0,0 -0.18093334696806027,0.43417416625113736 l -5.8857361051943515 -2.512270755804762" fill="#ff4d07" stroke="none" /><path d="M 119.0197475246899 108.90220220490707 l 14.258724097512868 6.673802842822448 a36.74327974959027,36.74327974959027 0 0,0 -0.27228649807703703,0.5689740575091052 l -14.14205834147592 -6.917589402396656" fill="#ffca12" stroke="none" /><line stroke="#e1ed5e" stroke-width="0.3" x1="174.33088141563837" x2="178.70328620479359" y1="141.23008692659167" y2="143.65538615756765" /><path d="M 175.20536237346943 141.71514677278685 a86.0,86.0 0 0,1 -30.301960400862466,31.631185727798858" fill="none" id="id101" stroke="none" /><text fill="#e1ed5e" style="font-size:6.75px; font-family:Arial;" text-anchor="middle"><textPath startOffset="22.145653131862474" xlink:href="#id101">May</textPath></text><path d="M 118.18653347947321 110.5 l 1.8336947231967802 1.0586841420492568 a23.117368284098514,23.117368284098514 0 0,0 -0.20137021008447492,0.34197064045633124 l -1.8152508029825398 -1.0900059507991375" fill="#ff1101" stroke="none" /><path d="M 118.00360718960297 110.81064883170644 l 6.7905848703679235 4.0775511053052105 a28.920761699359822,28.920761699359822 0 0,0 -0.25922923067479375,0.423431466474268 l -6.719587675237725 -4.193519687904035" fill="#ff6209" stroke="none" /><path d="M 117.81537515405839 111.11811171558189 l 3.4718983162465498 2.1667213298270855 a25.092524800106077,25.092524800106077 0 0,0 -0.23118855339329183,0.36346680533231235 l -3.434192071227368 -2.22600180983807" fill="#ff2d04" stroke="none" /><path d="M 117.423217284605 111.72311816256416 l 5.721001693112476 3.849345259319462 a27.8954564242,27.8954564242 0 0,0 -0.27073239597490306,0.39500665666306073 l -5.654079560322253 -3.9469866510525664" fill="#ff5407" stroke="none" /><path d="M 117.21940702142032 112.02048342749411 l 15.926315663255359 11.117805232959183 a40.42300501476709,40.42300501476709 0 0,0 -0.4020835914110729,0.5655809256273568 l -15.733116973314326 -11.389563385296045" fill="#fff717" stroke="none" /><path d="M 116.79662413953412 112.60449989151573 l 5.113006080266087 3.8368950837177414 a27.392542143802835,27.392542143802835 0 0,0 -0.28546684206714923,0.3736852598746389 l -5.046387260844633 -3.9241012568332576" fill="#ff4d07" stroke="none" /><path d="M 116.1254893667686 113.45245675266167 l 5.259945610861532 4.388033705029 a27.849953841135868,27.849953841135868 0 0,0 -0.309406935105377,0.36448059156146184 l -5.183844112249041 -4.4776810790400186" fill="#ff5407" stroke="none" /><path d="M 115.89218393027572 113.72728997021213 l 10.34503066000156 8.935791093509735 a34.66996787937778,34.66996787937778 0 0,0 -0.3929080365811015,0.4470572204958257 l -10.190111559461872 -9.112060591816855" fill="#ffaf10" stroke="none" /><path d="M 115.6541949942343 113.99807769240083 l 4.463823106294352 3.991578146947611 a26.988189444855355,26.988189444855355 0 0,0 -0.31178080044937234,0.342701715651142 l -4.394644605003099 -4.067617438156425" fill="#ff4806" stroke="none" /><path d="M 114.65682725009322 115.03919595460226 l 7.061724112505463 7.245951043370178 a31.117892763024248,31.117892763024248 0 0,0 -0.38575446038609035,0.3695440469309534 l -6.93629716625406 -7.366107220606712" fill="#ff800b" stroke="none" /><path d="M 113.59037401385872 116.0094264158162 l 2.976935399192082 3.506822414850684 a25.599994328285863,25.599994328285863 0 0,0 -0.3374635940656879,0.28152413247823077 l -2.916297470964499 -3.5574087312407854" fill="#ff3405" stroke="none" /><path d="M 112.45986205192187 116.90419585922612 l 3.7636273130818028 5.106083275749789 a27.343262328697044,27.343262328697044 0 0,0 -0.3802262780145551,0.2752545030681027 l -3.6754200246932798 -5.1699385501909685" fill="#ff4d07" stroke="none" /><path d="M 111.5731344415666 117.5232005979908 l 4.523056624670331 6.8484842157800525 a29.20730024330551,29.20730024330551 0 0,0 -0.4207441888849169,0.2727212999481276 l -4.404826803528405 -6.9251193574320755" fill="#ff6609" stroke="none" /><line stroke="#e1ed5e" stroke-width="0.3" x1="143.1302829299769" x2="145.66735839644613" y1="173.24464959558577" y2="177.55315839532614" /><path d="M 143.63769802327073 174.10635135553383 a86.0,86.0 0 0,1 -40.68552437913181,11.842963189579606" fill="none" id="id102" stroke="none" /><text fill="#e1ed5e" style="font-size:6.75px; font-family:Arial;" text-anchor="middle"><textPath startOffset="21.407464694133747" xlink:href="#id102">June</textPath></text><path d="M 110.65571695917076 118.09573695890943 l 6.0306585745756305 10.24137668752463 a32.88505949917271,32.88505949917271 0 0,0 -0.4889030128809843,0.2822682860944565 l -5.853963093834247 -10.343391870895257" fill="#ff980e" stroke="none" /><path d="M 108.73861861582097 119.09545874513695 l 2.5710504853260634 5.6182093111745 a27.17855779792204,27.17855779792204 0 0,0 -0.42590948100046805,0.1905038935016173 l -2.4742276014699685 -5.6615169555859675" fill="#ff4a06" stroke="none" /><path d="M 107.407793817531 119.65005319985036 l 1.519809603349451 4.031475537127453 a25.308435474379337,25.308435474379337 0 0,0 -0.40784043424721417,0.14976465663422214 l -1.4503800174481098 -4.056971042770397" fill="#ff3004" stroke="none" /><path d="M 106.38641147887787 120.00534299687104 l 2.2793605541803608 7.140064471374804 a28.495065389397357,28.495065389397357 0 0,0 -0.4672639373225979,0.14475956221017622 l -2.1564559839861386 -7.178140621391624" fill="#ff5d08" stroke="none" /><path d="M 106.0420521117495 120.11202640906438 l 2.707291766530272 9.011693791852023 a30.409572450819798,30.409572450819798 0 0,0 -0.5012366205527331,0.1459026751421199 l -2.552195133595932 -9.056840161296662" fill="#ff770a" stroke="none" /><path d="M 104.29559338865022 120.5559693870025 l 1.261675199841114 6.037572562803397 a27.167990496183542,27.167990496183542 0 0,0 -0.45733238673630455,0.0914792856877516 l -1.1578463275738506 -6.0583412451540095" fill="#ff4a06" stroke="none" /><path d="M 102.875027216393 120.80226474461374 l 0.563475462024081 4.077027748218799 a25.11578180374632,25.11578180374632 0 0,0 -0.427592810256734,0.05536044999402804 l -0.49340482987657164 -4.086099794413222" fill="#ff2d04" stroke="none" /><path d="M 102.15924093988457 120.88869738790638 l 0.4380160940507659 4.237408373772466 a25.2599868338722,25.2599868338722 0 0,0 -0.4317057287412142,0.0408829813545471 l -0.3652108019245364 -4.244303110632196" fill="#ff2f04" stroke="none" /><path d="M 101.80034050326958 120.92268563240118 l 0.7477010746233709 8.689419864154903 a29.72152936545895,29.72152936545895 0 0,0 -0.5087066274592503,0.039377110250912103 l -0.5984254523888847 -8.70097474140087" fill="#ff6d0a" stroke="none" /><path d="M 101.08105385017728 120.97215588758144 l 0.5647486623949781 10.955973176644525 a31.9705190988864,31.9705190988864 0 0,0 -0.5483313047446695,0.023547705550128143 l -0.37659159704947903 -10.964053450620485" fill="#ff8c0c" stroke="none" /><line stroke="#e1ed5e" stroke-width="0.3" x1="101.45913802915013" x2="101.54496967792366" y1="184.9874750549273" y2="189.98673829345242" /><path d="M 101.47630435890484 185.9873277026323 a86.0,86.0 0 0,1 -42.54439059252881,-10.42667462771756" fill="none" id="id103" stroke="none" /><text fill="#e1ed5e" style="font-size:6.75px; font-family:Arial;" text-anchor="middle"><textPath startOffset="22.145653131862474" xlink:href="#id103">July</textPath></text><path d="M 99.27912038922189 120.98762331915562 l -0.1407539112163567 4.097896549075885 a25.10031313321931,25.10031313321931 0 0,0 -0.4304993424494306,-0.018487494089445028 l 0.21107901426662606 -4.0948764865606115" fill="#ff2d04" stroke="none" /><path d="M 97.48249496171623 120.84855314841334 l -0.7220009621673736 5.979203697329539 a27.022637482326978,27.022637482326978 0 0,0 -0.4600567719493815,-0.059563559786297036 l 0.8245355560075491 -5.965928541342845" fill="#ff4806" stroke="none" /><path d="M 96.05791012581884 120.62667999033965 l -1.4701526533116127 7.692459909505795 a28.831684894286354,28.831684894286354 0 0,0 -0.4853381875330578,-0.09708123019529767 l 1.6019873263756286 -7.6660892826476355" fill="#ff6109" stroke="none" /><path d="M 95.00130118170881 120.39639698878247 l -1.4270801793783403 5.822974124168954 a26.995296947534435,26.995296947534435 0 0,0 -0.4491435172036964,-0.11417052571111919 l 1.5268289898074152 -5.797618366622571" fill="#ff4806" stroke="none" /><path d="M 93.61358852112213 120.00534299687104 l -2.9888929099637567 9.36266447010192 a30.828172098968377,30.828172098968377 0 0,0 -0.5027594277989955,-0.16526700998865557 l 3.1491750754104957 -9.309976538711243" fill="#ff7c0b" stroke="none" /><path d="M 92.59220618246901 119.65005319985036 l -2.0458289291379415 5.4268042936368195 a26.799622474673047,26.799622474673047 0 0,0 -0.42908459193747195,-0.16597913794829802 l 2.138685783568942 -5.39088526755048" fill="#ff4506" stroke="none" /><path d="M 92.25597844496254 119.51999308798841 l -2.2942141754508234 5.782918413758013 a27.221379594834332,27.221379594834332 0 0,0 -0.4328789655207852,-0.17604810678433097 l 2.3931476021620495 -5.74268305039439" fill="#ff4b07" stroke="none" /><path d="M 91.26138138417905 119.09545874513695 l -2.4893605926789513 5.439702153062192 a26.982246707919387,26.982246707919387 0 0,0 -0.4195241940590246,-0.19635850583799971 l 2.5823735006094655 -5.396167415653665" fill="#ff4806" stroke="none" /><path d="M 89.97174638481275 118.45085714620012 l -1.4191240766627855 2.6110284617836004 a23.971764252629747,23.971764252629747 0 0,0 -0.3598684762282528,-0.19961297746577317 l 1.463736741047141 -2.5862825688846787" fill="#ff1d02" stroke="none" /><line stroke="#e1ed5e" stroke-width="0.3" x1="58.13341422392154" x2="55.67067388415222" y1="173.97424548756322" y2="178.32567169271397" /><path d="M 57.64086615596768 174.84453072859336 a86.0,86.0 0 0,1 -31.369924170532247,-30.572349798747897" fill="none" id="id104" stroke="none" /><text fill="#e1ed5e" style="font-size:6.75px; font-family:Arial;" text-anchor="middle"><textPath startOffset="22.145653131862474" xlink:href="#id104">August</textPath></text><path d="M 89.65649057296885 118.27599006163327 l -3.039775033883438 5.370991219253938 a27.17152970777294,27.17152970777294 0 0,0 -0.40395982069150593,-0.23322631121803566 l 3.1315273224353435 -5.31801801075973" fill="#ff4a06" stroke="none" /><path d="M 89.34428304082925 118.09573695890944 l -3.131394613668298 5.31779264226038 a27.171268168909002,27.171268168909002 0 0,0 -0.3998928073239822,-0.24012414094445497 l 3.2222201775497075 -5.263254500780006" fill="#ff4a06" stroke="none" /><path d="M 89.03521579738668 117.91015095944536 l -3.247465708052793 5.304491177581522 a27.219618973700804,27.219618973700804 0 0,0 -0.3964159944206598,-0.24739289931867112 l 3.338045831263165 -5.247962481421304" fill="#ff4b07" stroke="none" /><path d="M 88.4268655584334 117.5232005979908 l -3.37154118094835 5.1049430676230285 a27.11782098941306,27.11782098941306 0 0,0 -0.3862400436502084,-0.2598795387133343 l 3.458677512695564 -5.046313854852573" fill="#ff4a06" stroke="none" /><path d="M 88.1277618465304 117.32195027204791 l -4.214569173160149 6.149182377566361 a28.454866680761267,28.454866680761267 0 0,0 -0.40054277480138545,-0.2796099645309042 l 4.3195070391353 -6.0759275972303275" fill="#ff5c08" stroke="none" /><path d="M 87.83215693770417 117.11559508785305 l -3.6990482048752624 5.203174544655006 a27.384041272120406,27.384041272120406 0 0,0 -0.3807933363886927,-0.27566500960068546 l 3.787822551637909 -5.138908763681255" fill="#ff4d07" stroke="none" /><path d="M 87.54013794807813 116.9041958592261 l -3.682667369187735 4.9962455630500555 a27.206811474370515,27.206811474370515 0 0,0 -0.37357156047157164,-0.28033506342232634 l 3.7678919185700726 -4.932291472363715" fill="#ff4b07" stroke="none" /><path d="M 86.96720088162412 116.46651593811092 l -6.198973332874329 7.832200301604905 a30.98852501354164,30.98852501354164 0 0,0 -0.41428592977992923,-0.333719419268477 l 6.33251003300952 -7.724632588543017" fill="#ff7e0b" stroke="none" /><path d="M 86.68645165197938 116.24036423190432 l -8.451518978431281 10.30947895592255 a34.3309238008997,34.3309238008997 0 0,0 -0.4525562304772088,-0.37753850318417964 l 8.627249543070382 -10.1628782688265" fill="#ffab0f" stroke="none" /><path d="M 86.40962598614128 116.0094264158162 l -4.035913575595802 4.75429604389152 a27.236339412078294,27.236339412078294 0 0,0 -0.35383963275040237,-0.305638247268504 l 4.116932688109067 -4.684313664158293" fill="#ff4b07" stroke="none" /><path d="M 85.86807049272751 115.53346607816431 l -4.742872071467519 5.2132472354394555 a28.04789204117967,28.04789204117967 0 0,0 -0.35336367673790775,-0.32706814377523025 l 4.831665519519395 -5.1310613455318475" fill="#ff5608" stroke="none" /><path d="M 85.60350026404147 115.28858382429668 l -4.359379765478754 4.629510241298056 a27.358974525342052,27.358974525342052 0 0,0 -0.33915684892649933,-0.3249045892332806 l 4.4382091002705675 -4.5539935217591925" fill="#ff4d07" stroke="none" /><path d="M 85.34317274990678 115.03919595460226 l -4.425684017018765 4.541141682943231 a27.34102884420658,27.34102884420658 0 0,0 -0.33331068076555415,-0.33046188864640197 l 4.502986617914281 -4.46449978406817" fill="#ff4d07" stroke="none" /><path d="M 84.83555147118756 114.52719865689866 l -6.626411501201039 6.3479523226581955 a30.176373361736704,30.176373361736704 0 0,0 -0.35513879215952204,-0.37714509031863774 l 6.734406127096814 -6.233265772395067" fill="#ff740a" stroke="none" /><path d="M 84.58840730492382 114.26474011684316 l -4.524400696973127 4.187717739737907 a27.164996474815414,27.164996474815414 0 0,0 -0.3138233619720214,-0.34494684856864355 l 4.595621759787028 -4.109433315611589" fill="#ff4a06" stroke="none" /><path d="M 84.3458050057657 113.99807769240083 l -6.003699666827906 5.368545262726789 a29.053923759722075,29.053923759722075 0 0,0 -0.32926249540021074,-0.37464027788282317 l 6.09497322618671 -5.2646927070326655" fill="#ff6409" stroke="none" /><path d="M 84.1078160697243 113.72728997021213 l -3.0992543651277016 2.677062104756017 a25.09536800940817,25.09536800940817 0 0,0 -0.27880408511355365,-0.3284305112208652 l 3.1447530137483675 -2.6234648110855976" fill="#ff2d04" stroke="none" /><path d="M 83.8745106332314 113.45245675266167 l -4.751013910897606 3.9634647801359475 a27.187179183191695,27.187179183191695 0 0,0 -0.2958912513451319,-0.3609392153965721 l 4.818351981481367 -3.88132328304088" fill="#ff4a06" stroke="none" /><path d="M 83.64595745247003 113.17365903436017 l -4.842427482268601 3.9007168022597956 a27.218094200996163,27.218094200996163 0 0,0 -0.289981017463004,-0.3663815426320525 l 4.9086749303731665 -3.817015315713063" fill="#ff4b07" stroke="none" /><path d="M 83.4222238831116 112.89097897827486 l -8.174656477385913 6.3566623207829585 a31.355296441132396,31.355296441132396 0 0,0 -0.3267640297910349,-0.42774460426273325 l 8.282572484531242 -6.215396803279355" fill="#ff830c" stroke="none" /><path d="M 83.20337586046588 112.60449989151573 l -3.6347376715691033 2.727574910671998 a25.54433524670561,25.54433524670561 0 0,0 -0.26018484382590035,-0.3529907105959307 l 3.6810245349788344 -2.664777890807188" fill="#ff3304" stroke="none" /><path d="M 82.98947788004972 112.3143062007846 l -5.198376504682666 3.7632237020255466 a27.417551785215576,27.417551785215576 0 0,0 -0.2727196477716408,-0.3836143382079919 l 5.262211250984267 -3.6734321371080507" fill="#ff4e07" stroke="none" /><path d="M 82.78059297857968 112.02048342749411 l -5.454742771658492 3.8078340912900868 a27.65235440815893,27.65235440815893 0 0,0 -0.26837302998108475,-0.39156427116757253 l 5.519305538454902 -3.7136350850524633" fill="#ff5107" stroke="none" /><path d="M 82.37810715431573 111.42229804090323 l -6.968722179911228 4.517041523305663 a29.30462238419389,29.30462238419389 0 0,0 -0.26999647547264055,-0.424479304665575 l 7.045236347009758 -4.396748543961416" fill="#ff6809" stroke="none" /><path d="M 82.18462484594161 111.11811171558189 l -5.287661015771686 3.2998915475593913 a27.2328679789777,27.2328679789777 0 0,0 -0.24409991301905729,-0.39871886309598525 l 5.343528893246148 -3.208635568338849" fill="#ff4b07" stroke="none" /><path d="M 81.99639281039703 110.81064883170644 l -6.717432715561123 4.033625338175854 a28.835434618249657,28.835434618249657 0 0,0 -0.2511790034053334,-0.42655686075746313 l 6.785685429096226 -3.917717309124832" fill="#ff6109" stroke="none" /><line stroke="#e1ed5e" stroke-width="0.3" x1="26.387840678322732" x2="22.057713659400548" y1="142.50000000000003" y2="145.00000000000006" /><path d="M 25.521815274538298 143.00000000000003 a86.0,86.0 0 0,1 -11.493303480769221,-40.785679425670985" fill="none" id="id105" stroke="none" /><text fill="#e1ed5e" style="font-size:6.75px; font-family:Arial;" text-anchor="middle"><textPath startOffset="21.40746469413373" xlink:href="#id105">September</textPath></text><path d="M 81.81346652052679 110.50000000000001 l -5.3193965142820785 3.0711550094471187 a27.142310018894232,27.142310018894232 0 0,0 -0.22950326931436088,-0.4055102862999452 l 5.3713331486178175 -2.979387953048052" fill="#ff4a06" stroke="none" /><path d="M 81.63589988554817 110.18625677009913 l -5.631593169703983 3.1237497995448917 a27.439926586477,27.439926586477 0 0,0 -0.22494814133695093,-0.4138792436227983 l 5.684386660656264 -3.0266157224475063" fill="#ff4e07" stroke="none" /><path d="M 81.29705330413844 109.54985784667822 l -3.935877595472246 2.0096871444863083 a25.41927311503305,25.41927311503305 0 0,0 -0.19509907841788512,-0.3903288485272062 l 3.9697965871018677 -1.9418264397953495" fill="#ff3204" stroke="none" /><path d="M 81.1358732173502 109.22738970284198 l -3.3526372636281137 1.6399428884362495 a24.732236500920116,24.732236500920116 0 0,0 -0.18327852364686376,-0.3829816240984906 l 3.3802950452348894 -1.5821487622726542" fill="#ff2803" stroke="none" /><path d="M 80.5471966667186 107.91128576633889 l -4.15354365832248 1.6892100465404165 a25.483899586623675,25.483899586623675 0 0,0 -0.16132682752742786,-0.40664899185282083 l 4.181929160816032 -1.6176600374740304" fill="#ff3304" stroke="none" /><path d="M 80.28708602549918 107.23885506374661 l -5.879455924663016 2.1590176544865476 a27.2633345114595,27.2633345114595 0 0,0 -0.15755588763551517,-0.4407118590063871 l 5.915651982342474 -2.0577708390992386" fill="#ff4c07" stroke="none" /><path d="M 80.16572619554312 106.89939002012753 l -8.418794746815117 2.9284938299392804 a29.913595296006783,29.913595296006783 0 0,0 -0.16454554047014475,-0.4864496525735196 l 8.467825708857628 -2.783542502891599" fill="#ff700a" stroke="none" /><path d="M 80.05021161711548 106.5578916946017 l -4.328479362813363 1.4228571410813287 a25.55634239694816,25.55634239694816 0 0,0 -0.1334227077325335,-0.41794473165226487 l 4.352266786323151 -1.3483433757376722" fill="#ff3404" stroke="none" /><path d="M 79.94057633289273 106.21446072829308 l -4.146109575449431 1.2844753448265966 a25.340518577670284,25.340518577670284 0 0,0 -0.1251624685663024,-0.41662515097048736 l 4.167548364019364 -1.2131125902653859" fill="#ff3104" stroke="none" /><path d="M 79.73907114497094 105.5222062557868 l -4.210833649476438 1.1476814359103085 a25.364434980830417,25.364434980830417 0 0,0 -0.11089152117545918,-0.4210731680898067 l 4.22991465145663 -1.0752277634476992" fill="#ff3104" stroke="none" /><path d="M 79.01933749520258 100.90099992219065 l -3.143361430310754 0.13498946486935176 a24.146258609394813,24.146258609394813 0 0,0 -0.01422940514982435,-0.41427360529426843 l 3.1452155224574265 -0.08100959501096341" fill="#ff1f03" stroke="none" /><line stroke="#e1ed5e" stroke-width="0.3" x1="15.003131293944662" x2="10.003315487706104" y1="100.72959589197737" y2="100.7725132973878" /><path d="M 14.003168132696942 100.73817937305945 a86.0,86.0 0 0,1 10.791469493833604,-42.45332614584628" fill="none" id="id106" stroke="none" /><text fill="#e1ed5e" style="font-size:6.75px; font-family:Arial;" text-anchor="middle"><textPath startOffset="22.145653131862435" xlink:href="#id106">October</textPath></text><path d="M 79.00077361379809 99.81974689727619 l -4.613666766590672 -0.03960278032709608 a25.613836734579245,25.613836734579245 0 0,0 0.007548237173930687,-0.43964697356401267 l 4.612307097818076 0.1187966698601611" fill="#ff3405" stroke="none" /><path d="M 79.0935383218832 98.0201363427161 l -4.525851607729773 -0.42860285276218263 a25.546100876639898,25.546100876639898 0 0,0 0.04509204004376732,-0.436224583222266 l 4.517827175204341 0.5062319582673613" fill="#ff3304" stroke="none" /><path d="M 79.22317932658666 96.9465228501225 l -5.712145200085664 -0.8394886358894724 a26.77350361190233,26.77350361190233 0 0,0 0.07073114431519267,-0.4541446856028867 l 5.696892563632204 0.937421503423809" fill="#ff4506" stroke="none" /><path d="M 79.407916724674 95.88100663000787 l -19.744971890825333 -3.949547368354016 a41.13610785093174,41.13610785093174 0 0,0 0.14445098860492586,-0.6912502723210922 l 19.674263191396044 4.287914091960517" fill="#feff18" stroke="none" /><path d="M 79.48165901384962 95.52812308129327 l -4.838024268366828 -1.0544248715067166 a25.9515947563344,25.9515947563344 0 0,0 0.09860263746726787,-0.4344614140883641 l 4.819210769341899 1.1373206195340888" fill="#ff3905" stroke="none" /><path d="M 79.83685265289637 94.1308016681162 l -6.406509466994685 -1.8648415363727544 a27.672405676101658,27.672405676101658 0 0,0 0.13668017862274812,-0.45496386181621545 l 6.373552968368307 1.9745430017796934" fill="#ff5107" stroke="none" /><path d="M 80.28708602549916 92.7611449362534 l -5.882698290403707 -2.1602082960979723 a27.266788576172743,27.266788576172743 0 0,0 0.16511899322896367,-0.437997746856333 l 5.8447486133603075 2.26087432314845" fill="#ff4c07" stroke="none" /><path d="M 80.41425534168474 92.42381321644754 l -2.9696350317381937 -1.148718625302683 a24.184067634621474,24.184067634621474 0 0,0 0.1530981902883464,-0.3859074506666462 l 2.9494781664837157 1.199527093182912" fill="#ff2003" stroke="none" /><path d="M 80.5471966667186 92.08871423366112 l -12.263144265663318 -4.987314014197511 a34.23850476287568,34.23850476287568 0 0,0 0.22609503487264485,-0.5425457766869274 l 12.175723386254194 5.197092300325703" fill="#ffa90f" stroke="none" /><path d="M 80.9802524753101 91.09779779509293 l -12.791298147401282 -5.986973403490327 a35.12307186237513,35.12307186237513 0 0,0 0.2602799288547809,-0.5438849456530431 l 12.686638960586597 6.205670851208458" fill="#ffb510" stroke="none" /><path d="M 81.29705330413844 90.45014215332179 l -8.156342317492937 -4.164686503551809 a30.158085699150924,30.158085699150924 0 0,0 0.23938616862908174,-0.45905454259573575 l 8.083648079888915 4.304087289252031" fill="#ff730a" stroke="none" /><path d="M 81.63589988554816 89.8137432299009 l -5.462071975685806 -3.029719250839475 a27.246073086866623,27.246073086866623 0 0,0 0.23038064354365467,-0.4070605224947322 l 5.409257967120782 3.1230365434333125" fill="#ff4b07" stroke="none" /><line stroke="#e1ed5e" stroke-width="0.3" x1="26.387840678322718" x2="22.05771365940052" y1="57.49999999999999" y2="54.99999999999999" /><path d="M 25.521815274538284 56.99999999999999 a86.0,86.0 0 0,1 29.574782752854787,-30.34633250058573" fill="none" id="id107" stroke="none" /><text fill="#e1ed5e" style="font-size:6.75px; font-family:Arial;" text-anchor="middle"><textPath startOffset="21.40746469413373" xlink:href="#id107">November</textPath></text><path d="M 81.99639281039701 89.18935116829357 l -11.596405542153938 -6.963308336269303 a34.526429110598855,34.526429110598855 0 0,0 0.30947523959879036,-0.5055045459174405 l 11.475162338099755 7.161349998311286" fill="#ffad10" stroke="none" /><path d="M 82.576782715395 88.27688183743585 l -7.659910638372311 -5.153929728447199 a30.232400697197946,30.232400697197946 0 0,0 0.293413025847658,-0.4280983734662445 l 7.570307875709339 5.284662836983479" fill="#ff740a" stroke="none" /><path d="M 82.98947788004972 87.6856937992154 l -14.929548873066706 -10.807842050121582 a39.4309760819568,39.4309760819568 0 0,0 0.4016288642747289,-0.5448866894454389 l 14.741817989208158 11.062535048835885" fill="#ffeb16" stroke="none" /><path d="M 83.64595745247003 86.82634096563983 l -7.721366295964868 -6.2197861211877985 a30.91489974078319,30.91489974078319 0 0,0 0.33646184136546925,-0.4104287385357242 l 7.613457635360769 6.351417141422016" fill="#ff7e0b" stroke="none" /><path d="M 84.10781606972428 86.27271002978789 l -7.246799045149785 -6.2596124160829225 a30.57595133657034,30.57595133657034 0 0,0 0.3465113393830584,-0.39426629600868646 l 7.138276641808133 6.383090989902909" fill="#ff790b" stroke="none" /><path d="M 84.83555147118756 85.47280134310135 l -0.700380659779275 -0.6709488288170582 a21.969899685268448,21.969899685268448 0 0,0 0.26323413039077964,-0.2701014074421251 l 0.6887597282376928 0.6828729283269136" fill="#ff0000" stroke="none" /><path d="M 85.08716467003674 85.21462403516908 l -24.15417211072773 -23.947727435760743 a55.01349261237583,55.01349261237583 0 0,0 0.6706618386018123,-0.664929720578961 l 23.73951835199594 24.358837166568378" fill="#62ff29" stroke="none" /><path d="M 85.60350026404147 84.71141617570332 l -2.5105420588783467 -2.666108666380525 a24.662097329447494,24.662097329447494 0 0,0 0.3107074633490222,-0.2875861894827652 l 2.4644048242153715 2.7088126019956555" fill="#ff2703" stroke="none" /><path d="M 86.40962598614128 83.9905735841838 l -2.271096253017389 -2.675345675464185 a24.509323677533114,24.509323677533114 0 0,0 0.32308618315592347,-0.2695299849469667 l 2.224835735699556 2.7139378443230338" fill="#ff2503" stroke="none" /><path d="M 86.96720088162412 83.53348406188908 l -39.09839735512763 -49.399547814332756 a84.0,84.0 0 0,0 1.1383602214590214,-0.8851957935167807 l 38.244627189033366 50.06344465947034" fill="#4dd2ff" stroke="none" /><path d="M 87.83215693770416 82.88440491214696 l -3.9485436285706634 -5.554121103250494 a27.814635574724335,27.814635574724335 0 0,0 0.39153061014768226,-0.2733187736826436 l 3.8526179272492156 5.621084692738264" fill="#ff5307" stroke="none" /><path d="M 88.72937992617638 82.28071324371311 l -2.202422455706766 -3.462573913017563 a25.10366699142501,25.10366699142501 0 0,0 0.3656000888045597,-0.2281614950797033 l 2.142658238112508 3.499871204938802" fill="#ff2d04" stroke="none" /><line stroke="#e1ed5e" stroke-width="0.3" x1="56.869717070023135" x2="54.33264160355391" y1="26.7553504044142" y2="22.446841604673864" /><path d="M 56.362301976729285 25.89364864446614 a86.0,86.0 0 0,1 42.16139366436587,-11.88097634709845" fill="none" id="id108" stroke="none" /><text fill="#e1ed5e" style="font-size:6.75px; font-family:Arial;" text-anchor="middle"><textPath startOffset="22.145653131862474" xlink:href="#id108">December</textPath></text><path d="M 89.34428304082924 81.90426304109057 l -6.834094886027835 -11.605787192325339 a34.4684501433823,34.4684501433823 0 0,0 0.5124433217115352,-0.29585928973457926 l 6.633859096455901 11.721393379336092" fill="#ffac10" stroke="none" /><path d="M 89.97174638481275 81.54914285379989 l -2.0478731007423074 -3.767855848611446 a25.288417182674674,25.288417182674674 0 0,0 0.3831931989801126,-0.20402879501414076 l 1.982891085975633 3.8024551113481624" fill="#ff3004" stroke="none" /><path d="M 90.61103034731259 81.2157712731953 l -2.8641119894549147 -5.730142571470084 a27.406065202408822,27.406065202408822 0 0,0 0.42262730113599967,-0.2067281911097531 l 2.765324439056862 5.7784645126770515" fill="#ff4e07" stroke="none" /><path d="M 91.5904679813234 80.7573450057729 l -8.719772418972461 -19.952545743784377 a42.77472187414757,42.77472187414757 0 0,0 0.6753617829908312,-0.28827178566477596 l 8.375975560811199 20.099292179108556" fill="#eaff1a" stroke="none" /><path d="M 93.27111125876988 80.10723608172694 l -2.100407725882746 -6.209482223577944 a27.55510351557307,27.55510351557307 0 0,0 0.44938078170695334,-0.14772038878356858 l 1.9935042065280315 6.244623533763541" fill="#ff5007" stroke="none" /><path d="M 94.6519064749342 79.69241777938228 l -1.8194803772157606 -6.908863352133498 a28.144431514230263,28.144431514230263 0 0,0 0.4682626379168053,-0.11903053143165135 l 1.7006124460735774 6.939079115400412" fill="#ff5808" stroke="none" /><path d="M 95.35216902796891 79.52079915486377 l -1.175004938739997 -5.17728856304941 a26.308950317260994,26.308950317260994 0 0,0 0.4412857657637948,-0.09617617875660411 l 1.085956756357084 5.196696199939728" fill="#ff3e05" stroke="none" /><path d="M 96.41257539226777 79.30868818359171 l -2.285698267196125 -13.18330020450963 a34.37997835763896,34.37997835763896 0 0,0 0.582368178398126,-0.0958284621383299 l 2.059052585744926 13.220594665143627" fill="#ffab0f" stroke="none" /><path d="M 97.12497278360702 79.19773525538626 l -1.0908769054758385 -7.893041868300536 a28.96806892274695,28.96806892274695 0 0,0 0.4931774808037186,-0.06385169864718611 l 0.9552216027813258 7.910605163148117" fill="#ff6309" stroke="none" /><path d="M 97.48249496171623 79.15144685158666 l -0.5081029727142787 -4.20782150200661 a25.238387715114115,25.238387715114115 0 0,0 0.4305718199907058,-0.048246470516831695 l 0.4357952511227736 4.2159237330304125" fill="#ff2f04" stroke="none" /><path d="M 98.1996594967304 79.07731436759882 l -1.6281258669725038 -18.921290512978754 a39.991209243101,39.991209243101 0 0,0 0.6844800256382104,-0.05298308293862477 l 1.3030768465590763 18.946451362912434" fill="#fff216" stroke="none" /><path d="M 99.27912038922189 79.0123766808444 l -0.2117182073898534 -6.163944603328235 a27.16757956351109,27.16757956351109 0 0,0 0.4662301887434832,-0.012008435829697536 l 0.10587470457562627 6.166670756507978" fill="#ff4a06" stroke="none" /><path d="M 99.63950707515114 79.00309439819443 l -0.10485252269707135 -6.107133786619061 a27.108033819420125,27.108033819420125 0 0,0 0.465345447545922,-0.003994430995499721 l 1.4960368132073277e-15 6.108033819420125" fill="#ff4906" stroke="none" /></svg>