<?xml version="1.0" encoding="utf-8" ?>
<svg baseProfile="full" height="200mm" version="1.1" viewBox="0,0,200,200" width="200mm" xmlns="http://www.w3.org/2000/svg" xmlns:ev="http://www.w3.org/2001/xml-events" xmlns:xlink="http://www.w3.org/1999/xlink"><defs /><rect fill="#1a1a1a" height="200" width="200" x="0" y="0" /><text alignment-baseline="middle" fill="#e1ed5e" style="dominant-baseline: central; font-size:9.0px; font-family:Arial;" text-anchor="middle" x="100.0" y="100.0">2016</text><line stroke="#e1ed5e" stroke-width="0.3" x1="100.0" x2="100.0" y1="15.0" y2="10.0" /><path d="M 100.0 14.0 a86.0,86.0 0 0,1 42.35913384403234,11.155469271406648" fill="none" id="id1" stroke="none" /><text fill="#e1ed5e" style="font-size:6.75px; font-family:Arial;" text-anchor="middle"><textPath startOffset="22.145653131862478" xlink:href="#id1">January</textPath></text><line stroke="#e1ed5e" stroke-width="0.3" x1="143.13028292997686" x2="145.6673583964461" y1="26.7553504044142" y2="22.446841604673864" /><path d="M 143.63769802327073 25.89364864446614 a86.0,86.0 0 0,1 29.32050498858742,28.57503671076993" fill="none" id="id2" stroke="none" /><text fill="#e1ed5e" style="font-size:6.75px; font-family:Arial;" text-anchor="middle"><textPath startOffset="20.669276256404974" xlink:href="#id2">February</textPath></text><line stroke="#e1ed5e" stroke-width="0.3" x1="172.87174338648825" x2="177.1583165268699" y1="56.24261187166439" y2="53.66864786411523" /><path d="M 173.72905801456457 55.72781907015455 a86.0,86.0 0 0,1 12.242430191666344,42.057860355516425" fill="none" id="id3" stroke="none" /><text fill="#e1ed5e" style="font-size:6.75px; font-family:Arial;" text-anchor="middle"><textPath startOffset="22.145653131862474" xlink:href="#id3">March</textPath></text><line stroke="#e1ed5e" stroke-width="0.3" x1="184.99686870605535" x2="189.99668451229388" y1="99.2704041080226" y2="99.22748670261217" /><path d="M 185.99683186730306 99.26182062694052 a86.0,86.0 0 0,1 -10.086455211305974,41.156179273409016" fill="none" id="id4" stroke="none" /><text fill="#e1ed5e" style="font-size:6.75px; font-family:Arial;" text-anchor="middle"><textPath startOffset="21.40746469413373" xlink:href="#id4">April</textPath></text><line stroke="#e1ed5e" stroke-width="0.3" x1="174.33088141563837" x2="178.70328620479359" y1="141.23008692659167" y2="143.65538615756765" /><path d="M 175.20536237346943 141.71514677278685 a86.0,86.0 0 0,1 -30.301960400862466,31.631185727798858" fill="none" id="id5" stroke="none" /><text fill="#e1ed5e" style="font-size:6.75px; font-family:Arial;" text-anchor="middle"><textPath startOffset="22.145653131862474" xlink:href="#id5">May</textPath></text><path d="M 118.18653347947321 110.5 l 10.925299634171912 6.3077246847664705 a33.615449369532946,33.615449369532946 0 0,0 -0.29281663978520855,0.4972666701872737 l -10.815409284256939 -6.494342523247294" fill="#ff910d" stroke="none" /><path d="M 118.00360718960297 110.81064883170644 l 12.954205740163784 7.778628342405799 a36.110211952443656,36.110211952443656 0 0,0 -0.32367136665501167,0.5286928525834198 l -12.818766409053367 -7.999858311113776" fill="#ffb210" stroke="none" /><path d="M 117.62189284568427 111.42229804090321 l 10.505384909047223 6.8094635755847355 a33.5192614109001,33.5192614109001 0 0,0 -0.31711705084635294,0.4801556331243707 l -10.386943419280142 -6.988799087048168" fill="#ff900d" stroke="none" /><path d="M 117.01052211995028 112.31430620078461 l 9.79656065060453 7.091954421823147 a33.09414809328007,33.09414809328007 0 0,0 -0.337084354321253,0.45731966556148995 l -9.673374276699448 -7.2590803966535145" fill="#ff8a0c" stroke="none" /><path d="M 114.39649973595853 115.28858382429668 l 4.5285961657229095 4.8092121943440915 a27.605808441245337,27.605808441245337 0 0,0 -0.3477940501125282,0.3219129805204733 l -4.4453723442964135 -4.886242920996944" fill="#ff3d05" stroke="none" /><path d="M 113.31354834802062 116.24036423190432 l 8.003818843311057 9.763357586099586 a33.62474821256208,33.62474821256208 0 0,0 -0.4495296265559716,0.36210924662086275 l -7.8350384463998335 -9.899315126513851" fill="#ff910d" stroke="none" /><path d="M 111.5731344415666 117.5232005979908 l 2.4090481198679266 3.647605898626708 a25.37133179197548,25.37133179197548 0 0,0 -0.36548535218319483,0.23690318961639587 l -2.346077135427722 -3.6884229299469986" fill="#ff1c02" stroke="none" /><line stroke="#e1ed5e" stroke-width="0.3" x1="143.1302829299769" x2="145.66735839644613" y1="173.24464959558577" y2="177.55315839532614" /><path d="M 143.63769802327073 174.10635135553383 a86.0,86.0 0 0,1 -40.68552437913181,11.842963189579606" fill="none" id="id6" stroke="none" /><text fill="#e1ed5e" style="font-size:6.75px; font-family:Arial;" text-anchor="middle"><textPath startOffset="21.407464694133747" xlink:href="#id6">June</textPath></text><path d="M 110.65571695917076 118.09573695890943 l 3.7754487712157356 6.411537405463748 a28.44055275673355,28.44055275673355 0 0,0 -0.42282641851742475,0.2441189465515215 l -3.664829884837912 -6.475403249291441" fill="#ff4906" stroke="none" /><path d="M 108.4095320186766 119.2426549942271 l 2.7661484813138575 6.329489057240583 a27.907532782868515,27.907532782868515 0 0,0 -0.4406266194919299,0.18807730258272082 l -2.6570867866514964 -6.376041009482708" fill="#ff4106" stroke="none" /><path d="M 107.407793817531 119.65005319985036 l 4.487968498460206 11.90486964489905 a33.722727007415116,33.722727007415116 0 0,0 -0.5434350788150301,0.1995568883010534 l -4.2829442679910485 -11.980157382208825" fill="#ff920d" stroke="none" /><path d="M 106.72888874123015 119.89276391827305 l 2.0044175152550037 5.925704222199666 a27.255530361564556,27.255530361564556 0 0,0 -0.4444952105803662,0.14611440451448704 l -1.9023995670269032 -5.959239548116172" fill="#ff3805" stroke="none" /><path d="M 106.38641147887787 120.00534299687104 l 3.839224176722781 12.026315052082118 a33.6242582360735,33.6242582360735 0 0,0 -0.5513727755397783,0.17081669529023155 l -3.6322107683113787 -12.090448335178994" fill="#ff910d" stroke="none" /><path d="M 105.69591212413111 120.21278271476187 l 3.723008985533812 13.211645480078476 a34.72619292439253,34.72619292439253 0 0,0 -0.5751626558968435,0.15676313949940962 l -3.4956649287022734 -13.273609113722026" fill="#ffa00e" stroke="none" /><path d="M 104.64783097203109 120.47920084513623 l 2.413737955022714 10.635374794371504 a31.905839166807382,31.905839166807382 0 0,0 -0.5351636039930836,0.1166364166598042 l -2.2308119344104944 -10.675242669165026" fill="#ff7a0b" stroke="none" /><path d="M 103.94208987418118 120.62667999033965 l 3.7757999624600638 19.756580904786546 a41.114153086915934,41.114153086915934 0 0,0 -0.6943696218758888,0.12653727577489715 l -3.436095607033118 -19.818486354492805" fill="#fff316" stroke="none" /><path d="M 102.875027216393 120.80226474461374 l 7.3924889683724295 53.48836761088224 a74.9967995609405,74.9967995609405 0 0,0 -1.2768104347737328,0.16530867341689884 l -6.473200711707921 -53.60738788049954" fill="#42ffd3" stroke="none" /><path d="M 101.80034050326958 120.92268563240118 l 1.0792071767230014 12.542023272708375 a33.588369072419546,33.588369072419546 0 0,0 -0.5748905361695303,0.04450016336138049 l -0.8637476457782352 -12.55870120306481" fill="#ff910d" stroke="none" /><path d="M 100.72087961077811 120.9876233191556 l 0.43658243220637605 12.7106211604708 a33.718116782964344,33.718116782964344 0 0,0 -0.5786457315803882,0.014903861447793477 l -0.218323386555244 -12.716242739268639" fill="#ff920d" stroke="none" /><line stroke="#e1ed5e" stroke-width="0.3" x1="101.45913802915013" x2="101.54496967792366" y1="184.9874750549273" y2="189.98673829345242" /><path d="M 101.47630435890484 185.9873277026323 a86.0,86.0 0 0,1 -42.54439059252881,-10.42667462771756" fill="none" id="id7" stroke="none" /><text fill="#e1ed5e" style="font-size:6.75px; font-family:Arial;" text-anchor="middle"><textPath startOffset="22.145653131862474" xlink:href="#id7">July</textPath></text><path d="M 99.63950707515114 120.99690560180557 l -0.14051433117070547 8.184255345730298 a29.185461492266597,29.185461492266597 0 0,0 -0.5008596068816134,-0.012900366801929762 l 0.2809872521230627 -8.18063726157832" fill="#ff5307" stroke="none" /><path d="M 98.19965949673042 120.92268563240118 l -0.7634296671491907 8.872209950952474 a29.904994905695546,29.904994905695546 0 0,0 -0.511091225172525,-0.04840087040338172 l 0.915620455706731 -8.857797325043908" fill="#ff5e08" stroke="none" /><path d="M 96.41257539226777 120.69131181640829 l -1.2051191854645855 6.950807213798582 a28.05450445988726,28.05450445988726 0 0,0 -0.4738075380647128,-0.08634351679491198 l 1.3242614570803557 -6.929095523072303" fill="#ff4306" stroke="none" /><path d="M 93.27111125876986 119.89276391827306 l -4.488472781192987 13.269372228250504 a35.0079487163316,35.0079487163316 0 0,0 -0.5676192604978475,-0.1974474437390817 l 4.715597813735857 -13.190366351942831" fill="#ffa40f" stroke="none" /><path d="M 91.59046798132341 119.24265499422711 l -2.9262711973267495 6.695881167304706 a28.307385834001785,28.307385834001785 0 0,0 -0.44359910848401174,-0.19841623887202717 l 3.0407837086663965 -6.644661177522824" fill="#ff4706" stroke="none" /><path d="M 90.93487009805054 118.94263497670748 l -5.5636996738079025 11.625992476765846 a33.88869485751549,33.88869485751549 0 0,0 -0.5225955474043622,-0.255627669832315 l 5.762455470474334 -11.52877105683631" fill="#ff950d" stroke="none" /><path d="M 89.97174638481275 118.45085714620012 l -13.520064398901534 24.875395697389347 a49.31214319778955,49.31214319778955 0 0,0 -0.7402828446467461,-0.41062241498764585 l 13.945091431704382 -24.639640366968553" fill="#a9ff21" stroke="none" /><line stroke="#e1ed5e" stroke-width="0.3" x1="58.13341422392154" x2="55.67067388415222" y1="173.97424548756322" y2="178.32567169271397" /><path d="M 57.64086615596768 174.84453072859336 a86.0,86.0 0 0,1 -31.369924170532247,-30.572349798747897" fill="none" id="id8" stroke="none" /><text fill="#e1ed5e" style="font-size:6.75px; font-family:Arial;" text-anchor="middle"><textPath startOffset="22.145653131862474" xlink:href="#id8">August</textPath></text><path d="M 89.34428304082925 118.09573695890944 l -3.216687842137005 5.4626391910810606 a27.33936176643097,27.33936176643097 0 0,0 -0.4023667227919088,-0.24160965610158008 l 3.309987321486341 -5.406615534443562" fill="#ff3905" stroke="none" /><path d="M 88.72937992617639 117.7192867562869 l -7.143179076376342 11.230263958572147 a34.309539281897976,34.309539281897976 0 0,0 -0.4942442182579361,-0.3203631309855567 l 7.334908926891288 -11.105986985882694" fill="#ff9a0e" stroke="none" /><path d="M 88.1277618465304 117.32195027204791 l -15.255919425089688 22.258842369881563 a47.98516520520235,47.98516520520235 0 0,0 -0.6754595421664593,-0.47152321926384977 l 15.635774058429913 -21.993674334812585" fill="#b8ff1f" stroke="none" /><path d="M 87.2517909369889 116.68781488649013 l -7.621688282874159 9.977034621763007 a33.55513250129838,33.55513250129838 0 0,0 -0.454736048396036,-0.353605501679156 l 7.7918342759054235 -9.844728068463057" fill="#ff900d" stroke="none" /><path d="M 86.40962598614128 116.0094264158162 l -5.024095345817277 5.9183716844647 a28.763289086420546,28.763289086420546 0 0,0 -0.373676928204211,-0.32277323061087704 l 5.124951753784351 -5.831254321389101" fill="#ff4d07" stroke="none" /><path d="M 85.86807049272751 115.53346607816431 l -27.084999451360154 29.77115899058874 a61.24821863043248,61.24821863043248 0 0,0 -0.771640724269793,-0.7142191344570109 l 27.592069946943912 -29.301822109999353" fill="#30ff36" stroke="none" /><path d="M 85.34317274990678 115.03919595460226 l -8.778245303291738 9.007253002380297 a33.57728894689362,33.57728894689362 0 0,0 -0.40933606050169846,-0.4058374827166612 l 8.931573283923399 -8.855235509434978" fill="#ff900d" stroke="none" /><path d="M 84.83555147118756 114.52719865689866 l -9.279137712658418 8.889204026139787 a33.84991614403843,33.84991614403843 0 0,0 -0.3983718715960061,-0.4230571224840838 l 9.430365417990677 -8.728605443711213" fill="#ff940d" stroke="none" /><path d="M 84.3458050057657 113.99807769240083 l -22.10358399578059 19.765161106489604 a50.65181308156412,50.65181308156412 0 0,0 -0.5740271954214138,-0.6531375756706923 l 22.439622255160593 -19.382811253007613" fill="#99ff23" stroke="none" /><path d="M 84.1078160697243 113.72728997021213 l -8.39841497677396 7.254350829448799 a32.09770156738888,32.09770156738888 0 0,0 -0.3565984892665768,-0.42007212370187946 l 8.52170802954765 -7.109111923297365" fill="#ff7c0b" stroke="none" /><path d="M 83.64595745247003 113.17365903436017 l -11.063846333399294 8.912251437597723 a35.20693215919734,35.20693215919734 0 0,0 -0.37509393324464824,-0.4739189313025686 l 11.215206697285504 -8.721012562380475" fill="#ffa60f" stroke="none" /><path d="M 83.20337586046588 112.60449989151573 l -10.137312802100276 7.607228515257948 a33.67418780557475,33.67418780557475 0 0,0 -0.3429924173222498,-0.46533508769869636 l 10.266407239006357 -7.432087118290372" fill="#ff920d" stroke="none" /><path d="M 82.78059297857968 112.02048342749411 l -50.208580701883335 35.049488724798586 a82.23208502057818,82.23208502057818 0 0,0 -0.7980829947746957,-1.164426940375539 l 50.80285343347336 -34.182427049352995" fill="#4be3ff" stroke="none" /><path d="M 82.576782715395 111.72311816256416 l -6.302093189659183 4.240329551485612 a28.595839208168563,28.595839208168563 0 0,0 -0.2705378285340749,-0.40962875379037694 l 6.3739554571139845 -4.131520919356174" fill="#ff4b07" stroke="none" /><path d="M 82.18462484594161 111.11811171558189 l -10.741346156824076 6.703394428385157 a33.66143807484855,33.66143807484855 0 0,0 -0.30172195277081365,-0.4928401345660749 l 10.854836074050294 -6.518017177694524" fill="#ff920d" stroke="none" /><line stroke="#e1ed5e" stroke-width="0.3" x1="26.387840678322732" x2="22.057713659400548" y1="142.50000000000003" y2="145.00000000000006" /><path d="M 25.521815274538298 143.00000000000003 a86.0,86.0 0 0,1 -11.493303480769221,-40.785679425670985" fill="none" id="id9" stroke="none" /><text fill="#e1ed5e" style="font-size:6.75px; font-family:Arial;" text-anchor="middle"><textPath startOffset="21.40746469413373" xlink:href="#id9">September</textPath></text><path d="M 81.81346652052679 110.50000000000001 l -10.742365396895922 6.202107553631189 a33.40421510726237,33.40421510726237 0 0,0 -0.2824511462237437,-0.49906411143124824 l 10.847249908141043 -6.016786672100819" fill="#ff8e0d" stroke="none" /><path d="M 81.4637452351635 109.86951160357371 l -21.98075950597599 11.70351636572939 a45.902330890550175,45.902330890550175 0 0,0 -0.36435943689031647,-0.6987072628297426 l 22.178427011841254 -11.324462859795144" fill="#d0ff1d" stroke="none" /><path d="M 81.1358732173502 109.22738970284198 l -7.995452253830569 3.910976354570359 a29.90072990205257,29.90072990205257 0 0,0 -0.2215797035665557,-0.4630163592035992 l 8.061411215357037 -3.7731474933016553" fill="#ff5e08" stroke="none" /><path d="M 80.9802524753101 108.90220220490708 l -12.728007911395364 5.957350377328203 a35.05319212530717,35.05319212530717 0 0,0 -0.25040587501030903,-0.5471820279629046 l 12.82839825126073 -5.7379793671506105" fill="#ffa40f" stroke="none" /><path d="M 80.68587082218212 108.24405325689762 l -15.085279363977333 6.439008734322779 a37.40202691651021,37.40202691651021 0 0,0 -0.24698545215574713,-0.5926751732769883 l 15.193590660669566 -6.179101051604509" fill="#ffc312" stroke="none" /><path d="M 80.41425534168474 107.57618678355246 l -9.182212411572038 3.5518770171849794 a30.845245305041132,30.845245305041132 0 0,0 -0.18678898823895526,-0.49547998317061914 l 9.241832083625429 -3.393728753820215" fill="#ff6b09" stroke="none" /><path d="M 80.28708602549918 107.23885506374661 l -9.375770842477152 3.4429129213156897 a30.987929128423332,30.987929128423332 0 0,0 -0.17908046712932352,-0.5009199387259591 l 9.433491479650419 -3.281458026208809" fill="#ff6d0a" stroke="none" /><path d="M 80.05021161711548 106.5578916946017 l -13.960251762936442 4.589012040310797 a35.69515773275971,35.69515773275971 0 0,0 -0.18635470301937287,-0.5837534529857076 l 14.03697118173307 -4.348689553633697" fill="#ffad10" stroke="none" /><path d="M 79.64726062577567 105.17358676015961 l -31.841603821869715 8.094011175896116 a53.85423490000093,53.85423490000093 0 0,0 -0.220065004968649,-0.8979403176391682 l 31.975856353354658 -7.546215033648848" fill="#76ff27" stroke="none" /><path d="M 79.407916724674 104.11899336999214 l -11.965648951194876 2.393464907782373 a33.20268122537079,33.20268122537079 0 0,0 -0.10699754974735519,-0.5598563931390629 l 12.004972793224388 -2.1877059496099958" fill="#ff8b0c" stroke="none" /><path d="M 79.17382384314188 102.69636545807758 l -25.870373625553412 3.3494378087516874 a47.086298418143286,47.086298418143286 0 0,0 -0.096903408732722,-0.8024992349583441 l 25.924059120545795 -2.904844896869944" fill="#c2ff1e" stroke="none" /><line stroke="#e1ed5e" stroke-width="0.3" x1="15.003131293944662" x2="10.003315487706104" y1="100.72959589197737" y2="100.7725132973878" /><path d="M 14.003168132696942 100.73817937305945 a86.0,86.0 0 0,1 10.791469493833604,-42.45332614584628" fill="none" id="id10" stroke="none" /><text fill="#e1ed5e" style="font-size:6.75px; font-family:Arial;" text-anchor="middle"><textPath startOffset="22.145653131862435" xlink:href="#id10">October</textPath></text><path d="M 79.00077361379809 100.18025310272382 l -22.482970551435105 0.19298926188096946 a43.48379882653062,43.48379882653062 0 0,0 0.0,-0.7464847292095658 l 22.482970551435105 0.1929892618809612" fill="#eeff19" stroke="none" /><path d="M 79.00077361379809 99.81974689727619 l -27.689749500798268 -0.23768319696022866 a48.69076959420007,48.69076959420007 0 0,0 0.014348864673680928,-0.835749431622367 l 27.68158920452592 0.712979544551648" fill="#b0ff20" stroke="none" /><path d="M 79.00696218219943 99.45929381324524 l -2.4617149851015747 -0.06340504571199697 a23.462531394255794,23.462531394255794 0 0,0 0.013826484278577996,-0.4025430037532186 l 2.4602638138261463 0.10565431402935413" fill="#ff0000" stroke="none" /><path d="M 79.01933749520258 99.09900007780938 l -21.657379601867483 -0.9300610660732703 a42.67734081491572,42.67734081491572 0 0,0 0.03771541008309871,-0.7316688798592839 l 21.638222602327815 1.3017017393092662" fill="#f8ff18" stroke="none" /><path d="M 79.0935383218832 98.0201363427161 l -26.372410273336776 -2.497494672176562 a47.49040398451389,47.49040398451389 0 0,0 0.08382645979929493,-0.8109449573240106 l 26.325651421055817 2.9498441517834855" fill="#beff1f" stroke="none" /><path d="M 79.13060592940154 97.66154086499901 l -5.657601455491975 -0.6339460437152369 a26.693008151717958,26.693008151717958 0 0,0 0.05493410113194844,-0.4549331618778151 l 5.645885268100359 0.7309728825164883" fill="#ff3004" stroke="none" /><path d="M 79.2786578344484 96.59031103205396 l -12.275335239131831 -2.0199017422862418 a33.440412303519636,33.440412303519636 0 0,0 0.09806828070700903,-0.5656317824865765 l 12.238852140932588 2.230326557693411" fill="#ff8f0d" stroke="none" /><path d="M 79.64726062577567 94.8264132398404 l -52.70899030412055 -13.398419218404175 a75.38524888636601,75.38524888636601 0 0,0 0.3295789923772497,-1.2514651164046202 l 52.47122183093857 14.301264839181579" fill="#42ffd7" stroke="none" /><path d="M 79.83685265289637 94.1308016681162 l -18.990080731496658 -5.5277357365366475 a40.77824634697791,40.77824634697791 0 0,0 0.20141284642414733,-0.6704378597678771 l 18.89239156506888 5.852911199895248" fill="#ffef16" stroke="none" /><path d="M 80.05021161711548 93.44210830539832 l -11.98062718643392 -3.9382701216740488 a33.611320285029244,33.611320285029244 0 0,0 0.18488559491054143,-0.5465814093357205 l 11.911256169951015 4.143353205483931" fill="#ff910d" stroke="none" /><path d="M 80.68587082218212 91.75594674310238 l -41.01070203599188 -17.505030052080993 a65.59039984805213,65.59039984805213 0 0,0 0.4509062572865489,-1.0317617584942305 l 40.704161896688355 18.206453880351088" fill="#36ff6b" stroke="none" /><path d="M 81.29705330413844 90.45014215332179 l -56.10884008758465 -28.64957354003464 a84.0,84.0 0 0,0 0.6667677241002403,-1.2786150275820538 l 55.60876429450947 29.60853481072118" fill="#4dd2ff" stroke="none" /><path d="M 81.46374523516351 90.13048839642627 l -2.1981577006260675 -1.1703951638585115 a23.490325704883816,23.490325704883816 0 0,0 0.1925699432926579,-0.35430700605375465 l 2.177742407718059 1.2079570033868856" fill="#ff0000" stroke="none" /><line stroke="#e1ed5e" stroke-width="0.3" x1="26.387840678322718" x2="22.05771365940052" y1="57.49999999999999" y2="54.99999999999999" /><path d="M 25.521815274538284 56.99999999999999 a86.0,86.0 0 0,1 29.574782752854787,-30.34633250058573" fill="none" id="id11" stroke="none" /><text fill="#e1ed5e" style="font-size:6.75px; font-family:Arial;" text-anchor="middle"><textPath startOffset="21.40746469413373" xlink:href="#id11">November</textPath></text><path d="M 81.81346652052679 89.5 l -11.756611334471636 -6.787682718715006 a34.57536543743001,34.57536543743001 0 0,0 0.30117825335124426,-0.5114665180457341 l 11.638359370990612 6.988500405054313" fill="#ff9e0e" stroke="none" /><path d="M 82.18462484594161 88.88188828441811 l -10.80039336620614 -6.740244254152284 a33.7310403923019,33.7310403923019 0 0,0 0.31077902661728185,-0.48859624886664776 l 10.68309664796297 6.924654177697604" fill="#ff930d" stroke="none" /><path d="M 82.78059297857968 87.97951657250589 l -10.50727353500425 -7.334892963419148 a33.814189475898054,33.814189475898054 0 0,0 0.3363463636648482,-0.4731132823037199 l 10.37981207280943 7.514183472432388" fill="#ff940d" stroke="none" /><path d="M 83.2033758604659 87.39550010848427 l -10.189837353569537 -7.646643917888653 a33.73985669068473,33.73985669068473 0 0,0 0.35161432957644845,-0.46027444438718107 l 10.05707104663878 7.820439275516718" fill="#ff930d" stroke="none" /><path d="M 83.64595745247003 86.82634096563983 l -10.234555317885755 -8.244233297930856 a34.142051028114885,34.142051028114885 0 0,0 0.37158449334250776,-0.4532726630843836 l 10.091524005304619 8.418708242713732" fill="#ff980e" stroke="none" /><path d="M 84.10781606972428 86.27271002978789 l -20.285480855614484 -17.522115217890978 a47.805321398046104,47.805321398046104 0 0,0 0.5417684560304058,-0.6164330518988389 l 19.981701335625484 17.86776054760112" fill="#baff1f" stroke="none" /><path d="M 84.83555147118756 85.47280134310135 l -5.40370878626647 -5.176630780405254 a28.48315273687585,28.48315273687585 0 0,0 0.341273198735029,-0.3501763664300127 l 5.314048786380638 5.268629838902997" fill="#ff4906" stroke="none" /><path d="M 85.08716467003674 85.21462403516908 l -11.851651363059712 -11.750355806240266 a37.6892930229162,37.6892930229162 0 0,0 0.4594649304026405,-0.45553790331262484 l 11.648194512527095 11.952073719781565" fill="#ffc712" stroke="none" /><path d="M 85.34317274990677 84.96080404539775 l -17.248764134304917 -17.698751534980175 a45.71367374669025,45.71367374669025 0 0,0 0.5666917642114547,-0.5428778910282543 l 16.94239988422816 17.992241556314" fill="#d3ff1c" stroke="none" /><path d="M 86.13680546590413 84.22622945171909 l -7.57668632682748 -8.620878206804182 a32.4771824395923,32.4771824395923 0 0,0 0.4219258004288785,-0.36444945728114225 l 7.427581046635753 8.749671796550036" fill="#ff810b" stroke="none" /><path d="M 86.68645165197937 83.75963576809568 l -4.359528816239675 -5.317916306342261 a27.876461687589412,27.876461687589412 0 0,0 0.37268072114344,-0.3002052082691091 l 4.26759732474099 5.391969808404769" fill="#ff4106" stroke="none" /><path d="M 87.25179093698888 83.31218511350988 l -7.546758388994721 -9.8789489853929 a33.43170122058351,33.43170122058351 0 0,0 0.45904433917066706,-0.34447543001567377 l 7.376061060913302 10.007043442672574" fill="#ff8e0d" stroke="none" /><path d="M 88.12776184653039 82.6780497279521 l -21.995668899758805 -32.09233827327705 a59.90665272410696,59.90665272410696 0 0,0 0.8532524855935714,-0.5741063517559083 l 21.441520126068244 32.465194299090065" fill="#37ff2e" stroke="none" /><path d="M 89.03521579738668 82.08984904055464 l -15.515120349581125 -25.34278308447983 a50.71490558505921,50.71490558505921 0 0,0 0.7463960033630588,-0.44818935432045215 l 15.077791589660631 25.605386439336204" fill="#99ff23" stroke="none" /><line stroke="#e1ed5e" stroke-width="0.3" x1="56.869717070023135" x2="54.33264160355391" y1="26.7553504044142" y2="22.446841604673864" /><path d="M 56.362301976729285 25.89364864446614 a86.0,86.0 0 0,1 42.16139366436587,-11.88097634709845" fill="none" id="id12" stroke="none" /><text fill="#e1ed5e" style="font-size:6.75px; font-family:Arial;" text-anchor="middle"><textPath startOffset="22.145653131862474" xlink:href="#id12">December</textPath></text><path d="M 89.97174638481275 81.54914285379989 l -12.948768585983464 -23.824275748008517 a48.115802086799846,48.115802086799846 0 0,0 0.7290945886390475,-0.38820180203426785 l 12.537885181557854 24.04304801776536" fill="#b6ff1f" stroke="none" /><path d="M 90.61103034731259 81.2157712731953 l -3.5852703830762622 -7.17294244356905 a29.019056491789925,29.019056491789925 0 0,0 0.44750114385484047,-0.21889523402769212 l 3.4616089899593687 7.233431427693956" fill="#ff5107" stroke="none" /><path d="M 90.93487009805054 81.0573650232925 l -1.4521396329945 -3.034413328937442 a24.3639818317801,24.3639818317801 0 0,0 0.37881500205263713,-0.17730454845140298 l 1.3998359170703403 3.0588941089593877" fill="#ff0d01" stroke="none" /><path d="M 92.592206182469 80.34994680014964 l -19.224165945268005 -50.99438413813375 a75.49766756402286,75.49766756402286 0 0,0 1.2166299870702701,-0.4467633833334703 l 18.34594680654361 51.31687837047595" fill="#42ffd8" stroke="none" /><path d="M 95.35216902796891 79.52079915486377 l -1.4039218199570662 -6.18593857969102 a27.3432509479179,27.3432509479179 0 0,0 0.45863431598436194,-0.09995721453121889 l 1.297525087353586 6.209127252355953" fill="#ff3905" stroke="none" /><path d="M 95.70440661134978 79.44403061299748 l -2.053618823358171 -9.827309488151412 a31.039589735022133,31.039589735022133 0 0,0 0.5225049551908068,-0.104515624642882 l 1.8846173826363877 9.861114509457162" fill="#ff6e0a" stroke="none" /><path d="M 96.41257539226777 79.30868818359171 l -2.592131734887155 -14.950727014626345 a36.17377293875479,36.17377293875479 0 0,0 0.6127535635126208,-0.10082836569592493 l 2.3351006683214615 14.99302137881794" fill="#ffb310" stroke="none" /><path d="M 97.48249496171623 79.15144685158666 l -1.5241633146981548 -12.622258700625654 a33.7139485808065,33.7139485808065 0 0,0 0.5751665424656978,-0.06444861076588411 l 1.3072608706316577 12.646563071898509" fill="#ff920d" stroke="none" /><path d="M 99.27912038922189 79.0123766808444 l -0.4814088600390963 -14.0156936968974 a35.02395893803792,35.02395893803792 0 0,0 0.6010556423715159,-0.015481061256346771 l 0.24073990359683645 14.021892475503794" fill="#ffa40f" stroke="none" /></svg>