<?xml version="1.0" encoding="utf-8" ?>
<svg baseProfile="full" height="200mm" version="1.1" viewBox="0,0,200,200" width="200mm" xmlns="http://www.w3.org/2000/svg" xmlns:ev="http://www.w3.org/2001/xml-events" xmlns:xlink="http://www.w3.org/1999/xlink"><defs /><rect fill="#1a1a1a" height="200" width="200" x="0" y="0" /><text alignment-baseline="middle" fill="#e1ed5e" style="dominant-baseline: central; font-size:9.0px; font-family:Arial;" text-anchor="middle" x="100.0" y="100.0">2022</text><line stroke="#e1ed5e" stroke-width="0.3" x1="100.0" x2="100.0" y1="15.0" y2="10.0" /><path d="M 100.0 14.0 a86.0,86.0 0 0,1 42.46469731375804,11.215312516191453" fill="none" id="id73" stroke="none" /><text fill="#e1ed5e" style="font-size:6.75px; font-family:Arial;" text-anchor="middle"><textPath startOffset="22.20632615414155" xlink:href="#id73">January</textPath></text><path d="M 100.0 79.0 l 0.0 -44.034532633576816 a65.03453263357682,65.03453263357682 0 0,0 1.1194625726500111,0.009635567789746158 l -0.7579820933774828 44.02800844239563" fill="#35ff65" stroke="none" /><path d="M 100.72285384407766 79.0124445844662 l 0.4237011103651539 -12.301865178234426 a33.30915957709467,33.30915957709467 0 0,0 0.5728527784130684,0.02466824566629587 l -0.6353947211675538 12.292749206043936" fill="#ff8f0d" stroke="none" /><path d="M 101.08401301168833 79.027996857942 l 0.8095642695330244 -15.662343736908918 a36.68325239354371,36.68325239354371 0 0,0 0.6303195064564626,0.038022593957361024 l -1.079045824829099 15.646087873571254" fill="#ffbc11" stroke="none" /><path d="M 102.52436894288641 79.15227682838746 l 3.5344316056018794 -29.189414602103884 a50.40262116866782,50.40262116866782 0 0,0 0.8604093968364793,0.11170583362440858 l -4.036355730946204 29.12425044531534" fill="#9bff22" stroke="none" /><path d="M 103.59715602781102 79.31037775812273 l 2.913001224533366 -16.754595702760376 a38.00594170568303,38.00594170568303 0 0,0 0.6435761094104582,0.11760942035979538 l -3.200972455046725 16.701970801049843" fill="#ffce13" stroke="none" /><path d="M 104.307194497241 79.44645832069477 l 2.8413732080939913 -13.55877536907833 a34.85329531977138,34.85329531977138 0 0,0 0.5861283252096692,0.12810494978879616 l -3.0743442574571884 13.507856921193664" fill="#ffa40f" stroke="none" /><path d="M 106.74666289553966 80.11325718540242 l 2.21489231099332 -6.528708256621824 a27.894184465865365,27.894184465865365 0 0,0 0.4533708161989776,0.158172175602491 l -2.326945131255571 6.489615227847126" fill="#ff4406" stroke="none" /><path d="M 108.43124777332544 80.76684994638697 l 8.099987180381541 -18.477486732805914 a41.174917801155075,41.174917801155075 0 0,0 0.6466773410229251,0.29014527272494867 l -8.416846639871247 18.335321129564434" fill="#fff617" stroke="none" /><path d="M 108.76106565485865 80.91482961587045 l 4.499582546316419 -9.801923982418765 a31.785358447832483,31.785358447832483 0 0,0 0.49527913551348474,0.23254019509173682 l -4.667639893129501 9.723018804687026" fill="#ff7b0b" stroke="none" /><line stroke="#e1ed5e" stroke-width="0.3" x1="143.23703022742887" x2="145.7803849466894" y1="26.81831364943548" y2="22.513508569990506" /><path d="M 143.74570117128098 25.957352633546492 a86.0,86.0 0 0,1 28.547481713284135,27.462654790039103" fill="none" id="id74" stroke="none" /><text fill="#e1ed5e" style="font-size:6.75px; font-family:Arial;" text-anchor="middle"><textPath startOffset="19.985693538727396" xlink:href="#id74">February</textPath></text><path d="M 111.2981086023043 82.29822771554956 l 19.79230919912585 -31.010407384020223 a57.78832518009889,57.78832518009889 0 0,0 0.8338937168700257,0.5423876697150728 l -20.323169941780154 30.66512079014562" fill="#4cff2c" stroke="none" /><path d="M 112.77801427241765 83.33499621200491 l 9.461535561292902 -12.339673646284286 a36.5495402142447,36.5495402142447 0 0,0 0.49597281356909334,0.38711464798108824 l -9.672540930021427 12.174980609079974" fill="#ffbb11" stroke="none" /><path d="M 113.34407831869373 83.78471172551755 l 11.81498755695404 -14.35718710726117 a39.593621288062344,39.593621288062344 0 0,0 0.5225273202134059,0.43760160359746214 l -12.060372414126563 14.151684346269889" fill="#ffe215" stroke="none" /><path d="M 113.89432698308785 84.25364557470407 l 14.11351827640666 -15.99476255587601 a42.331287522259835,42.331287522259835 0 0,0 0.5422214868763268,0.4868118046046486 l -14.386750750878978 15.749451742502064" fill="#faff18" stroke="none" /><path d="M 115.4437574822437 85.77008943001954 l 10.964209991744813 -10.102446106939782 a35.9088335588905,35.9088335588905 0 0,0 0.41492889624405205,0.45817485069078046 l -11.1364825286049 9.912218468979454" fill="#ffb210" stroke="none" /><path d="M 116.38621287248628 86.86637796730983 l 13.24329523202724 -10.61455965440432 a37.972146159503325,37.972146159503325 0 0,0 0.4043959780791666,0.5135418251059937 l -13.424045290700372 10.38502543534529" fill="#ffcd13" stroke="none" /><path d="M 116.82858285166822 87.43820079747576 l 16.39636522564214 -12.239167696485518 a41.46064560358107,41.46064560358107 0 0,0 0.4219852416575152,0.5755873953842978 l -16.60461307981328 11.955117857429727" fill="#fff917" stroke="none" /><path d="M 117.45458315368197 88.32363383020206 l 21.44282871885467 -14.344331092478196 a46.79834758190484,46.79834758190484 0 0,0 0.4421404580923447,0.6734102511878926 l -21.68656581230494 13.97310277731263" fill="#c4ff1e" stroke="none" /><line stroke="#e1ed5e" stroke-width="0.3" x1="172.23445277983987" x2="176.4835382374775" y1="55.19839476539836" y2="52.563006222186495" /><path d="M 173.08426987136738 54.67131705675599 a86.0,86.0 0 0,1 12.851231095245387,41.99856678651699" fill="none" id="id75" stroke="none" /><text fill="#e1ed5e" style="font-size:6.75px; font-family:Arial;" text-anchor="middle"><textPath startOffset="22.20632615414155" xlink:href="#id75">March</textPath></text><path d="M 117.84615892207809 88.93136811851018 l 15.128251122103945 -9.382917826319868 a38.80177319676078,38.80177319676078 0 0,0 0.3471542943882091,0.5706303818985434 l -15.287521214778378 9.121119671214243" fill="#ffd814" stroke="none" /><path d="M 119.61058180528143 92.48833698450437 l 17.247932001017332 -6.606670530852524 a39.46995543619293,39.46995543619293 0 0,0 0.2375629171038152,0.6365505089867541 l -17.359099506622773 6.308796884836436" fill="#ffe015" stroke="none" /><path d="M 119.97218684219823 93.5106431181261 l 17.03580678276209 -5.535269164937545 a38.91250729149639,38.91250729149639 0 0,0 0.2015010371799964,0.6388133529844825 l -17.128563303710294 5.241205645526644" fill="#ffd914" stroke="none" /><path d="M 120.78858239683441 97.02765380044208 l 9.67038727286361 -1.3826695014627992 a30.768734050911505,30.768734050911505 0 0,0 0.07045161129015316,0.5249463356348567 l -9.6927548832116 1.2160048237632781" fill="#ff6d0a" stroke="none" /><path d="M 120.87857604477298 97.74499172005257 l 13.68982941766914 -1.4785816150350144 a34.769445634345594,34.769445634345594 0 0,0 0.05914593030925288,0.5955914465959985 l -13.71325247366062 1.2427146377345808" fill="#ffa30f" stroke="none" /><path d="M 120.98425023603335 99.18683210126433 l 19.245753501635203 -0.7457988137996798 a40.260198433982154,40.260198433982154 0 0,0 0.020874540086931327,0.6927243602281454 l -19.255739736177777 0.4144043061465353" fill="#ffea16" stroke="none" /><line stroke="#e1ed5e" stroke-width="0.3" x1="184.98032266829074" x2="189.97916517819016" y1="98.17113171792111" y2="98.06355123074" /><path d="M 185.9800911702706 98.14961562048488 a86.0,86.0 0 0,1 -9.607161424134198,41.387399972396054" fill="none" id="id76" stroke="none" /><text fill="#e1ed5e" style="font-size:6.75px; font-family:Arial;" text-anchor="middle"><textPath startOffset="21.466115282336823" xlink:href="#id76">April</textPath></text><path d="M 120.99980553446 99.90962569577887 l 19.026454443833664 -0.08188183358816577 a40.02663063545276,40.02663063545276 0 0,0 -0.0029652160843635996,0.6890117901980094 l -19.0250449304598 -0.24563943481352837" fill="#ffe715" stroke="none" /><path d="M 120.9904718944345 100.63252640178507 l 19.201980779874763 0.578632051290883 a40.21069704413301,40.21069704413301 0 0,0 -0.02680304738972811,0.6916675564651187 l -19.18917559963383 -0.9090768547700078" fill="#ffea16" stroke="none" /><path d="M 120.95626037817324 101.35467743843564 l 13.79258320704146 0.8915952059741536 a34.821370899244336,34.821370899244336 0 0,0 -0.04381430719921533,0.5978114111041524 l -13.775192341177908 -1.1288797535750763" fill="#ffa40f" stroke="none" /><path d="M 120.89721153311464 102.0752229133903 l 28.962649821336093 2.876171035857715 a50.10511028154414,50.10511028154414 0 0,0 -0.09261738400788219,0.8575219489311962 l -28.908850135827162 -3.3742893066737025" fill="#9eff22" stroke="none" /><path d="M 120.76222939487914 103.15116336523771 l 15.291210000001673 2.3208057210872646 a36.46632608149662,36.46632608149662 0 0,0 -0.09953265885145608,0.6197899616793593 l -15.24899558678893 -2.583674912459829" fill="#ffba11" stroke="none" /><path d="M 120.70491114924044 103.5080841355445 l 13.560156571370873 2.297530754932545 a34.75341753201558,34.75341753201558 0 0,0 -0.10501085634657147,0.5889566498849418 l -13.518599272685114 -2.5306061555507053" fill="#ffa30f" stroke="none" /><path d="M 120.23288151984713 105.62410040840565 l 15.95454102987992 4.434857221600063 a37.5594486034439,37.5594486034439 0 0,0 -0.17850997738675292,0.6214166495922119 l -15.875838415607067 -4.708831346696857" fill="#ffc812" stroke="none" /><path d="M 120.13307415673323 105.97154293290107 l 14.537669744146692 4.311925657536795 a36.163658676783854,36.163658676783854 0 0,0 -0.18214985220142985,0.5952762561141878 l -14.46129311943913 -4.56152888620304" fill="#ffb610" stroke="none" /><path d="M 119.9155931802556 106.66101706037122 l 13.789298265963678 4.612001770110095 a35.54012747520487,35.54012747520487 0 0,0 -0.19904023145383323,0.5785040812719509 l -13.707867203566614 -4.848678554471347" fill="#ffad10" stroke="none" /><path d="M 119.41010516605496 108.01547362559984 l 12.814078299278616 5.291620306306387 a34.86368811414038,34.86368811414038 0 0,0 -0.23383410775685878,0.5527147572584344 l -12.72109321032945 -5.511409589230985" fill="#ffa40f" stroke="none" /><path d="M 119.26925614724726 108.34839909993367 l 13.705520818787434 5.937912537637457 a35.93653595111155,35.93653595111155 0 0,0 -0.25080093940526305,0.5654899088445308 l -13.601278794650899 -6.1729507829746755" fill="#ffb310" stroke="none" /><path d="M 119.12269723197855 108.67885076344098 l 26.045803743659807 11.820907948439435 a49.60275786316281,49.60275786316281 0 0,0 -0.35956184864385843,0.7744642338551561 l -25.838467278176115 -12.267492249573422" fill="#a4ff21" stroke="none" /><path d="M 118.81262510543309 109.33194174019688 l 26.17537251540678 12.984208741351164 a50.21882617353566,50.21882617353566 0 0,0 -0.39080130357387266,0.7710880472805273 l -25.947992542046638 -13.432851000334386" fill="#9dff22" stroke="none" /><path d="M 118.64920377521936 109.65438752849418 l 26.80450843554874 13.876255258224022 a51.183308838873074,51.183308838873074 0 0,0 -0.4117757928132508,0.7789246182434751 l -26.561680134510596 -14.335594891553631" fill="#92ff23" stroke="none" /><line stroke="#e1ed5e" stroke-width="0.3" x1="174.80103733775053" x2="179.2010983576182" y1="140.37084112569926" y2="142.7455964860345" /><path d="M 175.68104954172406 140.8457921977663 a86.0,86.0 0 0,1 -30.038265399797805,32.042727171017184" fill="none" id="id77" stroke="none" /><text fill="#e1ed5e" style="font-size:6.75px; font-family:Arial;" text-anchor="middle"><textPath startOffset="22.206326154141568" xlink:href="#id77">May</textPath></text><path d="M 118.12598468904814 110.60418214915192 l 1.9262571621811237 1.1269115672495797 a23.231680159712628,23.231680159712628 0 0,0 -0.2049024502495639,0.343428292585187 l -1.9065738362333327 -1.1599019537208708" fill="#ff0000" stroke="none" /><path d="M 116.93607887273984 112.41649034213515 l 11.820522678128857 8.666079484798283 a35.656933172427316,35.656933172427316 0 0,0 -0.3671623839401636,0.4918740141071074 l -11.6695990274936 -8.868266378414704" fill="#ffaf10" stroke="none" /><path d="M 116.71984013943494 112.70617746262583 l 9.310173624557248 7.075230223192833 a32.69351168941917,32.69351168941917 0 0,0 -0.3443610431857576,0.4451330686533595 l -9.18700576415342 -7.234441285959444" fill="#ff870c" stroke="none" /><path d="M 116.0416608686014 113.55231037782055 l 6.294166444522242 5.31743551522079 a29.239639050946415,29.239639050946415 0 0,0 -0.32812095046677564,0.38167879410072847 l -6.201702984484688 -5.424991408483047" fill="#ff5708" stroke="none" /><path d="M 115.07121518719521 114.62390073753431 l 9.789212502378472 9.49866816678732 a34.64013850220964,34.64013850220964 0 0,0 -0.41891371057194454,0.42435737711999094 l -9.624258166750991 -9.665766037887977" fill="#ffa10e" stroke="none" /><path d="M 114.29624159901734 115.38237550388516 l 8.292905812214263 8.922945960188569 a33.18159478141933,33.18159478141933 0 0,0 -0.4217229807889893,0.38523394399537725 l -8.13808328195841 -9.06437267077053" fill="#ff8e0d" stroke="none" /><path d="M 114.0293411484842 115.62618273729858 l 15.009363484202366 16.717752750636 a43.46695905618526,43.46695905618526 0 0,0 -0.5610500784797745,0.4950614620843309 l -14.719371052816003 -16.97363735449262" fill="#ecff1a" stroke="none" /><path d="M 111.7513745106137 117.40417183066458 l 11.043858090927767 16.356316762297126 a40.735650472207716,40.735650472207716 0 0,0 -0.5845086738362625,0.38738047673486903 l -10.76067471835154 -16.543995260123314" fill="#fff016" stroke="none" /><line stroke="#e1ed5e" stroke-width="0.3" x1="143.8653032363475" x2="146.44561519142675" y1="172.8068346515853" y2="177.08958963109032" /><path d="M 144.38136562736335 173.6633856474863 a86.0,86.0 0 0,1 -40.68145358897372,12.25698825130547" fill="none" id="id78" stroke="none" /><text fill="#e1ed5e" style="font-size:6.75px; font-family:Arial;" text-anchor="middle"><textPath startOffset="21.466115282336833" xlink:href="#id78">June</textPath></text><path d="M 110.8373102113329 117.98757091392108 l 8.040430661273398 13.345360968525085 a36.58034610010247,36.58034610010247 0 0,0 -0.5421418569168338,0.32030696508931494 l -7.809520933328181 -13.48178650590815" fill="#ffbb11" stroke="none" /><path d="M 109.2508944713604 118.85261126421891 l 6.311477913518962 12.862306447733005 a35.327375216983455,35.327375216983455 0 0,0 -0.5482259074294018,0.2631817511996423 l -6.089139338089327 -12.969042475432207" fill="#ffab0f" stroke="none" /><path d="M 107.93186726928326 119.44442032107085 l 5.107690437673405 12.521147463554364 a34.522856037508284,34.522856037508284 0 0,0 -0.5521666541828497,0.2197185071203799 l -4.891402707448689 -12.607212815080812" fill="#ffa00e" stroke="none" /><path d="M 107.2578585660854 119.70592522655815 l 3.686020624640513 10.007972207137438 a31.66518896898272,31.66518896898272 0 0,0 -0.5130973531003769,0.18397845569237672 l -3.5132037109104015 -10.069938203869777" fill="#ff790b" stroke="none" /><path d="M 106.91757812671514 119.82793768551818 l 4.936336193095049 14.149080015946922 a35.985455625670134,35.985455625670134 0 0,0 -0.5866147921291059,0.19901158721311735 l -4.692051668028717 -14.231954590058162" fill="#ffb310" stroke="none" /><path d="M 106.57524785965236 119.94407469862006 l 4.453738137206228 13.509100796274808 a35.224330835533806,35.224330835533806 0 0,0 -0.5774754876252043,0.18488941506274337 l -4.220541304490084 -13.583763057997258" fill="#ffa90f" stroke="none" /><path d="M 105.88484417918355 120.15858648285463 l 3.8973407040615196 13.35037551442417 a34.90761629250934,34.90761629250934 0 0,0 -0.5782510335203741,0.16341951806631264 l -3.6669585024365396 -13.415483825829002" fill="#ffa50f" stroke="none" /><path d="M 104.83641907484287 120.43548508189849 l 3.1708206454196737 13.397775708457347 a34.76787919396264,34.76787919396264 0 0,0 -0.5835703268673796,0.13281870645314992 l -2.9397301691594317 -13.45037114848818" fill="#ffa30f" stroke="none" /><path d="M 104.13013068566511 120.58985236759428 l 5.2707161412670835 26.275988698577727 a47.799403551750885,47.799403551750885 0 0,0 -0.8081112507156125,0.15487644452063398 l -4.8176372759797665 -26.36282234144683" fill="#b8ff1f" stroke="none" /><path d="M 103.06178313531738 120.77559828337769 l 4.155767226247429 28.1987804609139 a49.50336156879696,49.50336156879696 0 0,0 -0.8440827818060401,0.11698218225849277 l -3.669755853254558 -28.266137208664993" fill="#a5ff21" stroke="none" /><path d="M 101.98527174616119 120.90594882070398 l 1.2904805435246203 13.589434418339561 a34.650570238769056,34.650570238769056 0 0,0 -0.5942666554756428,0.05127582757811623 l -1.0563695703074358 -13.60963449819634" fill="#ffa10e" stroke="none" /><path d="M 101.62511606390274 120.93702456842531 l 1.0760600250630972 13.863314554741168 a34.90501332689894,34.90501332689894 0 0,0 -0.5994308400565466,0.04134026029148121 l -0.8372664242276203 -13.879783159548934" fill="#ffa50f" stroke="none" /><path d="M 100.90346689309514 120.98055641714683 l 1.1493363190184505 26.690203778062617 a47.71493873638349,47.71493873638349 0 0,0 -0.8208779184069589,0.02827269527540027 l -0.6897380489368392 -26.706033271764113" fill="#b9ff1f" stroke="none" /><line stroke="#e1ed5e" stroke-width="0.3" x1="102.19456741930631" x2="102.32365962044197" y1="184.97166512339345" y2="189.96999836594603" /><path d="M 102.22038585953345 185.97133177190398 a86.0,86.0 0 0,1 -42.740103519485714,-10.115201625700543" fill="none" id="id79" stroke="none" /><text fill="#e1ed5e" style="font-size:6.75px; font-family:Arial;" text-anchor="middle"><textPath startOffset="22.20632615414155" xlink:href="#id79">July</textPath></text><path d="M 98.73552117531835 120.96189622390904 l -1.0278464574257118 17.039123434981 a38.0700965367089,38.0700965367089 0 0,0 -0.6537854529465864,-0.04508887263298997 l 1.3209946711512282 -17.018906217831724" fill="#ffce13" stroke="none" /><path d="M 93.76903079525671 120.05430185196036 l -5.210790443485138 16.7708683845544 a38.56173008043235,38.56173008043235 0 0,0 -0.6321895506217844,-0.20240713022108675 l 5.498701339197862 -16.678688407673608" fill="#ffd513" stroke="none" /><path d="M 93.42475214034765 119.94407469862007 l -3.037709497510376 9.213995643087104 a30.701824297630466,30.701824297630466 0 0,0 -0.5004839862439147,-0.16979134146216351 l 3.1958632166915164 -9.160341314726818" fill="#ff6c09" stroke="none" /><path d="M 91.07499286063937 119.00905698771935 l -3.0535523069872315 6.503653040512905 a28.18482321027315,28.18482321027315 0 0,0 -0.4373846113752748,-0.20997119327919572 l 3.1650495863627484 -6.450127570734147" fill="#ff4806" stroke="none" /><path d="M 90.7491055286396 118.85261126421891 l -8.422800984595222 17.165020443164007 a40.12018575329059,40.12018575329059 0 0,0 -0.6173657737722685,-0.30956001527264443 l 8.71702066605025 -17.017492586982062" fill="#ffe915" stroke="none" /><path d="M 90.10565033884886 118.52300852407294 l -9.745523956041769 18.244394982127293 a41.68412882965235,41.68412882965235 0 0,0 -0.6299805522695427,-0.34351562701055194 l 10.058127320179953 -18.073938703356973" fill="#fffc17" stroke="none" /><line stroke="#e1ed5e" stroke-width="0.3" x1="58.666819895761336" x2="56.23545636021788" y1="174.27360380694188" y2="178.64263932499728" /><path d="M 58.180547188652646 175.14741091055294 a86.0,86.0 0 0,1 -31.652253787137756,-30.449443065178592" fill="none" id="id80" stroke="none" /><text fill="#e1ed5e" style="font-size:6.75px; font-family:Arial;" text-anchor="middle"><textPath startOffset="22.20632615414155" xlink:href="#id80">August</textPath></text><path d="M 83.28015986056508 112.70617746262583 l -4.4129165660360465 3.3535787751682684 a26.54259174214144,26.54259174214144 0 0,0 -0.27331125795000766,-0.36614509391147493 l 4.469989090681139 -3.2771208017474853" fill="#ff3104" stroke="none" /><path d="M 82.44556493220864 111.52570212397912 l -7.304471899001574 4.795891577014479 a29.738185494814246,29.738185494814246 0 0,0 -0.27726629008932924,-0.4303234394953975 l 7.385943052467949 -4.669446537597634" fill="#ff5e08" stroke="none" /><line stroke="#e1ed5e" stroke-width="0.3" x1="26.63291911575756" x2="22.317208475507996" y1="142.92168965132927" y2="145.44649492493687" /><path d="M 25.769776987707644 143.4266507060508 a86.0,86.0 0 0,1 -11.730757126820373,-40.83630448921669" fill="none" id="id81" stroke="none" /><text fill="#e1ed5e" style="font-size:6.75px; font-family:Arial;" text-anchor="middle"><textPath startOffset="21.46611528233685" xlink:href="#id81">September</textPath></text><path d="M 81.87401531095188 110.60418214915194 l -12.316387894253152 7.205413823900175 a35.26924662115549,35.26924662115549 0 0,0 -0.302052552477349,-0.5266540853296822 l 12.438592442882879 -6.992339892712186" fill="#ffaa0f" stroke="none" /><path d="M 81.51974371655577 109.97397251340807 l -9.682883706369658 5.225945704247476 a32.003124346058335,32.003124346058335 0 0,0 -0.2574689327254114,-0.48703419101580386 l 9.771405147319957 -5.058496498145545" fill="#ff7e0b" stroke="none" /><path d="M 81.35079622478065 109.6543875284942 l -13.455396199192666 6.965638363019386 a36.15149513023767,36.15149513023767 0 0,0 -0.2813297820666067,-0.5550903497807633 l 13.57330465104554 -6.732993801535938" fill="#ffb510" stroke="none" /><path d="M 81.18737489456691 109.33194174019688 l -13.29668928551726 6.595779645558967 a35.84271724073323,35.84271724073323 0 0,0 -0.26941219954900986,-0.5550689283285686 l 13.408254741680988 -6.365921761265113" fill="#ffb110" stroke="none" /><path d="M 81.02952815118164 109.00673069616217 l -13.066194979118032 6.203519888082943 a35.46406271537046,35.46406271537046 0 0,0 -0.25707288263160405,-0.5537121189111963 l 13.171042478589463 -5.97768770189292" fill="#ffac0f" stroke="none" /><path d="M 80.73074385275274 108.34839909993369 l -20.087047268244994 8.70270684312317 a42.891244239513924,42.891244239513924 0 0,0 -0.2876756984084128,-0.6799803730099432 l 20.233873947845712 -8.35565194444707" fill="#f3ff19" stroke="none" /><path d="M 80.58989483394504 108.01547362559985 l -14.085461537113291 5.816642645119661 a36.239211212347,36.239211212347 0 0,0 -0.23313441410297334,-0.5786204965894307 l 14.183498565473652 -5.573322780687424" fill="#ffb710" stroke="none" /><path d="M 80.20201598880116 107.00284435728193 l -27.863465084792928 9.855726175604119 a50.555169175289166,50.555169175289166 0 0,0 -0.28313102086810804,-0.8229112773358284 l 28.028986936604266 -9.374642195178994" fill="#99ff23" stroke="none" /><path d="M 79.97269907076064 106.31721596034903 l -9.828266945395766 3.1001324157155423 a31.305612652575746,31.305612652575746 0 0,0 -0.15768074709218372,-0.5153098048442274 l 9.88017446499408 -2.9304956383192673" fill="#ff740a" stroke="none" /><path d="M 79.67330655649465 105.27499134158121 l -42.49912544168066 11.028971305771751 a64.90687726736263,64.90687726736263 0 0,0 -0.27133759278636704,-1.083858804253065 l 42.682674348762085 -10.295784662121294" fill="#35ff63" stroke="none" /><path d="M 79.50377843672027 104.57218783832718 l -9.149471457261619 2.0410153156696857 a30.37435712281345,30.37435712281345 0 0,0 -0.1094430918964195,-0.5112816898587031 l 9.183248587882478 -1.883219806394819" fill="#ff6709" stroke="none" /><path d="M 79.4281124754447 104.21870165774334 l -14.267721487835772 2.9258987645692094 a35.56464074513883,35.56464074513883 0 0,0 -0.11782068763503106,-0.6007651479094144 l 14.31597210844647 -2.6798698895918402" fill="#ffae10" stroke="none" /><path d="M 79.29508885075956 103.50808413554451 l -17.769641026548285 3.010754082943348 a39.02289605918949,39.02289605918949 0 0,0 -0.10651066389783058,-0.66324200576417 l 17.818833444807407 -2.7044328474859647" fill="#ffdb14" stroke="none" /><path d="M 79.18660465613746 102.79330883721812 l -14.017979888078823 1.881314723254079 a35.14365954166442,35.14365954166442 0 0,0 -0.07530531613892877,-0.6002574631887111 l 14.0482867134646 -1.6397395057779593" fill="#ffa80f" stroke="none" /><path d="M 79.1416061653843 102.43462659150553 l -17.026192768638964 1.987325677868588 a38.14178239112752,38.14178239112752 0 0,0 -0.07050362900339412,-0.6527760419638801 l 17.05787869914341 -1.6939533140199259" fill="#ffcf13" stroke="none" /><path d="M 79.04373962182676 101.35467743843564 l -14.06476259004361 0.9091897224912505 a35.094118371355265,35.094118371355265 0 0,0 -0.03378000927000025,-0.603164757642583 l 14.078328950201143 -0.6669532485132299" fill="#ffa70f" stroke="none" /><path d="M 79.0235259727143 100.99374915477108 l -14.089654146480855 0.6674897735848859 a35.10545626930535,35.10545626930535 0 0,0 -0.023400072050272096,-0.6038518837346774 l 14.099056351382329 -0.42486064283621183" fill="#ffa80f" stroke="none" /><path d="M 79.0095281055655 100.63252640178507 l -12.127006230804893 0.3654349294372004 a33.132510985349796,33.132510985349796 0 0,0 -0.01227155207296917,-0.5702108046928976 l 12.13149984556287 -0.1566343089541739" fill="#ff8d0d" stroke="none" /><line stroke="#e1ed5e" stroke-width="0.3" x1="15.007084014347285" x2="10.007500721073583" y1="101.09737516637583" y2="101.16192664675087" /><path d="M 14.007167355692545 101.11028546245083 a86.0,86.0 0 0,1 10.666146001902534,-42.60595125391555" fill="none" id="id82" stroke="none" /><text fill="#e1ed5e" style="font-size:6.75px; font-family:Arial;" text-anchor="middle"><textPath startOffset="22.20632615414155" xlink:href="#id82">October</textPath></text><path d="M 79.00175016825051 100.2711162175752 l -18.88882208004185 0.2438806108997172 a39.89039643109295,39.89039643109295 0 0,0 -0.0029551237071738395,-0.686666677168478 l 18.89022150103853 0.08129554447243613" fill="#ffe615" stroke="none" /><path d="M 79.00019446554 99.90962569577889 l -28.448588975886878 -0.12243072587264898 a49.44885241976537,49.44885241976537 0 0,0 0.010989402013341863,-0.8511412966792322 l 28.44226656675582 0.6121082806123531" fill="#a6ff21" stroke="none" /><path d="M 79.03285615573316 98.82574320788736 l -62.90143153280056 -3.522770376337934 a84.0,84.0 0 0,0 0.09327763598234728,-1.442963742987953 l 62.831473305813795 4.604993183578899" fill="#4dd2ff" stroke="none" /><path d="M 79.12142395522702 97.74499172005258 l -13.59401289879252 -1.468232870802685 a34.673071873410265,34.673071873410265 0 0,0 0.0691969620236102,-0.5928373127457177 l 13.56672558376532 1.7020139218732646" fill="#ffa20e" stroke="none" /><path d="M 79.32604984820605 96.31383870115002 l -13.877674858340573 -2.4743867333161553 a35.09654032661309,35.09654032661309 0 0,0 0.11116290348061993,-0.593836675393548 l 13.833026230950091 2.712901486172276" fill="#ffa70f" stroke="none" /><path d="M 79.3925641242962 95.95851677861259 l -13.741932763560694 -2.6950364435608223 a35.003711561951846,35.003711561951846 0 0,0 0.12104734186749468,-0.5902698280343676 l 13.693506125778205 2.9311819277585927" fill="#ffa60f" stroke="none" /><path d="M 79.54389044137918 95.25157060432595 l -25.18070929513824 -5.845139804238446 a46.85021817968572,46.85021817968572 0 0,0 0.18911246677437268,-0.7839932651581416 l 25.076364028103054 6.277718301055985" fill="#c4ff1e" stroke="none" /><path d="M 79.62865764111835 94.90015583598534 l -17.99786066426259 -4.50565716565903 a39.55327289145139,39.55327289145139 0 0,0 0.17102772690850102,-0.6590395983790509 l 17.91763660548378 4.814793189586945" fill="#ffe115" stroke="none" /><path d="M 79.81627453868168 94.20196356495316 l -23.072225470885165 -6.627795456997388 a45.005317344270985,45.005317344270985 0 0,0 0.22029910579082243,-0.742739068174791 l 22.954720467982636 7.0239639119187185" fill="#d9ff1c" stroke="none" /><path d="M 80.02781315780177 93.51064311812611 l -12.87256164569656 -4.182548819659084 a34.53501229962831,34.53501229962831 0 0,0 0.18856561761430993,-0.563787195581953 l 12.798658734310477 4.40350911816336" fill="#ffa00e" stroke="none" /><path d="M 80.2630227832202 92.82701384747504 l -14.109018140277003 -5.127623679875855 a36.01189253508994,36.01189253508994 0 0,0 0.21674942741942185,-0.5807807044486066 l 14.018664124355954 5.369727521353803" fill="#ffb410" stroke="none" /><path d="M 80.52162464483688 92.15188598940014 l -21.40593141585185 -8.62475371746832 a44.07813416347034,44.07813416347034 0 0,0 0.2896107903371146,-0.7013155005231477 l 21.254298938628537 8.991943788444777" fill="#e5ff1a" stroke="none" /><path d="M 80.95270993114464 91.15688171328213 l -12.425021350968066 -5.768586141356994 a34.69882263708339,34.69882263708339 0 0,0 0.2561794349151489,-0.539579223832551 l 12.323883722211166 5.9816077808300765" fill="#ffa20f" stroke="none" /><path d="M 81.10775173730289 90.83032412892265 l -12.19593847520111 -5.919507366521861 a34.556602920835196,34.556602920835196 0 0,0 0.2643415355036678,-0.5328964052362504 l 12.092236926744029 6.128563360257074" fill="#ffa00e" stroke="none" /><path d="M 81.26839172434947 90.50648371742162 l -2.927127645235846 -1.483520985080324 a24.281601859561523,24.281601859561523 0 0,0 0.1921606274676647,-0.37119316876825764 l 2.9011575846080673 1.533686876108917" fill="#ff1001" stroke="none" /><path d="M 81.43458229118936 90.18545643968196 l -25.884749244461727 -13.683882743296179 a50.27915453664844,50.27915453664844 0 0,0 0.411072552956446,-0.7616550095272974 l 25.64536859228681 14.12741873615595" fill="#9cff22" stroke="none" /><line stroke="#e1ed5e" stroke-width="0.3" x1="26.266209847984243" x2="21.928928074336255" y1="57.711370442889674" y2="55.22380399835377" /><path d="M 25.398753493254645 57.213857153982495 a86.0,86.0 0 0,1 29.58750427330803,-30.492523968695096" fill="none" id="id83" stroke="none" /><text fill="#e1ed5e" style="font-size:6.75px; font-family:Arial;" text-anchor="middle"><textPath startOffset="21.46611528233685" xlink:href="#id83">November</textPath></text><path d="M 81.78341655067845 89.55222093294921 l -18.020293535959276 -10.33520067639895 a41.77371782189151,41.77371782189151 0 0,0 0.36311371665680303,-0.6206790468071091 l 17.839720144832146 10.643859135559952" fill="#fffd17" stroke="none" /><path d="M 82.54541684631803 88.32363383020206 l -16.062230507300907 -10.744942073702983 a40.32482934043404,40.32482934043404 0 0,0 0.3909118418950341,-0.5736148919932187 l 15.874894199737131 11.019834988966617" fill="#ffeb16" stroke="none" /><path d="M 82.7489923806493 88.02491185347247 l -7.6077861289819335 -5.281077575566975 a30.26111171207249,30.26111171207249 0 0,0 0.30071962500069455,-0.42534658323348623 l 7.515753884177361 5.411250659132248" fill="#ff6609" stroke="none" /><path d="M 83.17141714833178 87.43820079747576 l -14.598501915579986 -10.897141567865436 a39.217133488265745,39.217133488265745 0 0,0 0.40846336425364477,-0.5374899078204239 l 14.408762611102233 11.146816251566886" fill="#ffdd14" stroke="none" /><path d="M 83.6137871275137 86.86637796730984 l -10.720145306446849 -8.592243838525667 a34.73856504777761,34.73856504777761 0 0,0 0.377991166500929,-0.463372475951518 l 10.570655647869527 8.775500484085267" fill="#ffa30f" stroke="none" /><path d="M 84.31358615837235 86.03803664274999 l -22.865829786810156 -20.35212642225134 a51.61135772465305,51.61135772465305 0 0,0 0.5963725794441559,-0.6585294975026025 l 22.512113566749953 20.7427087070235" fill="#8dff24" stroke="none" /><path d="M 84.80347519578584 85.50635884689758 l -10.053904115348974 -9.588881689263491 a34.893438739611,34.893438739611 0 0,0 0.41828216633552895,-0.43107654044921234 l 9.887357685310326 9.760522425262826" fill="#ffa50f" stroke="none" /><path d="M 85.57189188830299 84.74124197986013 l -9.351567380498057 -9.889952491579276 a34.611134146634896,34.611134146634896 0 0,0 0.43641692642607477,-0.40560197067819126 l 9.179942570277126 10.049459048332116" fill="#ffa10e" stroke="none" /><path d="M 86.10567301691215 84.25364557470407 l -35.17387630025328 -39.86233542721884 a74.16208573502009,74.16208573502009 0 0,0 0.9644821675963638,-0.8363894315744617 l 34.48250033401015 40.461889852212984" fill="#41ffcb" stroke="none" /><path d="M 86.65592168130627 83.78471172551755 l -11.036963353419594 -13.411757498446441 a38.36921988063544,38.36921988063544 0 0,0 0.5135932051513346,-0.41528998721905697 l 10.804466749703758 13.599753582929633" fill="#ffd213" stroke="none" /><path d="M 88.09926311788651 82.69761687909137 l -33.50584778333785 -48.71387552559706 a80.1243055299897,80.1243055299897 0 0,0 1.1430888476533838,-0.771818692574242 l 32.662354241277924 49.28340613046997" fill="#48f7ff" stroke="none" /><line stroke="#e1ed5e" stroke-width="0.3" x1="56.762969772571076" x2="54.21961505331055" y1="26.818313649435495" y2="22.513508569990535" /><path d="M 56.25429882871897 25.957352633546506 a86.0,86.0 0 0,1 42.265352541879196,-11.944610805530505" fill="none" id="id84" stroke="none" /><text fill="#e1ed5e" style="font-size:6.75px; font-family:Arial;" text-anchor="middle"><textPath startOffset="22.20632615414155" xlink:href="#id84">December</textPath></text><path d="M 90.26544431104013 81.39251694778311 l -6.297176578867839 -12.036975308589604 a34.58466810213034,34.58466810213034 0 0,0 0.529869250099231,-0.27141961013415494 l 6.089046841179845 12.143587444036264" fill="#ffa10e" stroke="none" /><path d="M 90.91171255644093 81.06846463323043 l -3.664031908489584 -7.632433513060014 a29.4663552463685,29.4663552463685 0 0,0 0.4591444509618032,-0.21557447618150133 l 3.5321092462281722 7.694372971881522" fill="#ff5a08" stroke="none" /><path d="M 93.25333710446033 80.11325718540243 l -6.674405904780607 -19.67375511771232 a41.77508928051771,41.77508928051771 0 0,0 0.6829574167789867,-0.2251603225904667 l 6.334765665759211 19.78572916456202" fill="#fffd17" stroke="none" /><path d="M 94.98787191387505 79.60689891045804 l -3.6970553999778786 -15.042397801863821 a36.49005972422389,36.49005972422389 0 0,0 0.6112542224906863,-0.14466412563168576 l 3.4375774905246583 15.103807839636378" fill="#ffba11" stroke="none" /><path d="M 95.692805502759 79.44645832069477 l -2.50010711956392 -11.93028453152054 a33.1894308567846,33.1894308567846 0 0,0 0.5601642450624943,-0.11236367780792084 l 2.294376465034289 11.971552165405672" fill="#ff8e0d" stroke="none" /><path d="M 96.40284397218896 79.31037775812273 l -2.3935381935606426 -13.766820416853067 a34.97334496367695,34.97334496367695 0 0,0 0.593998605341584,-0.09801485945780779 l 2.156210382080173 13.805981539250503" fill="#ffa60f" stroke="none" /></svg>