<?xml version="1.0" encoding="utf-8" ?>
<svg baseProfile="full" height="200mm" version="1.1" viewBox="0,0,200,200" width="200mm" xmlns="http://www.w3.org/2000/svg" xmlns:ev="http://www.w3.org/2001/xml-events" xmlns:xlink="http://www.w3.org/1999/xlink"><defs /><rect fill="#1a1a1a" height="200" width="200" x="0" y="0" /><text alignment-baseline="middle" fill="#e1ed5e" style="dominant-baseline: central; font-size:9.0px; font-family:Arial;" text-anchor="middle" x="100.0" y="100.0">2021</text><line stroke="#e1ed5e" stroke-width="0.3" x1="100.0" x2="100.0" y1="15.0" y2="10.0" /><path d="M 100.0 14.0 a86.0,86.0 0 0,1 42.46469731375804,11.215312516191453" fill="none" id="id61" stroke="none" /><text fill="#e1ed5e" style="font-size:6.75px; font-family:Arial;" text-anchor="middle"><textPath startOffset="22.20632615414155" xlink:href="#id61">January</textPath></text><path d="M 105.36241919743992 79.69619591428918 l 1.1974341275674625 -4.533861870269456 a25.689323186617287,25.689323186617287 0 0,0 0.4265676771232245,0.1165970598451331 l -1.2752996939143977 4.51257826959803" fill="#ff0a01" stroke="none" /><path d="M 108.09893153111575 80.62456947434976 l 4.604463586700547 -11.01546098880432 a32.939073067752,32.939073067752 0 0,0 0.5212470944640751,0.22317080307370848 l -4.793394438954937 10.934570657767821" fill="#ff750a" stroke="none" /><path d="M 110.05341064243156 81.56283822128135 l 11.861567872769692 -21.753179452999284 a45.77695721259397,45.77695721259397 0 0,0 0.6885637170970759,0.3831849630724041 l -12.234255678938803 21.5457790923667" fill="#deff1b" stroke="none" /><line stroke="#e1ed5e" stroke-width="0.3" x1="143.23703022742887" x2="145.7803849466894" y1="26.81831364943548" y2="22.513508569990506" /><path d="M 143.74570117128098 25.957352633546492 a86.0,86.0 0 0,1 28.547481713284135,27.462654790039103" fill="none" id="id62" stroke="none" /><text fill="#e1ed5e" style="font-size:6.75px; font-family:Arial;" text-anchor="middle"><textPath startOffset="19.985693538727396" xlink:href="#id62">February</textPath></text><path d="M 111.60114157652 82.49532879139004 l 6.612600285063157 -9.977586521163117 a32.96990874306539,32.96990874306539 0 0,0 0.47036332786986207,0.31759141863438356 l -6.78336830733956 9.862283190230063" fill="#ff750a" stroke="none" /><path d="M 112.19680574252982 82.90503203632743 l 13.218747925702909 -18.527315846458972 a43.75954149796794,43.75954149796794 0 0,0 0.6094134697757843,0.4427648029314142 l -13.53570671183248 18.29703180871088" fill="#f8ff18" stroke="none" /><path d="M 112.77801427241765 83.33499621200491 l 17.472466658871873 -22.78747830828848 a49.7150876508519,49.7150876508519 0 0,0 0.6746276903756298,0.5265576131052895 l -17.86212690440693 22.483342305959965" fill="#afff20" stroke="none" /><path d="M 113.89432698308785 84.25364557470407 l 41.68298094926353 -47.23906327588782 a84.0,84.0 0 0,0 1.0759560496160399,0.9660039649228103 l -42.48994798647556 46.51456030219571" fill="#4dd2ff" stroke="none" /><path d="M 114.68862486808459 84.99185889309783 l 10.687219733704708 -10.919694882562924 a36.27928015204768,36.27928015204768 0 0,0 0.4425453700311825,0.4406449395718131 l -10.873600903903213 10.734114092340993" fill="#ffa30f" stroke="none" /><path d="M 117.04232023915458 87.72973835380427 l 11.576659581139996 -8.335052977303583 a35.26506765466108,35.26506765466108 0 0,0 0.3504464086328595,0.4956815921743997 l -11.718418609576739 8.134544884797391" fill="#ff950d" stroke="none" /><line stroke="#e1ed5e" stroke-width="0.3" x1="172.23445277983987" x2="176.4835382374775" y1="55.19839476539836" y2="52.563006222186495" /><path d="M 173.08426987136738 54.67131705675599 a86.0,86.0 0 0,1 12.851231095245387,41.99856678651699" fill="none" id="id63" stroke="none" /><text fill="#e1ed5e" style="font-size:6.75px; font-family:Arial;" text-anchor="middle"><textPath startOffset="22.20632615414155" xlink:href="#id63">March</textPath></text><path d="M 118.3937258080291 89.86733742301442 l 20.100344609972428 -11.072797960545708 a43.948435853336775,43.948435853336775 0 0,0 0.35931383276356005,0.6657539617971433 l -20.28796654195445 10.725163015416106" fill="#f5ff19" stroke="none" /><path d="M 119.34039704204932 91.81776055985345 l 11.988574529947343 -5.071942790874444 a34.0173162723353,34.0173162723353 0 0,0 0.2235072340912158,0.5412404957866607 l -12.074103450924756 4.86482772463448" fill="#ff840c" stroke="none" /><path d="M 119.47837535516314 92.15188598940014 l 26.582073988268764 -10.710295057684844 a49.65863007438533,49.65863007438533 0 0,0 0.3126281523748721,0.7956045478113843 l -26.762495690525338 10.251141504977676" fill="#afff20" stroke="none" /><path d="M 119.85752413597 93.16781622104841 l 16.87954744806624 -5.807580516134089 a38.85068944054822,38.85068944054822 0 0,0 0.2121297709564655,0.6342410147729508 l -16.977014512794476 5.516166398438824" fill="#ffc612" stroke="none" /><path d="M 120.08093135843002 93.85539295169968 l 14.89919813174632 -4.55903743806776 a36.581108026412515,36.581108026412515 0 0,0 0.17906296105880865,0.6037112877240582 l -14.975466989916832 4.301896763597172" fill="#ffa80f" stroke="none" /><path d="M 120.37134235888165 94.90015583598534 l 10.268353141734467 -2.5706210185547564 a31.585233519597175,31.585233519597175 0 0,0 0.12749484755068358,0.5285484533463239 l -10.31108078954597 2.393487333549026" fill="#ff6109" stroke="none" /><path d="M 120.53481517161879 95.60439243477599 l 15.635035466517847 -3.346778610121473 a36.98922328021088,36.98922328021088 0 0,0 0.12791349705553817,0.6237516391966538 l -15.690328259488382 3.077151314761407" fill="#ffad10" stroke="none" /><path d="M 120.67395015179393 96.31383870115 l 14.35192827596029 -2.558946025615967 a35.57827321737126,35.57827321737126 0 0,0 0.10230979475818838,0.6038382000882436 l -14.393849932238702 2.3115220372118856" fill="#ff9a0e" stroke="none" /><path d="M 120.87857604477298 97.74499172005257 l 14.24273865933781 -1.538299045732806 a35.325570441427395,35.325570441427395 0 0,0 0.06009194824203279,0.6051177180764556 l -14.267107733262073 1.2929057969519155" fill="#ff960d" stroke="none" /><path d="M 120.96714384426684 98.82574320788733 l 15.86462856443429 -0.8884923947915528 a36.889488922651566,36.889488922651566 0 0,0 0.030049811884617608,0.6343040348725411 l -15.877571984552404 0.6152772532960119" fill="#ffac0f" stroke="none" /><line stroke="#e1ed5e" stroke-width="0.3" x1="184.98032266829074" x2="189.97916517819016" y1="98.17113171792111" y2="98.06355123074" /><path d="M 185.9800911702706 98.14961562048488 a86.0,86.0 0 0,1 -9.607161424134198,41.387399972396054" fill="none" id="id64" stroke="none" /><text fill="#e1ed5e" style="font-size:6.75px; font-family:Arial;" text-anchor="middle"><textPath startOffset="21.466115282336823" xlink:href="#id64">April</textPath></text><path d="M 120.99824983174949 100.27111621757518 l 9.372069849915333 0.1210062814243495 a30.372850995926274,30.372850995926274 0 0,0 -0.011249434815424926,0.5227170320674813 l -9.3685983524149 -0.2823131292819457" fill="#ff5007" stroke="none" /><path d="M 120.92983693683757 101.71520430193887 l 12.911029342641966 1.0580614238796133 a33.95431096829407,33.95431096829407 0 0,0 -0.052751100165443945,0.5821039946473938 l -12.890903646199446 -1.2801468070755777" fill="#ff830c" stroke="none" /><path d="M 120.81339534386255 102.79330883721812 l 57.03143998088717 7.6540335041905045 a78.54276127521868,78.54276127521868 0 0,0 -0.1913673769725285,1.3384229888332744 l -56.891238552898045 -8.634601965004189" fill="#46fff6" stroke="none" /><path d="M 120.5718875245553 104.21870165774334 l 3.9869333148092094 0.8176051985711672 a25.069903625083295,25.069903625083295 0 0,0 -0.09033039794654746,0.4219935466683539 l -3.972268878138219 -0.8861125646556902" fill="#ff0000" stroke="none" /><path d="M 120.23288151984713 105.62410040840565 l 59.882721809160685 16.645500535995215 a83.15314199111052,83.15314199111052 0 0,0 -0.39520456365564294,1.3757589320532089 l -59.58732460861894 -17.673816943553007" fill="#4cdaff" stroke="none" /><path d="M 119.67450827220406 107.3425965602758 l 11.760094464933621 4.3889091392812 a33.552384046746994,33.552384046746994 0 0,0 -0.206595961453331,0.5393568633688275 l -11.682804223886782 -4.590689569483172" fill="#ff7d0b" stroke="none" /><line stroke="#e1ed5e" stroke-width="0.3" x1="174.80103733775053" x2="179.2010983576182" y1="140.37084112569926" y2="142.7455964860345" /><path d="M 175.68104954172406 140.8457921977663 a86.0,86.0 0 0,1 -30.038265399797805,32.042727171017184" fill="none" id="id65" stroke="none" /><text fill="#e1ed5e" style="font-size:6.75px; font-family:Arial;" text-anchor="middle"><textPath startOffset="22.206326154141568" xlink:href="#id65">May</textPath></text><path d="M 117.94076556474637 110.91462005526583 l 11.717244431043222 7.128417714281868 a34.715252683275686,34.715252683275686 0 0,0 -0.31497538947741194,0.507840618184944 l -11.592804401897846 -7.3290546638320855" fill="#ff8e0d" stroke="none" /><path d="M 116.93607887273984 112.41649034213515 l 18.436067486625298 13.516189645472672 a43.85992053581519,43.85992053581519 0 0,0 -0.45162922188183796,0.6050311469033602 l -18.20067699804837 -13.831533671885346" fill="#f6ff19" stroke="none" /><path d="M 116.498646956653 112.99209946851258 l 9.629531077344792 7.582914279012889 a33.25677191320809,33.25677191320809 0 0,0 -0.35803621106921785,0.4467052238929811 l -9.49757695422072 -7.7475473364841205" fill="#ff790b" stroke="none" /><path d="M 114.81725581225074 114.88116024355365 l 7.99127698704584 8.02574207408436 a32.32576901245193,32.32576901245193 0 0,0 -0.3976839982788586,0.38921749370224673 l -7.851943036391186 -8.162109670709178" fill="#ff6c09" stroke="none" /><path d="M 112.92097659922987 116.55440617244103 l 6.72428199684791 8.615176611378423 a31.928734438093677,31.928734438093677 0 0,0 -0.4361636498023575,0.33443168769629317 l -6.574989618552059 -8.729647640902087" fill="#ff6609" stroke="none" /><line stroke="#e1ed5e" stroke-width="0.3" x1="143.8653032363475" x2="146.44561519142675" y1="172.8068346515853" y2="177.08958963109032" /><path d="M 144.38136562736335 173.6633856474863 a86.0,86.0 0 0,1 -40.68145358897372,12.25698825130547" fill="none" id="id66" stroke="none" /><text fill="#e1ed5e" style="font-size:6.75px; font-family:Arial;" text-anchor="middle"><textPath startOffset="21.466115282336833" xlink:href="#id66">June</textPath></text><path d="M 109.57404056367764 118.69057910512821 l 5.843158419044017 11.40709754972951 a33.816566420812165,33.816566420812165 0 0,0 -0.5203662521177062,0.260922441438009 l -5.64593825924355 -11.505987832076821" fill="#ff810b" stroke="none" /><path d="M 108.59647513512805 119.15986991738527 l 4.909983381895182 10.94339731283755 a32.99441042974214,32.99441042974214 0 0,0 -0.5201793878640095,0.2280313569765111 l -4.720883319373418 -11.026293223108517" fill="#ff750a" stroke="none" /><path d="M 106.57524785965236 119.94407469862006 l 2.189362128737019 6.640784160518248 a27.99237590503671,27.99237590503671 0 0,0 -0.45891321544260993,0.14692951958302936 l -2.0747275682034685 -6.677486526760983" fill="#ff2c04" stroke="none" /><path d="M 104.48393922423573 120.51570834832081 l 2.530936947259067 11.57998841226638 a32.853344399755905,32.853344399755905 0 0,0 -0.5535139890111888,0.11599423811300391 l -2.3312314968185 -11.621838631105925" fill="#ff730a" stroke="none" /><path d="M 102.70371172650421 120.8252237178851 l 1.708099071323377 13.156559903896886 a34.266976706932255,34.266976706932255 0 0,0 -0.5855942016692907,0.07090730261811698 l -1.4813774466027059 -13.184012735240355" fill="#ff870c" stroke="none" /><path d="M 101.98527174616119 120.90594882070398 l 1.2507517150702099 13.171069095818623 a34.23032278440626,34.23032278440626 0 0,0 -0.5870592979211946,0.05065394644133946 l -1.0238480994074735 -13.190647294538627" fill="#ff870c" stroke="none" /><path d="M 101.26447882468166 120.96189622390904 l 0.6736000939772848 11.166604762971781 a32.18690301285527,32.18690301285527 0 0,0 -0.5533264775456607,0.028600658568864065 l -0.4812855480181446 -11.176545228302848" fill="#ff6a09" stroke="none" /><line stroke="#e1ed5e" stroke-width="0.3" x1="102.19456741930631" x2="102.32365962044197" y1="184.97166512339345" y2="189.96999836594603" /><path d="M 102.22038585953345 185.97133177190398 a86.0,86.0 0 0,1 -42.740103519485714,-10.115201625700543" fill="none" id="id67" stroke="none" /><text fill="#e1ed5e" style="font-size:6.75px; font-family:Arial;" text-anchor="middle"><textPath startOffset="22.20632615414155" xlink:href="#id67">July</textPath></text><path d="M 100.54218724476979 120.99299961872073 l 0.34104171210347606 13.204826563553633 a34.20922988000913,34.20922988000913 0 0,0 -0.5887902217315958,0.010136557628133671 l -0.11369180047921239 -13.208740598460926" fill="#ff870c" stroke="none" /><path d="M 99.81925306533755 120.99922214144158 l -0.08613406343080222 10.007076110620309 a31.007446795293532,31.007446795293532 0 0,0 -0.5336829135870235,-0.009187835342807715 l 0.25837666691049366 -10.004110797998342" fill="#ff5908" stroke="none" /><path d="M 99.45781275523022 120.99299961872073 l -0.3968405285264999 15.365306256120329 a36.370430011858865,36.370430011858865 0 0,0 -0.6257093411488752,-0.021550694855581337 l 0.6612702213500181 -15.356198762838654" fill="#ffa50f" stroke="none" /><path d="M 98.73552117531835 120.96189622390904 l -0.8388165491900549 13.905480354284501 a34.9307572330648,34.9307572330648 0 0,0 -0.5998729453539957,-0.041370750461241335 l 1.0780522553229808 -13.888981259306975" fill="#ff910d" stroke="none" /><path d="M 98.37488393609728 120.93702456842531 l -0.42832608209624196 5.518297371702804 a26.534895583039123,26.534895583039123 0 0,0 -0.4550806391603051,-0.039266272426215824 l 0.5232510389980888 -5.5101068469979255" fill="#ff1602" stroke="none" /><path d="M 97.65516085044442 120.86867818915974 l -2.077218685884303 18.48690060145264 a39.603234431597556,39.603234431597556 0 0,0 -0.6767864188555887,-0.08194941014243531 l 2.3951325277912807 -18.448405662584857" fill="#ffd013" stroke="none" /><path d="M 97.2962882734958 120.8252237178851 l -1.2880330739971764 9.921019559547643 a31.004281998256424,31.004281998256424 0 0,0 -0.5286546159217358,-0.07326671265491823 l 1.458616281105743 -9.89737828140012" fill="#ff5908" stroke="none" /><path d="M 96.58105272829116 120.7198165907248 l -2.203573478049379 13.354297297059 a34.53488058208863,34.53488058208863 0 0,0 -0.5856968209238474,-0.1018308998214395 l 2.4331192704452764 -13.314387818716554" fill="#ff8b0c" stroke="none" /><path d="M 96.22490169976321 120.6578951692458 l -2.7397516836284708 14.99232564794711 a36.24060588106778,36.24060588106778 0 0,0 -0.6126947026344072,-0.11742439798556353 l 2.997414000834573 -14.942944051613077" fill="#ffa30f" stroke="none" /><path d="M 95.51606077576429 120.51570834832081 l -3.1351363306713944 14.3444278291355 a35.683040882500215,35.683040882500215 0 0,0 -0.5989310914034309,-0.13631476645119575 l 3.3815875714676884 -14.288336329106617" fill="#ff9b0e" stroke="none" /><path d="M 95.16358092515715 120.4354850818985 l -4.627966620745408 19.554703877856163 a41.09488787710388,41.09488787710388 0 0,0 -0.686963114433494,-0.16883881979821655 l 4.963883019922113 -19.472143799743915" fill="#ffe415" stroke="none" /><path d="M 94.46302465271185 120.25689768951611 l -5.018786845869663 18.361116906916262 a40.03467455654865,40.03467455654865 0 0,0 -0.6631816892046911,-0.18742176971209024 l 5.334099703178968 -18.27200634386565" fill="#ffd614" stroke="none" /><path d="M 93.76903079525671 120.05430185196036 l -5.1290209169240795 16.50769411518086 a38.286145335690705,38.286145335690705 0 0,0 -0.6276715532297316,-0.20096061012980662 l 5.412413815244752 -16.416960658391346" fill="#ffbf11" stroke="none" /><path d="M 93.42475214034765 119.94407469862007 l -2.9837490930368133 9.050322674317012 a30.52948577623445,30.52948577623445 0 0,0 -0.4976746199555955,-0.16883825188514792 l 3.139093445929635 -8.997621435533743" fill="#ff5207" stroke="none" /><path d="M 93.08242187328487 119.8279376855182 l -6.206761254712865 17.79051470514797 a39.84214156477684,39.84214156477684 0 0,0 -0.6455953065292807,-0.23148750774059645 l 6.512076121871872 -17.681039656367414" fill="#ffd313" stroke="none" /><path d="M 92.40401165467489 119.57807347666478 l -22.26131860942171 57.37682992772538 a82.54402423294489,82.54402423294489 0 0,0 -1.320228478025539,-0.5253461578169141 l 23.245668163489107 -56.9851369255024" fill="#4be0ff" stroke="none" /><path d="M 91.7346041902142 119.30500536409082 l -2.6696967400797003 6.235455757208324 a27.782933670919583,27.782933670919583 0 0,0 -0.43801690170460583,-0.19201373757711993 l 2.7766343164420495 -6.188577466336751" fill="#ff2904" stroke="none" /><path d="M 91.40352486487194 119.15986991738527 l -5.595369465939334 12.47098949533694 a34.66871385512077,34.66871385512077 0 0,0 -0.5423705736661267,-0.24897572877335383 l 5.80920803537288 -12.372826696229513" fill="#ff8d0d" stroke="none" /><path d="M 91.07499286063937 119.00905698771935 l -2.2847232354274456 4.866151198005439 a26.375815077209392,26.375815077209392 0 0,0 -0.40931161927765514,-0.19649445107941782 l 2.3681475227053426 -4.826102470426459" fill="#ff1402" stroke="none" /><line stroke="#e1ed5e" stroke-width="0.3" x1="58.666819895761336" x2="56.23545636021788" y1="174.27360380694188" y2="178.64263932499728" /><path d="M 58.180547188652646 175.14741091055294 a86.0,86.0 0 0,1 -31.652253787137756,-30.449443065178592" fill="none" id="id68" stroke="none" /><text fill="#e1ed5e" style="font-size:6.75px; font-family:Arial;" text-anchor="middle"><textPath startOffset="22.20632615414155" xlink:href="#id68">August</textPath></text><path d="M 89.1626897886671 117.98757091392108 l -9.021360041643767 14.973489761268265 a38.48114220043337,38.48114220043337 0 0,0 -0.5644282003855278,-0.3467179006637713 l 9.277767441961604 -14.815983393776115" fill="#ffc112" stroke="none" /><path d="M 84.9287848128048 114.62390073753433 l -9.500087152191005 9.218124072012635 a34.23727567538893,34.23727567538893 0 0,0 -0.40676076093533886,-0.4264870316326105 l 9.657354464505302 -9.053229923797526" fill="#ff870c" stroke="none" /><path d="M 83.95833913139862 113.55231037782056 l -10.190933000790452 8.609500487359938 a34.34086256838181,34.34086256838181 0 0,0 -0.377592501625985,-0.45483449259041964 l 10.337621502309974 -8.432804737655756" fill="#ff880c" stroke="none" /><path d="M 83.50135304334701 112.99209946851258 l -5.954125472790407 4.68866268814267 a28.578599339516032,28.578599339516032 0 0,0 -0.3010186355884361,-0.38910716421848074 l 6.033950925596912 -4.5854775298109365" fill="#ff3505" stroke="none" /><path d="M 82.85270091963577 112.12312394758628 l -6.470113623128119 4.574364104838523 a28.923836019241136,28.923836019241136 0 0,0 -0.2839206342094079,-0.4090088493801748 l 6.547895164499661 -4.462313993271335" fill="#ff3a05" stroke="none" /><line stroke="#e1ed5e" stroke-width="0.3" x1="26.63291911575756" x2="22.317208475507996" y1="142.92168965132927" y2="145.44649492493687" /><path d="M 25.769776987707644 143.4266507060508 a86.0,86.0 0 0,1 -11.730757126820373,-40.83630448921669" fill="none" id="id69" stroke="none" /><text fill="#e1ed5e" style="font-size:6.75px; font-family:Arial;" text-anchor="middle"><textPath startOffset="21.46611528233685" xlink:href="#id69">September</textPath></text><path d="M 81.51974371655577 109.97397251340807 l -11.692711379358602 6.3106690792710705 a34.286987756035984,34.286987756035984 0 0,0 -0.27584288485268194,-0.5217907840359494 l 11.79960677243617 -6.108463280148995" fill="#ff880c" stroke="none" /><path d="M 80.58989483394504 108.01547362559985 l -12.651659696702797 5.22454895279668 a34.687965694044635,34.687965694044635 0 0,0 -0.22315492771404033,-0.5538522297838213 l 12.739717238674226 -5.005997355170054" fill="#ff8d0d" stroke="none" /><path d="M 80.20201598880116 107.00284435728193 l -7.74207902615602 2.7384896558800915 a29.212132076544265,29.212132076544265 0 0,0 -0.16360069428090634,-0.4755001973677891 l 7.788070551380155 -2.604816755423006" fill="#ff3e05" stroke="none" /><path d="M 79.50377843672027 104.57218783832718 l -10.904932078948075 2.4326141125677783 a32.172965365879136,32.172965365879136 0 0,0 -0.11592373102354855,-0.5415570783447934 l 10.945189848696064 -2.2445432148068214" fill="#ff6a09" stroke="none" /><line stroke="#e1ed5e" stroke-width="0.3" x1="15.007084014347285" x2="10.007500721073583" y1="101.09737516637583" y2="101.16192664675087" /><path d="M 14.007167355692545 101.11028546245083 a86.0,86.0 0 0,1 10.666146001902534,-42.60595125391555" fill="none" id="id70" stroke="none" /><text fill="#e1ed5e" style="font-size:6.75px; font-family:Arial;" text-anchor="middle"><textPath startOffset="22.20632615414155" xlink:href="#id70">October</textPath></text><path d="M 79.00175016825051 100.2711162175752 l -13.455252052895286 0.17372576630583125 a34.45637352516722,34.45637352516722 0 0,0 -0.0025525654136666315,-0.5931263068962744 l 13.456248915598456 0.05791001879411861" fill="#ff8a0c" stroke="none" /><path d="M 79.03285615573316 98.82574320788736 l -8.117237761921217 -0.4546027654470229 a29.12995772177887,29.12995772177887 0 0,0 0.032347304673253044,-0.5003984860392721 l 8.108209866243552 0.5942603157393067" fill="#ff3d05" stroke="none" /><path d="M 79.21141760316559 97.0276538004421 l -6.806623615310501 -0.9732093054055491 a27.8758462310199,27.8758462310199 0 0,0 0.07200477968690805,-0.47442153265657466 l 6.788862942184291 1.0902299504542157" fill="#ff2b04" stroke="none" /><path d="M 79.91906864156998 93.8553929516997 l -17.61935040990608 -5.391382639716674 a39.42575685378747,39.42575685378747 0 0,0 0.20415880267321618,-0.647239195897899 l 17.52393612346466 5.693872002040988" fill="#ffce13" stroke="none" /><path d="M 81.43458229118936 90.18545643968196 l -6.065748298072891 -3.206636760405822 a27.861182239873834,27.861182239873834 0 0,0 0.22778758746592825,-0.4220558046354019 l 6.009652611388491 3.310573548373697" fill="#ff2a04" stroke="none" /><line stroke="#e1ed5e" stroke-width="0.3" x1="26.266209847984243" x2="21.928928074336255" y1="57.711370442889674" y2="55.22380399835377" /><path d="M 25.398753493254645 57.213857153982495 a86.0,86.0 0 0,1 29.58750427330803,-30.492523968695096" fill="none" id="id71" stroke="none" /><text fill="#e1ed5e" style="font-size:6.75px; font-family:Arial;" text-anchor="middle"><textPath startOffset="21.46611528233685" xlink:href="#id71">November</textPath></text><path d="M 82.54541684631803 88.32363383020206 l -6.514666916858312 -4.358032255812429 a28.837941705595274,28.837941705595274 0 0,0 0.27955711389191784,-0.410215569100378 l 6.438685337297653 4.469525848183222" fill="#ff3905" stroke="none" /><path d="M 84.31358615837235 86.03803664274999 l -5.997645884808555 -5.338308227673883 a29.029277109006244,29.029277109006244 0 0,0 0.33543517613425894,-0.37039589947323354 l 5.904867068058251 5.4407569144166725" fill="#ff3c05" stroke="none" /><path d="M 84.5562425177563 85.77008943001954 l -7.093979141046064 -6.536407275137201 a30.646199257742044,30.646199257742044 0 0,0 0.3607972339961234,-0.3848733333674179 l 6.980414585079484 6.657550025382668" fill="#ff5407" stroke="none" /><path d="M 84.80347519578584 85.50635884689758 l -9.47257163442643 -9.034437533268195 a34.09009835378884,34.09009835378884 0 0,0 0.4086521909297212,-0.4211520042947911 l 9.31565517979359 9.196153733113109" fill="#ff850c" stroke="none" /><path d="M 85.05521093208273 85.24692304244772 l -9.879657290527888 -9.752920811328194 a34.88261836003279,34.88261836003279 0 0,0 0.42550847715556134,-0.42368120852850666 l 9.710313013205013 9.921537870506809" fill="#ff900d" stroke="none" /><path d="M 85.31137513191541 84.99185889309783 l -5.5836162304032655 -5.705074574731719 a28.982771831367415,28.982771831367415 0 0,0 0.3595475099347115,-0.34588441968807 l 5.484585476856127 5.8003420811821025" fill="#ff3b05" stroke="none" /><path d="M 85.57189188830299 84.74124197986013 l -13.074383110051683 -13.8270968441903 a40.02966370819574,40.02966370819574 0 0,0 0.5047399697273046,-0.46910079331243293 l 12.83443525652952 14.050102223577381" fill="#ffd614" stroke="none" /><path d="M 86.10567301691215 84.25364557470407 l -18.949870067420555 -21.4757699857008 a49.6409893692737,49.6409893692737 0 0,0 0.6455839065742018,-0.5598440020916906 l 18.57739236219958 21.798778981212173" fill="#b0ff20" stroke="none" /><path d="M 86.93701828274178 83.55741782278169 l -12.532134786603116 -15.774396729994644 a41.14661248212348,41.14661248212348 0 0,0 0.5583545248988576,-0.4358045631562759 l 12.258747706544833 15.987779682374141" fill="#ffe515" stroke="none" /><path d="M 87.51073957382395 83.11751280151077 l -8.89032890873277 -12.01759422659381 a35.94859589060158,35.94859589060158 0 0,0 0.5006350113672204,-0.36373262676673396 l 8.682148581011768 12.168846088177212" fill="#ff9f0e" stroke="none" /><path d="M 88.70189139769569 82.29822771554957 l -3.6560933760936383 -5.728333358478895 a27.795647271642185,27.795647271642185 0 0,0 0.40552637959275734,-0.2539405816979242 l 3.5569478441286386 5.790418281499749" fill="#ff2904" stroke="none" /><path d="M 89.00827224532344 82.1063720568725 l -6.572269430681434 -10.699113602460626 a33.55650259219611,33.55650259219611 0 0,0 0.49477933940998586,-0.2980990158707056 l 6.387128025053799 10.810659227789952" fill="#ff7d0b" stroke="none" /><line stroke="#e1ed5e" stroke-width="0.3" x1="56.762969772571076" x2="54.21961505331055" y1="26.818313649435495" y2="22.513508569990535" /><path d="M 56.25429882871897 25.957352633546506 a86.0,86.0 0 0,1 42.265352541879196,-11.944610805530505" fill="none" id="id72" stroke="none" /><text fill="#e1ed5e" style="font-size:6.75px; font-family:Arial;" text-anchor="middle"><textPath startOffset="22.20632615414155" xlink:href="#id72">December</textPath></text><path d="M 89.63071344664047 81.73862282372117 l -5.2256615786854725 -9.20292602513204 a31.58307074336188,31.58307074336188 0 0,0 0.4750633924267362,-0.2643722635452587 l 5.066474097186691 9.291513686237483" fill="#ff6109" stroke="none" /><path d="M 90.26544431104013 81.39251694778311 l -18.848612113502664 -36.02888941891558 a61.66141969196017,61.66141969196017 0 0,0 0.9447102431559937,-0.4839172792894152 l 18.22564138275791 36.3479992235175" fill="#30ff34" stroke="none" /><path d="M 91.56875222667455 80.76684994638697 l -3.328275672575649 -7.592378631423994 a29.28985115883045,29.28985115883045 0 0,0 0.46349967961827243,-0.19844637375133958 l 3.1970922351670685 7.6485445331381205" fill="#ff4006" stroke="none" /><path d="M 91.90106846888425 80.62456947434976 l -4.610660142647747 -11.030285282452429 a32.95514033222894,32.95514033222894 0 0,0 0.5252674785321698,-0.21426979317420955 l 4.420108794527197 11.108015961810214" fill="#ff750a" stroke="none" /><path d="M 92.57280143429618 80.3572730644239 l -4.955510610253204 -13.105848844951371 a35.011436734148475,35.011436734148475 0 0,0 0.5655475304913653,-0.20829592833191404 l 4.729180753989269 13.189208041089607" fill="#ff920d" stroke="none" /><path d="M 96.40284397218896 79.31037775812273 l -1.426127840851113 -8.202603964829633 a29.325656275771266,29.325656275771266 0 0,0 0.49807643354178605,-0.08218687921795807 l 1.2847222011704413 8.225937106987217" fill="#ff4006" stroke="none" /><path d="M 97.11714578562143 79.19881850522333 l -1.9079749360667624 -13.766958014963262 a34.89854313740905,34.89854313740905 0 0,0 0.5957435100616343,-0.0773446055592251 l 1.6707166974972703 13.797760943686624" fill="#ff900d" stroke="none" /><path d="M 98.55514903715128 79.0497635885617 l -1.833313609904692 -26.582917222191224 a47.64606024976549,47.64606024976549 0 0,0 0.8186907981613933,-0.049385664692682664 l 1.3754607629036757 26.610536156264214" fill="#c7ff1d" stroke="none" /></svg>