<?xml version="1.0" encoding="utf-8" ?>
<svg baseProfile="full" height="200mm" version="1.1" viewBox="0,0,200,200" width="200mm" xmlns="http://www.w3.org/2000/svg" xmlns:ev="http://www.w3.org/2001/xml-events" xmlns:xlink="http://www.w3.org/1999/xlink"><defs /><rect fill="#1a1a1a" height="200" width="200" x="0" y="0" /><text alignment-baseline="middle" fill="#e1ed5e" style="dominant-baseline: central; font-size:9.0px; font-family:Arial;" text-anchor="middle" x="100.0" y="100.0">2020</text><line stroke="#e1ed5e" stroke-width="0.3" x1="100.0" x2="100.0" y1="15.0" y2="10.0" /><path d="M 100.0 14.0 a86.0,86.0 0 0,1 42.35913384403234,11.155469271406648" fill="none" id="id49" stroke="none" /><text fill="#e1ed5e" style="font-size:6.75px; font-family:Arial;" text-anchor="middle"><textPath startOffset="22.145653131862478" xlink:href="#id49">January</textPath></text><path d="M 100.0 79.0 l 0.0 -31.836801126943506 a52.836801126943506,52.836801126943506 0 0,0 0.9070139513290062,0.007785623905091926 l -0.5465210264801514 31.832109901232847" fill="#8cff24" stroke="none" /><path d="M 101.08105385017728 79.02784411241856 l 0.2276575669774991 -4.416495980155549 a25.422359631523904,25.422359631523904 0 0,0 0.43563712835826524,0.026206847859613854 l -0.30343904746822664 4.411937154471243" fill="#ff0100" stroke="none" /><path d="M 101.44090949804482 79.04949213459386 l 4.322728494134444 -62.8515235962184 a84.0,84.0 0 0,0 1.437724020899066,0.1112889320197854 l -5.401021509808744 62.76805689720356" fill="#4dd2ff" stroke="none" /><path d="M 102.15924093988457 79.11130261209362 l 1.3675167233913195 -13.229483787645131 a34.299975311116945,34.299975311116945 0 0,0 0.5851642728548688,0.06556887730926025 l -1.594416897846985 13.2040591498289" fill="#ff850c" stroke="none" /><line stroke="#e1ed5e" stroke-width="0.3" x1="143.13028292997686" x2="145.6673583964461" y1="26.7553504044142" y2="22.446841604673864" /><path d="M 143.63769802327073 25.89364864446614 a86.0,86.0 0 0,1 29.32050498858742,28.57503671076993" fill="none" id="id50" stroke="none" /><text fill="#e1ed5e" style="font-size:6.75px; font-family:Arial;" text-anchor="middle"><textPath startOffset="20.669276256404974" xlink:href="#id50">February</textPath></text><path d="M 117.81537515405839 88.88188828441811 l 19.20538108555602 -11.985578221230622 a43.63847936453928,43.63847936453928 0 0,0 0.3911504666122928,0.6389148911123979 l -19.408299516623714 11.654126213993669" fill="#fbff18" stroke="none" /><line stroke="#e1ed5e" stroke-width="0.3" x1="172.87174338648825" x2="177.1583165268699" y1="56.24261187166439" y2="53.66864786411523" /><path d="M 173.72905801456457 55.72781907015455 a86.0,86.0 0 0,1 12.242430191666344,42.057860355516425" fill="none" id="id51" stroke="none" /><text fill="#e1ed5e" style="font-size:6.75px; font-family:Arial;" text-anchor="middle"><textPath startOffset="22.145653131862474" xlink:href="#id51">March</textPath></text><path d="M 119.16976305983485 91.42560881287824 l 25.86619039277516 -11.56961795802893 a49.33577006417929,49.33577006417929 0 0,0 0.3391625524699491,0.7760702937626476 l -26.060986827262077 11.123885594490433" fill="#b5ff20" stroke="none" /><path d="M 120.592083275326 95.88100663000786 l 4.649459543302531 -0.9300221243693764 a25.74156252691278,25.74156252691278 0 0,0 0.08295366564985132,0.4340486315625888 l -4.664739501234539 0.8500709277734729" fill="#ff0601" stroke="none" /><path d="M 120.65975698304385 96.23510406497455 l 16.46403366298532 -3.000295379213274 a37.73517782452407,37.73517782452407 0 0,0 0.11066322920410987,0.6382760984405382 l -16.513111709681663 2.717226247852143" fill="#ffb510" stroke="none" /><line stroke="#e1ed5e" stroke-width="0.3" x1="184.99686870605535" x2="189.99668451229388" y1="99.2704041080226" y2="99.22748670261217" /><path d="M 185.99683186730306 99.26182062694052 a86.0,86.0 0 0,1 -10.086455211305974,41.156179273409016" fill="none" id="id52" stroke="none" /><text fill="#e1ed5e" style="font-size:6.75px; font-family:Arial;" text-anchor="middle"><textPath startOffset="21.40746469413373" xlink:href="#id52">April</textPath></text><path d="M 120.93736805541906 101.62068470465957 l 4.312959378188766 0.3338503329332947 a25.32586114464,25.32586114464 0 0,0 -0.03727288666861286,0.4331674419162539 l -4.306592868822412 -0.4078388222252059" fill="#ff0000" stroke="none" /><path d="M 120.7213421655516 103.40968896794604 l 19.470226806742968 3.203818411759306 a40.732059809394976,40.732059809394976 0 0,0 -0.11945196844184842,0.6889672108472572 l -19.412360020808887 -3.537578655527151" fill="#ffdd14" stroke="none" /><path d="M 119.31412917781788 108.2440532568976 l 27.527921449201784 11.750032755271933 a50.93074888911714,50.93074888911714 0 0,0 -0.35012735729002764,0.8011599129903406 l -27.32216020989479 -12.220854738038119" fill="#a2ff22" stroke="none" /><line stroke="#e1ed5e" stroke-width="0.3" x1="174.33088141563837" x2="178.70328620479359" y1="141.23008692659167" y2="143.65538615756765" /><path d="M 175.20536237346943 141.71514677278685 a86.0,86.0 0 0,1 -30.301960400862466,31.631185727798858" fill="none" id="id53" stroke="none" /><text fill="#e1ed5e" style="font-size:6.75px; font-family:Arial;" text-anchor="middle"><textPath startOffset="22.145653131862474" xlink:href="#id53">May</textPath></text><path d="M 116.57777611688842 112.89097897827486 l 6.822607704456408 5.30530101715908 a29.642580330640676,29.642580330640676 0 0,0 -0.31581144296992747,0.39901744144662016 l -6.730529830844919 -5.421638402520384" fill="#ff4106" stroke="none" /><path d="M 115.16444852881244 114.52719865689866 l 9.508780920235251 9.109197024258872 a34.16793017204286,34.16793017204286 0 0,0 -0.409385819459217,0.42006591568740753 l -9.351008299625228 -9.271085632014017" fill="#ff830c" stroke="none" /><path d="M 113.03279911837588 116.46651593811092 l 9.086593053660266 11.480613487724096 a35.64140223398495,35.64140223398495 0 0,0 -0.4830089826213233,0.37559070634005626 l -8.888174126403712 -11.634905245684944" fill="#ff980e" stroke="none" /><path d="M 111.8722381534696 117.32195027204791 l 4.090539455853028 5.968219313342258 a28.23547889306865,28.23547889306865 0 0,0 -0.4021588830607404,0.2705904443039686 l -3.987484284695284 -6.0375594317033485" fill="#ff2c04" stroke="none" /><path d="M 111.27062007382361 117.71928675628689 l 10.172888018160462 15.993469636336304 a39.95464907716426,39.95464907716426 0 0,0 -0.5818840433055117,0.3631386789804071 l -9.896839846065236 -16.165744112158258" fill="#ffd213" stroke="none" /><path d="M 110.96478420261333 117.91015095944535 l 4.50566440604943 7.359664193455971 a29.62934926749281,29.62934926749281 0 0,0 -0.43606958586194944,0.2618472570132314 l -4.378662063630044 -7.435925451005125" fill="#ff4106" stroke="none" /><line stroke="#e1ed5e" stroke-width="0.3" x1="143.1302829299769" x2="145.66735839644613" y1="173.24464959558577" y2="177.55315839532614" /><path d="M 143.63769802327073 174.10635135553383 a86.0,86.0 0 0,1 -40.68552437913181,11.842963189579606" fill="none" id="id54" stroke="none" /><text fill="#e1ed5e" style="font-size:6.75px; font-family:Arial;" text-anchor="middle"><textPath startOffset="21.407464694133747" xlink:href="#id54">June</textPath></text><line stroke="#e1ed5e" stroke-width="0.3" x1="101.45913802915013" x2="101.54496967792366" y1="184.9874750549273" y2="189.98673829345242" /><path d="M 101.47630435890484 185.9873277026323 a86.0,86.0 0 0,1 -42.54439059252881,-10.42667462771756" fill="none" id="id55" stroke="none" /><text fill="#e1ed5e" style="font-size:6.75px; font-family:Arial;" text-anchor="middle"><textPath startOffset="22.145653131862474" xlink:href="#id55">July</textPath></text><path d="M 98.55909050195518 120.95050786540614 l -0.31349225121850505 4.558108530625335 a25.56887631355167,25.56887631355167 0 0,0 -0.43763080551654915,-0.033875392117632776 l 0.3916920515102903 -4.552055371512648" fill="#ff0400" stroke="none" /><path d="M 95.70440661134978 120.55596938700252 l -1.200750663545797 5.7460266016999055 a26.87014683491381,26.87014683491381 0 0,0 -0.450698837439,-0.09822771391662882 l 1.2992119176039334 -5.724567429649558" fill="#ff1802" stroke="none" /><path d="M 95.00130118170881 120.39639698878247 l -3.380310956060721 13.79282223466998 a35.201001632169145,35.201001632169145 0 0,0 -0.5856687449259383,-0.14887470472036338 l 3.6165849942120376 -13.732762298114354" fill="#ff910d" stroke="none" /><path d="M 94.30408787586889 120.21278271476187 l -3.9624207009205286 14.061233197904835 a35.60886911629181,35.60886911629181 0 0,0 -0.5869358816675347,-0.1708484810582284 l 4.20321659496967 -13.991141022544092" fill="#ff970d" stroke="none" /><line stroke="#e1ed5e" stroke-width="0.3" x1="58.13341422392154" x2="55.67067388415222" y1="173.97424548756322" y2="178.32567169271397" /><path d="M 57.64086615596768 174.84453072859336 a86.0,86.0 0 0,1 -31.369924170532247,-30.572349798747897" fill="none" id="id56" stroke="none" /><text fill="#e1ed5e" style="font-size:6.75px; font-family:Arial;" text-anchor="middle"><textPath startOffset="22.145653131862474" xlink:href="#id56">August</textPath></text><path d="M 89.65649057296885 118.27599006163327 l -10.053762380627532 17.76403479366383 a41.411738538317124,41.411738538317124 0 0,0 -0.615669366221827,-0.3554568743199808 l 10.357224214709758 -17.588831022067676" fill="#ffe615" stroke="none" /><path d="M 86.13680546590413 115.77377054828092 l -6.329819040283353 7.202172118987806 a30.58842491310533,30.58842491310533 0 0,0 -0.39143712135898545,-0.3500254876402726 l 6.45252118846571 -7.092451101464151" fill="#ff4f07" stroke="none" /><path d="M 84.58840730492382 114.26474011684316 l -11.577538905088444 10.715997167930025 a36.77567755761764,36.77567755761764 0 0,0 -0.42485066326551046,-0.46698530181064546 l 11.759787269195835 -10.515674290561707" fill="#ffa70f" stroke="none" /><path d="M 82.98947788004972 112.3143062007846 l -12.969520003313384 9.388932301536478 a37.01126162671702,37.01126162671702 0 0,0 -0.3681473208656492,-0.5178453111496243 l 13.128782422708994 -9.16490976367735" fill="#ffab0f" stroke="none" /><line stroke="#e1ed5e" stroke-width="0.3" x1="26.387840678322732" x2="22.057713659400548" y1="142.50000000000003" y2="145.00000000000006" /><path d="M 25.521815274538298 143.00000000000003 a86.0,86.0 0 0,1 -11.493303480769221,-40.785679425670985" fill="none" id="id57" stroke="none" /><text fill="#e1ed5e" style="font-size:6.75px; font-family:Arial;" text-anchor="middle"><textPath startOffset="21.40746469413373" xlink:href="#id57">September</textPath></text><path d="M 80.9802524753101 108.90220220490708 l -6.280205693100952 2.939453370546506 a27.93407309344766,27.93407309344766 0 0,0 -0.19954975828054905,-0.4360522348405882 l 6.329739916236558 -2.8312121534912285" fill="#ff2803" stroke="none" /><path d="M 80.28708602549918 107.23885506374661 l -7.028100998193616 2.580816035879075 a28.486976362448374,28.486976362448374 0 0,0 -0.1646273622528068,-0.46049203206924744 l 7.071368530490366 -2.459789047428906" fill="#ff3004" stroke="none" /><path d="M 79.407916724674 104.11899336999214 l -14.420586531148023 2.884521178309789 a35.70624963511926,35.70624963511926 0 0,0 -0.11506544292892393,-0.6020710194321848 l 14.467978266359104 -2.6365475938442895" fill="#ff990e" stroke="none" /><line stroke="#e1ed5e" stroke-width="0.3" x1="15.003131293944662" x2="10.003315487706104" y1="100.72959589197737" y2="100.7725132973878" /><path d="M 14.003168132696942 100.73817937305945 a86.0,86.0 0 0,1 10.791469493833604,-42.45332614584628" fill="none" id="id58" stroke="none" /><text fill="#e1ed5e" style="font-size:6.75px; font-family:Arial;" text-anchor="middle"><textPath startOffset="22.145653131862435" xlink:href="#id58">October</textPath></text><path d="M 79.64726062577567 94.8264132398404 l -9.024179251731342 -2.2939110770116433 a30.31116744541817,30.31116744541817 0 0,0 0.13251828669422577,-0.5031935193663692 l 8.98347148423239 2.448485100750797" fill="#ff4b07" stroke="none" /><line stroke="#e1ed5e" stroke-width="0.3" x1="26.387840678322718" x2="22.05771365940052" y1="57.49999999999999" y2="54.99999999999999" /><path d="M 25.521815274538284 56.99999999999999 a86.0,86.0 0 0,1 29.574782752854787,-30.34633250058573" fill="none" id="id59" stroke="none" /><text fill="#e1ed5e" style="font-size:6.75px; font-family:Arial;" text-anchor="middle"><textPath startOffset="21.40746469413373" xlink:href="#id59">November</textPath></text><path d="M 82.18462484594161 88.88188828441811 l -13.078563821571713 -8.161991111058775 a36.41644999771111,36.41644999771111 0 0,0 0.3355208956355953,-0.527494576478649 l 12.936525234310228 8.385299362216095" fill="#ffa20f" stroke="none" /><path d="M 82.78059297857968 87.97951657250589 l -12.479046483029677 -8.71134361674518 a36.21887343841923,36.21887343841923 0 0,0 0.36026551473998114,-0.506758563768249 l 12.327665869759723 8.92427940722295" fill="#ffa00e" stroke="none" /><path d="M 83.2033758604659 87.39550010848427 l -9.111404718422348 -6.837367963399336 a32.39154496149704,32.39154496149704 0 0,0 0.33756312215536644,-0.441880962823167 l 8.992689618912674 6.992769839463388" fill="#ff6a09" stroke="none" /><path d="M 84.83555147118756 85.47280134310135 l -22.850691177423073 -21.890445244424743 a52.64404652197817,52.64404652197817 0 0,0 0.6307589021790904,-0.647214200462166 l 22.47154547409318 22.27948213695464" fill="#8eff24" stroke="none" /><path d="M 85.86807049272753 84.46653392183569 l -4.174943245885908 -4.588993969638511 a27.20395170514302,27.20395170514302 0 0,0 0.3481263443704453,-0.3112967237896164 l 4.09555187469207 4.659986223311528" fill="#ff1d02" stroke="none" /><path d="M 86.68645165197937 83.75963576809568 l -5.810884591548316 -7.088334365070723 a30.165744040029494,30.165744040029494 0 0,0 0.4032861619475773,-0.3248587849354418 l 5.688347659245492 7.187041443799564" fill="#ff4906" stroke="none" /><path d="M 87.25179093698888 83.31218511350988 l -12.742481275279117 -16.680317028484463 a41.99056467133716,41.99056467133716 0 0,0 0.576564467472849,-0.43266472520561017 l 12.454263818895516 16.896600780954074" fill="#ffed16" stroke="none" /><path d="M 87.83215693770416 82.88440491214696 l -8.179314263528182 -11.505229835240415 a35.116355598498565,35.116355598498565 0 0,0 0.4943127188097048,-0.3450686679895639 l 7.980606453544712 11.643943319035106" fill="#ff900d" stroke="none" /><path d="M 88.4268655584334 82.4767994020092 l -4.621651270535276 -6.99776907599684 a29.386204893002436,29.386204893002436 0 0,0 0.423321390170101,-0.2743918106843199 l 4.500844248108149 7.076074728385066" fill="#ff3e05" stroke="none" /><path d="M 88.72937992617638 82.28071324371311 l -16.210032949028992 -25.48486421078153 a51.203368554692354,51.203368554692354 0 0,0 0.7457060395631662,-0.46537572086764323 l 15.770162780676126 25.75937572849071" fill="#9fff22" stroke="none" /><line stroke="#e1ed5e" stroke-width="0.3" x1="56.869717070023135" x2="54.33264160355391" y1="26.7553504044142" y2="22.446841604673864" /><path d="M 56.362301976729285 25.89364864446614 a86.0,86.0 0 0,1 42.16139366436587,-11.88097634709845" fill="none" id="id60" stroke="none" /><text fill="#e1ed5e" style="font-size:6.75px; font-family:Arial;" text-anchor="middle"><textPath startOffset="22.145653131862474" xlink:href="#id60">December</textPath></text><path d="M 89.34428304082924 81.90426304109057 l -6.546228868742383 -11.116927761452109 a33.9011315494146,33.9011315494146 0 0,0 0.5040089817991751,-0.29098972131574136 l 6.354427419082808 11.227664380044024" fill="#ff7f0b" stroke="none" /><path d="M 89.97174638481275 81.54914285379989 l -4.113726653582596 -7.568793703902651 a29.614486932640403,29.614486932640403 0 0,0 0.4487457598432806,-0.23893184141110305 l 3.9831920779527534 7.63829601303633" fill="#ff4106" stroke="none" /><path d="M 90.93487009805054 81.0573650232925 l -13.271485802461672 -27.732301012092996 a51.744314187021246,51.744314187021246 0 0,0 0.8045286940495395,-0.3765600518504003 l 12.79346839454061 27.956037295513937" fill="#99ff23" stroke="none" /><path d="M 91.5904679813234 80.7573450057729 l -3.59328275651454 -8.2221341481016 a29.97302462482095,29.97302462482095 0 0,0 0.4732382693639797,-0.20199727670452852 l 3.451609411980129 8.282606074465534" fill="#ff4606" stroke="none" /><path d="M 95.70440661134978 79.44403061299748 l -5.595121948784614 -26.774683981879992 a48.35304538714679,48.35304538714679 0 0,0 0.8139510228398373,-0.16281300059585557 l 5.1346744404138 26.866786379138716" fill="#c1ff1e" stroke="none" /></svg>