<?xml version="1.0" encoding="utf-8" ?>
<svg baseProfile="full" height="200mm" version="1.1" viewBox="0,0,200,200" width="200mm" xmlns="http://www.w3.org/2000/svg" xmlns:ev="http://www.w3.org/2001/xml-events" xmlns:xlink="http://www.w3.org/1999/xlink"><defs /><rect fill="#1a1a1a" height="200" width="200" x="0" y="0" /><text alignment-baseline="middle" fill="#e1ed5e" style="dominant-baseline: central; font-size:9.0px; font-family:Arial;" text-anchor="middle" x="100.0" y="100.0">2025</text><line stroke="#e1ed5e" stroke-width="0.3" x1="100.0" x2="100.0" y1="15.0" y2="10.0" /><path d="M 100.0 14.0 a86.0,86.0 0 0,1 42.46469731375804,11.215312516191453" fill="none" id="id109" stroke="none" /><text fill="#e1ed5e" style="font-size:6.75px; font-family:Arial;" text-anchor="middle"><textPath startOffset="22.20632615414155" xlink:href="#id109">January</textPath></text><path d="M 101.44485096284872 79.0497635885617 l 4.334552888546152 -62.8507092343149 a84.0,84.0 0 0,0 1.4416392425506352,0.11189895124614191 l -5.415782320459128 62.76678502088029" fill="#4dd2ff" stroke="none" /><path d="M 101.80526077348638 79.07773832637324 l 0.9858002483011747 -11.425036790142757 a32.46748742252051,32.46748742252051 0 0,0 0.5563920433275554,0.05283612874404469 l -1.1823174187189744 11.406375116883535" fill="#ff5908" stroke="none" /><path d="M 102.16513564639614 79.11191278185805 l 1.2325861013192219 -11.891340864060998 a32.95505148639906,32.95505148639906 0 0,0 0.5637405610221838,0.06334282055122653 l -1.437093365851131 11.868362090039172" fill="#ff6008" stroke="none" /><path d="M 102.88285421437855 79.19881850522331 l 0.77827739334874 -5.615646199375582 a26.66932076509692,26.66932076509692 0 0,0 0.4541798274522302,0.06693430038100073 l -0.874826201229626 5.601417414833612" fill="#ff0000" stroke="none" /><path d="M 103.95276090670814 79.375362276772 l 2.830542428179751 -14.769148329300709 a36.03794243939681,36.03794243939681 0 0,0 0.6082408254386893,0.12200738755039969 l -3.0843496630855656 14.7182369856731" fill="#ff8d0d" stroke="none" /><path d="M 105.01212808612495 79.60689891045804 l 2.8628881614895336 -11.648379028247662 a32.99503491495197,32.99503491495197 0 0,0 0.5503746403921393,0.14030275043851453 l -3.0629716905666977 11.59737328164028" fill="#ff6108" stroke="none" /><path d="M 108.76106565485865 80.91482961587045 l 7.273487526271524 -15.844619158714966 a38.43432181300852,38.43432181300852 0 0,0 0.598883215768549,0.2811836999505371 l -7.545148953339671 15.717070476124425" fill="#ffaf10" stroke="none" /><path d="M 109.08828744355905 81.06846463323043 l 6.851671379518242 -14.272508417937512 a36.831926516789,36.831926516789 0 0,0 0.5691913545742101,0.27929972571865236 l -7.096334001102884 14.152453532084028" fill="#ff990e" stroke="none" /><line stroke="#e1ed5e" stroke-width="0.3" x1="143.23703022742887" x2="145.7803849466894" y1="26.81831364943548" y2="22.513508569990506" /><path d="M 143.74570117128098 25.957352633546492 a86.0,86.0 0 0,1 28.547481713284135,27.462654790039103" fill="none" id="id110" stroke="none" /><text fill="#e1ed5e" style="font-size:6.75px; font-family:Arial;" text-anchor="middle"><textPath startOffset="19.985693538727396" xlink:href="#id110">February</textPath></text><path d="M 110.99172775467656 82.1063720568725 l 7.925621810957903 -12.902259869280236 a36.14211975995339,36.14211975995339 0 0,0 0.5272977755770331,0.3301938186919472 l -8.1465387389072 12.763921709265345" fill="#ff8f0d" stroke="none" /><path d="M 112.19680574252982 82.90503203632743 l 5.612899381024069 -7.867005273958063 a30.664078406241558,30.664078406241558 0 0,0 0.4270406356952378,0.31026318301903255 l -5.7474853330730955 7.769222856122356" fill="#ff3e05" stroke="none" /><path d="M 113.6212207817346 84.01681056812373 l 11.796218131061844 -13.841724760920064 a39.186371450970086,39.186371450970086 0 0,0 0.5096210024662537,0.441938311449986 l -12.032732932174861 13.636621456050406" fill="#ffba11" stroke="none" /><path d="M 114.68862486808459 84.99185889309783 l 15.722173085146228 -16.064171717102585 a43.47764087879008,43.47764087879008 0 0,0 0.5303530993489414,0.5280755945946771 l -15.99636198466249 15.79116027185779" fill="#fff417" stroke="none" /><path d="M 116.15771136456269 86.58626213691792 l 11.38863351971466 -9.45456576153517 a35.80168190394461,35.80168190394461 0 0,0 0.38955896672629,0.4775532312357178 l -11.549690978517358 9.25712836069135" fill="#ff8a0c" stroke="none" /><path d="M 116.38621287248628 86.86637796730983 l 6.905711125079356 -5.534957985076779 a29.85011898448885,29.85011898448885 0 0,0 0.31789796688883704,0.40369813490484 l -6.999963172562157 5.4152674562189" fill="#ff3204" stroke="none" /><path d="M 116.82858285166822 87.43820079747576 l 10.411744525948887 -7.771910756584338 a33.99257560616593,33.99257560616593 0 0,0 0.34597544304737804,0.47191011550160045 l -10.54398258150989 7.591538197411244" fill="#ff700a" stroke="none" /><path d="M 117.04232023915458 87.72973835380427 l 11.458283155701434 -8.249823402193533 a35.11920107667609,35.11920107667609 0 0,0 0.3489968603462947,0.49363130892161616 l -11.598592635851611 8.051365592940124" fill="#ff800b" stroke="none" /><path d="M 117.2510076193507 88.02491185347247 l 11.859419536041663 -8.232423139819753 a35.43671093029456,35.43671093029456 0 0,0 0.3435260648846358,0.5040821113282279 l -11.999370066595034 8.02706300522112" fill="#ff850c" stroke="none" /><line stroke="#e1ed5e" stroke-width="0.3" x1="172.23445277983987" x2="176.4835382374775" y1="55.19839476539836" y2="52.563006222186495" /><path d="M 173.08426987136738 54.67131705675599 a86.0,86.0 0 0,1 12.851231095245387,41.99856678651699" fill="none" id="id111" stroke="none" /><text fill="#e1ed5e" style="font-size:6.75px; font-family:Arial;" text-anchor="middle"><textPath startOffset="22.20632615414155" xlink:href="#id111">March</textPath></text><path d="M 117.84615892207809 88.93136811851018 l 9.969923166003273 -6.183594458228532 a32.73184590590259,32.73184590590259 0 0,0 0.2928474637451827,0.4813642313410748 l -10.074886428034679 6.011062453680376" fill="#ff5d08" stroke="none" /><path d="M 118.21658344932153 89.55222093294921 l 13.0551743237629 -7.4875498688305955 a36.049949490349235,36.049949490349235 0 0,0 0.3040939563813865,0.5409492166869913 l -13.18212592143672 7.26171714220881" fill="#ff8e0d" stroke="none" /><path d="M 118.56541770881063 90.18545643968196 l 11.34505517420281 -5.9975239958421795 a33.832792797610686,33.832792797610686 0 0,0 0.2677471910862501,0.5172023509593701 l -11.446611798449176 5.801348922622465" fill="#ff6d0a" stroke="none" /><path d="M 119.04729006885535 91.15688171328212 l 13.059778731308207 -6.063286047612608 a35.39865473597808,35.39865473597808 0 0,0 0.2518322381033128,0.5548789550325078 l -13.162213286374866 5.837585083738038" fill="#ff840c" stroke="none" /><path d="M 119.34039704204932 91.81776055985345 l 7.246310015140267 -3.0656580354840055 a28.868117184310982,28.868117184310982 0 0,0 0.18967495770775267,0.45931295497201374 l -7.298006659734217 2.940470510058689" fill="#ff2203" stroke="none" /><path d="M 119.47837535516314 92.15188598940014 l 19.672276741509116 -7.926239632429666 a42.20904870344776,42.20904870344776 0 0,0 0.2657289758072973,0.6762512589846335 l -19.805799267198115 7.5864393685492475" fill="#ffe315" stroke="none" /><line stroke="#e1ed5e" stroke-width="0.3" x1="184.98032266829074" x2="189.97916517819016" y1="98.17113171792111" y2="98.06355123074" /><path d="M 185.9800911702706 98.14961562048488 a86.0,86.0 0 0,1 -9.607161424134198,41.387399972396054" fill="none" id="id112" stroke="none" /><text fill="#e1ed5e" style="font-size:6.75px; font-family:Arial;" text-anchor="middle"><textPath startOffset="21.466115282336823" xlink:href="#id112">April</textPath></text><line stroke="#e1ed5e" stroke-width="0.3" x1="174.80103733775053" x2="179.2010983576182" y1="140.37084112569926" y2="142.7455964860345" /><path d="M 175.68104954172406 140.8457921977663 a86.0,86.0 0 0,1 -30.038265399797805,32.042727171017184" fill="none" id="id113" stroke="none" /><text fill="#e1ed5e" style="font-size:6.75px; font-family:Arial;" text-anchor="middle"><textPath startOffset="22.206326154141568" xlink:href="#id113">May</textPath></text><line stroke="#e1ed5e" stroke-width="0.3" x1="143.8653032363475" x2="146.44561519142675" y1="172.8068346515853" y2="177.08958963109032" /><path d="M 144.38136562736335 173.6633856474863 a86.0,86.0 0 0,1 -40.68145358897372,12.25698825130547" fill="none" id="id114" stroke="none" /><text fill="#e1ed5e" style="font-size:6.75px; font-family:Arial;" text-anchor="middle"><textPath startOffset="21.466115282336833" xlink:href="#id114">June</textPath></text><line stroke="#e1ed5e" stroke-width="0.3" x1="102.19456741930631" x2="102.32365962044197" y1="184.97166512339345" y2="189.96999836594603" /><path d="M 102.22038585953345 185.97133177190398 a86.0,86.0 0 0,1 -42.740103519485714,-10.115201625700543" fill="none" id="id115" stroke="none" /><text fill="#e1ed5e" style="font-size:6.75px; font-family:Arial;" text-anchor="middle"><textPath startOffset="22.20632615414155" xlink:href="#id115">July</textPath></text><line stroke="#e1ed5e" stroke-width="0.3" x1="58.666819895761336" x2="56.23545636021788" y1="174.27360380694188" y2="178.64263932499728" /><path d="M 58.180547188652646 175.14741091055294 a86.0,86.0 0 0,1 -31.652253787137756,-30.449443065178592" fill="none" id="id116" stroke="none" /><text fill="#e1ed5e" style="font-size:6.75px; font-family:Arial;" text-anchor="middle"><textPath startOffset="22.20632615414155" xlink:href="#id116">August</textPath></text><line stroke="#e1ed5e" stroke-width="0.3" x1="26.63291911575756" x2="22.317208475507996" y1="142.92168965132927" y2="145.44649492493687" /><path d="M 25.769776987707644 143.4266507060508 a86.0,86.0 0 0,1 -11.730757126820373,-40.83630448921669" fill="none" id="id117" stroke="none" /><text fill="#e1ed5e" style="font-size:6.75px; font-family:Arial;" text-anchor="middle"><textPath startOffset="21.46611528233685" xlink:href="#id117">September</textPath></text><line stroke="#e1ed5e" stroke-width="0.3" x1="15.007084014347285" x2="10.007500721073583" y1="101.09737516637583" y2="101.16192664675087" /><path d="M 14.007167355692545 101.11028546245083 a86.0,86.0 0 0,1 10.666146001902534,-42.60595125391555" fill="none" id="id118" stroke="none" /><text fill="#e1ed5e" style="font-size:6.75px; font-family:Arial;" text-anchor="middle"><textPath startOffset="22.20632615414155" xlink:href="#id118">October</textPath></text><line stroke="#e1ed5e" stroke-width="0.3" x1="26.266209847984243" x2="21.928928074336255" y1="57.711370442889674" y2="55.22380399835377" /><path d="M 25.398753493254645 57.213857153982495 a86.0,86.0 0 0,1 29.58750427330803,-30.492523968695096" fill="none" id="id119" stroke="none" /><text fill="#e1ed5e" style="font-size:6.75px; font-family:Arial;" text-anchor="middle"><textPath startOffset="21.46611528233685" xlink:href="#id119">November</textPath></text><line stroke="#e1ed5e" stroke-width="0.3" x1="56.762969772571076" x2="54.21961505331055" y1="26.818313649435495" y2="22.513508569990535" /><path d="M 56.25429882871897 25.957352633546506 a86.0,86.0 0 0,1 42.265352541879196,-11.944610805530505" fill="none" id="id120" stroke="none" /><text fill="#e1ed5e" style="font-size:6.75px; font-family:Arial;" text-anchor="middle"><textPath startOffset="22.20632615414155" xlink:href="#id120">December</textPath></text></svg>