<?xml version="1.0" encoding="utf-8" ?>
<svg baseProfile="full" height="200mm" version="1.1" viewBox="0,0,200,200" width="200mm" xmlns="http://www.w3.org/2000/svg" xmlns:ev="http://www.w3.org/2001/xml-events" xmlns:xlink="http://www.w3.org/1999/xlink"><defs /><rect fill="#1a1a1a" height="200" width="200" x="0" y="0" /><text alignment-baseline="middle" fill="#e1ed5e" style="dominant-baseline: central; font-size:9.0px; font-family:Arial;" text-anchor="middle" x="100.0" y="100.0">2019</text><line stroke="#e1ed5e" stroke-width="0.3" x1="100.0" x2="100.0" y1="15.0" y2="10.0" /><path d="M 100.0 14.0 a86.0,86.0 0 0,1 42.46469731375804,11.215312516191453" fill="none" id="id37" stroke="none" /><text fill="#e1ed5e" style="font-size:6.75px; font-family:Arial;" text-anchor="middle"><textPath startOffset="22.20632615414155" xlink:href="#id37">January</textPath></text><path d="M 100.0 79.0 l 0.0 -25.02266716267286 a46.02266716267286,46.02266716267286 0 0,0 0.7922045611125257,0.0068187547654014625 l -0.4307240818399973 25.018959784516017" fill="#c6ff1e" stroke="none" /><path d="M 101.08401301168833 79.027996857942 l 0.3247391506130235 -6.282609538421003 a27.29099659260752,27.29099659260752 0 0,0 0.46893463312388717,0.028287417674967955 l -0.4328358325765226 6.2760888513657305" fill="#ff4806" stroke="none" /><path d="M 101.80526077348638 79.07773832637324 l 4.622892560526164 -53.57750484634945 a74.77657632451853,74.77657632451853 0 0,0 1.2814386143529886,0.1216880370909351 l -5.544456301969397 53.48999126474334" fill="#41ffd3" stroke="none" /><path d="M 102.52436894288641 79.15227682838746 l 1.3630324666383253 -11.25672363323585 a32.33894547390368,32.33894547390368 0 0,0 0.5520493165705868,0.07167184521233472 l -1.5565965117167582 11.23159346485938" fill="#ff8d0d" stroke="none" /><path d="M 103.2404852339499 79.25152402106235 l 1.5054965631696613 -9.639531434995517 a30.756386943330117,30.756386943330117 0 0,0 0.5223764260655946,0.0861965861947577 l -1.6712021953741312 9.612188585861134" fill="#ff780b" stroke="none" /><path d="M 104.307194497241 79.44645832069477 l 1.9013358399524096 -9.073002265825478 a30.27008349972975,30.27008349972975 0 0,0 0.5090523918290382,0.11125913608047848 l -2.0572309559349757 9.038929631649129" fill="#ff710a" stroke="none" /><path d="M 106.40334571778207 80.00007090966166 l 3.8573450050036104 -12.0478621609961 a33.65030012047097,33.65030012047097 0 0,0 0.5501298127645587,0.18136914991405165 l -4.0641576400105865 11.979679286822812" fill="#ff9f0e" stroke="none" /><path d="M 107.08798089147638 80.2323363322302 l 2.3886927014925377 -6.6618229721166085 a28.077127816705325,28.077127816705325 0 0,0 0.45353609509375614,0.16704117137158592 l -2.50301112235887 6.619718532938697" fill="#ff5307" stroke="none" /><path d="M 107.4271985657038 80.35727306442388 l 2.215250576835204 -5.858677641335961 a27.263500524727256,27.263500524727256 0 0,0 0.43753612656540464,0.16975721957580925 l -2.315769868400276 5.819677717869605" fill="#ff4806" stroke="none" /><path d="M 107.76421540070413 80.48803036053334 l 6.316766896393602 -15.874439018119237 a38.08506242784499,38.08506242784499 0 0,0 0.6070326058253794,0.24762384159719117 l -6.589083371807369 15.763354290338466" fill="#ffd814" stroke="none" /><path d="M 108.76106565485865 80.91482961587045 l 12.040092210624751 -26.228226146549957 a49.85972396324874,49.85972396324874 0 0,0 0.7769137171125025,0.364771407459923 l -12.489784139036852 26.01708975645003" fill="#9bff22" stroke="none" /><path d="M 109.08828744355905 81.06846463323043 l 11.308818535179398 -23.557056198399366 a47.130906478654026,47.130906478654026 0 0,0 0.7283492078174962,0.35739779309016523 l -11.712639010007326 23.358903245174368" fill="#b9ff1f" stroke="none" /><path d="M 110.05341064243156 81.56283822128135 l 4.625828598201103 -8.48340461352419 a30.66263132157585,30.66263132157585 0 0,0 0.46121840953100574,0.2566675455534279 l -4.771171096804144 8.402521670410582" fill="#ff770a" stroke="none" /><line stroke="#e1ed5e" stroke-width="0.3" x1="143.23703022742887" x2="145.7803849466894" y1="26.81831364943548" y2="22.513508569990506" /><path d="M 143.74570117128098 25.957352633546492 a86.0,86.0 0 0,1 28.547481713284135,27.462654790039103" fill="none" id="id38" stroke="none" /><text fill="#e1ed5e" style="font-size:6.75px; font-family:Arial;" text-anchor="middle"><textPath startOffset="19.985693538727396" xlink:href="#id38">February</textPath></text><path d="M 110.99172775467656 82.1063720568725 l 8.374526384748997 -13.633039561487271 a36.999764368700376,36.999764368700376 0 0,0 0.5398104366337597,0.3380292458977557 l -8.60795597375502 13.486865974266571" fill="#ffca12" stroke="none" /><path d="M 111.60114157652 82.49532879139004 l 13.642238535567987 -20.58443115614316 a45.69472571792069,45.69472571792069 0 0,0 0.6519012054985571,0.4401666039769026 l -13.994544435473086 20.34655263986759" fill="#caff1d" stroke="none" /><path d="M 111.90073688211348 82.69761687909136 l 13.844086524363687 -20.127803124827132 a45.42922819750696,45.42922819750696 0 0,0 0.6404847534300074,0.44870050046185506 l -14.188502417377345 19.88651778160134" fill="#cdff1d" stroke="none" /><path d="M 112.48926042617603 83.11751280151076 l 14.82116325053387 -20.034661005180855 a45.920965504801174,45.920965504801174 0 0,0 0.6314216863161884,0.4755737233889761 l -15.163831090608442 19.776570692286032" fill="#c7ff1e" stroke="none" /><path d="M 112.77801427241765 83.33499621200491 l 12.027001167998137 -15.685537341710004 a40.76574913311427,40.76574913311427 0 0,0 0.5531862555940591,0.4317706469861539 l -12.295219978751627 15.476188305500626" fill="#fff917" stroke="none" /><path d="M 113.34407831869373 83.78471172551755 l 37.22461269764023 -45.23413392685215 a79.58155565194318,79.58155565194318 0 0,0 1.050258492666886,0.8795612837912078 l -37.997728727266235 44.586671485667125" fill="#47fbff" stroke="none" /><path d="M 113.89432698308785 84.25364557470407 l 8.339038407129161 -9.450580404840101 a33.60369118726427,33.60369118726427 0 0,0 0.4304297002662642,0.3864440347968926 l -8.500479094991416 9.305637361273911" fill="#ff9e0e" stroke="none" /><path d="M 114.94478906791727 85.2469230424477 l 5.514074054389897 -5.44333938099493 a28.748222782934555,28.748222782934555 0 0,0 0.34461690616614693,0.3551580144854837 l -5.606955224259153 5.347617170959332" fill="#ff5d08" stroke="none" /><path d="M 115.19652480421416 85.50635884689758 l 8.613629922995964 -8.215224384387435 a32.90313119041227,32.90313119041227 0 0,0 0.38736805903632454,0.413217236923109 l -8.75376530400275 8.065737730586271" fill="#ff950d" stroke="none" /><path d="M 115.68641384162765 86.03803664274999 l 16.66933785482059 -14.83683183858143 a43.31587783450381,43.31587783450381 0 0,0 0.4909300648038021,0.56121792991343 l -16.922259783202243 14.547698352465051" fill="#e6ff1a" stroke="none" /><path d="M 116.15771136456269 86.58626213691792 l 7.121197298053127 -5.911844299736211 a30.255341916003033,30.255341916003033 0 0,0 0.3292091071690727,0.40357143926628675 l -7.221904897298608 5.788388690861824" fill="#ff710a" stroke="none" /><path d="M 116.82858285166822 87.43820079747576 l 17.43504328085119 -13.014495320956943 a42.756787967537036,42.756787967537036 0 0,0 0.43517734083286574,0.5935814038338967 l -17.65648323419768 12.712451473451553" fill="#edff1a" stroke="none" /><path d="M 117.65298651832404 88.62581576622439 l 4.174561225914545 -2.689756117438882 a25.966059745936313,25.966059745936313 0 0,0 0.2388536274830308,0.37780907785544293 l -4.220242449643531 2.617499391869233" fill="#ff3605" stroke="none" /><line stroke="#e1ed5e" stroke-width="0.3" x1="172.23445277983987" x2="176.4835382374775" y1="55.19839476539836" y2="52.563006222186495" /><path d="M 173.08426987136738 54.67131705675599 a86.0,86.0 0 0,1 12.851231095245387,41.99856678651699" fill="none" id="id39" stroke="none" /><text fill="#e1ed5e" style="font-size:6.75px; font-family:Arial;" text-anchor="middle"><textPath startOffset="22.20632615414155" xlink:href="#id39">March</textPath></text><path d="M 118.03404312379186 89.2402003453031 l 25.328635659347764 -15.112032468296045 a50.49429283245857,50.49429283245857 0 0,0 0.4389164119536955,0.7502504248742007 l -25.585011745771787 14.673802631067948" fill="#94ff23" stroke="none" /><path d="M 118.21658344932153 89.55222093294921 l 9.781110631311513 -5.609772172186901 a32.275622776849076,32.275622776849076 0 0,0 0.27225618797365325,0.48431337924330004 l -9.8762244605776 5.440575283008807" fill="#ff8c0c" stroke="none" /><path d="M 119.196687751892 91.48605970444005 l 23.847708093676914 -10.576718521428035 a47.08793123271261,47.08793123271261 0 0,0 0.32223681773475205,0.7437670033113333 l -24.026235621254347 10.164652373530098" fill="#baff1f" stroke="none" /><path d="M 119.34039704204932 91.81776055985345 l 11.418055653138648 -4.830576388466938 a33.39784106782248,33.39784106782248 0 0,0 0.21943703677052503,0.5313841901294524 l -11.499514376795371 4.633317627884183" fill="#ff9b0e" stroke="none" /><path d="M 119.61058180528143 92.48833698450437 l 15.1998648942317 -5.822176215892856 a37.27678188991318,37.27678188991318 0 0,0 0.22436258030051143,0.6011801691484552 l -15.297832063033837 5.559672909715068" fill="#ffce13" stroke="none" /><path d="M 120.18372546131832 94.20196356495316 l 25.65821310247588 -7.370653882082415 a47.69588804032414,47.69588804032414 0 0,0 0.21988537866137903,0.7910446989447665 l -25.781285251703622 6.927897879718697" fill="#b3ff20" stroke="none" /><path d="M 120.6074358757038 95.95851677861258 l 11.24386186548749 -2.2051204888882716 a32.45805332596592,32.45805332596592 0 0,0 0.10280590096532416,0.5491932337907081 l -11.280153490362675 2.0112491776350008" fill="#ff8f0d" stroke="none" /><path d="M 120.94382443527127 98.46500227214037 l 9.609800968772008 -0.7043137082168383 a30.635576394746376,30.635576394746376 0 0,0 0.034019215988788785,0.5262622140851635 l -9.620500775765212 0.5387924298786396" fill="#ff760a" stroke="none" /><path d="M 120.98425023603335 99.18683210126433 l 21.44055430992907 -0.8308502948556472 a42.45664655367841,42.45664655367841 0 0,0 0.022013378098339743,0.730516849527121 l -21.451679382483054 0.4616632979035271" fill="#f0ff19" stroke="none" /><line stroke="#e1ed5e" stroke-width="0.3" x1="184.98032266829074" x2="189.97916517819016" y1="98.17113171792111" y2="98.06355123074" /><path d="M 185.9800911702706 98.14961562048488 a86.0,86.0 0 0,1 -9.607161424134198,41.387399972396054" fill="none" id="id40" stroke="none" /><text fill="#e1ed5e" style="font-size:6.75px; font-family:Arial;" text-anchor="middle"><textPath startOffset="21.466115282336823" xlink:href="#id40">April</textPath></text><path d="M 120.9764740272857 100.99374915477107 l 6.255016590630711 0.2963280407342403 a27.26203184731528,27.26203184731528 0 0,0 -0.026241197421649164,0.46855420780288254 l -6.248989042321533 -0.4039539648725462" fill="#ff4806" stroke="none" /><path d="M 120.92983693683757 101.71520430193887 l 16.384674104424484 1.3427273033509628 a37.43960042456514,37.43960042456514 0 0,0 -0.0581658132893533,0.6418549027689663 l -16.359133694858055 -1.6245635946684995" fill="#ffd013" stroke="none" /><path d="M 120.81339534386255 102.79330883721812 l 9.227273022870536 1.2383670637289357 a30.310001096837905,30.310001096837905 0 0,0 -0.07384952237178884,0.5165033874658193 l -9.204589449482146 -1.3970159231751642" fill="#ff720a" stroke="none" /><path d="M 120.5718875245553 104.21870165774334 l 52.20644804529098 10.706038940309707 a74.29289340331499,74.29289340331499 0 0,0 -0.2676877712049671,1.2505481492218813 l -52.014426235361576 -11.603100908947757" fill="#41ffce" stroke="none" /><path d="M 120.32669344350535 105.2749913415812 l 3.9457045079061333 1.0239519365749572 a25.076403026213967,25.076403026213967 0 0,0 -0.1120221717294291,0.4168761742759722 l -3.927494259834927 -1.0917190440264777" fill="#ff2904" stroke="none" /><path d="M 120.02730092923936 106.31721596034902 l 60.08190278771807 18.951647881047055 a84.0,84.0 0 0,0 -0.4468309959350121,1.375204400088819 l -59.746779540766816 -19.98305118111367" fill="#4dd2ff" stroke="none" /><path d="M 119.54520255179757 107.68017299344265 l 6.965642490799852 2.7371084642403702 a28.484112375870144,28.484112375870144 0 0,0 -0.18324424367517667,0.45479718505074274 l -6.917495632867283 -2.8566050171339263" fill="#ff5908" stroke="none" /><path d="M 118.97047184881838 109.00673069616215 l 11.314451854720945 5.371833744689457 a33.52491191798899,33.52491191798899 0 0,0 -0.2519903889777673,0.5191748383819704 l -11.220308209128463 -5.565797539036703" fill="#ff9d0e" stroke="none" /><line stroke="#e1ed5e" stroke-width="0.3" x1="174.80103733775053" x2="179.2010983576182" y1="140.37084112569926" y2="142.7455964860345" /><path d="M 175.68104954172406 140.8457921977663 a86.0,86.0 0 0,1 -30.038265399797805,32.042727171017184" fill="none" id="id41" stroke="none" /><text fill="#e1ed5e" style="font-size:6.75px; font-family:Arial;" text-anchor="middle"><textPath startOffset="22.206326154141568" xlink:href="#id41">May</textPath></text><path d="M 118.48025628344425 109.97397251340804 l 16.676620203632897 9.000532729440035 a39.9504419692507,39.9504419692507 0 0,0 -0.33182378725122913,0.6023565585953533 l -16.51922000693016 -9.286259806433193" fill="#ffef16" stroke="none" /><path d="M 118.12598468904814 110.60418214915192 l 20.00252810125656 11.702009853148194 a44.17408390950408,44.17408390950408 0 0,0 -0.389613578026256,0.6530147673031421 l -19.798133647532076 -12.04458671433744" fill="#dcff1b" stroke="none" /><path d="M 117.35343817320211 111.8261652097733 l 21.66941666287028 14.767454085856881 a47.22291590740761,47.22291590740761 0 0,0 -0.4635470974434158,0.6677741668434419 l -21.412008658264728 -15.138269514887343" fill="#b8ff1f" stroke="none" /><path d="M 116.93607887273984 112.41649034213515 l 11.000204784762024 8.064672909108301 a34.63977472092581,34.63977472092581 0 0,0 -0.3566886194104937,0.4778426949214771 l -10.859754898656439 -8.252828483539092" fill="#ffac0f" stroke="none" /><path d="M 116.498646956653 112.99209946851258 l 24.87092747762341 19.58497351403395 a52.656503615254394,52.656503615254394 0 0,0 -0.5668901086298974,0.7072825738547383 l -24.53011945693866 -20.01018392146694" fill="#7cff26" stroke="none" /><path d="M 116.27256486870786 113.27417163493432 l 14.511364255285091 11.837490975508457 a39.72714300540288,39.72714300540288 0 0,0 -0.4368169634642268,0.5261741720944868 l -14.305451291927321 -12.085526404716715" fill="#ffec16" stroke="none" /><path d="M 115.56566222782051 114.09645910891815 l 0.9328747127602909 0.8448230502307702 a22.25856315531197,22.25856315531197 0 0,0 -0.2596340475117973,0.28178148022690136 l -0.9181942572527716 -0.8607557852590063" fill="#ff0000" stroke="none" /><path d="M 115.32070863581623 114.36230785411682 l 8.920640304620074 8.362601584320913 a33.22746616034977,33.22746616034977 0 0,0 -0.39476357720402006,0.41390803245443175 l -8.775370176037088 -8.514916733357852" fill="#ff990e" stroke="none" /><path d="M 114.81725581225074 114.88116024355365 l 6.241986915285955 6.2689075967586865 a29.846558828567176,29.846558828567176 0 0,0 -0.3671838045132852,0.35936663466279095 l -6.133153158396875 -6.375424334344049" fill="#ff6c09" stroke="none" /><path d="M 114.0293411484842 115.62618273729858 l 8.325606525660461 9.273240103857066 a33.46229136410729,33.46229136410729 0 0,0 -0.43191476016710145,0.3811145579794025 l -8.164749412586772 -9.415177803608758" fill="#ff9c0e" stroke="none" /><path d="M 113.20401910651253 116.32954008644616 l 7.75859102365813 9.595125704769561 a33.339455902215384,33.339455902215384 0 0,0 -0.44935634238106426,0.3569958551395178 l -7.592277188559715 -9.727255473914205" fill="#ff9b0e" stroke="none" /><path d="M 112.63410532772338 116.77436683061366 l 15.538548287594635 20.630610734213686 a46.827670861937264,46.827670861937264 0 0,0 -0.6480392834653158,0.4794039694764341 l -15.181124033710756 -20.895024652429893" fill="#bdff1f" stroke="none" /><path d="M 112.04921762599082 117.19931262002967 l 7.159174441817852 10.219159712124986 a33.47737968927356,33.47737968927356 0 0,0 -0.4748098600626595,0.32657855129855295 l -6.982207697132309 -10.340879052788633" fill="#ff9c0e" stroke="none" /><path d="M 111.45004920935366 117.60387380957326 l 21.71684467427365 33.38855459902399 a60.82984962083756,60.82984962083756 0 0,0 -0.8826648646770395,0.5633584784795431 l -21.13889800754968 -33.75742750632734" fill="#30ff37" stroke="none" /><line stroke="#e1ed5e" stroke-width="0.3" x1="143.8653032363475" x2="146.44561519142675" y1="172.8068346515853" y2="177.08958963109032" /><path d="M 144.38136562736335 173.6633856474863 a86.0,86.0 0 0,1 -40.68145358897372,12.25698825130547" fill="none" id="id42" stroke="none" /><text fill="#e1ed5e" style="font-size:6.75px; font-family:Arial;" text-anchor="middle"><textPath startOffset="21.466115282336833" xlink:href="#id42">June</textPath></text><path d="M 110.5260780823613 118.17145234162733 l 6.2658440339379995 10.816895462097165 a33.5006411393806,33.5006411393806 0 0,0 -0.501474659575938,0.28475039939188895 l -6.078720607440863 -10.923149027283682" fill="#ff9d0e" stroke="none" /><path d="M 109.89434966115114 118.52300852407294 l 6.616315173178808 12.386267571676438 a35.04262264778198,35.04262264778198 0 0,0 -0.53449861111503,0.27962441137094546 l -6.402125659537282 -12.4983214019921" fill="#ffb110" stroke="none" /><path d="M 108.92500713936063 119.00905698771935 l 11.401656020313395 24.283983828839514 a47.82740447014746,47.82740447014746 0 0,0 -0.7482301451342774,0.34347576126000595 l -10.981957879411697 -24.476646660433595" fill="#b2ff20" stroke="none" /><path d="M 108.2653958097858 119.30500536409082 l 6.931414500495983 16.189302628966242 a38.61073611720814,38.61073611720814 0 0,0 -0.6132277364238617,0.2563292435594162 l -6.65171530457466 -16.306216915545633" fill="#ffdf14" stroke="none" /><path d="M 105.88484417918355 120.15858648285463 l 5.649890657188272 19.353751087323353 a41.161571009925126,41.161571009925126 0 0,0 -0.6818489345810466,0.19269731971752252 l -5.3159105545026195 -19.448137200379396" fill="#fffe18" stroke="none" /><path d="M 105.18746579009965 120.34920634021253 l 3.0081537421682882 11.80027853278412 a33.17766654116489,33.17766654116489 0 0,0 -0.5546148028171906,0.13631082482135318 l -2.8045856546078864 -11.850310615919504" fill="#ff980e" stroke="none" /><path d="M 103.41894727170886 120.7198165907248 l 4.3950162957114625 26.63507925785371 a47.99525171788028,47.99525171788028 0 0,0 -0.8162944109861212,0.12748839905357578 l -3.935886021116824 -26.70678596425439" fill="#b0ff20" stroke="none" /><path d="M 101.98527174616119 120.90594882070398 l 1.1817700202458412 12.444655805369981 a33.50064152333314,33.50064152333314 0 0,0 -0.5745450668539087,0.04957416592771589 l -0.9673806356503907 -12.46315422357636" fill="#ff9d0e" stroke="none" /><line stroke="#e1ed5e" stroke-width="0.3" x1="102.19456741930631" x2="102.32365962044197" y1="184.97166512339345" y2="189.96999836594603" /><path d="M 102.22038585953345 185.97133177190398 a86.0,86.0 0 0,1 -42.740103519485714,-10.115201625700543" fill="none" id="id43" stroke="none" /><text fill="#e1ed5e" style="font-size:6.75px; font-family:Arial;" text-anchor="middle"><textPath startOffset="22.20632615414155" xlink:href="#id43">July</textPath></text><path d="M 99.09653310690486 120.98055641714683 l -0.4025121948483086 9.347248778174393 a30.35591127512891,30.35591127512891 0 0,0 -0.5218498173572875,-0.026973674776350466 l 0.5633500806190851 -9.33893529663584" fill="#ff730a" stroke="none" /><path d="M 98.37488393609728 120.93702456842531 l -1.0888363406268096 14.027916972250477 a35.07011084380726,35.07011084380726 0 0,0 -0.6014618903729124,-0.05189666272102214 l 1.3301425487412637 -14.00709605725079" fill="#ffb110" stroke="none" /><path d="M 97.2962882734958 120.8252237178851 l -2.562136903725113 19.73474971198714 a40.9003741600053,40.9003741600053 0 0,0 -0.697393076021849,-0.09665232567644275 l 2.901458570933793 -19.68772282081809" fill="#fffb17" stroke="none" /><path d="M 96.22490169976321 120.6578951692458 l -5.058498490049574 27.680850460152946 a49.13925885966408,49.13925885966408 0 0,0 -0.8307632519583575,-0.1592177544710192 l 5.534229356579627 -27.58967550733346" fill="#a3ff22" stroke="none" /><path d="M 95.86986931433489 120.58985236759428 l -2.200300329971733 10.96911027918028 a32.187613769651335,32.187613769651335 0 0,0 -0.5422977422816994,-0.11364376455731795 l 2.388789533682819 -10.929610533896419" fill="#ff8b0c" stroke="none" /><path d="M 95.16358092515715 120.4354850818985 l -2.9043692934550833 12.271929799766983 a33.610932638118946,33.610932638118946 0 0,0 -0.5618574999680416,-0.13809090356708592 l 3.1151800781663357 -12.220117637885867" fill="#ff9e0e" stroke="none" /><path d="M 94.46302465271185 120.25689768951611 l -2.317290307568038 8.477753598867558 a29.788750790223865,29.788750790223865 0 0,0 -0.4934560924294255,-0.13945562072023732 l 2.4628775681020776 -8.4366091848088" fill="#ff6b09" stroke="none" /><path d="M 93.42475214034765 119.94407469862007 l -2.0936598592354985 6.350499557944102 a27.68672238406996,27.68672238406996 0 0,0 -0.45133347942055035,-0.15311682096508394 l 2.2026630715932747 -6.313519750080895" fill="#ff4e07" stroke="none" /><path d="M 92.06813273071674 119.44442032107085 l -4.641611457786505 11.378587297068414 a33.28888952680679,33.28888952680679 0 0,0 -0.5287045113726706,-0.22099852863298258 l 4.836787428656638 -11.297003725415458" fill="#ff9a0e" stroke="none" /><path d="M 90.7491055286396 118.85261126421891 l -9.158981259545666 18.66529920939509 a41.79135234391822,41.79135234391822 0 0,0 -0.6430815334566705,-0.3224544310288175 l 9.478916700685096 -18.50487693745697" fill="#f8ff18" stroke="none" /><line stroke="#e1ed5e" stroke-width="0.3" x1="58.666819895761336" x2="56.23545636021788" y1="174.27360380694188" y2="178.64263932499728" /><path d="M 58.180547188652646 175.14741091055294 a86.0,86.0 0 0,1 -31.652253787137756,-30.449443065178592" fill="none" id="id44" stroke="none" /><text fill="#e1ed5e" style="font-size:6.75px; font-family:Arial;" text-anchor="middle"><textPath startOffset="22.20632615414155" xlink:href="#id44">August</textPath></text><path d="M 89.7882731507175 118.34994917583269 l -9.69159000010559 17.415289946522762 a40.930359772257084,40.930359772257084 0 0,0 -0.6126909078460776,-0.3479018877254567 l 9.989929674872876 -17.24588489300267" fill="#fffb17" stroke="none" /><path d="M 89.4739219176387 118.17145234162733 l -3.8782424973769225 6.695114567737408 a28.737268506623643,28.737268506623643 0 0,0 -0.42590291705454775,-0.2516309505417059 l 3.9929132854598524 -6.6273650449019526" fill="#ff5c08" stroke="none" /><path d="M 89.1626897886671 117.98757091392108 l -0.764417252587562 1.2687658903004078 a22.481249682006144,22.481249682006144 0 0,0 -0.3297472625510982,-0.20255770094982947 l 0.786143715070969 -1.2554197225222001" fill="#ff0300" stroke="none" /><path d="M 88.8546689885994 117.79835938074946 l -5.26284179381642 8.404411633405726 a30.91623107084876,30.91623107084876 0 0,0 -0.4486065818766642,-0.28632194563948915 l 5.406730177740008 -8.312575258942433" fill="#ff7a0b" stroke="none" /><path d="M 88.24862548938628 117.40417183066458 l -10.680632257888837 15.81836736702968 a40.086556828997864,40.086556828997864 0 0,0 -0.568547855747156,-0.39105239947902465 l 10.951336998258881 -15.632174178185554" fill="#fff116" stroke="none" /><path d="M 87.95078237400918 117.19931262002967 l -7.096357595198358 10.129493593016758 a33.3678992383467,33.3678992383467 0 0,0 -0.4675838510922559,-0.3336086626330855 l 7.269668774139501 -10.005840668539452" fill="#ff9b0e" stroke="none" /><path d="M 87.36589467227662 116.77436683061367 l -5.458383321738879 7.247123699375594 a30.072747676480844,30.072747676480844 0 0,0 -0.410809874459362,-0.3149914939037263 l 5.582321924691728 -7.152092863644501" fill="#ff6f0a" stroke="none" /><path d="M 86.79598089348748 116.32954008644616 l -2.3409290155404374 2.89504990036999 a24.72307165945425,24.72307165945425 0 0,0 -0.3286165625849482,-0.2704290589057306 l 2.3904157066700744 -2.854325722607079" fill="#ff2403" stroke="none" /><path d="M 86.51685102203217 116.09983520530335 l -6.398477602706257 7.640235610889271 a30.96562671497554,30.96562671497554 0 0,0 -0.4057006166055981,-0.3457468669582073 l 6.5290436958889115 -7.528964353708112" fill="#ff7b0b" stroke="none" /><path d="M 85.97065885151581 115.62618273729859 l -18.85178216316908 20.997521543430018 a49.21853294723855,49.21853294723855 0 0,0 -0.6255451722951633,-0.5714206833587472 l 19.2104268849311 -20.669908093484693" fill="#a2ff22" stroke="none" /><path d="M 84.19399662182784 113.82643327865904 l -14.754016880085837 12.906199315788475 a40.60232116043191,40.60232116043191 0 0,0 -0.4556305290604119,-0.5300012408225132 l 14.973989918717027 -12.650320975804432" fill="#fff717" stroke="none" /><path d="M 83.28015986056508 112.70617746262583 l -13.744268931693144 10.444903700260504 a38.26270377937422,38.26270377937422 0 0,0 -0.3939942189558601,-0.5278196419064398 l 13.92202441734409 -10.206771178844756" fill="#ffda14" stroke="none" /><path d="M 82.6465618267979 111.8261652097733 l -16.242313101410172 11.068946465189045 a40.65538884717017,40.65538884717017 0 0,0 -0.3891241384095443,-0.5816877898658573 l 16.430440345230448 -10.787721761117368" fill="#fff817" stroke="none" /><path d="M 82.44556493220864 111.52570212397912 l -3.124714442727839 2.051591392733306 a24.738029907762822,24.738029907762822 0 0,0 -0.23064694978919772,-0.3579691880698252 l 3.1595662558940822 -1.9975006047420325" fill="#ff2403" stroke="none" /><path d="M 82.05923443525364 110.91462005526583 l -4.889849818994504 2.974836982793489 a26.723660221092484,26.723660221092484 0 0,0 -0.2357015687756545,-0.3950493867969036 l 4.940332263468391 -2.8902255021104746" fill="#ff4006" stroke="none" /><line stroke="#e1ed5e" stroke-width="0.3" x1="26.63291911575756" x2="22.317208475507996" y1="142.92168965132927" y2="145.44649492493687" /><path d="M 25.769776987707644 143.4266507060508 a86.0,86.0 0 0,1 -11.730757126820373,-40.83630448921669" fill="none" id="id45" stroke="none" /><text fill="#e1ed5e" style="font-size:6.75px; font-family:Arial;" text-anchor="middle"><textPath startOffset="21.46611528233685" xlink:href="#id45">September</textPath></text><path d="M 81.87401531095188 110.60418214915194 l -7.958439380001047 4.655898272909042 a30.220311604974576,30.220311604974576 0 0,0 -0.2588125103718013,-0.451261427204663 l 8.037403886525226 -4.5182169998460715" fill="#ff710a" stroke="none" /><path d="M 81.69416730710424 110.29060199501025 l -3.2476807985137097 1.825679883838976 a24.72565935201931,24.72565935201931 0 0,0 -0.20536848965989984,-0.3728034620429479 l 3.278625697625126 -1.7695059033982057" fill="#ff2403" stroke="none" /><path d="M 81.35079622478065 109.6543875284942 l -13.168605709358541 6.817171620861503 a35.8285537135902,35.8285537135902 0 0,0 -0.2788166622623383,-0.5501317259872042 l 13.284001041407146 -6.589485683171613" fill="#ffbb11" stroke="none" /><path d="M 81.02952815118164 109.00673069616217 l -10.724367838025714 5.091675830387792 a32.871698626861935,32.871698626861935 0 0,0 -0.23828128183808575,-0.5132366825812458 l 10.810423736703626 -4.906319080527719" fill="#ff940d" stroke="none" /><path d="M 80.73074385275274 108.34839909993369 l -11.288337634700117 4.890668691574832 a33.3022439744031,33.3022439744031 0 0,0 -0.22336135180424269,-0.5279602557885456 l 11.370849967696666 -4.695633910120128" fill="#ff9a0e" stroke="none" /><path d="M 80.32549172779594 107.34259656027581 l -11.38912941585457 4.250463661728993 a33.15642670322009,33.15642670322009 0 0,0 -0.1949530614098196,-0.5364270959916301 l 11.460606738269615 -4.053788768731247" fill="#ff980e" stroke="none" /><path d="M 80.0844068197444 106.66101706037122 l -13.357848771529488 4.467698137418711 a35.08518549576634,35.08518549576634 0 0,0 -0.18663271878139984,-0.5743964460917754 l 13.432773741327138 -4.237102791349131" fill="#ffb210" stroke="none" /><path d="M 79.67330655649465 105.27499134158121 l -18.644861722265055 4.83853827103157 a40.26245885764904,40.26245885764904 0 0,0 -0.16831373077915657,-0.6723296875612098 l 18.72538676733927 -4.516880744072968" fill="#fff316" stroke="none" /><path d="M 79.50377843672027 104.57218783832718 l -9.030096087869072 2.014385694671138 a30.25204761569265,30.25204761569265 0 0,0 -0.10900239349501784,-0.5092228936434069 l 9.063432520088531 -1.858648981611567" fill="#ff710a" stroke="none" /><path d="M 79.29508885075956 103.50808413554451 l -26.982819297089073 4.571765588661073 a48.3673816397738,48.3673816397738 0 0,0 -0.13201587912998808,-0.8220630053614465 l 27.05751693058035 -4.106623353606413" fill="#abff21" stroke="none" /><path d="M 79.18660465613746 102.79330883721812 l -16.78430464782194 2.2525755997397767 a37.93478607315251,37.93478607315251 0 0,0 -0.08128610096835942,-0.647930202825956 l 16.820592258037145 -1.963327642626412" fill="#ffd614" stroke="none" /><path d="M 79.10278846688536 102.07522291339032 l -19.00042164154997 1.886859894782565 a40.09388024523091,40.09388024523091 0 0,0 -0.06228947761044058,-0.687359194932767 l 19.030085715437487 -1.5595193113012318" fill="#fff116" stroke="none" /><path d="M 79.0095281055655 100.63252640178507 l -8.73563886164405 0.2632395424094607 a29.739604188849384,29.739604188849384 0 0,0 -0.011014894150169534,-0.5118188489628911 l 8.738875818479228 -0.1128308776564408" fill="#ff6a09" stroke="none" /><line stroke="#e1ed5e" stroke-width="0.3" x1="15.007084014347285" x2="10.007500721073583" y1="101.09737516637583" y2="101.16192664675087" /><path d="M 14.007167355692545 101.11028546245083 a86.0,86.0 0 0,1 10.666146001902534,-42.60595125391555" fill="none" id="id46" stroke="none" /><text fill="#e1ed5e" style="font-size:6.75px; font-family:Arial;" text-anchor="middle"><textPath startOffset="22.20632615414155" xlink:href="#id46">October</textPath></text><path d="M 79.00175016825051 100.2711162175752 l -12.249497696616318 0.1581578231192089 a33.250518671322546,33.250518671322546 0 0,0 -0.0024632343820193883,-0.57236892116642 l 12.25040522828784 0.052720576250886546" fill="#ff990e" stroke="none" /><path d="M 79.00486145842228 99.54816195383935 l -22.02747091473404 -0.47405495325805147 a43.03257141139369,43.03257141139369 0 0,0 0.022311989804120365,-0.740426318285823 l 22.016047230474275 0.8531514189688688" fill="#e9ff1a" stroke="none" /><path d="M 79.03285615573316 98.82574320788736 l -36.73284081977274 -2.0572085614801097 a57.790402304897256,57.790402304897256 0 0,0 0.06417323939844774,-0.9927316097458829 l 36.69198698936988 2.689199235479004" fill="#47ff2c" stroke="none" /><path d="M 79.16333360222342 97.38593545837743 l -16.209180190761185 -2.033523135445554 a37.33624004472746,37.33624004472746 0 0,0 0.08548932388036268,-0.6369947611569909 l 16.171774867822986 2.3122362386672046" fill="#ffce13" stroke="none" /><path d="M 79.3925641242962 95.95851677861259 l -33.98906354809473 -6.665857454019802 a55.636542790436415,55.636542790436415 0 0,0 0.1923983290617631,-0.938202581380956 l 33.869285923117964 7.24993569156416" fill="#5dff2a" stroke="none" /><path d="M 79.54389044137918 95.25157060432595 l -7.760945353273735 -1.8015302933384139 a28.96729465843439,28.96729465843439 0 0,0 0.11692745010549245,-0.4847397686594149 l 7.728785102907428 1.9348552936572254" fill="#ff6008" stroke="none" /><path d="M 79.62865764111835 94.90015583598534 l -11.203197197622607 -2.8046536570866185 a32.548926772000435,32.548926772000435 0 0,0 0.14074104498011408,-0.5423326581938682 l 11.153259820772186 2.9970827408293506" fill="#ff900d" stroke="none" /><path d="M 79.71946130924805 94.55025226153421 l -13.144516893435563 -3.53216954961317 a34.610824592544986,34.610824592544986 0 0,0 0.1595612239126429,-0.5740266183301477 l 13.08176889895656 3.75790747136226" fill="#ffab0f" stroke="none" /><path d="M 79.91906864156998 93.8553929516997 l -23.666000056342508 -7.241609871358416 a45.74915093888595,45.74915093888595 0 0,0 0.23690329937450358,-0.7510481986816083 l 23.5378412731998 7.647908236466439" fill="#c9ff1d" stroke="none" /><path d="M 80.2630227832202 92.82701384747504 l -9.089874239637854 -3.3035221823979812 a30.67155998285837,30.67155998285837 0 0,0 0.18460687834906647,-0.49465465321004093 l 9.031662772787161 3.4594999726373636" fill="#ff770a" stroke="none" /><path d="M 80.65960295795068 91.81776055985345 l -5.816029066964979 -2.4605566428287275 a27.315103570041437,27.315103570041437 0 0,0 0.18692543545830057,-0.43144967713754195 l 5.772812921663998 2.5603054645528687" fill="#ff4906" stroke="none" /><path d="M 80.803312248108 91.48605970444005 l -24.038677389197325 -10.661415485891899 a47.2968399391395,47.2968399391395 0 0,0 0.3364780143744121,-0.7413847028230499 l 23.851597057859564 11.07362219755702" fill="#b8ff1f" stroke="none" /><path d="M 81.26839172434947 90.50648371742162 l -9.744999032563907 -4.938940940251063 a31.925115274264137,31.925115274264137 0 0,0 0.2526501430408885,-0.48803965942961897 l 9.658539456362904 5.105953321941017" fill="#ff880c" stroke="none" /><path d="M 81.43458229118936 90.18545643968196 l -10.80332522014058 -5.711140338040089 a33.22002290394393,33.22002290394393 0 0,0 0.27160042268495405,-0.5032343342797798 l 10.703416698237154 5.896255655652341" fill="#ff990e" stroke="none" /><line stroke="#e1ed5e" stroke-width="0.3" x1="26.266209847984243" x2="21.928928074336255" y1="57.711370442889674" y2="55.22380399835377" /><path d="M 25.398753493254645 57.213857153982495 a86.0,86.0 0 0,1 29.58750427330803,-30.492523968695096" fill="none" id="id47" stroke="none" /><text fill="#e1ed5e" style="font-size:6.75px; font-family:Arial;" text-anchor="middle"><textPath startOffset="21.46611528233685" xlink:href="#id47">November</textPath></text><path d="M 81.96595687620814 89.24020034530311 l -22.586239497248027 -13.475814063169002 a47.30087031434797,47.30087031434797 0 0,0 0.423194583779926,-0.6956206242106415 l 22.350929115181884 13.862602460586718" fill="#b8ff1f" stroke="none" /><path d="M 82.54541684631803 88.32363383020206 l -17.371861878349392 -11.621029190833072 a41.90047618057166,41.90047618057166 0 0,0 0.40618627748543296,-0.5960282414557726 l 17.169251135195218 11.91833545555926" fill="#f7ff18" stroke="none" /><path d="M 82.95767976084542 87.72973835380427 l -10.116989570934397 -7.284108464409226 a33.466423468648635,33.466423468648635 0 0,0 0.3406202819381613,-0.46460568176688394 l 9.990106676482602 7.45717658984761" fill="#ff9c0e" stroke="none" /><path d="M 83.84228863543731 86.58626213691792 l -8.493880391798086 -7.051412322281948 a32.03940305673281,32.03940305673281 0 0,0 0.355926318254474,-0.42130449587344343 l 8.371243460056487 7.196575767784507" fill="#ff890c" stroke="none" /><path d="M 84.80347519578584 85.50635884689758 l -19.781557621583033 -18.86660281284414 a48.336033429040654,48.336033429040654 0 0,0 0.5794241411871539,-0.5971475103132989 l 19.453869216692762 19.20431451870756" fill="#acff21" stroke="none" /><path d="M 85.05521093208273 85.24692304244772 l -13.873959437014973 -13.695983954677901 a40.495300124561595,40.495300124561595 0 0,0 0.4939736263520392,-0.49185234661618205 l 13.636150010495621 13.932772151944194" fill="#fff617" stroke="none" /><path d="M 85.83668400450813 84.49514656593479 l -8.4744603262444 -9.277154116524866 a33.56511306446721,33.56511306446721 0 0,0 0.4299355530685997,-0.38600038456381247 l 8.313513785579827 9.421653509857958" fill="#ff9e0e" stroke="none" /><path d="M 86.65592168130627 83.78471172551755 l -16.399562708463606 -19.928213140105516 a46.80851285886702,46.80851285886702 0 0,0 0.6265578039465427,-0.5066328366168494 l 16.05410150595256 20.2075520739865" fill="#bdff1f" stroke="none" /><path d="M 87.22198572758235 83.33499621200491 l -6.223416417604484 -8.11653954695627 a31.227860290608888,31.227860290608888 0 0,0 0.42938879851471234,-0.32340674087792015 l 6.082781465331381 8.222462877340044" fill="#ff7e0b" stroke="none" /><path d="M 87.80319425747018 82.90503203632743 l -9.978387707017431 -13.985646880130265 a38.180411516819206,38.180411516819206 0 0,0 0.5382871870481692,-0.37710457419516347 l 9.7361693803856 14.15533629708937" fill="#ffd914" stroke="none" /><path d="M 88.39885842347998 82.49532879139004 l -6.819925868102254 -10.29041488725924 a33.345202606613505,33.345202606613505 0 0,0 0.481175996271792,-0.31297025275627616 l 6.6417828460461745 10.406284064175052" fill="#ff9b0e" stroke="none" /><line stroke="#e1ed5e" stroke-width="0.3" x1="56.762969772571076" x2="54.21961505331055" y1="26.818313649435495" y2="22.513508569990535" /><path d="M 56.25429882871897 25.957352633546506 a86.0,86.0 0 0,1 42.265352541879196,-11.944610805530505" fill="none" id="id48" stroke="none" /><text fill="#e1ed5e" style="font-size:6.75px; font-family:Arial;" text-anchor="middle"><textPath startOffset="22.20632615414155" xlink:href="#id48">December</textPath></text><path d="M 89.63071344664047 81.73862282372117 l -3.866961212537216 -6.810115321319177 a28.8314149238138,28.8314149238138 0 0,0 0.43367378344769064,-0.24133899095999856 l 3.7491633400174798 6.87566970983936" fill="#ff5e08" stroke="none" /><path d="M 90.26544431104013 81.39251694778311 l -5.7728309469862245 -11.034695104901786 a33.45351649939186,33.45351649939186 0 0,0 0.5125389565216945,-0.26254236065148634 l 5.582031502875766 11.132429990865777" fill="#ff9c0e" stroke="none" /><path d="M 91.56875222667455 80.76684994638697 l -10.666760445541986 -24.33274525321367 a47.56806861554621,47.56806861554621 0 0,0 0.7527448481662424,-0.3222860598342139 l 10.246331839585435 24.51275084101067" fill="#b5ff20" stroke="none" /><path d="M 93.25333710446033 80.11325718540243 l -3.546936566563554 -10.455097041468361 a32.040371966276595,32.040371966276595 0 0,0 0.5238100037031194,-0.1726919226767474 l 3.3664437406180254 10.514602688404343" fill="#ff890c" stroke="none" /><path d="M 93.94186890950719 79.89281104454417 l -7.153235885691323 -23.741887299576845 a45.79608832421256,45.79608832421256 0 0,0 0.7567471732620937,-0.22091525124902847 l 6.7434984947058085 23.861500879744575" fill="#c9ff1d" stroke="none" /><path d="M 96.75951476605007 79.25152402106235 l -1.4941101140426605 -9.566625234491356 a30.682596935228243,30.682596935228243 0 0,0 0.5225261154782139,-0.07700676660725132 l 1.3292150181357978 9.590926485259576" fill="#ff770b" stroke="none" /><path d="M 97.47563105711357 79.15227682838746 l -1.8321262946324077 -15.130776312853381 a36.24129517426549,36.24129517426549 0 0,0 0.6199561873585114,-0.06965930117618221 l 1.5714034037641782 15.160071567500163" fill="#ffc011" stroke="none" /><path d="M 97.83486435360386 79.11191278185805 l -1.2941417318304191 -12.48519713400216 a33.55208947932418,33.55208947932418 0 0,0 0.5749787589156575,-0.05460116134923064 l 1.0790378458245253 12.505623839866571" fill="#ff9d0e" stroke="none" /><path d="M 98.55514903715128 79.0497635885617 l -1.9035830369422142 -27.601818926786304 a48.66738217550827,48.66738217550827 0 0,0 0.8362399272642599,-0.05044427608476028 l 1.4281810608383314 27.630496472251373" fill="#a8ff21" stroke="none" /><path d="M 99.63851952072746 79.00311137660856 l -0.23123149377203378 -13.431270011377999 a34.43326029384728,34.43326029384728 0 0,0 0.5927119730445662,-0.005101659077842635 l 3.290199844194662e-15 13.433260293847283" fill="#ffa90f" stroke="none" /></svg>