<?xml version="1.0" encoding="utf-8" ?>
<svg baseProfile="full" height="200mm" version="1.1" viewBox="0,0,200,200" width="200mm" xmlns="http://www.w3.org/2000/svg" xmlns:ev="http://www.w3.org/2001/xml-events" xmlns:xlink="http://www.w3.org/1999/xlink"><defs /><rect fill="#1a1a1a" height="200" width="200" x="0" y="0" /><text alignment-baseline="middle" fill="#e1ed5e" style="dominant-baseline: central; font-size:9.0px; font-family:Arial;" text-anchor="middle" x="100.0" y="100.0">2025</text><line stroke="#e1ed5e" stroke-width="0.3" x1="100.0" x2="100.0" y1="15.0" y2="10.0" /><path d="M 100.0 14.0 a86.0,86.0 0 0,1 42.46469731375804,11.215312516191453" fill="none" id="id109" stroke="none" /><text fill="#e1ed5e" style="font-size:6.75px; font-family:Arial;" text-anchor="middle"><textPath startOffset="22.20632615414155" xlink:href="#id109">January</textPath></text><path d="M 101.44485096284872 79.0497635885617 l 1.8026662504435065 -26.13853268523365 a47.20062015578097,47.20062015578097 0 0,0 0.8100745986821467,0.06287737968570711 l -2.2523310384879944 26.103630043359477" fill="#c0ff1e" stroke="none" /><path d="M 101.80526077348638 79.07773832637324 l 0.4099774262732326 -4.751476971497675 a25.769131461883426,25.769131461883426 0 0,0 0.44160299570667083,0.04193552552507884 l -0.4917055490701476 4.743715901457418" fill="#ff2403" stroke="none" /><path d="M 102.16513564639614 79.11191278185805 l 0.512611432539046 -4.945404843209184 a25.971900999015023,25.971900999015023 0 0,0 0.44428436247596315,0.049920524780056735 l -0.5976624985247344 4.9358483649585265" fill="#ff2703" stroke="none" /><path d="M 102.88285421437855 79.19881850522331 l 0.32367222792002653 -2.3354509999856297 a23.357773331866444,23.357773331866444 0 0,0 0.3977840138853214,0.05862302344319923 l -0.3638252222340037 2.3295334923814615" fill="#ff0000" stroke="none" /><path d="M 103.95276090670814 79.375362276772 l 1.177174079294597 -6.1422356412761125 a27.2540225044307,27.2540225044307 0 0,0 0.4599876691766258,0.09226919909751227 l -1.2827281579383483 6.121062486101391" fill="#ff3905" stroke="none" /><path d="M 105.01212808612495 79.60689891045804 l 1.1906261153598316 -4.844361180153683 a25.988529421618843,25.988529421618843 0 0,0 0.4335024215495613,0.11050941958703754 l -1.2738374255944178 4.823148764397778" fill="#ff2703" stroke="none" /><path d="M 106.0581310904928 79.89281104454417 l 18.174393271478365 -60.321566866367476 a84.0,84.0 0 0,0 1.380858509157127,0.4290394604699177 l -19.21003715334621 59.99978727101504" fill="#4dd2ff" stroke="none" /><path d="M 108.76106565485865 80.91482961587045 l 3.024918791803986 -6.5895055252460395 a28.250635611052108,28.250635611052108 0 0,0 0.4402011198367498,0.20668032821594962 l -3.1378981229403333 6.536460214390087" fill="#ff4806" stroke="none" /><path d="M 109.08828744355905 81.06846463323043 l 2.8494926864602097 -5.935691614739159 a27.58422687302579,27.58422687302579 0 0,0 0.42627972369523137,0.20917360910473604 l -2.9512436771658725 5.885762845499592" fill="#ff3e05" stroke="none" /><line stroke="#e1ed5e" stroke-width="0.3" x1="143.23703022742887" x2="145.7803849466894" y1="26.81831364943548" y2="22.513508569990506" /><path d="M 143.74570117128098 25.957352633546492 a86.0,86.0 0 0,1 28.547481713284135,27.462654790039103" fill="none" id="id110" stroke="none" /><text fill="#e1ed5e" style="font-size:6.75px; font-family:Arial;" text-anchor="middle"><textPath startOffset="19.985693538727396" xlink:href="#id110">February</textPath></text><path d="M 110.99172775467656 82.1063720568725 l 3.296130262972713 -5.365828729939488 a27.29734806641086,27.29734806641086 0 0,0 0.39825641136077716,0.24938812825800524 l -3.3880058267057533 5.308296260358538" fill="#ff3a05" stroke="none" /><path d="M 112.19680574252982 82.90503203632743 l 2.3343086453147577 -3.2717526499444567 a25.019124563136828,25.019124563136828 0 0,0 0.34842667424844453,0.25314679673296375 l -2.390280635916991 3.2310866183948184" fill="#ff1902" stroke="none" /><path d="M 113.6212207817346 84.01681056812373 l 4.9058449289950445 -5.7565360755830906 a28.56340016506042,28.56340016506042 0 0,0 0.3714686531815257,0.32213395552612606 l -5.004207380823335 5.671237126637293" fill="#ff4c07" stroke="none" /><path d="M 114.68862486808459 84.99185889309783 l 6.538582302021574 -6.680813671064198 a30.348065566083072,30.348065566083072 0 0,0 0.3701946634383477,0.3686049299060668 l -6.652612765627245 6.567272890508012" fill="#ff6509" stroke="none" /><path d="M 116.15771136456269 86.58626213691792 l 4.736337475292678 -3.931991845330715 a27.155765797332535,27.155765797332535 0 0,0 0.29548254445287453,0.36222666124989217 l -4.803318511821961 3.849881014472722" fill="#ff3805" stroke="none" /><path d="M 116.38621287248628 86.86637796730983 l 2.871966890377065 -2.30189415468577 a24.680612791207277,24.680612791207277 0 0,0 0.26284373043780584,0.3337848454572761 l -2.911164701408835 2.2521169152754554" fill="#ff1402" stroke="none" /><path d="M 116.82858285166822 87.43820079747576 l 4.330066087038389 -3.232204470125309 a26.403389496863795,26.403389496863795 0 0,0 0.26873292818308686,0.36655141203359143 l -4.385061627735102 3.1571906144202244" fill="#ff2d04" stroke="none" /><path d="M 117.04232023915458 87.72973835380427 l 4.7653035650780415 -3.4309601478277063 a26.871933719255303,26.871933719255303 0 0,0 0.26703968803214717,0.37770870089355624 l -4.823655872914072 3.3484249466023566" fill="#ff3404" stroke="none" /><path d="M 117.2510076193507 88.02491185347247 l 4.932129310029776 -3.4237236769536366 a27.00398062513427,27.00398062513427 0 0,0 0.26177856118251813,0.38412773675751216 l -4.9903323368810275 3.338317916925718" fill="#ff3605" stroke="none" /><line stroke="#e1ed5e" stroke-width="0.3" x1="172.23445277983987" x2="176.4835382374775" y1="55.19839476539836" y2="52.563006222186495" /><path d="M 173.08426987136738 54.67131705675599 a86.0,86.0 0 0,1 12.851231095245387,41.99856678651699" fill="none" id="id111" stroke="none" /><text fill="#e1ed5e" style="font-size:6.75px; font-family:Arial;" text-anchor="middle"><textPath startOffset="22.20632615414155" xlink:href="#id111">March</textPath></text><path d="M 117.84615892207809 88.93136811851018 l 4.14632015642497 -2.5716509459910806 a25.879073623916,25.879073623916 0 0,0 0.23153662328197597,0.3805853302196125 l -4.18997257799317 2.4998978425643865" fill="#ff2503" stroke="none" /><path d="M 118.21658344932153 89.55222093294921 l 5.429423230546294 -3.1139436509634617 a27.259016031116346,27.259016031116346 0 0,0 0.22993935218092054,0.4090364502074556 l -5.482220224019648 3.0200236908212124" fill="#ff3905" stroke="none" /><path d="M 118.56541770881063 90.18545643968196 l 4.718213988343893 -2.494267430003851 a26.336938565524434,26.336938565524434 0 0,0 0.20842622614436657,0.4026131281755642 l -4.760449647648376 2.4126815795679417" fill="#ff2c04" stroke="none" /><path d="M 119.04729006885535 91.15688171328212 l 5.431338124723071 -2.5216167401483247 a26.988153706215847,26.988153706215847 0 0,0 0.19199845872122417,0.4230431534320843 l -5.473938900407642 2.4277515778741776" fill="#ff3505" stroke="none" /><path d="M 119.34039704204932 91.81776055985345 l 3.0136161307574842 -1.2749546304005412 a24.272215074401664,24.272215074401664 0 0,0 0.15947806150006438,0.3861887756087746 l -3.035115879143746 1.2228912843384636" fill="#ff0e01" stroke="none" /><path d="M 119.47837535516314 92.15188598940014 l 8.181362706407699 -3.296387204333122 a29.820479824515775,29.820479824515775 0 0,0 0.1877361799249335,0.4777681005449294 l -8.236892436214333 3.1550700988924083" fill="#ff5e08" stroke="none" /><path d="M 119.85752413597 93.16781622104841 l 2.880964650399565 -0.9912252815313696 a24.046717065235764,24.046717065235764 0 0,0 0.13129817402878532,0.3925648283990389 l -2.89760011820012 0.9414873502100166" fill="#ff0a01" stroke="none" /><path d="M 120.73433829027371 96.67025291283417 l 3.5919566962755383 -0.5768357388217082 a24.63797916122408,24.63797916122408 0 0,0 0.0636411984315118,0.4193159819565176 l -3.60135378814635 0.5149206444731085" fill="#ff1302" stroke="none" /><path d="M 120.91429891909075 98.10471618934814 l 7.746986631934965 -0.7020430568408974 a28.77873166583329,28.77873166583329 0 0,0 0.04046223368828475,0.4937417380767533 l -7.757923349442745 0.5685874015563753" fill="#ff4f07" stroke="none" /><line stroke="#e1ed5e" stroke-width="0.3" x1="184.98032266829074" x2="189.97916517819016" y1="98.17113171792111" y2="98.06355123074" /><path d="M 185.9800911702706 98.14961562048488 a86.0,86.0 0 0,1 -9.607161424134198,41.387399972396054" fill="none" id="id112" stroke="none" /><text fill="#e1ed5e" style="font-size:6.75px; font-family:Arial;" text-anchor="middle"><textPath startOffset="21.466115282336823" xlink:href="#id112">April</textPath></text><line stroke="#e1ed5e" stroke-width="0.3" x1="174.80103733775053" x2="179.2010983576182" y1="140.37084112569926" y2="142.7455964860345" /><path d="M 175.68104954172406 140.8457921977663 a86.0,86.0 0 0,1 -30.038265399797805,32.042727171017184" fill="none" id="id113" stroke="none" /><text fill="#e1ed5e" style="font-size:6.75px; font-family:Arial;" text-anchor="middle"><textPath startOffset="22.206326154141568" xlink:href="#id113">May</textPath></text><line stroke="#e1ed5e" stroke-width="0.3" x1="143.8653032363475" x2="146.44561519142675" y1="172.8068346515853" y2="177.08958963109032" /><path d="M 144.38136562736335 173.6633856474863 a86.0,86.0 0 0,1 -40.68145358897372,12.25698825130547" fill="none" id="id114" stroke="none" /><text fill="#e1ed5e" style="font-size:6.75px; font-family:Arial;" text-anchor="middle"><textPath startOffset="21.466115282336833" xlink:href="#id114">June</textPath></text><line stroke="#e1ed5e" stroke-width="0.3" x1="102.19456741930631" x2="102.32365962044197" y1="184.97166512339345" y2="189.96999836594603" /><path d="M 102.22038585953345 185.97133177190398 a86.0,86.0 0 0,1 -42.740103519485714,-10.115201625700543" fill="none" id="id115" stroke="none" /><text fill="#e1ed5e" style="font-size:6.75px; font-family:Arial;" text-anchor="middle"><textPath startOffset="22.20632615414155" xlink:href="#id115">July</textPath></text><line stroke="#e1ed5e" stroke-width="0.3" x1="58.666819895761336" x2="56.23545636021788" y1="174.27360380694188" y2="178.64263932499728" /><path d="M 58.180547188652646 175.14741091055294 a86.0,86.0 0 0,1 -31.652253787137756,-30.449443065178592" fill="none" id="id116" stroke="none" /><text fill="#e1ed5e" style="font-size:6.75px; font-family:Arial;" text-anchor="middle"><textPath startOffset="22.20632615414155" xlink:href="#id116">August</textPath></text><line stroke="#e1ed5e" stroke-width="0.3" x1="26.63291911575756" x2="22.317208475507996" y1="142.92168965132927" y2="145.44649492493687" /><path d="M 25.769776987707644 143.4266507060508 a86.0,86.0 0 0,1 -11.730757126820373,-40.83630448921669" fill="none" id="id117" stroke="none" /><text fill="#e1ed5e" style="font-size:6.75px; font-family:Arial;" text-anchor="middle"><textPath startOffset="21.46611528233685" xlink:href="#id117">September</textPath></text><line stroke="#e1ed5e" stroke-width="0.3" x1="15.007084014347285" x2="10.007500721073583" y1="101.09737516637583" y2="101.16192664675087" /><path d="M 14.007167355692545 101.11028546245083 a86.0,86.0 0 0,1 10.666146001902534,-42.60595125391555" fill="none" id="id118" stroke="none" /><text fill="#e1ed5e" style="font-size:6.75px; font-family:Arial;" text-anchor="middle"><textPath startOffset="22.20632615414155" xlink:href="#id118">October</textPath></text><line stroke="#e1ed5e" stroke-width="0.3" x1="26.266209847984243" x2="21.928928074336255" y1="57.711370442889674" y2="55.22380399835377" /><path d="M 25.398753493254645 57.213857153982495 a86.0,86.0 0 0,1 29.58750427330803,-30.492523968695096" fill="none" id="id119" stroke="none" /><text fill="#e1ed5e" style="font-size:6.75px; font-family:Arial;" text-anchor="middle"><textPath startOffset="21.46611528233685" xlink:href="#id119">November</textPath></text><line stroke="#e1ed5e" stroke-width="0.3" x1="56.762969772571076" x2="54.21961505331055" y1="26.818313649435495" y2="22.513508569990535" /><path d="M 56.25429882871897 25.957352633546506 a86.0,86.0 0 0,1 42.265352541879196,-11.944610805530505" fill="none" id="id120" stroke="none" /><text fill="#e1ed5e" style="font-size:6.75px; font-family:Arial;" text-anchor="middle"><textPath startOffset="22.20632615414155" xlink:href="#id120">December</textPath></text></svg>